<svg xmlns="http://www.w3.org/2000/svg" xmlns:xlink="http://www.w3.org/1999/xlink" xmlns:lucid="lucid" width="650.69" height="233.99"><g transform="translate(-639 -155.15752633822845)" lucid:page-tab-id="0_0"><path d="M989.2 162.66a6 6 0 0 1 6-6h253.3a6 6 0 0 1 6 6V306.4a6 6 0 0 1-6 6H995.2a6 6 0 0 1-6-6z" stroke="#000" stroke-width="3" fill="#fff"/><use xlink:href="#a" transform="matrix(1,0,0,1,1001.1915363628466,168.65752633822845) translate(0 19.375)"/><use xlink:href="#b" transform="matrix(1,0,0,1,1001.1915363628466,168.65752633822845) translate(0 34.963107638888886)"/><use xlink:href="#c" transform="matrix(1,0,0,1,1001.1915363628466,168.65752633822845) translate(8.477105034722221 48.40711805555556)"/><use xlink:href="#d" transform="matrix(1,0,0,1,1001.1915363628466,168.65752633822845) translate(22.22222222222222 48.40711805555556)"/><use xlink:href="#e" transform="matrix(1,0,0,1,1001.1915363628466,168.65752633822845) translate(56.65147569444444 48.40711805555556)"/><use xlink:href="#f" transform="matrix(1,0,0,1,1001.1915363628466,168.65752633822845) translate(67.12782118055556 48.40711805555556)"/><use xlink:href="#c" transform="matrix(1,0,0,1,1001.1915363628466,168.65752633822845) translate(8.477105034722221 61.85112847222223)"/><use xlink:href="#g" transform="matrix(1,0,0,1,1001.1915363628466,168.65752633822845) translate(22.22222222222222 61.85112847222223)"/><use xlink:href="#h" transform="matrix(1,0,0,1,1001.1915363628466,168.65752633822845) translate(63.254123263888886 61.85112847222223)"/><use xlink:href="#e" transform="matrix(1,0,0,1,1001.1915363628466,168.65752633822845) translate(94.62890625 61.85112847222223)"/><use xlink:href="#i" transform="matrix(1,0,0,1,1001.1915363628466,168.65752633822845) translate(105.10525173611111 61.85112847222223)"/><use xlink:href="#c" transform="matrix(1,0,0,1,1001.1915363628466,168.65752633822845) translate(8.477105034722221 75.2951388888889)"/><use xlink:href="#j" transform="matrix(1,0,0,1,1001.1915363628466,168.65752633822845) translate(22.22222222222222 75.2951388888889)"/><use xlink:href="#k" transform="matrix(1,0,0,1,1001.1915363628466,168.65752633822845) translate(93.86393229166666 75.2951388888889)"/><use xlink:href="#l" transform="matrix(1,0,0,1,1001.1915363628466,168.65752633822845) translate(134.2339409722222 75.2951388888889)"/><use xlink:href="#m" transform="matrix(1,0,0,1,1001.1915363628466,168.65752633822845) translate(144.71028645833331 75.2951388888889)"/><use xlink:href="#c" transform="matrix(1,0,0,1,1001.1915363628466,168.65752633822845) translate(8.477105034722221 88.73914930555557)"/><use xlink:href="#n" transform="matrix(1,0,0,1,1001.1915363628466,168.65752633822845) translate(22.22222222222222 88.73914930555557)"/><use xlink:href="#o" transform="matrix(1,0,0,1,1001.1915363628466,168.65752633822845) translate(66.61783854166666 88.73914930555557)"/><use xlink:href="#p" transform="matrix(1,0,0,1,1001.1915363628466,168.65752633822845) translate(122.68337673611111 88.73914930555557)"/><use xlink:href="#q" transform="matrix(1,0,0,1,1001.1915363628466,168.65752633822845) translate(153.28233506944446 88.73914930555557)"/><use xlink:href="#r" transform="matrix(1,0,0,1,1001.1915363628466,168.65752633822845) translate(160.92664930555557 88.73914930555557)"/><use xlink:href="#s" transform="matrix(1,0,0,1,1001.1915363628466,168.65752633822845) translate(22.22222222222222 102.18315972222224)"/><use xlink:href="#t" transform="matrix(1,0,0,1,1001.1915363628466,168.65752633822845) translate(8.477105034722221 115.62717013888891)"/><use xlink:href="#u" transform="matrix(1,0,0,1,1001.1915363628466,168.65752633822845) translate(22.22222222222222 115.62717013888891)"/><use xlink:href="#v" transform="matrix(1,0,0,1,1001.1915363628466,168.65752633822845) translate(56.369357638888886 115.62717013888891)"/><use xlink:href="#w" transform="matrix(1,0,0,1,1001.1915363628466,168.65752633822845) translate(86.44205729166666 115.62717013888891)"/><use xlink:href="#x" transform="matrix(1,0,0,1,1001.1915363628466,168.65752633822845) translate(96.91840277777777 115.62717013888891)"/><use xlink:href="#y" transform="matrix(1,0,0,1,1001.1915363628466,168.65752633822845) translate(130.74544270833331 115.62717013888891)"/><use xlink:href="#t" transform="matrix(1,0,0,1,1001.1915363628466,168.65752633822845) translate(8.477105034722221 129.0711805555556)"/><use xlink:href="#z" transform="matrix(1,0,0,1,1001.1915363628466,168.65752633822845) translate(22.22222222222222 129.0711805555556)"/><use xlink:href="#A" transform="matrix(1,0,0,1,1001.1915363628466,168.65752633822845) translate(56.15776909722222 129.0711805555556)"/><use xlink:href="#B" transform="matrix(1,0,0,1,1001.1915363628466,168.65752633822845) translate(85.73676215277777 129.0711805555556)"/><use xlink:href="#x" transform="matrix(1,0,0,1,1001.1915363628466,168.65752633822845) translate(96.21310763888889 129.0711805555556)"/><use xlink:href="#C" transform="matrix(1,0,0,1,1001.1915363628466,168.65752633822845) translate(130.04014756944446 129.0711805555556)"/><path d="M775.92 273.24a6 6 0 0 1 6-6h58.55a6 6 0 0 1 6 6v47.92c-11.78-9-19.12-9-23.56-9-7.05 0-16.43 9-23.5 9-4.36 0-11.77 0-23.48-9z" stroke="#1071e5" stroke-width="2" fill="#fff"/><path d="M779.84 278a6 6 0 0 1 6-6h58.55a6 6 0 0 1 6 6v47.92c-11.8-9-19.13-9-23.57-9-7.06 0-16.44 9-23.5 9-4.37 0-11.78 0-23.5-9z" stroke="#1071e5" stroke-width="2" fill="#fff"/><path d="M783.76 282.75a6 6 0 0 1 6-6h58.55a6 6 0 0 1 6 6v47.93c-11.77-9-19.1-9-23.56-9-7.05 0-16.43 9-23.5 9-4.36 0-11.77 0-23.48-9z" stroke="#1071e5" stroke-width="2" fill="#fff"/><g><use xlink:href="#D" transform="matrix(1,0,0,1,788.7594419341316,281.7514033101563) translate(4.103326040009087 13.069218783567353)"/><use xlink:href="#E" transform="matrix(1,0,0,1,788.7594419341316,281.7514033101563) translate(28.1986459990907 13.069218783567353)"/><use xlink:href="#F" transform="matrix(1,0,0,1,788.7594419341316,281.7514033101563) translate(11.348332007274381 26.62386188427206)"/></g><path d="M1100.14 339.9a6 6 0 0 1 6-6h151.9a6 6 0 0 1 6 6v42.25a6 6 0 0 1-6 6h-151.9a6 6 0 0 1-6-6z" stroke="#3a414a" stroke-width="2" fill="#fff"/><g><use xlink:href="#G" transform="matrix(1,0,0,1,1112.1398572485625,345.903404920939) translate(4.652777777777779 12.70138888888889)"/><use xlink:href="#H" transform="matrix(1,0,0,1,1112.1398572485625,345.903404920939) translate(15.555555555555557 12.70138888888889)"/><use xlink:href="#I" transform="matrix(1,0,0,1,1112.1398572485625,345.903404920939) translate(48.18901909722222 12.70138888888889)"/><use xlink:href="#J" transform="matrix(1,0,0,1,1112.1398572485625,345.903404920939) translate(76.89995659722223 12.70138888888889)"/><use xlink:href="#K" transform="matrix(1,0,0,1,1112.1398572485625,345.903404920939) translate(109.15907118055556 12.70138888888889)"/><use xlink:href="#G" transform="matrix(1,0,0,1,1112.1398572485625,345.903404920939) translate(4.652777777777779 29.506401909722225)"/><use xlink:href="#L" transform="matrix(1,0,0,1,1112.1398572485625,345.903404920939) translate(15.555555555555557 29.506401909722225)"/><use xlink:href="#I" transform="matrix(1,0,0,1,1112.1398572485625,345.903404920939) translate(49.09505208333333 29.506401909722225)"/><use xlink:href="#M" transform="matrix(1,0,0,1,1112.1398572485625,345.903404920939) translate(77.80598958333333 29.506401909722225)"/></g><path d="M775.92 199.53a6 6 0 0 1 6-6h120.66a6 6 0 0 1 6 6v21.63a6 6 0 0 1-6 6H781.92a6 6 0 0 1-6-6z" stroke="#000" stroke-width="2" fill="#fff"/><g><use xlink:href="#N" transform="matrix(1,0,0,1,780.9208075848622,198.5331191322358) translate(19.16984367992866 15.795839281373992)"/><use xlink:href="#O" transform="matrix(1,0,0,1,780.9208075848622,198.5331191322358) translate(62.83791316416935 15.795839281373992)"/><use xlink:href="#P" transform="matrix(1,0,0,1,780.9208075848622,198.5331191322358) translate(84.53159153093154 15.795839281373992)"/></g><path d="M774.42 299.06H685.1a6 6 0 0 1-6-6v-48.5" stroke="#1071e5" fill="none"/><path d="M774.92 299.54h-.5v-.95h.5z" stroke="#1071e5" stroke-width=".05" fill="#1071e5"/><path d="M679.1 229.78l4.63 14.27h-9.27z" stroke="#1071e5" fill="#1071e5"/><path d="M910.08 210.35h37.57a.04.04 0 0 0 .04-.05.04.04 0 0 1 .04-.04h23.57" stroke="#000" fill="none"/><path d="M910.1 210.82h-.52v-.95h.5z" stroke="#000" stroke-width=".05"/><path d="M986.07 210.26l-14.26 4.63v-9.28z" stroke="#000"/><path d="M1061.2 314.4v4.52m0 4.5v9.04m0 4.52V346m0 4.5v4.53l.07.94.22.9.36.88.5.8.6.72.7.6.82.5.87.36.9.22.95.08h5.24m5.24 0h10.48m5.24 0h5.24" stroke="#000" fill="none"/><path d="M1061.68 314.42h-.95v-.5h.95zM1099.14 361.5h-.5v-.95h.5z" stroke="#000" stroke-width=".05"/><path d="M1265.55 361.03h5.88m5.88 0h5.9l.93-.08.92-.22.87-.36.8-.5.7-.6.63-.7.5-.82.35-.87.22-.9.07-.95v-4.76m0-4.77v-9.52m0-4.76v-9.53m0-4.77v-9.53m0-4.76v-9.52m0-4.77v-9.52m0-4.76v-4.76l-.08-.93-.22-.92-.36-.87-.5-.8-.6-.72-.72-.6-.8-.5-.87-.36-.92-.22-.94-.07h-3.6m-3.6 0h-3.62" stroke="#000" fill="none"/><path d="M1265.56 361.5h-.5v-.95h.5z" stroke="#000" stroke-width=".05"/><path d="M1257.62 263.3l14.26-4.63v9.27z" stroke="#000"/><path d="M698.6 188c10.82 0 19.6 8.76 19.6 19.58 0 10.8-8.78 19.58-19.6 19.58H659.6c-10.8 0-19.58-8.77-19.58-19.58 0-10.82 8.77-19.58 19.58-19.58z" stroke="#000" stroke-width="2" fill="#fff"/><g><use xlink:href="#Q" transform="matrix(1,0,0,1,645,192.99597697594317) translate(7.8517212392563 18.964729104981558)"/></g><path d="M987.2 299.2H921.6a.12.12 0 0 1-.12-.12.12.12 0 0 0-.12-.12H855.8" stroke="#1071e5" fill="none"/><path d="M987.7 299.67h-.52v-.95h.5zM855.82 299.43h-.5v-.95h.5z" stroke="#1071e5" stroke-width=".05" fill="#1071e5"/><path d="M992.2 194.53h258M992.2 268.24h258" stroke="#3a414a" stroke-width="2" stroke-linecap="round" fill="none"/><path d="M719.7 207.58h54.72" stroke="#000" fill="none"/><path d="M719.7 208.05h-.56l.05-.42-.02-.53h.52zM774.92 208.05h-.5v-.95h.5z" stroke="#000" stroke-width=".05"/><defs><path d="M571 0L49-1490h339c138 427 271 775 384 1244 111-471 237-815 371-1244h337L970 0H571" id="R"/><path d="M440 22C227 22 68-92 68-313c0-250 202-322 422-343 195-21 271-24 271-105 0-95-63-149-175-149-116 0-187 57-211 129l-275-46c57-194 237-305 487-305 240 0 474 108 474 379V0H777v-155h-10C713-51 605 22 440 22zm85-211c140 0 238-93 238-211v-121c-37 26-156 42-222 51-111 16-185 59-185 149 0 87 70 132 169 132" id="S"/><path d="M513 14c-232 0-385-159-385-421v-711h300v659c0 139 76 222 202 222 127 0 217-86 217-234v-647h301V0H864l-4-232C797-74 683 14 513 14" id="T"/><path d="M428-1490V0H128v-1490h300" id="U"/><path d="M683-1118v229H474v562c0 71 29 104 102 104 23 0 73-7 95-13l43 225C647 9 580 16 520 16 296 16 174-96 174-301v-588H20v-229h154v-266h300v266h209" id="V"/><g id="a"><use transform="matrix(0.009765625,0,0,0.009765625,0,0)" xlink:href="#R"/><use transform="matrix(0.009765625,0,0,0.009765625,14.931640625,0)" xlink:href="#S"/><use transform="matrix(0.009765625,0,0,0.009765625,26.54296875,0)" xlink:href="#T"/><use transform="matrix(0.009765625,0,0,0.009765625,38.994140625,0)" xlink:href="#U"/><use transform="matrix(0.009765625,0,0,0.009765625,44.70703125,0)" xlink:href="#V"/></g><path d="M485-274c-177 0-320-143-320-320s143-320 320-320 320 143 320 320-143 320-320 320" id="W"/><use transform="matrix(0.005425347222222222,0,0,0.005425347222222222,0,0)" xlink:href="#W" id="c"/><path d="M49 0l509-1490h400L1480 0h-339l-115-346H497L386 0H49zm524-585h374c-75-213-124-402-192-666-66 268-110 453-182 666" id="X"/><path d="M572 22C302 22 117-98 78-306l279-48c29 105 101 156 224 156 114 0 185-48 185-115 0-118-228-130-337-155-215-49-322-150-322-317 0-215 187-347 470-347 265 0 424 116 466 298l-266 47c-24-76-87-130-196-130-98 0-174 46-174 113 0 56 38 95 144 117l201 40c216 44 320 143 320 302 0 220-207 367-500 367" id="Y"/><path d="M633 22C291 22 81-200 81-553c0-345 210-579 537-579 292 0 525 185 525 567v84H378c7 183 109 277 260 277 105 0 184-46 216-132l272 51C1071-99 893 22 633 22zM380-669h474c-15-146-94-237-233-237-143 0-229 99-241 237" id="Z"/><g id="d"><use transform="matrix(0.005425347222222222,0,0,0.005425347222222222,0,0)" xlink:href="#X"/><use transform="matrix(0.005425347222222222,0,0,0.005425347222222222,8.170572916666666,0)" xlink:href="#Y"/><use transform="matrix(0.005425347222222222,0,0,0.005425347222222222,14.393446180555552,0)" xlink:href="#Y"/><use transform="matrix(0.005425347222222222,0,0,0.005425347222222222,20.616319444444443,0)" xlink:href="#Z"/><use transform="matrix(0.005425347222222222,0,0,0.005425347222222222,27.235243055555554,0)" xlink:href="#V"/></g><path d="M226-283v-166h904v166H226zm0-434v-166h904v166H226" id="aa"/><use transform="matrix(0.005425347222222222,0,0,0.005425347222222222,0,0)" xlink:href="#aa" id="e"/><path d="M57 0l534-763-501-727h220c122 187 296 416 391 605 94-191 272-419 396-605h215L811-770 1340 0h-219C986-204 811-426 699-640 588-430 407-202 273 0H57" id="ab"/><path d="M180 0v-1490h510c348 0 508 194 508 460 0 198-88 351-276 417L1256 0h-220L726-579c-117 2-238 0-356 1V0H180zm190-747h312c235 0 327-108 327-283 0-177-92-293-329-293H370v576" id="ac"/><path d="M180 0v-1490h510c348 0 508 209 508 474 0 266-160 477-507 477H370V0H180zm190-706h312c236 0 327-133 327-310 0-176-91-307-329-307H370v617" id="ad"/><g id="f"><use transform="matrix(0.005425347222222222,0,0,0.005425347222222222,0,0)" xlink:href="#ab"/><use transform="matrix(0.005425347222222222,0,0,0.005425347222222222,7.579210069444444,0)" xlink:href="#ac"/><use transform="matrix(0.005425347222222222,0,0,0.005425347222222222,14.729817708333332,0)" xlink:href="#ad"/></g><path d="M135 0v-1490h581c339 0 533 210 533 503 0 295-197 500-540 500H440V0H135zm305-733h220c186 0 274-104 274-254s-88-251-275-251H440v505" id="ae"/><path d="M128 0v-1118h290v195h12c54-169 184-238 367-200v268c-27-8-86-15-130-15-138 0-239 95-239 234V0H128" id="af"/><path d="M128 0v-1118h300V0H128zm150-1264c-91 0-165-68-165-154 0-85 74-154 165-154 90 0 165 69 165 154 0 86-75 154-165 154" id="ag"/><path d="M443 0L31-1118h319c90 293 199 572 268 885 66-313 175-593 264-885h315L784 0H443" id="ah"/><g id="g"><use transform="matrix(0.005425347222222222,0,0,0.005425347222222222,0,0)" xlink:href="#ae"/><use transform="matrix(0.005425347222222222,0,0,0.005425347222222222,7.199435763888888,0)" xlink:href="#af"/><use transform="matrix(0.005425347222222222,0,0,0.005425347222222222,11.805555555555552,0)" xlink:href="#ag"/><use transform="matrix(0.005425347222222222,0,0,0.005425347222222222,14.816623263888886,0)" xlink:href="#ah"/><use transform="matrix(0.005425347222222222,0,0,0.005425347222222222,21.37044270833333,0)" xlink:href="#S"/><use transform="matrix(0.005425347222222222,0,0,0.005425347222222222,27.82118055555555,0)" xlink:href="#V"/><use transform="matrix(0.005425347222222222,0,0,0.005425347222222222,31.781684027777775,0)" xlink:href="#Z"/></g><g id="h"><use transform="matrix(0.005425347222222222,0,0,0.005425347222222222,0,0)" xlink:href="#R"/><use transform="matrix(0.005425347222222222,0,0,0.005425347222222222,7.6388888888888875,0)" xlink:href="#S"/><use transform="matrix(0.005425347222222222,0,0,0.005425347222222222,14.08962673611111,0)" xlink:href="#T"/><use transform="matrix(0.005425347222222222,0,0,0.005425347222222222,21.006944444444443,0)" xlink:href="#U"/><use transform="matrix(0.005425347222222222,0,0,0.005425347222222222,24.180772569444443,0)" xlink:href="#V"/></g><path d="M180 0v-1490h224l606 953c40 63 108 177 176 312-27-437-7-821-13-1265h190V0h-226C860-448 622-778 356-1262c27 476 11 792 15 1262H180" id="ai"/><path d="M613 24c-304 0-509-231-509-576 0-350 205-580 509-580 305 0 511 230 511 580 0 345-206 576-511 576zm0-161c226 0 329-195 329-415 0-222-103-419-329-419-223 0-326 196-326 419 0 220 103 415 326 415" id="aj"/><g id="i"><use transform="matrix(0.005425347222222222,0,0,0.005425347222222222,0,0)" xlink:href="#ai"/><use transform="matrix(0.005425347222222222,0,0,0.005425347222222222,8.37131076388889,0)" xlink:href="#aj"/></g><path d="M75-1237v-253h1217v253H837V0H531v-1237H75" id="ak"/><path d="M428-647V0H128v-1118h283l4 231c63-156 176-245 348-245 232 0 384 159 384 421V0H847v-659c0-139-76-222-202-222-128 0-217 86-217 234" id="al"/><path d="M750-1118v229H516V0H217v-889H20v-229h197v-86c0-238 156-356 363-356 94 0 178 20 215 31l-54 226c-25-7-61-15-100-15-123-3-131 84-125 200h234" id="am"/><path d="M754 19C571 19 479-89 437-179h-14V0H128v-1490h300v560h9c41-89 129-202 319-202 248 0 453 193 453 575 0 372-197 576-455 576zm-92-241c156 0 240-139 240-336 0-196-83-334-240-334-154 0-241 131-241 334 0 202 88 336 241 336" id="an"/><g id="j"><use transform="matrix(0.005425347222222222,0,0,0.005425347222222222,0,0)" xlink:href="#ak"/><use transform="matrix(0.005425347222222222,0,0,0.005425347222222222,6.787109375,0)" xlink:href="#af"/><use transform="matrix(0.005425347222222222,0,0,0.005425347222222222,11.15993923611111,0)" xlink:href="#S"/><use transform="matrix(0.005425347222222222,0,0,0.005425347222222222,17.610677083333332,0)" xlink:href="#al"/><use transform="matrix(0.005425347222222222,0,0,0.005425347222222222,24.527994791666664,0)" xlink:href="#Y"/><use transform="matrix(0.005425347222222222,0,0,0.005425347222222222,30.750868055555554,0)" xlink:href="#am"/><use transform="matrix(0.005425347222222222,0,0,0.005425347222222222,34.933810763888886,0)" xlink:href="#Z"/><use transform="matrix(0.005425347222222222,0,0,0.005425347222222222,41.552734375,0)" xlink:href="#af"/><use transform="matrix(0.005425347222222222,0,0,0.005425347222222222,45.92556423611111,0)" xlink:href="#S"/><use transform="matrix(0.005425347222222222,0,0,0.005425347222222222,52.37630208333333,0)" xlink:href="#an"/><use transform="matrix(0.005425347222222222,0,0,0.005425347222222222,59.38042534722222,0)" xlink:href="#U"/><use transform="matrix(0.005425347222222222,0,0,0.005425347222222222,62.39149305555555,0)" xlink:href="#Z"/></g><path d="M681 22C323 22 94-145 85-462h297c10 151 131 226 296 226 163 0 271-77 271-190 0-102-95-149-257-189l-164-41c-252-61-403-188-403-405 0-269 236-449 560-449 330 0 546 183 551 445H941c-11-119-106-188-259-188-156 0-244 72-244 172-3 156 226 185 373 221 250 61 445 186 445 436 0 271-213 446-575 446" id="ao"/><path d="M428-647V0H128v-1490h294v586c65-146 175-228 341-228 232 0 385 159 385 421V0H847v-659c0-139-76-222-202-222-128 0-217 86-217 234" id="ap"/><g id="k"><use transform="matrix(0.005425347222222222,0,0,0.005425347222222222,0,0)" xlink:href="#ao"/><use transform="matrix(0.005425347222222222,0,0,0.005425347222222222,7.275390625,0)" xlink:href="#ap"/><use transform="matrix(0.005425347222222222,0,0,0.005425347222222222,14.192708333333332,0)" xlink:href="#S"/><use transform="matrix(0.005425347222222222,0,0,0.005425347222222222,20.643446180555554,0)" xlink:href="#af"/><use transform="matrix(0.005425347222222222,0,0,0.005425347222222222,24.89691840277778,0)" xlink:href="#Z"/><use transform="matrix(0.005425347222222222,0,0,0.005425347222222222,31.51584201388889,0)" xlink:href="#Y"/></g><use transform="matrix(0.005425347222222222,0,0,0.005425347222222222,0,0)" xlink:href="#aa" id="l"/><g id="m"><use transform="matrix(0.005425347222222222,0,0,0.005425347222222222,0,0)" xlink:href="#ai"/><use transform="matrix(0.005425347222222222,0,0,0.005425347222222222,8.37131076388889,0)" xlink:href="#aj"/></g><path d="M659 0H135v-1490h529c448 0 721 280 721 744 0 466-273 746-726 746zM440-263h204c287 0 437-148 437-483 0-333-150-481-435-481H440v964" id="aq"/><path d="M128 418v-1536h295v188h14c41-89 129-202 319-202 248 0 453 193 453 575 0 372-197 576-455 576-183 0-275-108-317-198h-9v597H128zm534-640c156 0 240-139 240-336 0-196-83-334-240-334-154 0-241 131-241 334 0 202 88 336 241 336" id="ar"/><path d="M628 22C291 22 81-210 81-554c0-346 210-578 547-578 336 0 547 232 547 578 0 344-211 576-547 576zm0-236c160 0 242-146 242-341 0-197-82-341-242-341S387-753 387-555c0 195 81 341 241 341" id="as"/><g id="n"><use transform="matrix(0.005425347222222222,0,0,0.005425347222222222,0,0)" xlink:href="#aq"/><use transform="matrix(0.005425347222222222,0,0,0.005425347222222222,8.024088541666666,0)" xlink:href="#Z"/><use transform="matrix(0.005425347222222222,0,0,0.005425347222222222,14.643012152777777,0)" xlink:href="#ar"/><use transform="matrix(0.005425347222222222,0,0,0.005425347222222222,21.647135416666664,0)" xlink:href="#as"/><use transform="matrix(0.005425347222222222,0,0,0.005425347222222222,28.461371527777775,0)" xlink:href="#Y"/><use transform="matrix(0.005425347222222222,0,0,0.005425347222222222,34.684244791666664,0)" xlink:href="#ag"/><use transform="matrix(0.005425347222222222,0,0,0.005425347222222222,37.6953125,0)" xlink:href="#V"/></g><path d="M135 0v-1490h997v253H440v360h640v249H440v375h694V0H135" id="at"/><path d="M42 0l360-574-338-544h324c72 124 151 261 209 394 58-134 140-271 215-394h318L785-570 1146 0H824c-79-136-169-280-234-425C528-278 439-134 360 0H42" id="au"/><path d="M628 22C291 22 81-210 81-554c0-346 210-578 547-578 265 0 455 142 497 372l-279 52c-25-116-99-188-215-188-160 0-244 139-244 341 0 200 84 341 244 341 116 0 193-74 217-195l279 51C1085-123 896 22 628 22" id="av"/><path d="M625 442c-280 0-454-114-503-274l258-72c28 63 97 128 243 128 153 0 246-69 246-216v-206h-23C805-108 717-16 536-16 284-16 81-191 81-561c0-378 208-571 456-571 188 0 280 113 321 202h13v-188h295V-9c0 303-226 451-541 451zm5-686c153 0 240-119 240-319 0-198-86-329-240-329-158 0-241 137-241 329 0 195 85 319 241 319" id="aw"/><g id="o"><use transform="matrix(0.005425347222222222,0,0,0.005425347222222222,0,0)" xlink:href="#at"/><use transform="matrix(0.005425347222222222,0,0,0.005425347222222222,6.749131944444445,0)" xlink:href="#au"/><use transform="matrix(0.005425347222222222,0,0,0.005425347222222222,12.972005208333332,0)" xlink:href="#av"/><use transform="matrix(0.005425347222222222,0,0,0.005425347222222222,19.50954861111111,0)" xlink:href="#ap"/><use transform="matrix(0.005425347222222222,0,0,0.005425347222222222,26.426866319444443,0)" xlink:href="#S"/><use transform="matrix(0.005425347222222222,0,0,0.005425347222222222,32.877604166666664,0)" xlink:href="#al"/><use transform="matrix(0.005425347222222222,0,0,0.005425347222222222,39.794921875,0)" xlink:href="#aw"/><use transform="matrix(0.005425347222222222,0,0,0.005425347222222222,46.81532118055556,0)" xlink:href="#Z"/></g><path d="M135 0v-1490h581c339 0 533 192 533 485 0 204-94 351-264 424L1302 0H964L680-532H440V0H135zm305-779h220c186 0 274-77 274-226 0-150-88-233-275-233H440v459" id="ax"/><path d="M295 13c-75 0-135-60-135-135s60-135 135-135 135 60 135 135S370 13 295 13zm0-809c-75 0-135-60-135-135s60-135 135-135 135 60 135 135-60 135-135 135" id="ay"/><g id="p"><use transform="matrix(0.005425347222222222,0,0,0.005425347222222222,0,0)" xlink:href="#ax"/><use transform="matrix(0.005425347222222222,0,0,0.005425347222222222,7.242838541666666,0)" xlink:href="#S"/><use transform="matrix(0.005425347222222222,0,0,0.005425347222222222,13.69357638888889,0)" xlink:href="#V"/><use transform="matrix(0.005425347222222222,0,0,0.005425347222222222,17.65407986111111,0)" xlink:href="#Z"/><use transform="matrix(0.005425347222222222,0,0,0.005425347222222222,24.27300347222222,0)" xlink:href="#ay"/></g><path d="M653-1490V0H466v-1314h-10L96-1047v-204l324-239h233" id="az"/><use transform="matrix(0.005425347222222222,0,0,0.005425347222222222,0,0)" xlink:href="#az" id="q"/><path d="M692-1560L212 224H46l480-1784h166" id="aA"/><path d="M538 24C308 24 148-78 108-271l171-41c32 123 123 178 257 178 156 0 256-77 256-169 0-77-54-128-164-154l-186-44c-203-48-300-148-300-305 0-192 176-326 414-326 230 0 351 112 402 269l-163 42c-31-80-94-158-238-158-133 0-233 69-233 162 0 83 57 129 188 160l169 40c203 48 298 149 298 302 0 196-179 339-441 339" id="aB"/><path d="M338-670V0H158v-1490h180v566c73-149 190-208 336-208 226 0 379 139 379 422V0H872v-695c0-172-96-275-252-275-161 0-282 109-282 300" id="aC"/><path d="M471 26C259 26 90-98 90-318c0-256 228-303 435-329 202-27 287-16 287-108 0-139-79-219-234-219-161 0-248 86-283 164l-173-57c86-203 278-265 451-265 150 0 419 46 419 395V0H815v-152h-12C765-73 660 26 471 26zm31-159c199 0 310-134 310-271v-155c-30 35-226 55-295 64-131 17-246 59-246 186 0 116 97 176 231 176" id="aD"/><path d="M158 0v-1118h174v172h12c41-113 157-188 290-188 26 0 70 2 91 3v181c-11-2-60-10-108-10-161 0-279 109-279 260V0H158" id="aE"/><path d="M628 24c-324 0-524-230-524-574 0-343 198-582 503-582 237 0 487 146 487 559v75H286c9 234 145 362 343 362 132 0 231-58 273-172l174 48C1024-91 857 24 628 24zM287-650h624c-17-190-120-322-304-322-192 0-309 151-320 322" id="aF"/><g id="r"><use transform="matrix(0.005425347222222222,0,0,0.005425347222222222,0,0)" xlink:href="#ab"/><use transform="matrix(0.005425347222222222,0,0,0.005425347222222222,7.579210069444444,0)" xlink:href="#ac"/><use transform="matrix(0.005425347222222222,0,0,0.005425347222222222,14.729817708333332,0)" xlink:href="#ad"/><use transform="matrix(0.005425347222222222,0,0,0.005425347222222222,21.826171875,0)" xlink:href="#aA"/><use transform="matrix(0.005425347222222222,0,0,0.005425347222222222,25.830078125,0)" xlink:href="#aB"/><use transform="matrix(0.005425347222222222,0,0,0.005425347222222222,31.69487847222222,0)" xlink:href="#aC"/><use transform="matrix(0.005425347222222222,0,0,0.005425347222222222,38.26497395833333,0)" xlink:href="#aD"/><use transform="matrix(0.005425347222222222,0,0,0.005425347222222222,44.504123263888886,0)" xlink:href="#aE"/><use transform="matrix(0.005425347222222222,0,0,0.005425347222222222,48.502604166666664,0)" xlink:href="#aF"/></g><use transform="matrix(0.005425347222222222,0,0,0.005425347222222222,0,0)" xlink:href="#W" id="t"/><g id="u"><use transform="matrix(0.005425347222222222,0,0,0.005425347222222222,0,0)" xlink:href="#ao"/><use transform="matrix(0.005425347222222222,0,0,0.005425347222222222,7.275390625,0)" xlink:href="#ap"/><use transform="matrix(0.005425347222222222,0,0,0.005425347222222222,14.192708333333332,0)" xlink:href="#S"/><use transform="matrix(0.005425347222222222,0,0,0.005425347222222222,20.643446180555554,0)" xlink:href="#af"/><use transform="matrix(0.005425347222222222,0,0,0.005425347222222222,24.89691840277778,0)" xlink:href="#Z"/></g><g id="v"><use transform="matrix(0.005425347222222222,0,0,0.005425347222222222,0,0)" xlink:href="#ak"/><use transform="matrix(0.005425347222222222,0,0,0.005425347222222222,6.548394097222222,0)" xlink:href="#as"/><use transform="matrix(0.005425347222222222,0,0,0.005425347222222222,13.362630208333332,0)" xlink:href="#V"/><use transform="matrix(0.005425347222222222,0,0,0.005425347222222222,17.48589409722222,0)" xlink:href="#S"/><use transform="matrix(0.005425347222222222,0,0,0.005425347222222222,23.936631944444443,0)" xlink:href="#U"/></g><use transform="matrix(0.005425347222222222,0,0,0.005425347222222222,0,0)" xlink:href="#aa" id="w"/><path d="M626 20c-262 0-458-168-468-396h184c12 133 134 229 284 229 180 0 311-137 311-326 0-192-136-335-323-335-92 0-196 33-255 78l-178-22 88-738h784v167H429l-51 435h8c61-51 160-87 263-87 273 0 474 211 474 499 0 286-210 496-497 496" id="aG"/><path d="M128 359l88-567h206L266 359H128" id="aH"/><path d="M646 20c-332 0-524-278-524-764 0-483 194-766 524-766s524 283 524 766c0 485-191 764-524 764zm0-166c218 0 341-220 341-598 0-380-123-601-341-601s-341 222-341 601c0 378 123 598 341 598" id="aI"/><g id="x"><use transform="matrix(0.005425347222222222,0,0,0.005425347222222222,0,0)" xlink:href="#aG"/><use transform="matrix(0.005425347222222222,0,0,0.005425347222222222,6.754557291666666,0)" xlink:href="#aH"/><use transform="matrix(0.005425347222222222,0,0,0.005425347222222222,9.673394097222221,0)" xlink:href="#aI"/><use transform="matrix(0.005425347222222222,0,0,0.005425347222222222,16.682942708333332,0)" xlink:href="#aI"/><use transform="matrix(0.005425347222222222,0,0,0.005425347222222222,23.692491319444443,0)" xlink:href="#aI"/></g><path d="M657 26c-323 0-524-166-541-416h195c15 169 171 246 346 246 202 0 356-106 356-265 5-203-294-238-475-293-239-73-380-191-380-389 0-252 224-419 512-419 294 0 499 171 508 396H992c-17-145-151-228-328-228-193 0-321 102-321 242 0 156 175 211 284 241l149 41c160 44 422 134 422 412 0 244-197 432-541 432" id="aJ"/><g id="y"><use transform="matrix(0.005425347222222222,0,0,0.005425347222222222,0,0)" xlink:href="#aJ"/><use transform="matrix(0.005425347222222222,0,0,0.005425347222222222,7.12890625,0)" xlink:href="#aC"/><use transform="matrix(0.005425347222222222,0,0,0.005425347222222222,13.69900173611111,0)" xlink:href="#aD"/><use transform="matrix(0.005425347222222222,0,0,0.005425347222222222,19.938151041666664,0)" xlink:href="#aE"/><use transform="matrix(0.005425347222222222,0,0,0.005425347222222222,23.93663194444444,0)" xlink:href="#aF"/><use transform="matrix(0.005425347222222222,0,0,0.005425347222222222,30.41449652777777,0)" xlink:href="#aB"/></g><g id="z"><use transform="matrix(0.005425347222222222,0,0,0.005425347222222222,0,0)" xlink:href="#X"/><use transform="matrix(0.005425347222222222,0,0,0.005425347222222222,8.170572916666666,0)" xlink:href="#Y"/><use transform="matrix(0.005425347222222222,0,0,0.005425347222222222,14.393446180555552,0)" xlink:href="#Y"/><use transform="matrix(0.005425347222222222,0,0,0.005425347222222222,20.616319444444443,0)" xlink:href="#Z"/><use transform="matrix(0.005425347222222222,0,0,0.005425347222222222,27.235243055555554,0)" xlink:href="#V"/></g><g id="A"><use transform="matrix(0.005425347222222222,0,0,0.005425347222222222,0,0)" xlink:href="#ak"/><use transform="matrix(0.005425347222222222,0,0,0.005425347222222222,6.548394097222222,0)" xlink:href="#as"/><use transform="matrix(0.005425347222222222,0,0,0.005425347222222222,13.362630208333332,0)" xlink:href="#V"/><use transform="matrix(0.005425347222222222,0,0,0.005425347222222222,17.48589409722222,0)" xlink:href="#S"/><use transform="matrix(0.005425347222222222,0,0,0.005425347222222222,23.936631944444443,0)" xlink:href="#U"/></g><use transform="matrix(0.005425347222222222,0,0,0.005425347222222222,0,0)" xlink:href="#aa" id="B"/><g id="C"><use transform="matrix(0.005425347222222222,0,0,0.005425347222222222,0,0)" xlink:href="#ab"/><use transform="matrix(0.005425347222222222,0,0,0.005425347222222222,7.579210069444444,0)" xlink:href="#ac"/><use transform="matrix(0.005425347222222222,0,0,0.005425347222222222,14.729817708333332,0)" xlink:href="#ad"/></g><g id="D"><use transform="matrix(0.005469993180268243,0,0,0.005469993180268243,0,0)" xlink:href="#aG"/><use transform="matrix(0.005469993180268243,0,0,0.005469993180268243,6.810141509433963,0)" xlink:href="#aI"/><use transform="matrix(0.005469993180268243,0,0,0.005469993180268243,13.877372698340533,0)" xlink:href="#aI"/></g><path d="M481 0L54-1118h197c107 314 236 620 325 951 87-331 217-637 324-951h197L670 0H481" id="aK"/><path d="M537 14c-226 0-379-139-379-422v-710h180v695c0 172 97 275 253 275 160 0 281-109 281-300v-670h181V0H879v-209C806-46 684 14 537 14" id="aL"/><path d="M338-1490V0H158v-1490h180" id="aM"/><path d="M598-1118v154H368v674c0 100 37 144 132 144 23 0 62-6 92-12L629-6c-37 13-88 20-134 20-193 0-307-107-307-290v-688H20v-154h168v-266h180v266h230" id="aN"/><g id="E"><use transform="matrix(0.005469993180268243,0,0,0.005469993180268243,0,0)" xlink:href="#aK"/><use transform="matrix(0.005469993180268243,0,0,0.005469993180268243,6.241262218686065,0)" xlink:href="#aD"/><use transform="matrix(0.005469993180268243,0,0,0.005469993180268243,12.531754375994545,0)" xlink:href="#aL"/><use transform="matrix(0.005469993180268243,0,0,0.005469993180268243,19.15591611729939,0)" xlink:href="#aM"/><use transform="matrix(0.005469993180268243,0,0,0.005469993180268243,22.033132530120483,0)" xlink:href="#aN"/></g><g id="F"><use transform="matrix(0.005469993180268243,0,0,0.005469993180268243,0,0)" xlink:href="#aB"/><use transform="matrix(0.005469993180268243,0,0,0.005469993180268243,5.913062627869971,0)" xlink:href="#aC"/><use transform="matrix(0.005469993180268243,0,0,0.005469993180268243,12.537224369174814,0)" xlink:href="#aD"/><use transform="matrix(0.005469993180268243,0,0,0.005469993180268243,18.827716526483293,0)" xlink:href="#aE"/><use transform="matrix(0.005469993180268243,0,0,0.005469993180268243,22.859101500340984,0)" xlink:href="#aF"/><use transform="matrix(0.005469993180268243,0,0,0.005469993180268243,29.390273357581265,0)" xlink:href="#aB"/></g><path d="M576-274c-177 0-320-143-320-320s143-320 320-320 320 143 320 320-143 320-320 320" id="aO"/><use transform="matrix(0.005425347222222222,0,0,0.005425347222222222,0,0)" xlink:href="#aO" id="G"/><path d="M52 0l541-1490h220L1361 0h-200l-149-416H398L254 0H52zm404-582h497c-103-290-145-390-251-756-108 377-145 460-246 756" id="aP"/><g id="H"><use transform="matrix(0.005425347222222222,0,0,0.005425347222222222,0,0)" xlink:href="#aP"/><use transform="matrix(0.005425347222222222,0,0,0.005425347222222222,7.666015625,0)" xlink:href="#aB"/><use transform="matrix(0.005425347222222222,0,0,0.005425347222222222,13.530815972222221,0)" xlink:href="#aB"/><use transform="matrix(0.005425347222222222,0,0,0.005425347222222222,19.395616319444443,0)" xlink:href="#aF"/><use transform="matrix(0.005425347222222222,0,0,0.005425347222222222,25.87348090277778,0)" xlink:href="#aN"/></g><path d="M98-1322v-168h1126v168H757V0H567v-1322H98" id="aQ"/><g id="I"><use transform="matrix(0.005425347222222222,0,0,0.005425347222222222,0,0)" xlink:href="#aQ"/><use transform="matrix(0.005425347222222222,0,0,0.005425347222222222,6.304253472222222,0)" xlink:href="#aj"/><use transform="matrix(0.005425347222222222,0,0,0.005425347222222222,12.96657986111111,0)" xlink:href="#aN"/><use transform="matrix(0.005425347222222222,0,0,0.005425347222222222,16.65581597222222,0)" xlink:href="#aD"/><use transform="matrix(0.005425347222222222,0,0,0.005425347222222222,22.89496527777778,0)" xlink:href="#aM"/></g><path d="M568-82v-393H183v-240h385v-393h254v393h386v240H822v393H568" id="aR"/><path d="M664 20c-306 0-529-183-535-438h297c6 117 110 196 238 196 149 0 255-108 255-266 0-159-108-270-261-270-89 0-178 39-224 98l-274-48 72-782h901v252H485l-39 377h8c53-72 165-124 294-124 269 0 467 204 467 490 0 300-224 515-551 515" id="aS"/><path d="M690 20C314 20 94-261 94-744c0-482 221-766 596-766 376 0 597 284 597 766 0 483-219 764-597 764zm0-253c184 0 286-184 286-511 0-328-102-514-286-514-183 0-285 187-285 514s101 511 285 511" id="aT"/><g id="J"><use transform="matrix(0.005425347222222222,0,0,0.005425347222222222,0,0)" xlink:href="#aR"/><use transform="matrix(0.005425347222222222,0,0,0.005425347222222222,7.541232638888888,0)" xlink:href="#aS"/><use transform="matrix(0.005425347222222222,0,0,0.005425347222222222,14.643012152777777,0)" xlink:href="#aT"/><use transform="matrix(0.005425347222222222,0,0,0.005425347222222222,22.135416666666664,0)" xlink:href="#aT"/></g><path d="M51 0l535-762-487-728h354c99 152 240 357 306 516 68-159 211-365 312-516h346L934-771 1461 0h-362C993-164 838-379 756-546 674-378 513-163 404 0H51" id="aU"/><g id="K"><use transform="matrix(0.005425347222222222,0,0,0.005425347222222222,0,0)" xlink:href="#aU"/><use transform="matrix(0.005425347222222222,0,0,0.005425347222222222,8.203125,0)" xlink:href="#ax"/><use transform="matrix(0.005425347222222222,0,0,0.005425347222222222,15.500217013888888,0)" xlink:href="#ae"/></g><g id="L"><use transform="matrix(0.005425347222222222,0,0,0.005425347222222222,0,0)" xlink:href="#aJ"/><use transform="matrix(0.005425347222222222,0,0,0.005425347222222222,7.12890625,0)" xlink:href="#aC"/><use transform="matrix(0.005425347222222222,0,0,0.005425347222222222,13.69900173611111,0)" xlink:href="#aD"/><use transform="matrix(0.005425347222222222,0,0,0.005425347222222222,19.938151041666664,0)" xlink:href="#aE"/><use transform="matrix(0.005425347222222222,0,0,0.005425347222222222,23.93663194444444,0)" xlink:href="#aF"/></g><g id="M"><use transform="matrix(0.005425347222222222,0,0,0.005425347222222222,0,0)" xlink:href="#aR"/><use transform="matrix(0.005425347222222222,0,0,0.005425347222222222,7.541232638888888,0)" xlink:href="#aS"/><use transform="matrix(0.005425347222222222,0,0,0.005425347222222222,14.643012152777777,0)" xlink:href="#aT"/><use transform="matrix(0.005425347222222222,0,0,0.005425347222222222,22.135416666666664,0)" xlink:href="#aT"/></g><path d="M342-723c-98 0-173-75-173-172s75-172 173-172 173 75 173 172-75 172-173 172zm0 742c-98 0-173-75-173-172s75-172 173-172 173 75 173 172S440 19 342 19" id="aV"/><g id="N"><use transform="matrix(0.004924785100286534,0,0,0.004924785100286534,0,0)" xlink:href="#aq"/><use transform="matrix(0.004924785100286534,0,0,0.004924785100286534,7.283757163323784,0)" xlink:href="#Z"/><use transform="matrix(0.004924785100286534,0,0,0.004924785100286534,13.291994985673357,0)" xlink:href="#ar"/><use transform="matrix(0.004924785100286534,0,0,0.004924785100286534,19.64989255014327,0)" xlink:href="#as"/><use transform="matrix(0.004924785100286534,0,0,0.004924785100286534,25.83542263610316,0)" xlink:href="#Y"/><use transform="matrix(0.004924785100286534,0,0,0.004924785100286534,31.48415114613181,0)" xlink:href="#ag"/><use transform="matrix(0.004924785100286534,0,0,0.004924785100286534,34.21740687679084,0)" xlink:href="#V"/><use transform="matrix(0.004924785100286534,0,0,0.004924785100286534,37.910995702005735,0)" xlink:href="#aV"/></g><g id="O"><use transform="matrix(0.004924785100286534,0,0,0.004924785100286534,0,0)" xlink:href="#aG"/><use transform="matrix(0.004924785100286534,0,0,0.004924785100286534,6.131357449856735,0)" xlink:href="#aI"/><use transform="matrix(0.004924785100286534,0,0,0.004924785100286534,12.494179799426938,0)" xlink:href="#aI"/></g><g id="P"><use transform="matrix(0.004924785100286534,0,0,0.004924785100286534,0,0)" xlink:href="#ab"/><use transform="matrix(0.004924785100286534,0,0,0.004924785100286534,6.879924785100288,0)" xlink:href="#ac"/><use transform="matrix(0.004924785100286534,0,0,0.004924785100286534,13.37079154727794,0)" xlink:href="#ad"/></g><path d="M645 0H180v-1490h484c435 0 692 280 692 742 0 466-257 748-711 748zM370-168h263c363 0 539-218 539-580 0-358-176-574-521-574H370v1154" id="aW"/><path d="M158 418v-1536h174v179h20c37-59 106-193 324-193 279 0 474 222 474 576 0 356-194 580-473 580-213 0-288-135-325-197h-14v591H158zm492-555c209 0 317-186 317-421 0-232-105-413-317-413-206 0-314 166-314 413 0 249 111 421 314 421" id="aX"/><path d="M158 0v-1118h180V0H158zm91-1301c-68 0-125-53-125-119s57-119 125-119c69 0 126 53 126 119s-57 119-126 119" id="aY"/><g id="Q"><use transform="matrix(0.005748327759197324,0,0,0.005748327759197324,0,0)" xlink:href="#aW"/><use transform="matrix(0.005748327759197324,0,0,0.005748327759197324,8.496028428093645,0)" xlink:href="#aF"/><use transform="matrix(0.005748327759197324,0,0,0.005748327759197324,15.35953177257525,0)" xlink:href="#aX"/><use transform="matrix(0.005748327759197324,0,0,0.005748327759197324,22.567934782608695,0)" xlink:href="#aj"/><use transform="matrix(0.005748327759197324,0,0,0.005748327759197324,29.62688127090301,0)" xlink:href="#aB"/><use transform="matrix(0.005748327759197324,0,0,0.005748327759197324,35.84082357859532,0)" xlink:href="#aY"/><use transform="matrix(0.005748327759197324,0,0,0.005748327759197324,38.69199414715719,0)" xlink:href="#aN"/><use transform="matrix(0.005748327759197324,0,0,0.005748327759197324,42.42840719063545,0)" xlink:href="#aj"/><use transform="matrix(0.005748327759197324,0,0,0.005748327759197324,49.48735367892975,0)" xlink:href="#aE"/></g></defs></g></svg>