<svg xmlns="http://www.w3.org/2000/svg" xmlns:xlink="http://www.w3.org/1999/xlink" xmlns:lucid="lucid" width="682" height="254.13"><g transform="translate(-59 -229.0042734573687)" lucid:page-tab-id="Jm-Vs6M1t8Mc"><path d="M121.8 254.7c10.06 0 18.2 8.13 18.2 18.18 0 10.04-8.14 18.2-18.2 18.2H78.2c-10.06 0-18.2-8.16-18.2-18.2 0-10.05 8.14-18.2 18.2-18.2z" stroke="#008a0e" stroke-width="2" fill="#e3fae3"/><use xlink:href="#a" transform="matrix(1,0,0,1,65,259.68993957826825) translate(9.555121527777779 17.51388888888889)"/><path d="M237.56 236a6 6 0 0 1 6-6h60a6 6 0 0 1 6 6v54.4c-12.02-10.08-19.5-10.08-24.05-10.08-7.2 0-16.76 10.08-23.96 10.08-4.47 0-12.03 0-23.98-10.08z" stroke="#008a0e" stroke-width="2" fill="#e3fae3"/><path d="M241.56 241.33a6 6 0 0 1 6-6h60a6 6 0 0 1 6 6v54.4c-12.02-10.1-19.5-10.1-24.05-10.1-7.2 0-16.76 10.1-23.96 10.1-4.47 0-12.03 0-23.98-10.1z" stroke="#008a0e" stroke-width="2" fill="#e3fae3"/><path d="M245.56 246.66a6 6 0 0 1 6-6h60a6 6 0 0 1 6 6v54.4c-12.02-10.08-19.5-10.08-24.05-10.08-7.2 0-16.76 10.08-23.96 10.08-4.47 0-12.03 0-23.98-10.08z" stroke="#008a0e" stroke-width="2" fill="#e3fae3"/><use xlink:href="#b" transform="matrix(1,0,0,1,250.5609756097561,245.66282125148635) translate(8.021050347222225 18.45138888888889)"/><use xlink:href="#c" transform="matrix(1,0,0,1,250.5609756097561,245.66282125148635) translate(0.5422092013888928 31.895399305555557)"/><use xlink:href="#d" transform="matrix(1,0,0,1,250.5609756097561,245.66282125148635) translate(23.442599826388893 31.895399305555557)"/><path d="M319.56 265.82h155.36a6 6 0 0 1 6 6v4.6" stroke="#008a0e" stroke-width="2" fill="none"/><path d="M319.6 266.8h-1.04v-1.95h1.03z" stroke="#008a0e" stroke-width=".05" fill="#008a0e"/><path d="M480.92 291.68l-4.63-14.26h9.25z" stroke="#008a0e" stroke-width="2" fill="#008a0e"/><path d="M446.34 301.92a6 6 0 0 1 6-6H697.1a6 6 0 0 1 6 6v118.3a6 6 0 0 1-6 6H452.35a6 6 0 0 1-6-6z" stroke="#3a414a" stroke-width="2" fill="#fff"/><use xlink:href="#e" transform="matrix(1,0,0,1,458.3414634146342,307.91773962396235) translate(0 16.216875)"/><use xlink:href="#f" transform="matrix(1,0,0,1,458.3414634146342,307.91773962396235) translate(0 28.86585720486111)"/><use xlink:href="#g" transform="matrix(1,0,0,1,458.3414634146342,307.91773962396235) translate(8.61111111111111 39.62106553819444)"/><use xlink:href="#h" transform="matrix(1,0,0,1,458.3414634146342,307.91773962396235) translate(22.22222222222222 39.62106553819444)"/><use xlink:href="#i" transform="matrix(1,0,0,1,458.3414634146342,307.91773962396235) translate(48.32899305555556 39.62106553819444)"/><use xlink:href="#j" transform="matrix(1,0,0,1,458.3414634146342,307.91773962396235) translate(56.71006944444444 39.62106553819444)"/><use xlink:href="#g" transform="matrix(1,0,0,1,458.3414634146342,307.91773962396235) translate(8.61111111111111 50.37627387152777)"/><use xlink:href="#k" transform="matrix(1,0,0,1,458.3414634146342,307.91773962396235) translate(22.22222222222222 50.37627387152777)"/><use xlink:href="#l" transform="matrix(1,0,0,1,458.3414634146342,307.91773962396235) translate(53.984375 50.37627387152777)"/><use xlink:href="#i" transform="matrix(1,0,0,1,458.3414634146342,307.91773962396235) translate(77.60416666666667 50.37627387152777)"/><use xlink:href="#m" transform="matrix(1,0,0,1,458.3414634146342,307.91773962396235) translate(85.98524305555556 50.37627387152777)"/><use xlink:href="#g" transform="matrix(1,0,0,1,458.3414634146342,307.91773962396235) translate(8.61111111111111 61.131482204861115)"/><use xlink:href="#n" transform="matrix(1,0,0,1,458.3414634146342,307.91773962396235) translate(22.22222222222222 61.131482204861115)"/><use xlink:href="#o" transform="matrix(1,0,0,1,458.3414634146342,307.91773962396235) translate(77.56510416666667 61.131482204861115)"/><use xlink:href="#p" transform="matrix(1,0,0,1,458.3414634146342,307.91773962396235) translate(108.6935763888889 61.131482204861115)"/><use xlink:href="#m" transform="matrix(1,0,0,1,458.3414634146342,307.91773962396235) translate(117.07465277777779 61.131482204861115)"/><use xlink:href="#g" transform="matrix(1,0,0,1,458.3414634146342,307.91773962396235) translate(8.61111111111111 71.88669053819444)"/><use xlink:href="#q" transform="matrix(1,0,0,1,458.3414634146342,307.91773962396235) translate(22.22222222222222 71.88669053819444)"/><use xlink:href="#r" transform="matrix(1,0,0,1,458.3414634146342,307.91773962396235) translate(65.92881944444444 71.88669053819444)"/><use xlink:href="#s" transform="matrix(1,0,0,1,458.3414634146342,307.91773962396235) translate(89.66145833333333 71.88669053819444)"/><use xlink:href="#t" transform="matrix(1,0,0,1,458.3414634146342,307.91773962396235) translate(95.59895833333333 71.88669053819444)"/><use xlink:href="#u" transform="matrix(1,0,0,1,458.3414634146342,307.91773962396235) translate(22.22222222222222 82.64189887152777)"/><use xlink:href="#g" transform="matrix(1,0,0,1,458.3414634146342,307.91773962396235) translate(8.61111111111111 93.3971072048611)"/><use xlink:href="#v" transform="matrix(1,0,0,1,458.3414634146342,307.91773962396235) translate(22.22222222222222 93.3971072048611)"/><use xlink:href="#w" transform="matrix(1,0,0,1,458.3414634146342,307.91773962396235) translate(49.05381944444444 93.3971072048611)"/><use xlink:href="#g" transform="matrix(1,0,0,1,458.3414634146342,307.91773962396235) translate(8.61111111111111 104.15231553819443)"/><use xlink:href="#x" transform="matrix(1,0,0,1,458.3414634146342,307.91773962396235) translate(22.22222222222222 104.15231553819443)"/><use xlink:href="#y" transform="matrix(1,0,0,1,458.3414634146342,307.91773962396235) translate(48.32899305555556 104.15231553819443)"/><path d="M448.5 331.22h251.92M447.84 388.1H700.5" stroke="#ced4db" stroke-linecap="round" fill="none"/><path d="M450.47 310.6a6 6 0 0 1 6-6H493a6 6 0 0 1 6 6v15.07a6 6 0 0 1-6 6h-36.53a6 6 0 0 1-6-6z" fill="none"/><use xlink:href="#z" transform="matrix(1,0,0,1,450.4721965908075,304.60554987664625) translate(8.970730265967909 18.182250576941623)"/><use xlink:href="#A" transform="matrix(1,0,0,1,450.4721965908075,304.60554987664625) translate(12.130784985530152 18.182250576941623)"/><path d="M571.18 246a6 6 0 0 1 6-6H697.1a6 6 0 0 1 6 6v31.66a6 6 0 0 1-6 6H577.2a6 6 0 0 1-6-6z" stroke="#008a0e" stroke-width="2" fill="#e3fae3"/><use xlink:href="#g" transform="matrix(1,0,0,1,583.1839549092126,252) translate(5.277777777777779 8.61111111111111)"/><use xlink:href="#x" transform="matrix(1,0,0,1,583.1839549092126,252) translate(15.555555555555557 8.61111111111111)"/><use xlink:href="#B" transform="matrix(1,0,0,1,583.1839549092126,252) translate(41.66232638888889 8.61111111111111)"/><use xlink:href="#C" transform="matrix(1,0,0,1,583.1839549092126,252) translate(64.63107638888889 8.61111111111111)"/><use xlink:href="#D" transform="matrix(1,0,0,1,583.1839549092126,252) translate(86.71440972222221 8.61111111111111)"/><use xlink:href="#g" transform="matrix(1,0,0,1,583.1839549092126,252) translate(5.277777777777779 22.055121527777775)"/><use xlink:href="#v" transform="matrix(1,0,0,1,583.1839549092126,252) translate(15.555555555555557 22.055121527777775)"/><use xlink:href="#B" transform="matrix(1,0,0,1,583.1839549092126,252) translate(42.387152777777786 22.055121527777775)"/><use xlink:href="#E" transform="matrix(1,0,0,1,583.1839549092126,252) translate(65.35590277777779 22.055121527777775)"/><path d="M705.1 258.43h9.64m9.63 0H734l.94.07.9.22.88.36.8.5.72.6.6.72.5.8.37.88.23.9.07.95v10.03m0 10.02v20.05m0 10.03v10.02l-.07.94-.22.92-.35.87-.5.8-.6.73-.72.6-.8.5-.88.36-.9.2-.95.08h-11.38" stroke="#008a0e" stroke-width="2" fill="none"/><path d="M705.14 259.4h-1.03v-1.94h1.04z" stroke="#008a0e" stroke-width=".05" fill="#008a0e"/><path d="M707.35 330.58l14.26-4.63v9.27z" stroke="#008a0e" stroke-width="2" fill="#008a0e"/><path d="M571.18 444.47a6 6 0 0 1 6-6h137.15a6 6 0 0 1 6 6v31.66a6 6 0 0 1-6 6H577.18a6 6 0 0 1-6-6z" stroke="#1071e5" stroke-width="2" fill="#edf5ff"/><use xlink:href="#F" transform="matrix(1,0,0,1,583.1839549092126,450.4680438757194) translate(5.277777777777779 8.61111111111111)"/><use xlink:href="#G" transform="matrix(1,0,0,1,583.1839549092126,450.4680438757194) translate(15.555555555555557 8.61111111111111)"/><use xlink:href="#H" transform="matrix(1,0,0,1,583.1839549092126,450.4680438757194) translate(41.66232638888889 8.61111111111111)"/><use xlink:href="#I" transform="matrix(1,0,0,1,583.1839549092126,450.4680438757194) translate(64.63107638888889 8.61111111111111)"/><use xlink:href="#J" transform="matrix(1,0,0,1,583.1839549092126,450.4680438757194) translate(90.43836805555556 8.61111111111111)"/><use xlink:href="#F" transform="matrix(1,0,0,1,583.1839549092126,450.4680438757194) translate(5.277777777777779 22.055121527777775)"/><use xlink:href="#K" transform="matrix(1,0,0,1,583.1839549092126,450.4680438757194) translate(15.555555555555557 22.055121527777775)"/><use xlink:href="#H" transform="matrix(1,0,0,1,583.1839549092126,450.4680438757194) translate(42.387152777777786 22.055121527777775)"/><use xlink:href="#L" transform="matrix(1,0,0,1,583.1839549092126,450.4680438757194) translate(65.35590277777779 22.055121527777775)"/><path d="M722.33 460.3H734l.94-.07.9-.22.88-.35.8-.5.72-.6.6-.72.5-.8.37-.88.23-.9.07-.95v-10.94m0-10.94v-21.88m0-10.94v-10.94l-.07-.94-.22-.92-.35-.87-.5-.8-.6-.72-.72-.6-.8-.5-.88-.35-.9-.22-.95-.07h-11.38" stroke="#1071e5" stroke-width="2" fill="none"/><path d="M722.36 461.27h-1.03v-1.94h1.03z" stroke="#1071e5" stroke-width=".05" fill="#1071e5"/><path d="M707.35 382.66l14.26-4.64v9.27z" stroke="#1071e5" stroke-width="2" fill="#1071e5"/><path d="M220 322.45a6 6 0 0 1 6-6h100.68a6 6 0 0 1 6 6v15.07a6 6 0 0 1-6 6H226a6 6 0 0 1-6-6z" stroke="#008a0e" stroke-width="2" fill="#e3fae3"/><g><use xlink:href="#M" transform="matrix(1,0,0,1,225,321.44985422014076) translate(5.463216145833329 13.01388888888889)"/><use xlink:href="#N" transform="matrix(1,0,0,1,225,321.44985422014076) translate(52.43044704861111 13.01388888888889)"/><use xlink:href="#O" transform="matrix(1,0,0,1,225,321.44985422014076) translate(74.83713107638889 13.01388888888889)"/></g><path d="M444.34 329.98H334.68" stroke="#008a0e" stroke-width="2" fill="none"/><path d="M445.34 330.96h-1.02V329h1.02zM334.7 330.96h-1.02V329h1.03z" stroke="#008a0e" stroke-width=".05" fill="#008a0e"/><path d="M218 329.98H105.8a6 6 0 0 1-6-6v-13.4" stroke="#008a0e" stroke-width="2" fill="none"/><path d="M219 330.96h-1.03V329H219z" stroke="#008a0e" stroke-width=".05" fill="#008a0e"/><path d="M99.8 295.3l4.64 14.27h-9.27z" stroke="#008a0e" stroke-width="2" fill="#008a0e"/><path d="M121.8 357.5c10.06 0 18.2 8.14 18.2 18.18 0 10.05-8.14 18.2-18.2 18.2H78.2c-10.06 0-18.2-8.15-18.2-18.2 0-10.04 8.14-18.18 18.2-18.18z" stroke="#1071e5" stroke-width="2" fill="#edf5ff"/><g><use xlink:href="#a" transform="matrix(1,0,0,1,65,362.4960950968066) translate(9.555121527777779 17.51388888888889)"/></g><path d="M200 367.53a6 6 0 0 1 6-6h100.68a6 6 0 0 1 6 6v15.07a6 6 0 0 1-6 6H206a6 6 0 0 1-6-6z" stroke="#1071e5" stroke-width="2" fill="#edf5ff"/><g><use xlink:href="#P" transform="matrix(1,0,0,1,205.00000000000003,366.5300570957277) translate(6.152235243055557 13.01388888888889)"/><use xlink:href="#Q" transform="matrix(1,0,0,1,205.00000000000003,366.5300570957277) translate(48.9365234375 13.01388888888889)"/><use xlink:href="#R" transform="matrix(1,0,0,1,205.00000000000003,366.5300570957277) translate(74.14811197916667 13.01388888888889)"/></g><path d="M142 375.68h56" stroke="#1071e5" stroke-width="2" fill="none"/><path d="M142.03 376.66h-1.15l.13-.98-.12-.97h1.15zM199 376.66h-1.03v-1.95H199z" stroke="#1071e5" stroke-width=".05" fill="#1071e5"/><path d="M227.6 442.13H106a6 6 0 0 1-6-6v-22.76" stroke="#1071e5" stroke-width="2" fill="none"/><path d="M228.6 443.1h-1.03v-1.95h1.02z" stroke="#1071e5" stroke-width=".05" fill="#1071e5"/><path d="M100 398.1l4.64 14.27h-9.28z" stroke="#1071e5" stroke-width="2" fill="#1071e5"/><path d="M229.6 412.6a6 6 0 0 1 6-6h62.77a6 6 0 0 1 6 6V467c-12.5-10.1-20.26-10.1-24.97-10.1-7.48 0-17.43 10.1-24.9 10.1-4.64 0-12.5 0-24.9-10.1z" stroke="#1071e5" stroke-width="2" fill="#edf5ff"/><path d="M233.75 417.93a6 6 0 0 1 6-6h62.78a6 6 0 0 1 6 6v54.4c-12.5-10.1-20.27-10.1-24.98-10.1-7.48 0-17.42 10.1-24.9 10.1-4.64 0-12.5 0-24.9-10.1z" stroke="#1071e5" stroke-width="2" fill="#edf5ff"/><path d="M237.9 423.26a6 6 0 0 1 6-6h62.78a6 6 0 0 1 6 6v54.4c-12.5-10.1-20.26-10.1-24.97-10.1-7.47 0-17.42 10.1-24.9 10.1-4.63 0-12.5 0-24.9-10.1z" stroke="#1071e5" stroke-width="2" fill="#edf5ff"/><g><use xlink:href="#S" transform="matrix(1,0,0,1,242.90062434797548,422.26007838473333) translate(5.169053819444443 18.45138888888889)"/><use xlink:href="#T" transform="matrix(1,0,0,1,242.90062434797548,422.26007838473333) translate(36.05555555555556 18.45138888888889)"/><use xlink:href="#d" transform="matrix(1,0,0,1,242.90062434797548,422.26007838473333) translate(12.992404513888893 31.895399305555557)"/></g><path d="M140.2 265.08h38.96a.03.03 0 0 1 .03.04.03.03 0 0 0 .02.03h17.27a.07.07 0 0 0 .06-.07.07.07 0 0 1 .07-.07h38.93" stroke="#008a0e" stroke-width="2" fill="none"/><path d="M140.22 266.06h-.63l-.8-1.95h1.42zM236.56 265.98h-1.03v-1.95h1.03z" stroke="#008a0e" stroke-width=".05" fill="#008a0e"/><path d="M314.68 375.06h112.16" stroke="#1071e5" stroke-width="2" fill="none"/><path d="M314.7 376.04h-1.02v-1.95h1.03z" stroke="#1071e5" stroke-width=".05" fill="#1071e5"/><path d="M442.1 375.06l-14.26 4.64v-9.27z" stroke="#1071e5" stroke-width="2" fill="#1071e5"/><path d="M541.03 293.92v-9.52m0-9.52v-9.52l.07-.94.22-.92.36-.87.5-.8.6-.7.72-.63.8-.5.87-.35.92-.22.93-.07h7.38m7.4 0h7.38" stroke="#008a0e" stroke-width="2" fill="none"/><path d="M542 294.92h-1.95v-1.03H542zM570.18 260.33h-1.02v-1.95h1.02z" stroke="#008a0e" stroke-width=".05" fill="#008a0e"/><path d="M539 428.2v8.7m0 8.7v8.7l.07.94.22.9.35.88.5.8.6.72.72.6.8.5.88.37.9.23.95.07h8.06m8.06 0h8.06" stroke="#1071e5" stroke-width="2" fill="none"/><path d="M539.98 428.24H538v-1.03H540zM570.18 461.27h-1.02v-1.94h1.02z" stroke="#1071e5" stroke-width=".05" fill="#1071e5"/><path d="M314.68 442.13H455.2a6 6 0 0 0 6-6v-7.92" stroke="#1071e5" stroke-width="2" fill="none"/><path d="M314.7 443.1h-1.02v-1.95h1.03zM462.18 428.24h-1.95v-1.03h1.95z" stroke="#1071e5" stroke-width=".05" fill="#1071e5"/><defs><path d="M645 0H180v-1490h484c435 0 692 280 692 742 0 466-257 748-711 748zM370-168h263c363 0 539-218 539-580 0-358-176-574-521-574H370v1154" id="U"/><path d="M628 24c-324 0-524-230-524-574 0-343 198-582 503-582 237 0 487 146 487 559v75H286c9 234 145 362 343 362 132 0 231-58 273-172l174 48C1024-91 857 24 628 24zM287-650h624c-17-190-120-322-304-322-192 0-309 151-320 322" id="V"/><path d="M158 418v-1536h174v179h20c37-59 106-193 324-193 279 0 474 222 474 576 0 356-194 580-473 580-213 0-288-135-325-197h-14v591H158zm492-555c209 0 317-186 317-421 0-232-105-413-317-413-206 0-314 166-314 413 0 249 111 421 314 421" id="W"/><path d="M613 24c-304 0-509-231-509-576 0-350 205-580 509-580 305 0 511 230 511 580 0 345-206 576-511 576zm0-161c226 0 329-195 329-415 0-222-103-419-329-419-223 0-326 196-326 419 0 220 103 415 326 415" id="X"/><path d="M538 24C308 24 148-78 108-271l171-41c32 123 123 178 257 178 156 0 256-77 256-169 0-77-54-128-164-154l-186-44c-203-48-300-148-300-305 0-192 176-326 414-326 230 0 351 112 402 269l-163 42c-31-80-94-158-238-158-133 0-233 69-233 162 0 83 57 129 188 160l169 40c203 48 298 149 298 302 0 196-179 339-441 339" id="Y"/><path d="M158 0v-1118h180V0H158zm91-1301c-68 0-125-53-125-119s57-119 125-119c69 0 126 53 126 119s-57 119-126 119" id="Z"/><path d="M598-1118v154H368v674c0 100 37 144 132 144 23 0 62-6 92-12L629-6c-37 13-88 20-134 20-193 0-307-107-307-290v-688H20v-154h168v-266h180v266h230" id="aa"/><path d="M158 0v-1118h174v172h12c41-113 157-188 290-188 26 0 70 2 91 3v181c-11-2-60-10-108-10-161 0-279 109-279 260V0H158" id="ab"/><g id="a"><use transform="matrix(0.005425347222222222,0,0,0.005425347222222222,0,0)" xlink:href="#U"/><use transform="matrix(0.005425347222222222,0,0,0.005425347222222222,8.018663194444445,0)" xlink:href="#V"/><use transform="matrix(0.005425347222222222,0,0,0.005425347222222222,14.49652777777778,0)" xlink:href="#W"/><use transform="matrix(0.005425347222222222,0,0,0.005425347222222222,21.299913194444443,0)" xlink:href="#X"/><use transform="matrix(0.005425347222222222,0,0,0.005425347222222222,27.962239583333332,0)" xlink:href="#Y"/><use transform="matrix(0.005425347222222222,0,0,0.005425347222222222,33.82703993055556,0)" xlink:href="#Z"/><use transform="matrix(0.005425347222222222,0,0,0.005425347222222222,36.51801215277778,0)" xlink:href="#aa"/><use transform="matrix(0.005425347222222222,0,0,0.005425347222222222,40.04448784722222,0)" xlink:href="#X"/><use transform="matrix(0.005425347222222222,0,0,0.005425347222222222,46.70681423611111,0)" xlink:href="#ab"/></g><path d="M180 0v-1490h510c348 0 508 194 508 460 0 198-88 351-276 417L1256 0h-220L726-579c-117 2-238 0-356 1V0H180zm190-747h312c235 0 327-108 327-283 0-177-92-293-329-293H370v576" id="ac"/><path d="M577 24c-279 0-473-224-473-580 0-354 195-576 474-576 218 0 287 134 324 193h14v-551h180V0H922v-173h-20C865-111 790 24 577 24zm27-161c203 0 314-172 314-421 0-247-108-413-314-413-212 0-317 181-317 413 0 235 108 421 317 421" id="ad"/><path d="M158 0v-1118h175l1 205c55-151 181-225 313-225 147 0 245 90 285 228 53-141 190-228 352-228 194 0 352 125 352 384V0h-181v-749c0-161-105-225-225-225-151 0-243 103-243 244V0H807v-767c0-124-93-207-219-207-131 0-250 92-250 270V0H158" id="ae"/><g id="b"><use transform="matrix(0.005425347222222222,0,0,0.005425347222222222,0,0)" xlink:href="#ac"/><use transform="matrix(0.005425347222222222,0,0,0.005425347222222222,6.987847222222222,0)" xlink:href="#V"/><use transform="matrix(0.005425347222222222,0,0,0.005425347222222222,13.465711805555552,0)" xlink:href="#ad"/><use transform="matrix(0.005425347222222222,0,0,0.005425347222222222,20.26909722222222,0)" xlink:href="#V"/><use transform="matrix(0.005425347222222222,0,0,0.005425347222222222,26.746961805555554,0)" xlink:href="#V"/><use transform="matrix(0.005425347222222222,0,0,0.005425347222222222,33.224826388888886,0)" xlink:href="#ae"/></g><path d="M749-1490V0H444v-1221h-10L93-980v-279l329-231h327" id="af"/><path d="M690 20C314 20 94-261 94-744c0-482 221-766 596-766 376 0 597 284 597 766 0 483-219 764-597 764zm0-253c184 0 286-184 286-511 0-328-102-514-286-514-183 0-285 187-285 514s101 511 285 511" id="ag"/><g id="c"><use transform="matrix(0.005425347222222222,0,0,0.005425347222222222,0,0)" xlink:href="#af"/><use transform="matrix(0.005425347222222222,0,0,0.005425347222222222,4.790581597222222,0)" xlink:href="#ag"/><use transform="matrix(0.005425347222222222,0,0,0.005425347222222222,12.28298611111111,0)" xlink:href="#ag"/></g><path d="M338-670V0H158v-1490h180v566c73-149 190-208 336-208 226 0 379 139 379 422V0H872v-695c0-172-96-275-252-275-161 0-282 109-282 300" id="ah"/><path d="M471 26C259 26 90-98 90-318c0-256 228-303 435-329 202-27 287-16 287-108 0-139-79-219-234-219-161 0-248 86-283 164l-173-57c86-203 278-265 451-265 150 0 419 46 419 395V0H815v-152h-12C765-73 660 26 471 26zm31-159c199 0 310-134 310-271v-155c-30 35-226 55-295 64-131 17-246 59-246 186 0 116 97 176 231 176" id="ai"/><g id="d"><use transform="matrix(0.005425347222222222,0,0,0.005425347222222222,0,0)" xlink:href="#Y"/><use transform="matrix(0.005425347222222222,0,0,0.005425347222222222,5.864800347222222,0)" xlink:href="#ah"/><use transform="matrix(0.005425347222222222,0,0,0.005425347222222222,12.434895833333332,0)" xlink:href="#ai"/><use transform="matrix(0.005425347222222222,0,0,0.005425347222222222,18.674045138888886,0)" xlink:href="#ab"/><use transform="matrix(0.005425347222222222,0,0,0.005425347222222222,22.67252604166666,0)" xlink:href="#V"/><use transform="matrix(0.005425347222222222,0,0,0.005425347222222222,29.150390624999993,0)" xlink:href="#Y"/></g><path d="M576-274c-177 0-320-143-320-320s143-320 320-320 320 143 320 320-143 320-320 320" id="aj"/><use transform="matrix(0.004340277777777778,0,0,0.004340277777777778,0,0)" xlink:href="#aj" id="g"/><path d="M52 0l541-1490h220L1361 0h-200l-149-416H398L254 0H52zm404-582h497c-103-290-145-390-251-756-108 377-145 460-246 756" id="ak"/><g id="h"><use transform="matrix(0.004340277777777778,0,0,0.004340277777777778,0,0)" xlink:href="#ak"/><use transform="matrix(0.004340277777777778,0,0,0.004340277777777778,6.1328125,0)" xlink:href="#Y"/><use transform="matrix(0.004340277777777778,0,0,0.004340277777777778,10.824652777777779,0)" xlink:href="#Y"/><use transform="matrix(0.004340277777777778,0,0,0.004340277777777778,15.516493055555555,0)" xlink:href="#V"/><use transform="matrix(0.004340277777777778,0,0,0.004340277777777778,20.69878472222222,0)" xlink:href="#aa"/></g><path d="M226-283v-166h904v166H226zm0-434v-166h904v166H226" id="al"/><use transform="matrix(0.004340277777777778,0,0,0.004340277777777778,0,0)" xlink:href="#al" id="i"/><path d="M51 0l535-762-487-728h354c99 152 240 357 306 516 68-159 211-365 312-516h346L934-771 1461 0h-362C993-164 838-379 756-546 674-378 513-163 404 0H51" id="am"/><path d="M135 0v-1490h581c339 0 533 192 533 485 0 204-94 351-264 424L1302 0H964L680-532H440V0H135zm305-779h220c186 0 274-77 274-226 0-150-88-233-275-233H440v459" id="an"/><path d="M135 0v-1490h581c339 0 533 210 533 503 0 295-197 500-540 500H440V0H135zm305-733h220c186 0 274-104 274-254s-88-251-275-251H440v505" id="ao"/><g id="j"><use transform="matrix(0.004340277777777778,0,0,0.004340277777777778,0,0)" xlink:href="#am"/><use transform="matrix(0.004340277777777778,0,0,0.004340277777777778,6.5625,0)" xlink:href="#an"/><use transform="matrix(0.004340277777777778,0,0,0.004340277777777778,12.400173611111112,0)" xlink:href="#ao"/></g><path d="M180 0v-1490h510c348 0 508 209 508 474 0 266-160 477-507 477H370V0H180zm190-706h312c236 0 327-133 327-310 0-176-91-307-329-307H370v617" id="ap"/><path d="M481 0L54-1118h197c107 314 236 620 325 951 87-331 217-637 324-951h197L670 0H481" id="aq"/><g id="k"><use transform="matrix(0.004340277777777778,0,0,0.004340277777777778,0,0)" xlink:href="#ap"/><use transform="matrix(0.004340277777777778,0,0,0.004340277777777778,5.677083333333334,0)" xlink:href="#ab"/><use transform="matrix(0.004340277777777778,0,0,0.004340277777777778,9.16232638888889,0)" xlink:href="#Z"/><use transform="matrix(0.004340277777777778,0,0,0.004340277777777778,11.315104166666668,0)" xlink:href="#aq"/><use transform="matrix(0.004340277777777778,0,0,0.004340277777777778,16.26736111111111,0)" xlink:href="#ai"/><use transform="matrix(0.004340277777777778,0,0,0.004340277777777778,21.258680555555557,0)" xlink:href="#aa"/><use transform="matrix(0.004340277777777778,0,0,0.004340277777777778,24.07986111111111,0)" xlink:href="#V"/></g><path d="M600 0L52-1490h200c166 485 304 806 458 1336 156-533 285-846 449-1336h202L819 0H600" id="ar"/><path d="M537 14c-226 0-379-139-379-422v-710h180v695c0 172 97 275 253 275 160 0 281-109 281-300v-670h181V0H879v-209C806-46 684 14 537 14" id="as"/><path d="M338-1490V0H158v-1490h180" id="at"/><g id="l"><use transform="matrix(0.004340277777777778,0,0,0.004340277777777778,0,0)" xlink:href="#ar"/><use transform="matrix(0.004340277777777778,0,0,0.004340277777777778,5.681423611111111,0)" xlink:href="#ai"/><use transform="matrix(0.004340277777777778,0,0,0.004340277777777778,10.672743055555555,0)" xlink:href="#as"/><use transform="matrix(0.004340277777777778,0,0,0.004340277777777778,15.928819444444445,0)" xlink:href="#at"/><use transform="matrix(0.004340277777777778,0,0,0.004340277777777778,18.211805555555557,0)" xlink:href="#aa"/></g><path d="M135 0v-1490h340l471 754c59 97 122 210 187 365-32-387-14-721-19-1119h312V0h-341C855-382 627-689 427-1113c32 420 16 695 20 1113H135" id="au"/><path d="M628 22C291 22 81-210 81-554c0-346 210-578 547-578 336 0 547 232 547 578 0 344-211 576-547 576zm0-236c160 0 242-146 242-341 0-197-82-341-242-341S387-753 387-555c0 195 81 341 241 341" id="av"/><g id="m"><use transform="matrix(0.004340277777777778,0,0,0.004340277777777778,0,0)" xlink:href="#au"/><use transform="matrix(0.004340277777777778,0,0,0.004340277777777778,6.775173611111112,0)" xlink:href="#av"/></g><path d="M98-1322v-168h1126v168H757V0H567v-1322H98" id="aw"/><path d="M338-670V0H158v-1118h173l1 207c72-158 192-221 342-221 226 0 378 139 378 422V0H872v-695c0-172-96-275-252-275-161 0-282 109-282 300" id="ax"/><path d="M678-1118v154H420V0H240v-964H20v-154h220v-149c0-194 155-293 318-293 85 0 141 18 168 30l-50 154c-19-6-47-17-97-17-111 0-159 58-159 166v109h258" id="ay"/><path d="M677 24c-213 0-288-135-325-197h-20V0H158v-1490h180v551h14c37-59 106-193 324-193 279 0 474 222 474 576 0 356-194 580-473 580zm-27-161c209 0 317-186 317-421 0-232-105-413-317-413-206 0-314 166-314 413 0 249 111 421 314 421" id="az"/><g id="n"><use transform="matrix(0.004340277777777778,0,0,0.004340277777777778,0,0)" xlink:href="#aw"/><use transform="matrix(0.004340277777777778,0,0,0.004340277777777778,5.234375,0)" xlink:href="#ab"/><use transform="matrix(0.004340277777777778,0,0,0.004340277777777778,8.580729166666668,0)" xlink:href="#ai"/><use transform="matrix(0.004340277777777778,0,0,0.004340277777777778,13.572048611111112,0)" xlink:href="#ax"/><use transform="matrix(0.004340277777777778,0,0,0.004340277777777778,18.82378472222222,0)" xlink:href="#Y"/><use transform="matrix(0.004340277777777778,0,0,0.004340277777777778,23.515625000000004,0)" xlink:href="#ay"/><use transform="matrix(0.004340277777777778,0,0,0.004340277777777778,26.545138888888893,0)" xlink:href="#V"/><use transform="matrix(0.004340277777777778,0,0,0.004340277777777778,31.72743055555556,0)" xlink:href="#ab"/><use transform="matrix(0.004340277777777778,0,0,0.004340277777777778,35.07378472222223,0)" xlink:href="#ai"/><use transform="matrix(0.004340277777777778,0,0,0.004340277777777778,40.06510416666667,0)" xlink:href="#az"/><use transform="matrix(0.004340277777777778,0,0,0.004340277777777778,45.50781250000001,0)" xlink:href="#at"/><use transform="matrix(0.004340277777777778,0,0,0.004340277777777778,47.660590277777786,0)" xlink:href="#V"/></g><path d="M657 26c-323 0-524-166-541-416h195c15 169 171 246 346 246 202 0 356-106 356-265 5-203-294-238-475-293-239-73-380-191-380-389 0-252 224-419 512-419 294 0 499 171 508 396H992c-17-145-151-228-328-228-193 0-321 102-321 242 0 156 175 211 284 241l149 41c160 44 422 134 422 412 0 244-197 432-541 432" id="aA"/><g id="o"><use transform="matrix(0.004340277777777778,0,0,0.004340277777777778,0,0)" xlink:href="#aA"/><use transform="matrix(0.004340277777777778,0,0,0.004340277777777778,5.703125,0)" xlink:href="#ah"/><use transform="matrix(0.004340277777777778,0,0,0.004340277777777778,10.95920138888889,0)" xlink:href="#ai"/><use transform="matrix(0.004340277777777778,0,0,0.004340277777777778,15.950520833333334,0)" xlink:href="#ab"/><use transform="matrix(0.004340277777777778,0,0,0.004340277777777778,19.149305555555557,0)" xlink:href="#V"/><use transform="matrix(0.004340277777777778,0,0,0.004340277777777778,24.331597222222225,0)" xlink:href="#Y"/></g><use transform="matrix(0.004340277777777778,0,0,0.004340277777777778,0,0)" xlink:href="#al" id="p"/><path d="M180 0v-1490h908v168H370v486h669v168H370v500h727V0H180" id="aB"/><path d="M65 0l393-574-370-544h210c88 136 192 297 267 435 67-142 176-302 264-435h206L661-564 1053 0H844c-94-144-206-310-287-458C484-308 366-142 273 0H65" id="aC"/><path d="M613 24c-304 0-509-231-509-576 0-350 205-580 509-580 216 0 392 114 453 309l-173 49c-33-115-133-197-280-197-223 0-326 196-326 419 0 220 103 415 326 415 150 0 252-85 285-206l172 49C1010-95 832 24 613 24" id="aD"/><path d="M611 442c-248 0-391-105-460-228l146-94c47 65 117 165 314 165 178 0 307-82 307-266v-224h-17C863-141 792-18 576-18c-268 0-472-195-472-546 0-346 197-568 476-568 216 0 288 133 326 193h17v-179h175V29c0 289-215 413-487 413zm-5-620c203 0 314-146 314-390 0-237-108-403-314-403-213 0-319 180-319 403 0 230 109 390 319 390" id="aE"/><g id="q"><use transform="matrix(0.004340277777777778,0,0,0.004340277777777778,0,0)" xlink:href="#aB"/><use transform="matrix(0.004340277777777778,0,0,0.004340277777777778,5.342881944444445,0)" xlink:href="#aC"/><use transform="matrix(0.004340277777777778,0,0,0.004340277777777778,9.995659722222221,0)" xlink:href="#aD"/><use transform="matrix(0.004340277777777778,0,0,0.004340277777777778,15.073784722222221,0)" xlink:href="#ah"/><use transform="matrix(0.004340277777777778,0,0,0.004340277777777778,20.32986111111111,0)" xlink:href="#ai"/><use transform="matrix(0.004340277777777778,0,0,0.004340277777777778,25.321180555555557,0)" xlink:href="#ax"/><use transform="matrix(0.004340277777777778,0,0,0.004340277777777778,30.572916666666668,0)" xlink:href="#aE"/><use transform="matrix(0.004340277777777778,0,0,0.004340277777777778,36.02430555555556,0)" xlink:href="#V"/></g><path d="M295 13c-75 0-135-60-135-135s60-135 135-135 135 60 135 135S370 13 295 13zm0-809c-75 0-135-60-135-135s60-135 135-135 135 60 135 135-60 135-135 135" id="aF"/><g id="r"><use transform="matrix(0.004340277777777778,0,0,0.004340277777777778,0,0)" xlink:href="#ac"/><use transform="matrix(0.004340277777777778,0,0,0.004340277777777778,5.677083333333334,0)" xlink:href="#ai"/><use transform="matrix(0.004340277777777778,0,0,0.004340277777777778,10.668402777777779,0)" xlink:href="#aa"/><use transform="matrix(0.004340277777777778,0,0,0.004340277777777778,13.489583333333334,0)" xlink:href="#V"/><use transform="matrix(0.004340277777777778,0,0,0.004340277777777778,18.671875,0)" xlink:href="#aF"/></g><use transform="matrix(0.004340277777777778,0,0,0.004340277777777778,0,0)" xlink:href="#af" id="s"/><path d="M768-1560L288 224H28l480-1784h260" id="aG"/><path d="M572 22C302 22 117-98 78-306l279-48c29 105 101 156 224 156 114 0 185-48 185-115 0-118-228-130-337-155-215-49-322-150-322-317 0-215 187-347 470-347 265 0 424 116 466 298l-266 47c-24-76-87-130-196-130-98 0-174 46-174 113 0 56 38 95 144 117l201 40c216 44 320 143 320 302 0 220-207 367-500 367" id="aH"/><path d="M428-647V0H128v-1490h294v586c65-146 175-228 341-228 232 0 385 159 385 421V0H847v-659c0-139-76-222-202-222-128 0-217 86-217 234" id="aI"/><path d="M440 22C227 22 68-92 68-313c0-250 202-322 422-343 195-21 271-24 271-105 0-95-63-149-175-149-116 0-187 57-211 129l-275-46c57-194 237-305 487-305 240 0 474 108 474 379V0H777v-155h-10C713-51 605 22 440 22zm85-211c140 0 238-93 238-211v-121c-37 26-156 42-222 51-111 16-185 59-185 149 0 87 70 132 169 132" id="aJ"/><path d="M128 0v-1118h290v195h12c54-169 184-238 367-200v268c-27-8-86-15-130-15-138 0-239 95-239 234V0H128" id="aK"/><path d="M633 22C291 22 81-200 81-553c0-345 210-579 537-579 292 0 525 185 525 567v84H378c7 183 109 277 260 277 105 0 184-46 216-132l272 51C1071-99 893 22 633 22zM380-669h474c-15-146-94-237-233-237-143 0-229 99-241 237" id="aL"/><g id="t"><use transform="matrix(0.004340277777777778,0,0,0.004340277777777778,0,0)" xlink:href="#am"/><use transform="matrix(0.004340277777777778,0,0,0.004340277777777778,6.5625,0)" xlink:href="#an"/><use transform="matrix(0.004340277777777778,0,0,0.004340277777777778,12.400173611111112,0)" xlink:href="#ao"/><use transform="matrix(0.004340277777777778,0,0,0.004340277777777778,18.15972222222222,0)" xlink:href="#aG"/><use transform="matrix(0.004340277777777778,0,0,0.004340277777777778,21.610243055555554,0)" xlink:href="#aH"/><use transform="matrix(0.004340277777777778,0,0,0.004340277777777778,26.588541666666664,0)" xlink:href="#aI"/><use transform="matrix(0.004340277777777778,0,0,0.004340277777777778,32.12239583333333,0)" xlink:href="#aJ"/><use transform="matrix(0.004340277777777778,0,0,0.004340277777777778,37.28298611111111,0)" xlink:href="#aK"/><use transform="matrix(0.004340277777777778,0,0,0.004340277777777778,40.685763888888886,0)" xlink:href="#aL"/></g><g id="v"><use transform="matrix(0.004340277777777778,0,0,0.004340277777777778,0,0)" xlink:href="#aA"/><use transform="matrix(0.004340277777777778,0,0,0.004340277777777778,5.703125,0)" xlink:href="#ah"/><use transform="matrix(0.004340277777777778,0,0,0.004340277777777778,10.95920138888889,0)" xlink:href="#ai"/><use transform="matrix(0.004340277777777778,0,0,0.004340277777777778,15.950520833333334,0)" xlink:href="#ab"/><use transform="matrix(0.004340277777777778,0,0,0.004340277777777778,19.149305555555557,0)" xlink:href="#V"/></g><g id="w"><use transform="matrix(0.004340277777777778,0,0,0.004340277777777778,0,0)" xlink:href="#aw"/><use transform="matrix(0.004340277777777778,0,0,0.004340277777777778,5.043402777777778,0)" xlink:href="#X"/><use transform="matrix(0.004340277777777778,0,0,0.004340277777777778,10.37326388888889,0)" xlink:href="#aa"/><use transform="matrix(0.004340277777777778,0,0,0.004340277777777778,13.324652777777779,0)" xlink:href="#ai"/><use transform="matrix(0.004340277777777778,0,0,0.004340277777777778,18.31597222222222,0)" xlink:href="#at"/></g><g id="x"><use transform="matrix(0.004340277777777778,0,0,0.004340277777777778,0,0)" xlink:href="#ak"/><use transform="matrix(0.004340277777777778,0,0,0.004340277777777778,6.1328125,0)" xlink:href="#Y"/><use transform="matrix(0.004340277777777778,0,0,0.004340277777777778,10.824652777777779,0)" xlink:href="#Y"/><use transform="matrix(0.004340277777777778,0,0,0.004340277777777778,15.516493055555555,0)" xlink:href="#V"/><use transform="matrix(0.004340277777777778,0,0,0.004340277777777778,20.69878472222222,0)" xlink:href="#aa"/></g><g id="y"><use transform="matrix(0.004340277777777778,0,0,0.004340277777777778,0,0)" xlink:href="#aw"/><use transform="matrix(0.004340277777777778,0,0,0.004340277777777778,5.043402777777778,0)" xlink:href="#X"/><use transform="matrix(0.004340277777777778,0,0,0.004340277777777778,10.37326388888889,0)" xlink:href="#aa"/><use transform="matrix(0.004340277777777778,0,0,0.004340277777777778,13.324652777777779,0)" xlink:href="#ai"/><use transform="matrix(0.004340277777777778,0,0,0.004340277777777778,18.31597222222222,0)" xlink:href="#at"/></g><path d="M571 0L49-1490h339c138 427 271 775 384 1244 111-471 237-815 371-1244h337L970 0H571" id="aM"/><path d="M513 14c-232 0-385-159-385-421v-711h300v659c0 139 76 222 202 222 127 0 217-86 217-234v-647h301V0H864l-4-232C797-74 683 14 513 14" id="aN"/><path d="M428-1490V0H128v-1490h300" id="aO"/><path d="M683-1118v229H474v562c0 71 29 104 102 104 23 0 73-7 95-13l43 225C647 9 580 16 520 16 296 16 174-96 174-301v-588H20v-229h154v-266h300v266h209" id="aP"/><g id="A"><use transform="matrix(0.005486206110351118,0,0,0.005486206110351118,0,0)" xlink:href="#aM"/><use transform="matrix(0.005486206110351118,0,0,0.005486206110351118,7.7245782033743735,0)" xlink:href="#aJ"/><use transform="matrix(0.005486206110351118,0,0,0.005486206110351118,14.247677268581851,0)" xlink:href="#aN"/><use transform="matrix(0.005486206110351118,0,0,0.005486206110351118,21.242590059279525,0)" xlink:href="#aO"/><use transform="matrix(0.005486206110351118,0,0,0.005486206110351118,24.452020633834923,0)" xlink:href="#aP"/></g><g id="B"><use transform="matrix(0.004340277777777778,0,0,0.004340277777777778,0,0)" xlink:href="#aw"/><use transform="matrix(0.004340277777777778,0,0,0.004340277777777778,5.043402777777778,0)" xlink:href="#X"/><use transform="matrix(0.004340277777777778,0,0,0.004340277777777778,10.37326388888889,0)" xlink:href="#aa"/><use transform="matrix(0.004340277777777778,0,0,0.004340277777777778,13.324652777777779,0)" xlink:href="#ai"/><use transform="matrix(0.004340277777777778,0,0,0.004340277777777778,18.31597222222222,0)" xlink:href="#at"/></g><path d="M818-733v240H140v-240h678" id="aQ"/><g id="C"><use transform="matrix(0.004340277777777778,0,0,0.004340277777777778,0,0)" xlink:href="#aQ"/><use transform="matrix(0.004340277777777778,0,0,0.004340277777777778,4.157986111111112,0)" xlink:href="#af"/><use transform="matrix(0.004340277777777778,0,0,0.004340277777777778,7.990451388888889,0)" xlink:href="#ag"/><use transform="matrix(0.004340277777777778,0,0,0.004340277777777778,13.984375,0)" xlink:href="#ag"/></g><g id="D"><use transform="matrix(0.004340277777777778,0,0,0.004340277777777778,0,0)" xlink:href="#am"/><use transform="matrix(0.004340277777777778,0,0,0.004340277777777778,6.5625,0)" xlink:href="#an"/><use transform="matrix(0.004340277777777778,0,0,0.004340277777777778,12.400173611111112,0)" xlink:href="#ao"/></g><g id="E"><use transform="matrix(0.004340277777777778,0,0,0.004340277777777778,0,0)" xlink:href="#aQ"/><use transform="matrix(0.004340277777777778,0,0,0.004340277777777778,4.157986111111112,0)" xlink:href="#af"/><use transform="matrix(0.004340277777777778,0,0,0.004340277777777778,7.990451388888889,0)" xlink:href="#ag"/><use transform="matrix(0.004340277777777778,0,0,0.004340277777777778,13.984375,0)" xlink:href="#ag"/></g><use transform="matrix(0.004340277777777778,0,0,0.004340277777777778,0,0)" xlink:href="#aj" id="F"/><g id="G"><use transform="matrix(0.004340277777777778,0,0,0.004340277777777778,0,0)" xlink:href="#ak"/><use transform="matrix(0.004340277777777778,0,0,0.004340277777777778,6.1328125,0)" xlink:href="#Y"/><use transform="matrix(0.004340277777777778,0,0,0.004340277777777778,10.824652777777779,0)" xlink:href="#Y"/><use transform="matrix(0.004340277777777778,0,0,0.004340277777777778,15.516493055555555,0)" xlink:href="#V"/><use transform="matrix(0.004340277777777778,0,0,0.004340277777777778,20.69878472222222,0)" xlink:href="#aa"/></g><g id="H"><use transform="matrix(0.004340277777777778,0,0,0.004340277777777778,0,0)" xlink:href="#aw"/><use transform="matrix(0.004340277777777778,0,0,0.004340277777777778,5.043402777777778,0)" xlink:href="#X"/><use transform="matrix(0.004340277777777778,0,0,0.004340277777777778,10.37326388888889,0)" xlink:href="#aa"/><use transform="matrix(0.004340277777777778,0,0,0.004340277777777778,13.324652777777779,0)" xlink:href="#ai"/><use transform="matrix(0.004340277777777778,0,0,0.004340277777777778,18.31597222222222,0)" xlink:href="#at"/></g><path d="M568-82v-393H183v-240h385v-393h254v393h386v240H822v393H568" id="aR"/><path d="M664 20c-306 0-529-183-535-438h297c6 117 110 196 238 196 149 0 255-108 255-266 0-159-108-270-261-270-89 0-178 39-224 98l-274-48 72-782h901v252H485l-39 377h8c53-72 165-124 294-124 269 0 467 204 467 490 0 300-224 515-551 515" id="aS"/><g id="I"><use transform="matrix(0.004340277777777778,0,0,0.004340277777777778,0,0)" xlink:href="#aR"/><use transform="matrix(0.004340277777777778,0,0,0.004340277777777778,6.032986111111112,0)" xlink:href="#aS"/><use transform="matrix(0.004340277777777778,0,0,0.004340277777777778,11.714409722222223,0)" xlink:href="#ag"/><use transform="matrix(0.004340277777777778,0,0,0.004340277777777778,17.708333333333336,0)" xlink:href="#ag"/></g><g id="J"><use transform="matrix(0.004340277777777778,0,0,0.004340277777777778,0,0)" xlink:href="#am"/><use transform="matrix(0.004340277777777778,0,0,0.004340277777777778,6.5625,0)" xlink:href="#an"/><use transform="matrix(0.004340277777777778,0,0,0.004340277777777778,12.400173611111112,0)" xlink:href="#ao"/></g><g id="K"><use transform="matrix(0.004340277777777778,0,0,0.004340277777777778,0,0)" xlink:href="#aA"/><use transform="matrix(0.004340277777777778,0,0,0.004340277777777778,5.703125,0)" xlink:href="#ah"/><use transform="matrix(0.004340277777777778,0,0,0.004340277777777778,10.95920138888889,0)" xlink:href="#ai"/><use transform="matrix(0.004340277777777778,0,0,0.004340277777777778,15.950520833333334,0)" xlink:href="#ab"/><use transform="matrix(0.004340277777777778,0,0,0.004340277777777778,19.149305555555557,0)" xlink:href="#V"/></g><g id="L"><use transform="matrix(0.004340277777777778,0,0,0.004340277777777778,0,0)" xlink:href="#aR"/><use transform="matrix(0.004340277777777778,0,0,0.004340277777777778,6.032986111111112,0)" xlink:href="#aS"/><use transform="matrix(0.004340277777777778,0,0,0.004340277777777778,11.714409722222223,0)" xlink:href="#ag"/><use transform="matrix(0.004340277777777778,0,0,0.004340277777777778,17.708333333333336,0)" xlink:href="#ag"/></g><g id="M"><use transform="matrix(0.005425347222222222,0,0,0.005425347222222222,0,0)" xlink:href="#aw"/><use transform="matrix(0.005425347222222222,0,0,0.005425347222222222,6.54296875,0)" xlink:href="#ab"/><use transform="matrix(0.005425347222222222,0,0,0.005425347222222222,10.725911458333332,0)" xlink:href="#ai"/><use transform="matrix(0.005425347222222222,0,0,0.005425347222222222,16.965060763888886,0)" xlink:href="#ax"/><use transform="matrix(0.005425347222222222,0,0,0.005425347222222222,23.52973090277778,0)" xlink:href="#Y"/><use transform="matrix(0.005425347222222222,0,0,0.005425347222222222,29.394531249999993,0)" xlink:href="#ay"/><use transform="matrix(0.005425347222222222,0,0,0.005425347222222222,33.18142361111111,0)" xlink:href="#V"/><use transform="matrix(0.005425347222222222,0,0,0.005425347222222222,39.65928819444444,0)" xlink:href="#ab"/></g><g id="N"><use transform="matrix(0.005425347222222222,0,0,0.005425347222222222,0,0)" xlink:href="#af"/><use transform="matrix(0.005425347222222222,0,0,0.005425347222222222,4.790581597222222,0)" xlink:href="#ag"/><use transform="matrix(0.005425347222222222,0,0,0.005425347222222222,12.28298611111111,0)" xlink:href="#ag"/></g><g id="O"><use transform="matrix(0.005425347222222222,0,0,0.005425347222222222,0,0)" xlink:href="#am"/><use transform="matrix(0.005425347222222222,0,0,0.005425347222222222,8.203125,0)" xlink:href="#an"/><use transform="matrix(0.005425347222222222,0,0,0.005425347222222222,15.500217013888888,0)" xlink:href="#ao"/></g><g id="P"><use transform="matrix(0.005425347222222222,0,0,0.005425347222222222,0,0)" xlink:href="#U"/><use transform="matrix(0.005425347222222222,0,0,0.005425347222222222,8.018663194444445,0)" xlink:href="#V"/><use transform="matrix(0.005425347222222222,0,0,0.005425347222222222,14.49652777777778,0)" xlink:href="#W"/><use transform="matrix(0.005425347222222222,0,0,0.005425347222222222,21.299913194444443,0)" xlink:href="#X"/><use transform="matrix(0.005425347222222222,0,0,0.005425347222222222,27.962239583333332,0)" xlink:href="#Y"/><use transform="matrix(0.005425347222222222,0,0,0.005425347222222222,33.82703993055556,0)" xlink:href="#Z"/><use transform="matrix(0.005425347222222222,0,0,0.005425347222222222,36.51801215277778,0)" xlink:href="#aa"/></g><g id="Q"><use transform="matrix(0.005425347222222222,0,0,0.005425347222222222,0,0)" xlink:href="#aS"/><use transform="matrix(0.005425347222222222,0,0,0.005425347222222222,7.101779513888888,0)" xlink:href="#ag"/><use transform="matrix(0.005425347222222222,0,0,0.005425347222222222,14.594184027777777,0)" xlink:href="#ag"/></g><g id="R"><use transform="matrix(0.005425347222222222,0,0,0.005425347222222222,0,0)" xlink:href="#am"/><use transform="matrix(0.005425347222222222,0,0,0.005425347222222222,8.203125,0)" xlink:href="#an"/><use transform="matrix(0.005425347222222222,0,0,0.005425347222222222,15.500217013888888,0)" xlink:href="#ao"/></g><path d="M370-1490V0H180v-1490h190" id="aT"/><g id="S"><use transform="matrix(0.005425347222222222,0,0,0.005425347222222222,0,0)" xlink:href="#aT"/><use transform="matrix(0.005425347222222222,0,0,0.005425347222222222,2.9839409722222223,0)" xlink:href="#Y"/><use transform="matrix(0.005425347222222222,0,0,0.005425347222222222,8.848741319444445,0)" xlink:href="#Y"/><use transform="matrix(0.005425347222222222,0,0,0.005425347222222222,14.713541666666668,0)" xlink:href="#as"/><use transform="matrix(0.005425347222222222,0,0,0.005425347222222222,21.28363715277778,0)" xlink:href="#V"/></g><g id="T"><use transform="matrix(0.005425347222222222,0,0,0.005425347222222222,0,0)" xlink:href="#af"/><use transform="matrix(0.005425347222222222,0,0,0.005425347222222222,4.790581597222222,0)" xlink:href="#ag"/><use transform="matrix(0.005425347222222222,0,0,0.005425347222222222,12.28298611111111,0)" xlink:href="#ag"/></g></defs></g></svg>