<svg xmlns="http://www.w3.org/2000/svg" xmlns:xlink="http://www.w3.org/1999/xlink" xmlns:lucid="lucid" width="688" height="310"><g transform="translate(-412 -29)" lucid:page-tab-id="alTV3a3a-iSR"><path d="M760 46a6 6 0 0 1 6-6h318a6 6 0 0 1 6 6v276.73a6 6 0 0 1-6 6H766a6 6 0 0 1-6-6z" stroke="#000" stroke-width="3" fill="#f2f3f5"/><path d="M487.73 89.92c10.6 0 19.2 8.6 19.2 19.2 0 10.58-8.6 19.17-19.2 19.17H439.2c-10.6 0-19.2-8.6-19.2-19.2s8.6-19.18 19.2-19.18z" stroke="#008a0e" stroke-width="2" fill="#e3fae3"/><use xlink:href="#a" transform="matrix(1,0,0,1,425,94.91874223424198) translate(12.48653561293447 18.537162221767005)"/><path d="M576.83 86.72a6 6 0 0 1 6-6h50.4a6 6 0 0 1 6 6v42.98c-10.42-8.18-16.9-8.18-20.84-8.18-6.25 0-14.55 8.18-20.8 8.18-3.86 0-10.4 0-20.77-8.18z" stroke="#008a0e" stroke-width="2" fill="#e3fae3"/><path d="M580.3 91.05a6 6 0 0 1 6-6h50.4a6 6 0 0 1 6 6v42.97c-10.43-8.18-16.92-8.18-20.85-8.18-6.24 0-14.53 8.18-20.77 8.18-3.87 0-10.42 0-20.78-8.18z" stroke="#008a0e" stroke-width="2" fill="#e3fae3"/><path d="M583.77 95.37a6 6 0 0 1 6-6h50.4a6 6 0 0 1 6 6v42.97c-10.43-8.17-16.92-8.17-20.85-8.17-6.24 0-14.54 8.18-20.78 8.18-3.87 0-10.42 0-20.77-8.18z" stroke="#008a0e" stroke-width="2" fill="#e3fae3"/><use xlink:href="#b" transform="matrix(1,0,0,1,588.766565793283,94.36747279549151) translate(7.029266591412504 12.893135937095726)"/><use xlink:href="#c" transform="matrix(1,0,0,1,588.766565793283,94.36747279549151) translate(0.7719652517464632 24.141298954645563)"/><use xlink:href="#d" transform="matrix(1,0,0,1,588.766565793283,94.36747279549151) translate(19.931971747742374 24.141298954645563)"/><path d="M648.16 109.53h93.34" stroke="#008a0e" stroke-width="2" fill="none"/><path d="M648.2 110.5h-1.04v-1.94h1.03z" stroke="#008a0e" stroke-width=".05" fill="#008a0e"/><path d="M756.76 109.53l-14.26 4.64v-9.27z" stroke="#008a0e" stroke-width="2" fill="#008a0e"/><path d="M563.22 169.7a6 6 0 0 1 6-6h84.55a6 6 0 0 1 6 6v20.44a6 6 0 0 1-6 6h-84.55a6 6 0 0 1-6-6z" stroke="#008a0e" stroke-width="2" fill="#e3fae3"/><use xlink:href="#e" transform="matrix(1,0,0,1,568.2242974252192,168.68772968090508) translate(3.0039183721563454 15.318738904384322)"/><use xlink:href="#f" transform="matrix(1,0,0,1,568.2242974252192,168.68772968090508) translate(44.35006205344184 15.318738904384322)"/><use xlink:href="#g" transform="matrix(1,0,0,1,568.2242974252192,168.68772968090508) translate(64.07509074741309 15.318738904384322)"/><path d="M759 179.9h-97.23M758.97 179.9H760" stroke="#008a0e" stroke-width="2" fill="none"/><path d="M661.8 180.9h-1.03v-1.96h1.02z" stroke="#008a0e" stroke-width=".05" fill="#008a0e"/><path d="M561.22 179.9h-91.97a6 6 0 0 1-6-6v-26.1" stroke="#008a0e" stroke-width="2" fill="none"/><path d="M562.22 180.9h-1.02v-1.96h1.02z" stroke="#008a0e" stroke-width=".05" fill="#008a0e"/><path d="M463.25 132.53l4.63 14.26h-9.27z" stroke="#008a0e" stroke-width="2" fill="#008a0e"/><path d="M487.73 212.02c10.6 0 19.2 8.6 19.2 19.2s-8.6 19.18-19.2 19.18H439.2c-10.6 0-19.2-8.6-19.2-19.2s8.6-19.18 19.2-19.18z" stroke="#1071e5" stroke-width="2" fill="#edf5ff"/><use xlink:href="#a" transform="matrix(1,0,0,1,425,217.0241061438774) translate(12.48653561293447 18.537162221767005)"/><path d="M563.22 220.24a6 6 0 0 1 6-6h84.55a6 6 0 0 1 6 6v20.45a6 6 0 0 1-6 6h-84.55a6 6 0 0 1-6-6z" stroke="#1071e5" stroke-width="2" fill="#edf5ff"/><use xlink:href="#h" transform="matrix(1,0,0,1,568.2242974252192,219.240969260726) translate(3.610474944585964 15.318738904384322)"/><use xlink:href="#i" transform="matrix(1,0,0,1,568.2242974252192,219.240969260726) translate(41.27429486726327 15.318738904384322)"/><use xlink:href="#j" transform="matrix(1,0,0,1,568.2242974252192,219.240969260726) translate(63.46853417498347 15.318738904384322)"/><path d="M508.92 231.2h52.3" stroke="#1071e5" stroke-width="2" fill="none"/><path d="M508.94 232.2h-1.14l.12-.93V231l-.1-.76h1.12zM562.22 232.2h-1.02v-1.96h1.02z" stroke="#1071e5" stroke-width=".05" fill="#1071e5"/><path d="M574.83 300.2H469.46a6 6 0 0 1-6-6v-24.3" stroke="#1071e5" stroke-width="2" fill="none"/><path d="M575.83 301.17h-1.02v-1.95h1.03z" stroke="#1071e5" stroke-width=".05" fill="#1071e5"/><path d="M463.46 254.63l4.63 14.27h-9.28z" stroke="#1071e5" stroke-width="2" fill="#1071e5"/><path d="M576.83 277.65a6 6 0 0 1 6-6h50.4a6 6 0 0 1 6 6v42.52c-10.42-8.1-16.9-8.1-20.84-8.1-6.25 0-14.55 8.1-20.8 8.1-3.86 0-10.4 0-20.77-8.1z" stroke="#1071e5" stroke-width="2" fill="#edf5ff"/><path d="M580.3 281.93a6 6 0 0 1 6-6h50.4a6 6 0 0 1 6 6v42.52c-10.43-8.1-16.92-8.1-20.85-8.1-6.24 0-14.53 8.1-20.77 8.1-3.87 0-10.42 0-20.78-8.1z" stroke="#1071e5" stroke-width="2" fill="#edf5ff"/><path d="M583.77 286.2a6 6 0 0 1 6-6h50.4a6 6 0 0 1 6 6v42.53c-10.43-8.1-16.92-8.1-20.85-8.1-6.24 0-14.54 8.1-20.78 8.1-3.87 0-10.42 0-20.77-8.1z" stroke="#1071e5" stroke-width="2" fill="#edf5ff"/><use xlink:href="#k" transform="matrix(1,0,0,1,588.766565793283,285.21417525510725) translate(2.839575523939339 12.893135937095726)"/><use xlink:href="#l" transform="matrix(1,0,0,1,588.766565793283,285.21417525510725) translate(28.681299518657347 12.893135937095726)"/><use xlink:href="#d" transform="matrix(1,0,0,1,588.766565793283,285.21417525510725) translate(10.35196849974442 24.141298954645563)"/><path d="M508.92 109.1h65.91" stroke="#008a0e" stroke-width="2" fill="none"/><path d="M508.94 110.08h-1.14l.12-.9v-.3l-.1-.75h1.12zM575.83 110.08h-1.02v-1.95h1.03z" stroke="#008a0e" stroke-width=".05" fill="#008a0e"/><path d="M661.77 230.47h38.95a.05.05 0 0 0 .05-.06.05.05 0 0 1 .05-.04h40.78" stroke="#1071e5" stroke-width="2" fill="none"/><path d="M661.8 231.44h-1.03v-1.95h1.02z" stroke="#1071e5" stroke-width=".05" fill="#1071e5"/><path d="M756.76 230.45l-14.3 4.55.06-9.27z" stroke="#1071e5" stroke-width="2" fill="#1071e5"/><path d="M779.3 129a6 6 0 0 1 6-6h97.2a6 6 0 0 1 6 6v30.64a6 6 0 0 1-6 6h-97.2a6 6 0 0 1-6-6z" stroke="#008a0e" stroke-width="2" fill="#e3fae3"/><use xlink:href="#m" transform="matrix(1,0,0,1,784.3022214346518,128) translate(1.046583157356354 13.419997010680614)"/><use xlink:href="#n" transform="matrix(1,0,0,1,784.3022214346518,128) translate(48.11744293154459 13.419997010680614)"/><use xlink:href="#o" transform="matrix(1,0,0,1,784.3022214346518,128) translate(67.4225721140071 13.419997010680614)"/><use xlink:href="#p" transform="matrix(1,0,0,1,784.3022214346518,128) translate(22.95767106118032 25.003074520158115)"/><use xlink:href="#n" transform="matrix(1,0,0,1,784.3022214346518,128) translate(38.25686907914637 25.003074520158115)"/><use xlink:href="#q" transform="matrix(1,0,0,1,784.3022214346518,128) translate(57.56199826160887 25.003074520158115)"/><path d="M833.9 121v-5.82l-.08-.94-.22-.9-.36-.9-.5-.8-.6-.7-.72-.6-.8-.5-.87-.37-.9-.22-.95-.07h-10.72m-10.7 0h-21.44m-10.7 0H763.6" stroke="#008a0e" stroke-width="2" fill="none"/><path d="M834.87 122h-1.95v-1.03h1.95z" stroke="#008a0e" stroke-width=".05" fill="#008a0e"/><path d="M763.64 109.18h-1.02M833.9 167.64V174l-.08.94-.22.9-.36.88-.5.8-.6.72-.72.6-.8.5-.87.37-.9.23-.95.07H820m-7.9 0h-15.8m-7.9 0h-7.9" stroke="#008a0e" stroke-width="2" fill="none"/><path d="M834.87 167.66h-1.95v-1.02h1.95z" stroke="#008a0e" stroke-width=".05" fill="#008a0e"/><path d="M765.24 180l14.26-4.63v9.26z" stroke="#008a0e" stroke-width="2" fill="#008a0e"/><path d="M779.3 251.26a6 6 0 0 1 6-6h97.2a6 6 0 0 1 6 6v29a6 6 0 0 1-6 6h-97.2a6 6 0 0 1-6-6z" stroke="#1071e5" stroke-width="2" fill="#edf5ff"/><use xlink:href="#r" transform="matrix(1,0,0,1,784.3022214346518,250.2591566059476) translate(0.34463289537620545 12.893135937095726)"/><use xlink:href="#s" transform="matrix(1,0,0,1,784.3022214346518,250.2591566059476) translate(45.64141205281358 12.893135937095726)"/><use xlink:href="#t" transform="matrix(1,0,0,1,784.3022214346518,250.2591566059476) translate(66.73512211841249 12.893135937095726)"/><use xlink:href="#u" transform="matrix(1,0,0,1,784.3022214346518,250.2591566059476) translate(87.92869480967165 12.893135937095726)"/><use xlink:href="#v" transform="matrix(1,0,0,1,784.3022214346518,250.2591566059476) translate(24.570398038501096 24.141298954645563)"/><use xlink:href="#w" transform="matrix(1,0,0,1,784.3022214346518,250.2591566059476) translate(45.25103997068716 24.141298954645563)"/><path d="M833.9 243.26v-6.74l-.08-.94-.22-.9-.36-.88-.5-.8-.6-.72-.72-.6-.8-.5-.87-.36-.9-.22-.95-.08h-10.64m-10.65 0h-21.28m-10.64 0h-10.64" stroke="#1071e5" stroke-width="2" fill="none"/><path d="M834.87 244.26h-1.95v-1.03h1.95z" stroke="#1071e5" stroke-width=".05" fill="#1071e5"/><path d="M764.06 230.52h-1.02M833.9 288.25V294l-.08.94-.22.9-.36.88-.5.8-.6.72-.72.6-.8.5-.87.37-.9.23-.95.07H820m-7.9 0h-15.8m-7.9 0h-7.9" stroke="#1071e5" stroke-width="2" fill="none"/><path d="M834.87 288.27h-1.95v-1.02h1.95z" stroke="#1071e5" stroke-width=".05" fill="#1071e5"/><path d="M765.24 300l14.26-4.63v9.26z" stroke="#1071e5" stroke-width="2" fill="#1071e5"/><path d="M900 129a6 6 0 0 1 6-6h168a6 6 0 0 1 6 6v151.25a6 6 0 0 1-6 6H906a6 6 0 0 1-6-6z" fill="#fff"/><path d="M916.18 123h10.18m5.1 0h10.18m5.1 0h10.17m5.1 0h10.18m5.1 0h10.18m5.08 0h10.2m5.08 0H1018m5.1 0h10.17m5.1 0h10.18m5.1 0h10.17m5.1 0h5.08l.94.07.9.22.88.35.8.5.72.6.6.72.5.8.37.88.23.9.07.95v5.04m0 5.04v10.1m0 5.03v10.1m0 5.03v10.1m0 5.03v10.08m0 5.04v10.08m0 5.05v10.1m0 5.03v10.08m0 5.06v10.08m0 5.04v10.08m0 5.04v5.05l-.07.94-.22.9-.35.87-.5.8-.6.72-.72.6-.8.5-.88.35-.9.22-.95.08h-5.1m-5.08 0h-10.18m-5.1 0h-10.18m-5.1 0h-10.17m-5.1 0h-10.18m-5.1 0h-10.18m-5.08 0h-10.2m-5.08 0H962m-5.1 0h-10.17m-5.1 0h-10.17m-5.1 0h-10.18m-5.1 0H906l-.94-.08-.9-.22-.88-.36-.8-.5-.72-.6-.6-.73-.5-.8-.37-.87-.23-.92-.07-.93v-5.05m0-5.04v-10.08m0-5.04v-10.08m0-5.05v-10.07m0-5.04v-10.1m0-5.03v-10.1m0-5.03v-10.08m0-5.04v-10.1m0-5.03v-10.1m0-5.03v-10.1m0-5.03V129l.07-.94.22-.9.35-.88.5-.8.6-.72.72-.6.8-.5.88-.37.9-.23.95-.07h5.1" stroke="#000" fill="none"/><g><use xlink:href="#x" transform="matrix(1,0,0,1,905,128) translate(3.541666666666667 58.888888888888886)"/><use xlink:href="#y" transform="matrix(1,0,0,1,905,128) translate(13.333333333333334 58.888888888888886)"/><use xlink:href="#z" transform="matrix(1,0,0,1,905,128) translate(45.966796875 58.888888888888886)"/><use xlink:href="#A" transform="matrix(1,0,0,1,905,128) translate(56.443142361111114 58.888888888888886)"/><use xlink:href="#x" transform="matrix(1,0,0,1,905,128) translate(3.541666666666667 72.33289930555556)"/><use xlink:href="#B" transform="matrix(1,0,0,1,905,128) translate(13.333333333333334 72.33289930555556)"/><use xlink:href="#C" transform="matrix(1,0,0,1,905,128) translate(53.03602430555556 72.33289930555556)"/><use xlink:href="#z" transform="matrix(1,0,0,1,905,128) translate(82.56076388888889 72.33289930555556)"/><use xlink:href="#D" transform="matrix(1,0,0,1,905,128) translate(93.037109375 72.33289930555556)"/><use xlink:href="#x" transform="matrix(1,0,0,1,905,128) translate(3.541666666666667 85.77690972222223)"/><use xlink:href="#E" transform="matrix(1,0,0,1,905,128) translate(13.333333333333334 85.77690972222223)"/><use xlink:href="#F" transform="matrix(1,0,0,1,905,128) translate(82.51193576388889 85.77690972222223)"/><use xlink:href="#G" transform="matrix(1,0,0,1,905,128) translate(121.42252604166666 85.77690972222223)"/><use xlink:href="#D" transform="matrix(1,0,0,1,905,128) translate(131.89887152777777 85.77690972222223)"/><use xlink:href="#x" transform="matrix(1,0,0,1,905,128) translate(3.541666666666667 99.2209201388889)"/><use xlink:href="#H" transform="matrix(1,0,0,1,905,128) translate(13.333333333333334 99.2209201388889)"/><use xlink:href="#I" transform="matrix(1,0,0,1,905,128) translate(67.96657986111111 99.2209201388889)"/><use xlink:href="#z" transform="matrix(1,0,0,1,905,128) translate(94.43142361111111 99.2209201388889)"/><use xlink:href="#J" transform="matrix(1,0,0,1,905,128) translate(104.90776909722223 99.2209201388889)"/><use xlink:href="#K" transform="matrix(1,0,0,1,905,128) translate(112.32964409722223 99.2209201388889)"/></g><path d="M648.16 300.2H757.5" stroke="#1071e5" stroke-width="2" fill="none"/><path d="M648.2 301.17h-1.04v-1.95h1.03zM758.5 301.17h-1.03v-1.95h1.03z" stroke="#1071e5" stroke-width=".05" fill="#1071e5"/><path d="M766.76 49a6 6 0 0 1 6-6H1077a6 6 0 0 1 6 6v28.72a6 6 0 0 1-6 6H772.76a6 6 0 0 1-6-6z" fill="none"/><g><use xlink:href="#L" transform="matrix(1,0,0,1,766.7564151591392,43) translate(136.41855193806225 27.331496118155517)"/></g><path d="M761 86.02h328" stroke="#000" stroke-width="2" stroke-linecap="round" fill="none"/><defs><path d="M645 0H180v-1490h484c435 0 692 280 692 742 0 466-257 748-711 748zM370-168h263c363 0 539-218 539-580 0-358-176-574-521-574H370v1154" id="M"/><path d="M628 24c-324 0-524-230-524-574 0-343 198-582 503-582 237 0 487 146 487 559v75H286c9 234 145 362 343 362 132 0 231-58 273-172l174 48C1024-91 857 24 628 24zM287-650h624c-17-190-120-322-304-322-192 0-309 151-320 322" id="N"/><path d="M158 418v-1536h174v179h20c37-59 106-193 324-193 279 0 474 222 474 576 0 356-194 580-473 580-213 0-288-135-325-197h-14v591H158zm492-555c209 0 317-186 317-421 0-232-105-413-317-413-206 0-314 166-314 413 0 249 111 421 314 421" id="O"/><path d="M613 24c-304 0-509-231-509-576 0-350 205-580 509-580 305 0 511 230 511 580 0 345-206 576-511 576zm0-161c226 0 329-195 329-415 0-222-103-419-329-419-223 0-326 196-326 419 0 220 103 415 326 415" id="P"/><path d="M538 24C308 24 148-78 108-271l171-41c32 123 123 178 257 178 156 0 256-77 256-169 0-77-54-128-164-154l-186-44c-203-48-300-148-300-305 0-192 176-326 414-326 230 0 351 112 402 269l-163 42c-31-80-94-158-238-158-133 0-233 69-233 162 0 83 57 129 188 160l169 40c203 48 298 149 298 302 0 196-179 339-441 339" id="Q"/><path d="M158 0v-1118h180V0H158zm91-1301c-68 0-125-53-125-119s57-119 125-119c69 0 126 53 126 119s-57 119-126 119" id="R"/><path d="M598-1118v154H368v674c0 100 37 144 132 144 23 0 62-6 92-12L629-6c-37 13-88 20-134 20-193 0-307-107-307-290v-688H20v-154h168v-266h180v266h230" id="S"/><path d="M158 0v-1118h174v172h12c41-113 157-188 290-188 26 0 70 2 91 3v181c-11-2-60-10-108-10-161 0-279 109-279 260V0H158" id="T"/><g id="a"><use transform="matrix(0.005618729568256116,0,0,0.005618729568256116,0,0)" xlink:href="#M"/><use transform="matrix(0.005618729568256116,0,0,0.005618729568256116,8.304482301882539,0)" xlink:href="#N"/><use transform="matrix(0.005618729568256116,0,0,0.005618729568256116,15.013245406380339,0)" xlink:href="#O"/><use transform="matrix(0.005618729568256116,0,0,0.005618729568256116,22.05913228497351,0)" xlink:href="#P"/><use transform="matrix(0.005618729568256116,0,0,0.005618729568256116,28.958932194792023,0)" xlink:href="#Q"/><use transform="matrix(0.005618729568256116,0,0,0.005618729568256116,35.03277885807688,0)" xlink:href="#R"/><use transform="matrix(0.005618729568256116,0,0,0.005618729568256116,37.81966872393191,0)" xlink:href="#S"/><use transform="matrix(0.005618729568256116,0,0,0.005618729568256116,41.47184294329839,0)" xlink:href="#P"/><use transform="matrix(0.005618729568256116,0,0,0.005618729568256116,48.3716428531169,0)" xlink:href="#T"/></g><path d="M180 0v-1490h510c348 0 508 194 508 460 0 198-88 351-276 417L1256 0h-220L726-579c-117 2-238 0-356 1V0H180zm190-747h312c235 0 327-108 327-283 0-177-92-293-329-293H370v576" id="U"/><path d="M577 24c-279 0-473-224-473-580 0-354 195-576 474-576 218 0 287 134 324 193h14v-551h180V0H922v-173h-20C865-111 790 24 577 24zm27-161c203 0 314-172 314-421 0-247-108-413-314-413-212 0-317 181-317 413 0 235 108 421 317 421" id="V"/><path d="M158 0v-1118h175l1 205c55-151 181-225 313-225 147 0 245 90 285 228 53-141 190-228 352-228 194 0 352 125 352 384V0h-181v-749c0-161-105-225-225-225-151 0-243 103-243 244V0H807v-767c0-124-93-207-219-207-131 0-250 92-250 270V0H158" id="W"/><g id="b"><use transform="matrix(0.0045392102572840345,0,0,0.0045392102572840345,0,0)" xlink:href="#U"/><use transform="matrix(0.0045392102572840345,0,0,0.0045392102572840345,5.8465028113818365,0)" xlink:href="#N"/><use transform="matrix(0.0045392102572840345,0,0,0.0045392102572840345,11.266319858578974,0)" xlink:href="#V"/><use transform="matrix(0.0045392102572840345,0,0,0.0045392102572840345,16.958489521213156,0)" xlink:href="#N"/><use transform="matrix(0.0045392102572840345,0,0,0.0045392102572840345,22.37830656841029,0)" xlink:href="#N"/><use transform="matrix(0.0045392102572840345,0,0,0.0045392102572840345,27.798123615607427,0)" xlink:href="#W"/></g><path d="M749-1490V0H444v-1221h-10L93-980v-279l329-231h327" id="X"/><path d="M690 20C314 20 94-261 94-744c0-482 221-766 596-766 376 0 597 284 597 766 0 483-219 764-597 764zm0-253c184 0 286-184 286-511 0-328-102-514-286-514-183 0-285 187-285 514s101 511 285 511" id="Y"/><g id="c"><use transform="matrix(0.0045392102572840345,0,0,0.0045392102572840345,0,0)" xlink:href="#X"/><use transform="matrix(0.0045392102572840345,0,0,0.0045392102572840345,4.0081226571818025,0)" xlink:href="#Y"/><use transform="matrix(0.0045392102572840345,0,0,0.0045392102572840345,10.276772022491054,0)" xlink:href="#Y"/></g><path d="M338-670V0H158v-1490h180v566c73-149 190-208 336-208 226 0 379 139 379 422V0H872v-695c0-172-96-275-252-275-161 0-282 109-282 300" id="Z"/><path d="M471 26C259 26 90-98 90-318c0-256 228-303 435-329 202-27 287-16 287-108 0-139-79-219-234-219-161 0-248 86-283 164l-173-57c86-203 278-265 451-265 150 0 419 46 419 395V0H815v-152h-12C765-73 660 26 471 26zm31-159c199 0 310-134 310-271v-155c-30 35-226 55-295 64-131 17-246 59-246 186 0 116 97 176 231 176" id="aa"/><g id="d"><use transform="matrix(0.0045392102572840345,0,0,0.0045392102572840345,0,0)" xlink:href="#Q"/><use transform="matrix(0.0045392102572840345,0,0,0.0045392102572840345,4.906886288124042,0)" xlink:href="#Z"/><use transform="matrix(0.0045392102572840345,0,0,0.0045392102572840345,10.403869909695008,0)" xlink:href="#aa"/><use transform="matrix(0.0045392102572840345,0,0,0.0045392102572840345,15.623961705571647,0)" xlink:href="#T"/><use transform="matrix(0.0045392102572840345,0,0,0.0045392102572840345,18.969359665189977,0)" xlink:href="#N"/><use transform="matrix(0.0045392102572840345,0,0,0.0045392102572840345,24.389176712387112,0)" xlink:href="#Q"/></g><path d="M98-1322v-168h1126v168H757V0H567v-1322H98" id="ab"/><path d="M338-670V0H158v-1118h173l1 207c72-158 192-221 342-221 226 0 378 139 378 422V0H872v-695c0-172-96-275-252-275-161 0-282 109-282 300" id="ac"/><path d="M678-1118v154H420V0H240v-964H20v-154h220v-149c0-194 155-293 318-293 85 0 141 18 168 30l-50 154c-19-6-47-17-97-17-111 0-159 58-159 166v109h258" id="ad"/><g id="e"><use transform="matrix(0.004776036003382869,0,0,0.004776036003382869,0,0)" xlink:href="#ab"/><use transform="matrix(0.004776036003382869,0,0,0.004776036003382869,5.75989942007974,0)" xlink:href="#T"/><use transform="matrix(0.004776036003382869,0,0,0.004776036003382869,9.442223178687932,0)" xlink:href="#aa"/><use transform="matrix(0.004776036003382869,0,0,0.004776036003382869,14.934664582578232,0)" xlink:href="#ac"/><use transform="matrix(0.004776036003382869,0,0,0.004776036003382869,20.713668146671502,0)" xlink:href="#Q"/><use transform="matrix(0.004776036003382869,0,0,0.004776036003382869,25.876563066328384,0)" xlink:href="#ad"/><use transform="matrix(0.004776036003382869,0,0,0.004776036003382869,29.21023619668963,0)" xlink:href="#N"/><use transform="matrix(0.004776036003382869,0,0,0.004776036003382869,34.91282318472877,0)" xlink:href="#T"/></g><g id="f"><use transform="matrix(0.004776036003382869,0,0,0.004776036003382869,0,0)" xlink:href="#X"/><use transform="matrix(0.004776036003382869,0,0,0.004776036003382869,4.217239790987073,0)" xlink:href="#Y"/><use transform="matrix(0.004776036003382869,0,0,0.004776036003382869,10.812945511658814,0)" xlink:href="#Y"/></g><path d="M51 0l535-762-487-728h354c99 152 240 357 306 516 68-159 211-365 312-516h346L934-771 1461 0h-362C993-164 838-379 756-546 674-378 513-163 404 0H51" id="ae"/><path d="M135 0v-1490h581c339 0 533 192 533 485 0 204-94 351-264 424L1302 0H964L680-532H440V0H135zm305-779h220c186 0 274-77 274-226 0-150-88-233-275-233H440v459" id="af"/><path d="M135 0v-1490h581c339 0 533 210 533 503 0 295-197 500-540 500H440V0H135zm305-733h220c186 0 274-104 274-254s-88-251-275-251H440v505" id="ag"/><g id="g"><use transform="matrix(0.004776036003382869,0,0,0.004776036003382869,0,0)" xlink:href="#ae"/><use transform="matrix(0.004776036003382869,0,0,0.004776036003382869,7.221366437114899,0)" xlink:href="#af"/><use transform="matrix(0.004776036003382869,0,0,0.004776036003382869,13.645134861664857,0)" xlink:href="#ag"/></g><g id="h"><use transform="matrix(0.004776036003382869,0,0,0.004776036003382869,0,0)" xlink:href="#M"/><use transform="matrix(0.004776036003382869,0,0,0.004776036003382869,7.05898121299988,0)" xlink:href="#N"/><use transform="matrix(0.004776036003382869,0,0,0.004776036003382869,12.761568201039024,0)" xlink:href="#O"/><use transform="matrix(0.004776036003382869,0,0,0.004776036003382869,18.750717349281143,0)" xlink:href="#P"/><use transform="matrix(0.004776036003382869,0,0,0.004776036003382869,24.615689561435303,0)" xlink:href="#Q"/><use transform="matrix(0.004776036003382869,0,0,0.004776036003382869,29.77858448109219,0)" xlink:href="#R"/><use transform="matrix(0.004776036003382869,0,0,0.004776036003382869,32.14749833877009,0)" xlink:href="#S"/></g><path d="M664 20c-306 0-529-183-535-438h297c6 117 110 196 238 196 149 0 255-108 255-266 0-159-108-270-261-270-89 0-178 39-224 98l-274-48 72-782h901v252H485l-39 377h8c53-72 165-124 294-124 269 0 467 204 467 490 0 300-224 515-551 515" id="ah"/><g id="i"><use transform="matrix(0.004776036003382869,0,0,0.004776036003382869,0,0)" xlink:href="#ah"/><use transform="matrix(0.004776036003382869,0,0,0.004776036003382869,6.251831128428176,0)" xlink:href="#Y"/><use transform="matrix(0.004776036003382869,0,0,0.004776036003382869,12.847536849099917,0)" xlink:href="#Y"/></g><g id="j"><use transform="matrix(0.004776036003382869,0,0,0.004776036003382869,0,0)" xlink:href="#ae"/><use transform="matrix(0.004776036003382869,0,0,0.004776036003382869,7.221366437114899,0)" xlink:href="#af"/><use transform="matrix(0.004776036003382869,0,0,0.004776036003382869,13.645134861664857,0)" xlink:href="#ag"/></g><path d="M370-1490V0H180v-1490h190" id="ai"/><path d="M537 14c-226 0-379-139-379-422v-710h180v695c0 172 97 275 253 275 160 0 281-109 281-300v-670h181V0H879v-209C806-46 684 14 537 14" id="aj"/><g id="k"><use transform="matrix(0.0045392102572840345,0,0,0.0045392102572840345,0,0)" xlink:href="#ai"/><use transform="matrix(0.0045392102572840345,0,0,0.0045392102572840345,2.496565641506219,0)" xlink:href="#Q"/><use transform="matrix(0.0045392102572840345,0,0,0.0045392102572840345,7.40345192963026,0)" xlink:href="#Q"/><use transform="matrix(0.0045392102572840345,0,0,0.0045392102572840345,12.310338217754301,0)" xlink:href="#aj"/><use transform="matrix(0.0045392102572840345,0,0,0.0045392102572840345,17.80732183932527,0)" xlink:href="#N"/></g><g id="l"><use transform="matrix(0.0045392102572840345,0,0,0.0045392102572840345,0,0)" xlink:href="#ah"/><use transform="matrix(0.0045392102572840345,0,0,0.0045392102572840345,5.941826226784801,0)" xlink:href="#Y"/><use transform="matrix(0.0045392102572840345,0,0,0.0045392102572840345,12.210475592094054,0)" xlink:href="#Y"/></g><path d="M180 0v-1490h908v168H370v486h669v168H370v500h727V0H180" id="ak"/><path d="M65 0l393-574-370-544h210c88 136 192 297 267 435 67-142 176-302 264-435h206L661-564 1053 0H844c-94-144-206-310-287-458C484-308 366-142 273 0H65" id="al"/><path d="M613 24c-304 0-509-231-509-576 0-350 205-580 509-580 216 0 392 114 453 309l-173 49c-33-115-133-197-280-197-223 0-326 196-326 419 0 220 103 415 326 415 150 0 252-85 285-206l172 49C1010-95 832 24 613 24" id="am"/><path d="M611 442c-248 0-391-105-460-228l146-94c47 65 117 165 314 165 178 0 307-82 307-266v-224h-17C863-141 792-18 576-18c-268 0-472-195-472-546 0-346 197-568 476-568 216 0 288 133 326 193h17v-179h175V29c0 289-215 413-487 413zm-5-620c203 0 314-146 314-390 0-237-108-403-314-403-213 0-319 180-319 403 0 230 109 390 319 390" id="an"/><g id="m"><use transform="matrix(0.004674365419482447,0,0,0.004674365419482447,0,0)" xlink:href="#ak"/><use transform="matrix(0.004674365419482447,0,0,0.004674365419482447,5.754143831382892,0)" xlink:href="#al"/><use transform="matrix(0.004674365419482447,0,0,0.004674365419482447,10.765063561068073,0)" xlink:href="#am"/><use transform="matrix(0.004674365419482447,0,0,0.004674365419482447,16.234071101862536,0)" xlink:href="#Z"/><use transform="matrix(0.004674365419482447,0,0,0.004674365419482447,21.89472762485578,0)" xlink:href="#aa"/><use transform="matrix(0.004674365419482447,0,0,0.004674365419482447,27.270247857260596,0)" xlink:href="#ac"/><use transform="matrix(0.004674365419482447,0,0,0.004674365419482447,32.92623001483435,0)" xlink:href="#an"/><use transform="matrix(0.004674365419482447,0,0,0.004674365419482447,38.79723298170431,0)" xlink:href="#N"/></g><g id="n"><use transform="matrix(0.004674365419482447,0,0,0.004674365419482447,0,0)" xlink:href="#X"/><use transform="matrix(0.004674365419482447,0,0,0.004674365419482447,4.127464665403001,0)" xlink:href="#Y"/><use transform="matrix(0.004674365419482447,0,0,0.004674365419482447,10.582763309708259,0)" xlink:href="#Y"/></g><path d="M572 22C302 22 117-98 78-306l279-48c29 105 101 156 224 156 114 0 185-48 185-115 0-118-228-130-337-155-215-49-322-150-322-317 0-215 187-347 470-347 265 0 424 116 466 298l-266 47c-24-76-87-130-196-130-98 0-174 46-174 113 0 56 38 95 144 117l201 40c216 44 320 143 320 302 0 220-207 367-500 367" id="ao"/><path d="M428-647V0H128v-1490h294v586c65-146 175-228 341-228 232 0 385 159 385 421V0H847v-659c0-139-76-222-202-222-128 0-217 86-217 234" id="ap"/><path d="M440 22C227 22 68-92 68-313c0-250 202-322 422-343 195-21 271-24 271-105 0-95-63-149-175-149-116 0-187 57-211 129l-275-46c57-194 237-305 487-305 240 0 474 108 474 379V0H777v-155h-10C713-51 605 22 440 22zm85-211c140 0 238-93 238-211v-121c-37 26-156 42-222 51-111 16-185 59-185 149 0 87 70 132 169 132" id="aq"/><path d="M128 0v-1118h290v195h12c54-169 184-238 367-200v268c-27-8-86-15-130-15-138 0-239 95-239 234V0H128" id="ar"/><path d="M633 22C291 22 81-200 81-553c0-345 210-579 537-579 292 0 525 185 525 567v84H378c7 183 109 277 260 277 105 0 184-46 216-132l272 51C1071-99 893 22 633 22zM380-669h474c-15-146-94-237-233-237-143 0-229 99-241 237" id="as"/><g id="o"><use transform="matrix(0.004674365419482447,0,0,0.004674365419482447,0,0)" xlink:href="#ao"/><use transform="matrix(0.004674365419482447,0,0,0.004674365419482447,5.361497136146366,0)" xlink:href="#ap"/><use transform="matrix(0.004674365419482447,0,0,0.004674365419482447,11.321313045986486,0)" xlink:href="#aq"/><use transform="matrix(0.004674365419482447,0,0,0.004674365419482447,16.879133529751115,0)" xlink:href="#ar"/><use transform="matrix(0.004674365419482447,0,0,0.004674365419482447,20.543836018625353,0)" xlink:href="#as"/><use transform="matrix(0.004674365419482447,0,0,0.004674365419482447,26.246561830393933,0)" xlink:href="#ao"/></g><g id="p"><use transform="matrix(0.004674365419482447,0,0,0.004674365419482447,0,0)" xlink:href="#ad"/><use transform="matrix(0.004674365419482447,0,0,0.004674365419482447,3.2627070627987482,0)" xlink:href="#P"/><use transform="matrix(0.004674365419482447,0,0,0.004674365419482447,9.002827797923192,0)" xlink:href="#T"/></g><g id="q"><use transform="matrix(0.004674365419482447,0,0,0.004674365419482447,0,0)" xlink:href="#ae"/><use transform="matrix(0.004674365419482447,0,0,0.004674365419482447,7.06764051425746,0)" xlink:href="#af"/><use transform="matrix(0.004674365419482447,0,0,0.004674365419482447,13.35466200346135,0)" xlink:href="#ag"/></g><g id="r"><use transform="matrix(0.0045392102572840345,0,0,0.0045392102572840345,0,0)" xlink:href="#ak"/><use transform="matrix(0.0045392102572840345,0,0,0.0045392102572840345,5.587767826716647,0)" xlink:href="#al"/><use transform="matrix(0.0045392102572840345,0,0,0.0045392102572840345,10.453801222525131,0)" xlink:href="#am"/><use transform="matrix(0.0045392102572840345,0,0,0.0045392102572840345,15.764677223547451,0)" xlink:href="#Z"/><use transform="matrix(0.0045392102572840345,0,0,0.0045392102572840345,21.261660845118417,0)" xlink:href="#aa"/><use transform="matrix(0.0045392102572840345,0,0,0.0045392102572840345,26.481752640995058,0)" xlink:href="#ac"/><use transform="matrix(0.0045392102572840345,0,0,0.0045392102572840345,31.974197052308735,0)" xlink:href="#an"/><use transform="matrix(0.0045392102572840345,0,0,0.0045392102572840345,37.67544513545749,0)" xlink:href="#N"/></g><g id="s"><use transform="matrix(0.0045392102572840345,0,0,0.0045392102572840345,0,0)" xlink:href="#ah"/><use transform="matrix(0.0045392102572840345,0,0,0.0045392102572840345,5.941826226784801,0)" xlink:href="#Y"/><use transform="matrix(0.0045392102572840345,0,0,0.0045392102572840345,12.210475592094054,0)" xlink:href="#Y"/></g><g id="t"><use transform="matrix(0.0045392102572840345,0,0,0.0045392102572840345,0,0)" xlink:href="#ae"/><use transform="matrix(0.0045392102572840345,0,0,0.0045392102572840345,6.863285909013461,0)" xlink:href="#af"/><use transform="matrix(0.0045392102572840345,0,0,0.0045392102572840345,12.96852370506049,0)" xlink:href="#ag"/></g><g id="u"><use transform="matrix(0.0045392102572840345,0,0,0.0045392102572840345,0,0)" xlink:href="#ad"/><use transform="matrix(0.0045392102572840345,0,0,0.0045392102572840345,3.1683687595842565,0)" xlink:href="#P"/><use transform="matrix(0.0045392102572840345,0,0,0.0045392102572840345,8.742518955529052,0)" xlink:href="#T"/></g><g id="v"><use transform="matrix(0.0045392102572840345,0,0,0.0045392102572840345,0,0)" xlink:href="#ah"/><use transform="matrix(0.0045392102572840345,0,0,0.0045392102572840345,5.941826226784801,0)" xlink:href="#Y"/><use transform="matrix(0.0045392102572840345,0,0,0.0045392102572840345,12.210475592094054,0)" xlink:href="#Y"/></g><g id="w"><use transform="matrix(0.0045392102572840345,0,0,0.0045392102572840345,0,0)" xlink:href="#ao"/><use transform="matrix(0.0045392102572840345,0,0,0.0045392102572840345,5.206474165104788,0)" xlink:href="#ap"/><use transform="matrix(0.0045392102572840345,0,0,0.0045392102572840345,10.993967243141933,0)" xlink:href="#aq"/><use transform="matrix(0.0045392102572840345,0,0,0.0045392102572840345,16.39108823905265,0)" xlink:href="#ar"/><use transform="matrix(0.0045392102572840345,0,0,0.0045392102572840345,19.949829080763333,0)" xlink:href="#as"/><use transform="matrix(0.0045392102572840345,0,0,0.0045392102572840345,25.487665594649854,0)" xlink:href="#ao"/></g><path d="M576-274c-177 0-320-143-320-320s143-320 320-320 320 143 320 320-143 320-320 320" id="at"/><use transform="matrix(0.005425347222222222,0,0,0.005425347222222222,0,0)" xlink:href="#at" id="x"/><path d="M52 0l541-1490h220L1361 0h-200l-149-416H398L254 0H52zm404-582h497c-103-290-145-390-251-756-108 377-145 460-246 756" id="au"/><g id="y"><use transform="matrix(0.005425347222222222,0,0,0.005425347222222222,0,0)" xlink:href="#au"/><use transform="matrix(0.005425347222222222,0,0,0.005425347222222222,7.666015625,0)" xlink:href="#Q"/><use transform="matrix(0.005425347222222222,0,0,0.005425347222222222,13.530815972222221,0)" xlink:href="#Q"/><use transform="matrix(0.005425347222222222,0,0,0.005425347222222222,19.395616319444443,0)" xlink:href="#N"/><use transform="matrix(0.005425347222222222,0,0,0.005425347222222222,25.87348090277778,0)" xlink:href="#S"/></g><path d="M226-283v-166h904v166H226zm0-434v-166h904v166H226" id="av"/><use transform="matrix(0.005425347222222222,0,0,0.005425347222222222,0,0)" xlink:href="#av" id="z"/><g id="A"><use transform="matrix(0.005425347222222222,0,0,0.005425347222222222,0,0)" xlink:href="#ae"/><use transform="matrix(0.005425347222222222,0,0,0.005425347222222222,8.203125,0)" xlink:href="#af"/><use transform="matrix(0.005425347222222222,0,0,0.005425347222222222,15.500217013888888,0)" xlink:href="#ag"/></g><path d="M180 0v-1490h510c348 0 508 209 508 474 0 266-160 477-507 477H370V0H180zm190-706h312c236 0 327-133 327-310 0-176-91-307-329-307H370v617" id="aw"/><path d="M481 0L54-1118h197c107 314 236 620 325 951 87-331 217-637 324-951h197L670 0H481" id="ax"/><g id="B"><use transform="matrix(0.005425347222222222,0,0,0.005425347222222222,0,0)" xlink:href="#aw"/><use transform="matrix(0.005425347222222222,0,0,0.005425347222222222,7.096354166666666,0)" xlink:href="#T"/><use transform="matrix(0.005425347222222222,0,0,0.005425347222222222,11.45290798611111,0)" xlink:href="#R"/><use transform="matrix(0.005425347222222222,0,0,0.005425347222222222,14.143880208333332,0)" xlink:href="#ax"/><use transform="matrix(0.005425347222222222,0,0,0.005425347222222222,20.33420138888889,0)" xlink:href="#aa"/><use transform="matrix(0.005425347222222222,0,0,0.005425347222222222,26.573350694444443,0)" xlink:href="#S"/><use transform="matrix(0.005425347222222222,0,0,0.005425347222222222,30.09982638888889,0)" xlink:href="#N"/></g><path d="M600 0L52-1490h200c166 485 304 806 458 1336 156-533 285-846 449-1336h202L819 0H600" id="ay"/><path d="M338-1490V0H158v-1490h180" id="az"/><g id="C"><use transform="matrix(0.005425347222222222,0,0,0.005425347222222222,0,0)" xlink:href="#ay"/><use transform="matrix(0.005425347222222222,0,0,0.005425347222222222,7.10177951388889,0)" xlink:href="#aa"/><use transform="matrix(0.005425347222222222,0,0,0.005425347222222222,13.340928819444445,0)" xlink:href="#aj"/><use transform="matrix(0.005425347222222222,0,0,0.005425347222222222,19.911024305555557,0)" xlink:href="#az"/><use transform="matrix(0.005425347222222222,0,0,0.005425347222222222,22.76475694444445,0)" xlink:href="#S"/></g><path d="M135 0v-1490h340l471 754c59 97 122 210 187 365-32-387-14-721-19-1119h312V0h-341C855-382 627-689 427-1113c32 420 16 695 20 1113H135" id="aA"/><path d="M628 22C291 22 81-210 81-554c0-346 210-578 547-578 336 0 547 232 547 578 0 344-211 576-547 576zm0-236c160 0 242-146 242-341 0-197-82-341-242-341S387-753 387-555c0 195 81 341 241 341" id="aB"/><g id="D"><use transform="matrix(0.005425347222222222,0,0,0.005425347222222222,0,0)" xlink:href="#aA"/><use transform="matrix(0.005425347222222222,0,0,0.005425347222222222,8.46896701388889,0)" xlink:href="#aB"/></g><path d="M677 24c-213 0-288-135-325-197h-20V0H158v-1490h180v551h14c37-59 106-193 324-193 279 0 474 222 474 576 0 356-194 580-473 580zm-27-161c209 0 317-186 317-421 0-232-105-413-317-413-206 0-314 166-314 413 0 249 111 421 314 421" id="aC"/><g id="E"><use transform="matrix(0.005425347222222222,0,0,0.005425347222222222,0,0)" xlink:href="#ab"/><use transform="matrix(0.005425347222222222,0,0,0.005425347222222222,6.54296875,0)" xlink:href="#T"/><use transform="matrix(0.005425347222222222,0,0,0.005425347222222222,10.725911458333332,0)" xlink:href="#aa"/><use transform="matrix(0.005425347222222222,0,0,0.005425347222222222,16.965060763888886,0)" xlink:href="#ac"/><use transform="matrix(0.005425347222222222,0,0,0.005425347222222222,23.52973090277778,0)" xlink:href="#Q"/><use transform="matrix(0.005425347222222222,0,0,0.005425347222222222,29.394531249999993,0)" xlink:href="#ad"/><use transform="matrix(0.005425347222222222,0,0,0.005425347222222222,33.18142361111111,0)" xlink:href="#N"/><use transform="matrix(0.005425347222222222,0,0,0.005425347222222222,39.65928819444444,0)" xlink:href="#T"/><use transform="matrix(0.005425347222222222,0,0,0.005425347222222222,43.84223090277778,0)" xlink:href="#aa"/><use transform="matrix(0.005425347222222222,0,0,0.005425347222222222,50.08138020833333,0)" xlink:href="#aC"/><use transform="matrix(0.005425347222222222,0,0,0.005425347222222222,56.884765625,0)" xlink:href="#az"/><use transform="matrix(0.005425347222222222,0,0,0.005425347222222222,59.57573784722222,0)" xlink:href="#N"/></g><path d="M657 26c-323 0-524-166-541-416h195c15 169 171 246 346 246 202 0 356-106 356-265 5-203-294-238-475-293-239-73-380-191-380-389 0-252 224-419 512-419 294 0 499 171 508 396H992c-17-145-151-228-328-228-193 0-321 102-321 242 0 156 175 211 284 241l149 41c160 44 422 134 422 412 0 244-197 432-541 432" id="aD"/><g id="F"><use transform="matrix(0.005425347222222222,0,0,0.005425347222222222,0,0)" xlink:href="#aD"/><use transform="matrix(0.005425347222222222,0,0,0.005425347222222222,7.12890625,0)" xlink:href="#Z"/><use transform="matrix(0.005425347222222222,0,0,0.005425347222222222,13.69900173611111,0)" xlink:href="#aa"/><use transform="matrix(0.005425347222222222,0,0,0.005425347222222222,19.938151041666664,0)" xlink:href="#T"/><use transform="matrix(0.005425347222222222,0,0,0.005425347222222222,23.93663194444444,0)" xlink:href="#N"/><use transform="matrix(0.005425347222222222,0,0,0.005425347222222222,30.41449652777777,0)" xlink:href="#Q"/></g><use transform="matrix(0.005425347222222222,0,0,0.005425347222222222,0,0)" xlink:href="#av" id="G"/><g id="H"><use transform="matrix(0.005425347222222222,0,0,0.005425347222222222,0,0)" xlink:href="#ak"/><use transform="matrix(0.005425347222222222,0,0,0.005425347222222222,6.678602430555555,0)" xlink:href="#al"/><use transform="matrix(0.005425347222222222,0,0,0.005425347222222222,12.494574652777777,0)" xlink:href="#am"/><use transform="matrix(0.005425347222222222,0,0,0.005425347222222222,18.84223090277778,0)" xlink:href="#Z"/><use transform="matrix(0.005425347222222222,0,0,0.005425347222222222,25.41232638888889,0)" xlink:href="#aa"/><use transform="matrix(0.005425347222222222,0,0,0.005425347222222222,31.651475694444443,0)" xlink:href="#ac"/><use transform="matrix(0.005425347222222222,0,0,0.005425347222222222,38.21614583333333,0)" xlink:href="#an"/><use transform="matrix(0.005425347222222222,0,0,0.005425347222222222,45.03038194444444,0)" xlink:href="#N"/></g><g id="I"><use transform="matrix(0.005425347222222222,0,0,0.005425347222222222,0,0)" xlink:href="#U"/><use transform="matrix(0.005425347222222222,0,0,0.005425347222222222,7.096354166666666,0)" xlink:href="#aa"/><use transform="matrix(0.005425347222222222,0,0,0.005425347222222222,13.335503472222221,0)" xlink:href="#S"/><use transform="matrix(0.005425347222222222,0,0,0.005425347222222222,16.861979166666664,0)" xlink:href="#N"/></g><use transform="matrix(0.005425347222222222,0,0,0.005425347222222222,0,0)" xlink:href="#X" id="J"/><path d="M768-1560L288 224H28l480-1784h260" id="aE"/><g id="K"><use transform="matrix(0.005425347222222222,0,0,0.005425347222222222,0,0)" xlink:href="#ae"/><use transform="matrix(0.005425347222222222,0,0,0.005425347222222222,8.203125,0)" xlink:href="#af"/><use transform="matrix(0.005425347222222222,0,0,0.005425347222222222,15.500217013888888,0)" xlink:href="#ag"/><use transform="matrix(0.005425347222222222,0,0,0.005425347222222222,22.69965277777778,0)" xlink:href="#aE"/><use transform="matrix(0.005425347222222222,0,0,0.005425347222222222,27.012803819444443,0)" xlink:href="#ao"/><use transform="matrix(0.005425347222222222,0,0,0.005425347222222222,33.23567708333333,0)" xlink:href="#ap"/><use transform="matrix(0.005425347222222222,0,0,0.005425347222222222,40.152994791666664,0)" xlink:href="#aq"/><use transform="matrix(0.005425347222222222,0,0,0.005425347222222222,46.603732638888886,0)" xlink:href="#ar"/><use transform="matrix(0.005425347222222222,0,0,0.005425347222222222,50.85720486111111,0)" xlink:href="#as"/></g><path d="M571 0L49-1490h339c138 427 271 775 384 1244 111-471 237-815 371-1244h337L970 0H571" id="aF"/><path d="M513 14c-232 0-385-159-385-421v-711h300v659c0 139 76 222 202 222 127 0 217-86 217-234v-647h301V0H864l-4-232C797-74 683 14 513 14" id="aG"/><path d="M428-1490V0H128v-1490h300" id="aH"/><path d="M683-1118v229H474v562c0 71 29 104 102 104 23 0 73-7 95-13l43 225C647 9 580 16 520 16 296 16 174-96 174-301v-588H20v-229h154v-266h300v266h209" id="aI"/><g id="L"><use transform="matrix(0.008562944285801082,0,0,0.008562944285801082,0,0)" xlink:href="#aF"/><use transform="matrix(0.008562944285801082,0,0,0.008562944285801082,12.056625554407923,0)" xlink:href="#aq"/><use transform="matrix(0.008562944285801082,0,0,0.008562944285801082,22.237966310225406,0)" xlink:href="#aG"/><use transform="matrix(0.008562944285801082,0,0,0.008562944285801082,33.155720274621785,0)" xlink:href="#aH"/><use transform="matrix(0.008562944285801082,0,0,0.008562944285801082,38.165042681815414,0)" xlink:href="#aI"/></g></defs></g></svg>