<svg width="40" height="40" viewBox="0 0 40 40" fill="none" xmlns="http://www.w3.org/2000/svg">
<path d="M29.9476 17.6426C30.3643 14.8612 28.2451 13.3657 25.3495 12.3678L26.2891 8.59905L23.996 8.02843L23.0803 11.6976C22.4779 11.5463 21.8595 11.4057 21.2424 11.265L22.1647 7.57194L19.8716 7L18.9321 10.7674C18.4332 10.6533 17.9422 10.5418 17.4671 10.4224L17.4697 10.4104L14.3062 9.62085L13.6957 12.0705C13.6957 12.0705 15.3983 12.4607 15.3625 12.4845C16.2914 12.7168 16.4586 13.3312 16.4307 13.8195L15.3611 18.1124C15.4248 18.1283 15.5071 18.1522 15.6 18.188L15.3571 18.1283L13.8576 24.1423C13.7435 24.4237 13.4555 24.847 12.8053 24.6864C12.8292 24.7196 11.1386 24.271 11.1386 24.271L10 26.8959L12.9858 27.6403C13.5405 27.7797 14.0845 27.9256 14.6193 28.0623L13.6705 31.8735L15.9623 32.4441L16.9018 28.6754C17.5281 28.8439 18.1359 29.0005 18.7304 29.1491L17.7935 32.9019L20.0866 33.4725L21.0354 29.6693C24.9475 30.4098 27.8881 30.1112 29.1262 26.5734C30.1241 23.7257 29.0771 22.0815 27.0189 21.0106C28.5184 20.6656 29.6464 19.6796 29.9476 17.6426ZM24.7059 24.9916C23.9986 27.8407 19.2015 26.3001 17.6462 25.9139L18.9069 20.8646C20.4622 21.2534 25.4477 22.0218 24.7059 24.9916ZM25.4159 17.6015C24.7696 20.1931 20.778 18.8754 19.4841 18.553L20.6254 13.9748C21.9192 14.2972 26.09 14.8984 25.4159 17.6015Z" fill="white"/>
</svg>
