<svg width="24" height="25" viewBox="0 0 24 25" fill="none" xmlns="http://www.w3.org/2000/svg">
<g clip-path="url(#clip0)">
<path d="M22.6752 0.994629H1.3152C0.965508 0.997163 0.631001 1.13786 0.384625 1.38603C0.138249 1.63421 -9.18108e-06 1.96973 4.57271e-10 2.31943V23.6794C0.00253407 24.0291 0.143229 24.3636 0.391403 24.61C0.639577 24.8564 0.975099 24.9946 1.3248 24.9946H12.8208V15.7138H9.7008V12.0802H12.8208V9.40663C12.8208 6.30823 14.7144 4.61863 17.4792 4.61863C18.4124 4.61466 19.345 4.66273 20.2728 4.76263V8.00263H18.3672C16.8624 8.00263 16.5696 8.72263 16.5696 9.76663V12.0802H20.16L19.68 15.7138H16.56V24.9946H22.6752C23.0266 24.9946 23.3635 24.8551 23.612 24.6066C23.8604 24.3582 24 24.0212 24 23.6698V2.30983C23.9975 1.96014 23.8568 1.62563 23.6086 1.37925C23.3604 1.13288 23.0249 0.99462 22.6752 0.994629V0.994629Z" fill="#111112"/>
<path d="M16.5602 24.9946V15.7138H19.6802L20.1602 12.0802H16.5602V9.76664C16.5602 8.71784 16.853 8.00264 18.3578 8.00264H20.2634V4.76264C19.3356 4.66274 18.403 4.61466 17.4698 4.61864C14.705 4.61864 12.8114 6.29864 12.8114 9.40664V12.0802H9.69141V15.7138H12.8114V24.9946H16.5602Z" fill="#A2A2A4"/>
</g>
<defs>
<clipPath id="clip0">
<rect width="24" height="24" fill="white" transform="translate(0 0.994629)"/>
</clipPath>
</defs>
</svg>
