<svg width="50" height="50" viewBox="0 0 50 50" fill="none" xmlns="http://www.w3.org/2000/svg">
<circle cx="25" cy="25" r="25" fill="#454549"/>
<path fill-rule="evenodd" clip-rule="evenodd" d="M24.829 12C21.7835 11.9969 18.8363 13.0785 16.5158 15.0509C14.1953 17.0234 12.653 19.7577 12.1654 22.764C11.6777 25.7702 12.2766 28.8519 13.8547 31.4567C15.4328 34.0615 17.8869 36.0192 20.7773 36.9789C21.4224 37.0969 21.6506 36.6957 21.6506 36.3574C21.6506 36.0191 21.6506 35.2481 21.6506 34.1782C18.0709 34.957 17.3157 32.4552 17.3157 32.4552C17.0782 31.6798 16.5737 31.0136 15.8917 30.5749C14.7352 29.7882 15.9861 29.7882 15.9861 29.7882C16.3915 29.8454 16.7785 29.9942 17.1179 30.2232C17.4573 30.4522 17.7402 30.7554 17.9451 31.1099C18.1191 31.4255 18.3538 31.7037 18.6357 31.9284C18.9175 32.1531 19.2409 32.3199 19.5874 32.4194C19.9339 32.5188 20.2966 32.5488 20.6547 32.5077C21.0128 32.4666 21.3593 32.3552 21.6742 32.1798C21.7236 31.5326 22.0026 30.9244 22.4609 30.4647C19.6129 30.1422 16.6233 29.0408 16.6233 24.1708C16.6038 22.8987 17.0742 21.6677 17.9372 20.7328C17.5528 19.6267 17.5978 18.4165 18.0631 17.342C18.0631 17.342 19.1409 16.9958 21.5877 18.6558C23.6887 18.0789 25.9064 18.0789 28.0074 18.6558C30.4542 16.9958 31.5241 17.342 31.5241 17.342C31.9959 18.4052 32.0521 19.6066 31.6815 20.7092C32.5445 21.6441 33.0149 22.8751 32.9953 24.1472C32.9953 29.0722 29.9979 30.1501 27.142 30.4411C27.4482 30.749 27.6847 31.119 27.8354 31.5263C27.9861 31.9335 28.0474 32.3683 28.0153 32.8014C28.0153 34.5164 28.0153 35.9011 28.0153 36.3181C28.0153 36.735 28.2435 37.0576 28.8964 36.9317C31.7539 35.9467 34.1713 33.9834 35.7215 31.3887C37.2717 28.7941 37.855 25.735 37.3684 22.7519C36.8817 19.7689 35.3564 17.0538 33.0619 15.0864C30.7674 13.119 27.8514 12.0258 24.829 12Z" fill="white"/>
</svg>
