<svg width="25" height="25" viewBox="0 0 25 25" fill="none" xmlns="http://www.w3.org/2000/svg">
<path d="M23.1505 0.994744H2.69716C2.46691 0.992103 2.23839 1.03484 2.02465 1.12052C1.81091 1.2062 1.61615 1.33315 1.45148 1.4941C1.2868 1.65506 1.15545 1.84688 1.06492 2.0586C0.974382 2.27032 0.92644 2.49781 0.923828 2.72806L0.923828 23.2612C0.92644 23.4914 0.974382 23.7189 1.06492 23.9307C1.15545 24.1424 1.2868 24.3342 1.45148 24.4952C1.61615 24.6561 1.81091 24.7831 2.02465 24.8687C2.23839 24.9544 2.46691 24.9972 2.69716 24.9945H23.1505C23.3808 24.9972 23.6093 24.9544 23.823 24.8687C24.0367 24.7831 24.2315 24.6561 24.3962 24.4952C24.5609 24.3342 24.6922 24.1424 24.7827 23.9307C24.8733 23.7189 24.9212 23.4914 24.9238 23.2612V2.72806C24.9212 2.49781 24.8733 2.27032 24.7827 2.0586C24.6922 1.84688 24.5609 1.65506 24.3962 1.4941C24.2315 1.33315 24.0367 1.2062 23.823 1.12052C23.6093 1.03484 23.3808 0.992103 23.1505 0.994744Z" fill="#111112"/>
<path d="M4.47808 9.99463H8.04475V21.4478H4.47808V9.99463ZM6.25808 4.32801C6.66712 4.32802 7.06695 4.44939 7.40695 4.67677C7.74696 4.90416 8.01184 5.22732 8.16807 5.60534C8.32429 5.98336 8.36482 6.39923 8.28454 6.8003C8.20425 7.20137 8.00676 7.5696 7.71706 7.85836C7.42737 8.14712 7.0585 8.34342 6.65717 8.42241C6.25584 8.50139 5.84009 8.45952 5.46257 8.30207C5.08506 8.14463 4.76275 7.87871 4.53647 7.53797C4.31018 7.19724 4.1901 6.79702 4.19142 6.38799C4.19142 6.11691 4.24492 5.84849 4.34886 5.59813C4.4528 5.34777 4.60514 5.12038 4.79713 4.92901C4.98913 4.73763 5.21701 4.58603 5.46771 4.4829C5.71841 4.37977 5.987 4.32714 6.25808 4.32801Z" fill="#A2A2A4"/>
<path d="M10.2578 9.99462H13.6711V11.5546H13.7178C14.0591 10.9707 14.5526 10.4905 15.1455 10.1653C15.7385 9.84003 16.4087 9.68196 17.0845 9.70796C20.6911 9.70796 21.3578 12.0813 21.3578 15.1612V21.4478H17.8178V15.8746C17.8178 14.5412 17.8178 12.8413 15.9645 12.8413C14.1111 12.8413 13.8311 14.2879 13.8311 15.7812V21.4478H10.2578V9.99462Z" fill="#A2A2A4"/>
</svg>
