<svg width="40" height="40" viewBox="0 0 40 40" fill="none" xmlns="http://www.w3.org/2000/svg">
<path d="M24.5983 28.7563H15.4023V12.2463H24.5983V28.7563Z" fill="white" stroke="#111112" stroke-width="2"/>
<path d="M15.9905 20.5C15.9905 17.1509 17.5602 14.1676 20.0046 12.245C18.217 10.8391 15.9611 10 13.5093 10C7.70504 10 3 14.7009 3 20.5C3 26.2991 7.70504 31 13.5093 31C15.9611 31 18.217 30.1609 20.0046 28.755C17.5602 26.8324 15.9905 23.8491 15.9905 20.5Z" fill="white" stroke="#111112" stroke-width="2"/>
<path d="M37.0013 20.5C37.0013 26.2991 32.2963 31 26.492 31C24.0403 31 21.7843 30.1609 19.9961 28.755C22.4412 26.8324 24.0108 23.8491 24.0108 20.5C24.0108 17.1509 22.4412 14.1676 19.9961 12.245C21.7843 10.8391 24.0403 10 26.492 10C32.2963 10 37.0013 14.7009 37.0013 20.5Z" fill="white" stroke="#111112" stroke-width="2"/>
</svg>
