<svg width="40" height="40" viewBox="0 0 40 40" fill="none" xmlns="http://www.w3.org/2000/svg">
<g clip-path="url(#clip0)">
<rect x="2.65278" y="10.4382" width="35.0271" height="18.1227" stroke="white" stroke-width="1.69444"/>
<path d="M25.5705 19.4992C25.5705 22.4223 23.1632 24.8126 20.1678 24.8126C17.1725 24.8126 14.7652 22.4223 14.7652 19.4992C14.7652 16.5762 17.1725 14.1858 20.1678 14.1858C23.1632 14.1858 25.5705 16.5762 25.5705 19.4992Z" stroke="white" stroke-width="1.69444"/>
<path d="M6.83255 11.2857C6.83255 11.7171 6.74633 12.1444 6.57882 12.543C6.41131 12.9417 6.16578 13.3039 5.85626 13.609C5.54673 13.9141 5.17928 14.1561 4.77487 14.3212C4.37046 14.4863 3.93701 14.5713 3.49928 14.5713L3.49928 11.2857H6.83255Z" fill="white"/>
<path d="M3.49928 24.4287C3.93701 24.4287 4.37046 24.5137 4.77487 24.6788C5.17928 24.8439 5.54674 25.0859 5.85626 25.391C6.16578 25.6961 6.41131 26.0583 6.57882 26.457C6.74633 26.8556 6.83255 27.2829 6.83255 27.7143L3.49928 27.7143L3.49928 24.4287Z" fill="white"/>
<path d="M33.4995 11.2857C33.4995 11.7171 33.5857 12.1444 33.7532 12.543C33.9207 12.9417 34.1663 13.3039 34.4758 13.609C34.7853 13.9141 35.1528 14.1561 35.5572 14.3212C35.9616 14.4863 36.395 14.5713 36.8327 14.5713L36.8327 11.2857H33.4995Z" fill="white"/>
<path d="M36.8327 24.4287C36.395 24.4287 35.9616 24.5137 35.5572 24.6788C35.1528 24.8439 34.7853 25.0859 34.4758 25.391C34.1663 25.6961 33.9207 26.0583 33.7532 26.457C33.5857 26.8556 33.4995 27.2829 33.4995 27.7143L36.8327 27.7143L36.8327 24.4287Z" fill="white"/>
</g>
<defs>
<clipPath id="clip0">
<rect width="40" height="40" fill="white"/>
</clipPath>
</defs>
</svg>
