<svg width="50" height="50" viewBox="0 0 50 50" fill="none" xmlns="http://www.w3.org/2000/svg">
<circle cx="25" cy="25" r="25" fill="#454549"/>
<path d="M31.8407 32.7771V26.0797H34.0635V35H14V26.0797H16.2229V32.7771H31.8407Z" fill="#BCBBBB"/>
<path d="M18.6763 25.4446L29.5885 27.7252L30.0504 25.5312L19.1382 23.2506L18.6763 25.4446ZM20.1197 20.2483L30.2236 24.9538L31.1474 22.933L21.0435 18.1986L20.1197 20.2483ZM22.9199 15.2829L31.4938 22.4134L32.9084 20.7102L24.3345 13.5797L22.9199 15.2829ZM28.4626 10L26.6728 11.3279L33.3125 20.2771L35.1024 18.9492L28.4626 10ZM18.4453 30.5254H29.5885V28.3026H18.4453V30.5254Z" fill="#F48023"/>
</svg>
