<svg width="24" height="20" viewBox="0 0 24 20" fill="none" xmlns="http://www.w3.org/2000/svg">
<path d="M7.54752 19.9946C16.6042 19.9946 21.5578 12.6841 21.5578 6.3445C21.5578 6.13686 21.5578 5.93015 21.5434 5.72438C22.507 5.04525 23.3389 4.20436 24 3.24109C23.1013 3.62907 22.148 3.8835 21.1718 3.9959C22.1998 3.39634 22.9691 2.45334 23.3366 1.34238C22.3701 1.9012 21.3126 2.29502 20.2099 2.50686C19.4675 1.73773 18.4856 1.22843 17.4162 1.05778C16.3468 0.887121 15.2494 1.06463 14.294 1.56282C13.3385 2.06102 12.5782 2.85213 12.1307 3.81373C11.6833 4.77534 11.5735 5.85383 11.8186 6.88231C9.86088 6.78669 7.94572 6.29103 6.19741 5.4275C4.4491 4.56397 2.90672 3.35188 1.6704 1.86991C1.04073 2.92604 0.847872 4.17629 1.1311 5.36609C1.41433 6.5559 2.15234 7.5958 3.19488 8.27407C2.41127 8.25145 1.64475 8.04549 0.96 7.6736C0.96 7.69324 0.96 7.71381 0.96 7.73439C0.960311 8.84202 1.35385 9.91545 2.07387 10.7726C2.79389 11.6298 3.79606 12.2179 4.9104 12.4372C4.18547 12.6298 3.42488 12.658 2.68704 12.5195C3.00169 13.4728 3.61427 14.3064 4.43911 14.9037C5.26395 15.5011 6.25979 15.8323 7.28736 15.8511C5.54375 17.1863 3.38982 17.911 1.17216 17.9089C0.780387 17.9081 0.388996 17.885 0 17.8396C2.25181 19.2476 4.87192 19.9944 7.54752 19.9909" fill="#A2A2A4"/>
</svg>
