<svg width="50" height="50" viewBox="0 0 50 50" fill="none" xmlns="http://www.w3.org/2000/svg">
<circle cx="25" cy="25" r="25" fill="#454549"/>
<path d="M37.6103 17.3677C36.7049 17.7697 35.7318 18.0404 34.7104 18.1624C35.7533 17.5379 36.5541 16.5484 36.9305 15.3692C35.9553 15.9475 34.8745 16.3679 33.724 16.5945C32.8041 15.6132 31.4906 15 30.0386 15C26.7787 15 24.3833 18.0414 25.1196 21.1987C20.9245 20.9885 17.2043 18.9787 14.7135 15.9239C13.3907 18.1932 14.0275 21.1618 16.2752 22.6651C15.4487 22.6384 14.6694 22.4118 13.9895 22.0334C13.9342 24.3724 15.6107 26.5607 18.039 27.0478C17.3283 27.2406 16.55 27.2857 15.7584 27.1339C16.4003 29.1397 18.2646 30.5988 20.4754 30.6399C18.3527 32.3041 15.6784 33.0476 13 32.7317C15.2344 34.1643 17.8893 35 20.74 35C30.1144 35 35.4108 27.0826 35.0909 19.9815C36.0773 19.2689 36.9336 18.3798 37.6103 17.3677Z" fill="#4BA0EB"/>
</svg>
