<svg width="40" height="40" viewBox="0 0 40 40" fill="none" xmlns="http://www.w3.org/2000/svg">
<path d="M17.334 26.8124H14.0938L16.1204 14.228H19.3605L17.334 26.8124Z" fill="white"/>
<path d="M29.0793 14.5358C28.4402 14.2811 27.4265 14 26.173 14C22.9732 14 20.7198 15.7135 20.706 18.1633C20.6794 19.9708 22.3193 20.9747 23.5458 21.5774C24.7994 22.1932 25.2256 22.5952 25.2256 23.1441C25.2128 23.9872 24.2126 24.3758 23.2797 24.3758C21.986 24.3758 21.2929 24.1754 20.2395 23.7064L19.8128 23.5053L19.3594 26.3302C20.1193 26.6779 21.5195 26.9865 22.9732 27C26.3731 27 28.5865 25.313 28.6127 22.7023C28.6257 21.2698 27.7598 20.1721 25.8929 19.2751C24.7596 18.6993 24.0655 18.311 24.0655 17.7219C24.0788 17.1863 24.6526 16.6377 25.9319 16.6377C26.9853 16.6109 27.7592 16.8651 28.3455 17.1196L28.6386 17.2532L29.0793 14.5358Z" fill="white"/>
<path d="M33.3863 22.3542C33.6531 21.6312 34.6799 18.8332 34.6799 18.8332C34.6665 18.8601 34.9462 18.0969 35.1063 17.6284L35.3327 18.7127C35.3327 18.7127 35.9463 21.725 36.0796 22.3542C35.5731 22.3542 34.0263 22.3542 33.3863 22.3542ZM37.386 14.228H34.8796C34.1067 14.228 33.5195 14.4554 33.186 15.2722L28.373 26.8122H31.773C31.773 26.8122 32.3327 25.259 32.453 24.9245C32.826 24.9245 36.1334 24.9245 36.6132 24.9245C36.7063 25.3663 36.9999 26.8122 36.9999 26.8122H40L37.386 14.228Z" fill="white"/>
<path d="M11.3866 14.228L8.21336 22.8093L7.8666 21.069C7.27993 19.0608 5.43999 16.8789 3.38672 15.794L6.29334 26.799H9.71983L14.813 14.228H11.3866Z" fill="white"/>
<path d="M5.2666 14.228H0.0533338L0 14.4823C4.06668 15.5266 6.75996 18.0439 7.86651 21.0695L6.7332 15.2859C6.54662 14.4821 5.97324 14.2545 5.2666 14.228Z" fill="white"/>
</svg>
