<svg width="40" height="40" viewBox="0 0 40 40" fill="none" xmlns="http://www.w3.org/2000/svg">
<path d="M27.07 12H29.9611L23.9456 18.0422C22.8939 19.0935 21.4766 19.6828 20 19.6828C18.5234 19.6828 17.1061 19.0935 16.0544 18.0422L10.0356 12H12.93L17.5 16.5883C18.1654 17.2545 19.0628 17.6281 19.9978 17.6281C20.9328 17.6281 21.8301 17.2545 22.4956 16.5883L27.07 12ZM12.8944 28.8H10L16.0556 22.7218C17.1072 21.6711 18.524 21.0822 20 21.0822C21.476 21.0822 22.8928 21.6711 23.9444 22.7218L30 28.8H27.1056L22.5 24.1723C21.8346 23.506 20.9372 23.1324 20.0022 23.1324C19.0672 23.1324 18.1699 23.506 17.5044 24.1723L12.8944 28.8Z" fill="white"/>
</svg>
