<?xml version="1.0" encoding="utf-8"?>
<!-- Generator: Adobe Illustrator 21.1.0, SVG Export Plug-In . SVG Version: 6.00 Build 0)  -->
<svg version="1.1" id="Layer_1" xmlns="http://www.w3.org/2000/svg" xmlns:xlink="http://www.w3.org/1999/xlink" x="0px" y="0px"
	 viewBox="0 0 600 600" style="enable-background:new 0 0 600 600;" xml:space="preserve">
<style type="text/css">
	.st0{fill:#7F8499;}
	.st1{fill:#717588;}
	.st2{fill:#DFE3EA;}
	.st3{fill:#F1F3F7;}
	.st4{fill:#D1D5DB;}
	.st5{fill:#5877B8;}
	.st6{fill:#32ACBF;}
	.st7{fill:#DD6026;}
</style>
<path class="st0" d="M572.5,543.8H27.8c-13.1,0-23.7-10.6-23.7-23.7V153.1c0-13.1,10.6-23.7,23.7-23.7h544.7
	c13.1,0,23.7,10.6,23.7,23.7v367.1C596.2,533.2,585.6,543.8,572.5,543.8z"/>
<g>
	<path class="st1" d="M312,555.7h-23.7c-6.5,0-11.8-5.3-11.8-11.8v-35.5h47.4v35.5C323.9,550.4,318.6,555.7,312,555.7z"/>
</g>
<path class="st2" d="M39.7,520.1h521c6.5,0,11.8-5.3,11.8-11.8v-35.5H27.8v35.5C27.8,514.8,33.1,520.1,39.7,520.1z"/>
<path class="st3" d="M323.9,105.7c-7.8,0-14.8,3.8-19.1,9.7c-2.2,3-7,3-9.1,0c-4.3-5.9-11.3-9.7-19.1-9.7H39.7
	c-6.5,0-11.8,5.3-11.8,11.8v367.1c0,6.5,5.3,11.8,11.8,11.8h236.8c7.8,0,14.8,3.8,19.1,9.7c2.2,3,7,3,9.1,0
	c4.3-5.9,11.3-9.7,19.1-9.7h236.8c6.5,0,11.8-5.3,11.8-11.8V117.5c0-6.5-5.3-11.8-11.8-11.8H323.9z"/>
<g>
	<path class="st4" d="M312,109c-2.9,1.7-5.3,3.9-7.3,6.5c-2.2,3-6.9,3-9.1,0c-1.9-2.6-4.4-4.9-7.3-6.5v390.8
		c2.8,1.6,5.3,3.8,7.3,6.4c2.2,3,7,3,9.1,0c1.9-2.6,4.4-4.8,7.3-6.4L312,109L312,109z"/>
</g>
<path class="st0" d="M241,187.7H87c-6.5,0-11.8-5.3-11.8-11.8c0-6.5,5.3-11.8,11.8-11.8H241c6.5,0,11.8,5.3,11.8,11.8
	C252.8,182.4,247.5,187.7,241,187.7z"/>
<g>
	<path class="st1" d="M241,235.1h-71c-6.5,0-11.8-5.3-11.8-11.8c0-6.5,5.3-11.8,11.8-11.8h71c6.5,0,11.8,5.3,11.8,11.8
		C252.8,229.8,247.5,235.1,241,235.1z"/>
	<path class="st1" d="M122.6,235.1H87c-6.5,0-11.8-5.3-11.8-11.8c0-6.5,5.3-11.8,11.8-11.8h35.5c6.5,0,11.8,5.3,11.8,11.8
		C134.4,229.8,129.1,235.1,122.6,235.1z"/>
</g>
<g>
	<path class="st1" d="M241,380.6h-71c-6.5,0-11.8-5.3-11.8-11.8c0-6.5,5.3-11.8,11.8-11.8h71c6.5,0,11.8,5.3,11.8,11.8
		C252.8,375.3,247.5,380.6,241,380.6z"/>
	<path class="st1" d="M122.6,380.6H87c-6.5,0-11.8-5.3-11.8-11.8c0-6.5,5.3-11.8,11.8-11.8h35.5c6.5,0,11.8,5.3,11.8,11.8
		S129.1,380.6,122.6,380.6z"/>
</g>
<path class="st0" d="M146.2,282.5H87c-6.5,0-11.8-5.3-11.8-11.8c0-6.5,5.3-11.8,11.8-11.8h59.2c6.5,0,11.8,5.3,11.8,11.8
	C158.1,277.2,152.8,282.5,146.2,282.5z"/>
<g>
	<path class="st1" d="M241,331.5h-15c-6.5,0-11.8-5.3-11.8-11.8c0-6.5,5.3-11.8,11.8-11.8h15c6.5,0,11.8,5.3,11.8,11.8
		C252.8,326.2,247.5,331.5,241,331.5z"/>
	<path class="st1" d="M102,429.6H87c-6.5,0-11.8-5.3-11.8-11.8s5.3-11.8,11.8-11.8h15c6.5,0,11.8,5.3,11.8,11.8
		C113.9,424.3,108.6,429.6,102,429.6z"/>
	<path class="st1" d="M181.6,331.5H87c-6.5,0-11.8-5.3-11.8-11.8c0-6.5,5.3-11.8,11.8-11.8h94.5c6.5,0,11.8,5.3,11.8,11.8
		C193.4,326.2,188.1,331.5,181.6,331.5z"/>
</g>
<g>
	<path class="st1" d="M518.4,235.1h-71c-6.5,0-11.8-5.3-11.8-11.8c0-6.5,5.3-11.8,11.8-11.8h71c6.5,0,11.8,5.3,11.8,11.8
		C530.3,229.8,525,235.1,518.4,235.1z"/>
	<path class="st1" d="M400,235.1h-35.5c-6.5,0-11.8-5.3-11.8-11.8c0-6.5,5.3-11.8,11.8-11.8H400c6.5,0,11.8,5.3,11.8,11.8
		C411.9,229.8,406.6,235.1,400,235.1z"/>
</g>
<g>
	<path class="st1" d="M518.4,186.1h-15c-6.5,0-11.8-5.3-11.8-11.8c0-6.5,5.3-11.8,11.8-11.8h15c6.5,0,11.8,5.3,11.8,11.8
		S525,186.1,518.4,186.1z"/>
	<path class="st1" d="M379.5,284.2h-15c-6.5,0-11.8-5.3-11.8-11.8c0-6.5,5.3-11.8,11.8-11.8h15c6.5,0,11.8,5.3,11.8,11.8
		C391.3,278.9,386,284.2,379.5,284.2z"/>
	<path class="st1" d="M459,186.1h-94.5c-6.5,0-11.8-5.3-11.8-11.8c0-6.5,5.3-11.8,11.8-11.8H459c6.5,0,11.8,5.3,11.8,11.8
		S465.6,186.1,459,186.1z"/>
</g>
<path class="st5" d="M418.8,106.4V73.5c0-7.7,6.3-14,14-14h17.3c7.7,0,14,6.3,14,14v32.8"/>
<path class="st6" d="M475.9,106.4V87.5c0-7.7,6.3-14,14-14h17.3c7.7,0,14,6.3,14,14v18.9"/>
<path class="st7" d="M360.5,106.4V59.5c0-7.7,6.3-14,14-14h17.3c7.7,0,14,6.3,14,14v46.8"/>
</svg>
