<svg width="48" height="48" viewBox="0 0 48 48" fill="none" xmlns="http://www.w3.org/2000/svg">
<path d="M28 14H20V16H28V14Z" fill="#ABE2FF"/>
<path d="M8 20H40V22H36V36H33V22H29V36H19V22H15V36H12V22H8V20Z" fill="#ABE2FF"/>
<path fill-rule="evenodd" clip-rule="evenodd" d="M6 17.2997V20H42V17.2997C42 16.5094 41.5345 15.7931 40.8123 15.4721L24 8L7.18772 15.4721C6.46547 15.7931 6 16.5094 6 17.2997ZM28 16V14H20V16H28Z" fill="#006AFF"/>
<path d="M43 36V38H5V36H8V22H12V36H15V22H19V36H29V22H33V36H36V22H40V36H43Z" fill="#006AFF"/>
<rect x="32" y="30" width="16" height="16" rx="8" fill="#006AFF"/>
<path d="M44.5357 36.5355L43.1214 35.1213L38.8788 39.364L36.7575 37.2426L35.3433 38.6569L37.4646 40.7782C37.4644 40.778 37.4648 40.7784 37.4646 40.7782L38.1717 41.4853C38.5622 41.8758 39.1954 41.8758 39.5859 41.4853L44.5357 36.5355Z" fill="#ABE2FF"/>
</svg>
