<svg width="1440" height="720" viewBox="0 0 1440 720" fill="none" xmlns="http://www.w3.org/2000/svg">
<rect width="1440" height="720" fill="#001C5C"/>
<circle opacity="0.5" cx="307" cy="360" r="250" fill="#ABE2FF"/>
<circle opacity="0.5" cx="582" cy="360" r="250" fill="#6DC3FF"/>
<circle opacity="0.5" cx="857" cy="360" r="250" fill="#006AFF"/>
<circle opacity="0.5" cx="1132" cy="360" r="250" fill="#0045C6"/>
<rect opacity="0.5" x="401" y="388" width="413" height="55" rx="27.5" fill="#4417BF"/>
<g clip-path="url(#clip0_13_14)">
<rect x="412" y="397" width="35" height="35" rx="17.5" fill="#D1D5FF"/>
<path d="M428.042 414.5C431.265 414.5 433.875 411.89 433.875 408.667C433.875 405.444 431.265 402.833 428.042 402.833C424.819 402.833 422.208 405.444 422.208 408.667C422.208 411.89 424.819 414.5 428.042 414.5ZM428.042 405.75C429.646 405.75 430.958 407.062 430.958 408.667C430.958 410.271 429.646 411.583 428.042 411.583C426.437 411.583 425.125 410.271 425.125 408.667C425.125 407.062 426.437 405.75 428.042 405.75ZM419.292 423.25C419.583 422.331 423.04 420.8 426.525 420.421L429.5 417.504C428.931 417.446 428.508 417.417 428.042 417.417C424.148 417.417 416.375 419.371 416.375 423.25V426.167H429.5L426.583 423.25H419.292ZM442.042 415.229L434.56 422.769L431.542 419.735L429.5 421.792L434.56 426.896L444.083 417.285L442.042 415.229Z" fill="#4417BF"/>
</g>
<rect opacity="0.5" x="175" y="313" width="1122" height="55" rx="27.5" fill="#7B099E"/>
<g clip-path="url(#clip1_13_14)">
<rect x="184" y="323" width="35" height="35" rx="17.5" fill="#E9DEFF"/>
<path d="M200.042 340.5C203.265 340.5 205.875 337.89 205.875 334.667C205.875 331.444 203.265 328.833 200.042 328.833C196.819 328.833 194.208 331.444 194.208 334.667C194.208 337.89 196.819 340.5 200.042 340.5ZM200.042 331.75C201.646 331.75 202.958 333.063 202.958 334.667C202.958 336.271 201.646 337.583 200.042 337.583C198.437 337.583 197.125 336.271 197.125 334.667C197.125 333.063 198.437 331.75 200.042 331.75ZM191.292 349.25C191.583 348.331 195.04 346.8 198.525 346.421L201.5 343.504C200.931 343.446 200.508 343.417 200.042 343.417C196.148 343.417 188.375 345.371 188.375 349.25V352.167H201.5L198.583 349.25H191.292ZM214.042 341.229L206.56 348.769L203.542 345.735L201.5 347.792L206.56 352.896L216.083 343.285L214.042 341.229Z" fill="#7B099E"/>
</g>
<defs>
<clipPath id="clip0_13_14">
<rect x="412" y="397" width="35" height="35" rx="17.5" fill="white"/>
</clipPath>
<clipPath id="clip1_13_14">
<rect x="184" y="323" width="35" height="35" rx="17.5" fill="white"/>
</clipPath>
</defs>
</svg>
