<?xml version="1.0" encoding="utf-8"?>
<!-- Generator: Adobe Illustrator 21.1.0, SVG Export Plug-In . SVG Version: 6.00 Build 0)  -->
<svg version="1.1" id="Layer_1" xmlns="http://www.w3.org/2000/svg" xmlns:xlink="http://www.w3.org/1999/xlink" x="0px" y="0px"
	 viewBox="0 0 600 600" style="enable-background:new 0 0 600 600;" xml:space="preserve">
<style type="text/css">
	.st0{fill:#ACC4D1;}
	.st1{fill:#F3F3F3;}
	.st2{fill:#AAC2CC;}
	.st3{fill:#E6E6E5;}
	.st4{fill:#CCCCCB;}
	.st5{fill:#BCBCBC;}
	.st6{fill:#FFFFFF;}
	.st7{fill:#4C9FD8;}
	.st8{fill:#2B96D3;}
	.st9{fill:#9CCC4D;}
	.st10{fill:#90BD43;}
</style>
<g>
	<circle class="st0" cx="441.3" cy="418" r="157.2"/>
	<path class="st1" d="M472.5,572C472.5,572,472.5,572,472.5,572c-0.9,0.2-1.8,0.4-2.7,0.5c-35.6,6.6-70.5,0.6-100.4-14.8
		c12.5-6.4,26-11.2,40.1-14.2c10.2-2.1,20.8-3.2,31.7-3.2c25.9,0,50.3,6.3,71.9,17.4C500.6,564.2,487,569,472.5,572z"/>
	<path class="st1" d="M514,278.7c-21.8,11.4-46.5,17.8-72.8,17.8c-11.2,0-22.2-1.2-32.7-3.4c-14.2-3-27.6-7.9-40.1-14.4v0
		c13.6-7.1,28.4-12.3,44.2-15.2c3-0.6,6-1,9-1.4c1.8-0.2,3.6-0.4,5.4-0.6c2.4-0.2,4.8-0.4,7.2-0.5c3.1-0.1,6.1-0.2,9.1-0.1
		c2,0,4,0.1,6,0.2c2,0.1,4,0.2,5.9,0.4c1.3,0.1,2.6,0.3,3.9,0.4c0.6,0.1,1.3,0.2,2,0.2c2,0.2,3.9,0.5,5.8,0.9
		c1.9,0.3,3.8,0.7,5.8,1.1C487.3,267,501.1,272,514,278.7z"/>
	<path class="st2" d="M432.2,557.7c-11.8-6.1-22.8-13.6-32.7-22.4c-25.2-22.4-43.4-53.1-50-88.8c-8.8-47.4,4.8-93.9,33.2-128.4
		c13.2-16.1,29.6-29.6,48.5-39.4C444,272,458,267,472.8,264c-19.2-3.9-39.5-4.3-60.1-0.5c-15.8,2.9-30.7,8.1-44.2,15.2
		c-18.9,9.9-35.3,23.4-48.5,39.4c-28.4,34.6-42,81-33.2,128.4c6.6,35.7,24.8,66.4,50,88.8c9.9,8.8,20.9,16.4,32.7,22.4
		c29.8,15.4,64.8,21.3,100.4,14.8c0.9-0.2,1.8-0.4,2.7-0.5C458.4,569.1,444.8,564.2,432.2,557.7z"/>
	<path class="st3" d="M408.6,293.1c-14.2-3-27.6-7.9-40.1-14.4v0c13.6-7.1,28.4-12.3,44.2-15.2c3-0.6,6-1,9-1.4
		c1.8-0.2,3.6-0.4,5.4-0.6c2.4-0.2,4.8-0.4,7.2-0.5c3.1-0.1,6.1-0.2,9.1-0.1c2,0,4,0.1,6,0.2c2,0.1,4,0.2,5.9,0.4
		c1.3,0.1,2.6,0.3,3.9,0.4c0.6,0.1,1.3,0.2,2,0.2c1.9,0.3,3.9,0.5,5.8,0.9c1.9,0.3,3.8,0.7,5.8,1.1c-14.8,3-28.8,8-41.6,14.7
		C423.2,282.9,415.6,287.7,408.6,293.1z"/>
	<path class="st3" d="M432.2,557.7c12.6,6.5,26.2,11.3,40.3,14.2c-0.9,0.2-1.8,0.4-2.7,0.5c-35.6,6.6-70.5,0.6-100.4-14.8
		c12.5-6.4,26-11.2,40.1-14.2C416.7,548.9,424.2,553.7,432.2,557.7z"/>
	<path class="st4" d="M346.9,416.3c-7.8,11.5-13.5,20.7-8.6,30.5c9.7,19.3,38.1,39.1-1.5,88.4l0,0c-25.2-22.4-43.4-53.1-50-88.8
		c-8.8-47.4,4.8-93.9,33.2-128.4c0,0,30,11,42.6,31.5c4.4,7.1,6.6,15.4,4.8,24.8C363.7,392.1,354.3,405.3,346.9,416.3z"/>
	<path class="st5" d="M338.3,446.9c9.7,19.3,38.1,39.1-1.5,88.4l0,0c-25.2-22.4-43.4-53.1-50-88.8c-8.8-47.4,4.8-93.9,33.2-128.4
		c0,0,30,11,42.6,31.5c-9.9,20.4-15.5,43.2-15.7,66.7C339.1,427.8,333.3,437,338.3,446.9z"/>
	<path class="st4" d="M595.8,389.5c0.4,2.2,0.8,4.4,1.1,6.6c-4.6,8-10.7,14.4-16.6,19.3c-10.9,9-18.3,21.4-22.1,35
		c-3.6,13.1-10.5,24.2-17.9,32.9c-25.1,29.8-73.7,2-60-34.6c0.2-0.6,0.5-1.2,0.7-1.8c3.3-7.9,9.1-13.5,15.9-17.4
		c20.5-11.9,28.1-37.6,17.1-58.6s-15.8-38.4,8.2-49.7c13.5-6.4,27.4-7.2,39.7-4.1l0,0C578.6,337.1,590.7,361.8,595.8,389.5z"/>
</g>
<path class="st6" d="M478.9,402.6h-0.3v-16.9c0-18.2-14.8-32.9-32.9-32.9h-8.7c-18.2,0-32.9,14.8-32.9,32.9v16.9h-0.3
	c-5.3,0-9.6,4.3-9.6,9.6v61.3c0,5.3,4.3,9.6,9.6,9.6h75.2c5.3,0,9.6-4.3,9.6-9.6v-61.3C488.5,406.9,484.2,402.6,478.9,402.6z
	 M450.9,451.4c0,5.3-4.3,9.6-9.6,9.6c-5.3,0-9.6-4.3-9.6-9.6v-12c0-5.3,4.3-9.6,9.6-9.6c5.3,0,9.6,4.3,9.6,9.6V451.4z M459.8,402.6
	h-36.9v-16.9c0-7.8,6.3-14.1,14.1-14.1h8.7c7.8,0,14.1,6.3,14.1,14.1V402.6L459.8,402.6z"/>
<g>
	<circle class="st7" cx="215" cy="238.3" r="213.4"/>
	<path class="st1" d="M257.4,447.4C257.4,447.4,257.4,447.4,257.4,447.4c-1.2,0.2-2.4,0.5-3.6,0.7c-48.3,8.9-95.8,0.8-136.3-20.1
		c17-8.7,35.3-15.3,54.5-19.2c13.9-2.9,28.3-4.3,43-4.3c35.2,0,68.3,8.5,97.6,23.6C295.6,436.9,277,443.4,257.4,447.4z"/>
	<path class="st1" d="M313.8,49.1c-29.6,15.4-63.2,24.2-98.8,24.2c-15.2,0-30.1-1.6-44.4-4.6c-19.2-4.1-37.5-10.7-54.4-19.6v0
		c18.4-9.6,38.6-16.7,60.1-20.7c4.1-0.8,8.2-1.4,12.3-1.9c2.4-0.3,4.9-0.6,7.3-0.8c3.3-0.3,6.5-0.5,9.7-0.7
		c4.2-0.2,8.3-0.3,12.4-0.2c2.7,0,5.4,0.1,8.1,0.3c2.7,0.1,5.4,0.3,8,0.6c1.8,0.2,3.5,0.3,5.3,0.5c0.9,0.1,1.8,0.2,2.7,0.3
		c2.7,0.3,5.3,0.7,7.9,1.2c2.6,0.4,5.2,0.9,7.8,1.4C277.5,33.2,296.3,40,313.8,49.1z"/>
	<path class="st8" d="M202.6,428.1c-16-8.2-31-18.5-44.4-30.5C124,367.2,99.3,325.5,90.3,277c-11.9-64.4,6.5-127.5,45.1-174.4
		c17.9-21.8,40.2-40.1,65.9-53.5c17.4-9.1,36.3-15.9,56.5-19.9c-26.1-5.4-53.7-5.9-81.6-0.7c-21.5,4-41.7,11-60.1,20.7
		c-25.7,13.4-48,31.7-65.9,53.5c-38.6,46.9-57,110-45.1,174.4c9,48.5,33.7,90.1,67.9,120.6c13.5,12,28.4,22.2,44.4,30.5
		c40.5,20.9,88,29,136.3,20.1c1.2-0.2,2.4-0.5,3.7-0.7C238.2,443.4,219.8,436.9,202.6,428.1z"/>
	<path class="st3" d="M170.6,68.7c-19.2-4.1-37.5-10.7-54.4-19.6v0c18.4-9.6,38.6-16.7,60.1-20.7c4.1-0.8,8.2-1.4,12.3-1.9
		c2.4-0.3,4.9-0.6,7.3-0.8c3.3-0.3,6.5-0.5,9.7-0.7c4.1-0.2,8.3-0.3,12.4-0.2c2.7,0,5.4,0.1,8.1,0.3c2.7,0.1,5.4,0.3,8,0.6
		c1.8,0.2,3.5,0.3,5.3,0.5c0.9,0.1,1.8,0.2,2.7,0.3c2.6,0.3,5.3,0.7,7.9,1.2c2.6,0.4,5.2,0.9,7.8,1.4c-20.1,4.1-39.1,10.8-56.5,19.9
		C190.4,54.8,180.2,61.3,170.6,68.7z"/>
	<path class="st3" d="M202.6,428.1c17.2,8.8,35.6,15.4,54.8,19.3c-1.2,0.2-2.4,0.5-3.6,0.7c-48.3,8.9-95.8,0.8-136.3-20.1
		c17-8.7,35.3-15.3,54.5-19.2C181.6,416.1,191.9,422.5,202.6,428.1z"/>
	<path class="st9" d="M86.8,236c-10.6,15.6-18.4,28.1-11.7,41.5c13.1,26.3,51.7,53.1-2.1,120.1l0,0C38.8,367.2,14.1,325.5,5.2,277
		c-11.9-64.4,6.5-127.5,45.1-174.4c0,0,40.8,14.9,57.8,42.7c5.9,9.7,9,20.9,6.5,33.6C109.7,203.2,96.9,221,86.8,236z"/>
	<path class="st10" d="M75.1,277.5c13.1,26.3,51.7,53.1-2.1,120.1l0,0C38.8,367.2,14.1,325.5,5.2,277
		c-11.9-64.4,6.5-127.5,45.1-174.4c0,0,40.8,14.9,57.8,42.7c-13.5,27.8-21,58.6-21.3,90.6C76.2,251.6,68.4,264.1,75.1,277.5z"/>
	<path class="st9" d="M424.8,199.5c0.6,3,1,6,1.4,9c-6.2,10.9-14.6,19.5-22.6,26.1c-14.8,12.2-24.9,29-30,47.5
		c-4.9,17.8-14.3,32.8-24.3,44.7c-34.1,40.5-100,2.7-81.5-46.9c0.3-0.8,0.6-1.6,1-2.4c4.5-10.8,12.4-18.4,21.5-23.7
		c27.8-16.2,38.2-51,23.2-79.5s-21.4-52.2,11.1-67.5c18.4-8.6,37.1-9.8,53.9-5.6l0,0C401.5,128.5,417.9,161.9,424.8,199.5z"/>
</g>
<path class="st6" d="M111.2,356.5l62.5-60.1c18.4,15.5,41.5,23.9,65.6,23.9c56.3,0,102-45.8,102-102s-45.8-102-102-102
	s-102,45.8-102,102c0,21.1,6.4,41.2,18.5,58.4l-63,60.6c-2.6,2.5-4.1,5.9-4.1,9.6c0,3.5,1.3,6.7,3.7,9.2
	C97.5,361.5,105.9,361.6,111.2,356.5z M314.7,218.3c0,41.6-33.8,75.4-75.4,75.4s-75.4-33.8-75.4-75.4s33.8-75.4,75.4-75.4
	S314.7,176.7,314.7,218.3z"/>
</svg>
