<?xml version="1.0" encoding="utf-8"?>
<!-- Generator: Adobe Illustrator 21.1.0, SVG Export Plug-In . SVG Version: 6.00 Build 0)  -->
<svg version="1.1" id="Layer_1" xmlns="http://www.w3.org/2000/svg" xmlns:xlink="http://www.w3.org/1999/xlink" x="0px" y="0px"
	 viewBox="0 0 413.4 106.8" style="enable-background:new 0 0 413.4 106.8;" xml:space="preserve">
<style type="text/css">
	.st0{fill:#ffffff;}
</style>
<g>
	<path class="st0" d="M149.5,65.6c-0.4-0.2-1-0.2-1.3,0.2c-3.5,4.1-8.5,5.5-13.2,3.5c-3.2-1.3-5.5-3.6-6.5-6.7
		c-1.1-3.1-0.8-6.8,0.8-10.7c3.1-7.7,9.7-11.1,16.3-8.4c4.6,1.9,7.2,5.9,7,11.1c0,0.5,0.3,0.9,0.8,1c0.5,0.1,1-0.2,1.1-0.6l7.7-19.9
		c0.2-0.4,0-0.9-0.3-1.1c-2.9-2.3-6.3-4.3-10-5.8c-8.8-3.6-17.4-4-24.8-1.2c-7.5,2.8-13.2,8.7-16.6,17c-3.4,8.3-3.4,16.5,0,23.8
		c3.3,7.3,9.8,13,18.6,16.6c4.2,1.7,8.4,2.7,12.4,2.9c0,0,0,0,0.1,0c0.4,0,0.8-0.3,0.9-0.6l7.7-19.8
		C150.1,66.4,149.9,65.8,149.5,65.6z"/>
	<path class="st0" d="M38,25.7c-7.3,0.1-13.4,3-17.6,8.3v-6.5c0-0.6-0.4-1-1-1H1c-0.6,0-1,0.4-1,1v57.4c0,0.6,0.4,1,1,1h18.4
		c0.6,0,1-0.4,1-1V55.5c0.9-7.7,7.8-12.1,17.5-11.2c0.3,0,0.6-0.1,0.8-0.3s0.3-0.5,0.3-0.7V26.7c0-0.3-0.1-0.5-0.3-0.7
		C38.6,25.8,38.3,25.7,38,25.7z"/>
	<path class="st0" d="M71.6,25.9c-18.5,0-30.9,12.3-30.9,30.5c0,18.3,12.3,30.2,31.4,30.2c10.6,0,19.5-3.6,25.8-10.4
		c0.4-0.4,0.3-1,0-1.4l-9.7-9.5c-0.4-0.4-1-0.4-1.4,0c-3.6,3.6-8.2,5.6-13,5.6c-6,0-10.2-3.1-12.2-8.6h39c0.5,0,1-0.4,1-0.9
		c0.7-11.5-2-20.8-7.8-27C88.6,28.7,81.1,25.9,71.6,25.9z M61.1,50.3c1.4-6,5.3-9.6,10.7-9.6c5.8,0,9.6,3.7,10,9.6H61.1z"/>
	<path class="st0" d="M223.2,25.9c-19.4,0-32.4,12.2-32.4,30.3c0,18.2,13,30.4,32.4,30.4c19.3,0,32.3-12.2,32.3-30.4
		C255.5,38.1,242.5,25.9,223.2,25.9z M223.2,70.3c-7.1,0-11.9-5.6-11.9-13.9c0-8.3,4.8-13.9,11.9-13.9c7,0,11.8,5.6,11.8,13.9
		C235,64.7,230.2,70.3,223.2,70.3z"/>
	<path class="st0" d="M315.8,71.4l-13.4-7.9c-0.2-0.1-0.5-0.2-0.8-0.1c-0.3,0.1-0.5,0.2-0.6,0.5c-2.2,4-5.9,6-10.8,6
		c-6.6,0-11-5.5-11-13.6c0-8.1,4.4-13.5,11-13.5c4.5,0,8.2,1.9,10.8,5.5c0.3,0.4,0.9,0.5,1.3,0.3l13.2-8c0.2-0.1,0.4-0.4,0.5-0.6
		c0.1-0.3,0-0.5-0.1-0.8c-5.2-8.5-14.8-13.4-26.4-13.4c-18.4,0-30.8,12.3-30.8,30.5c0,18,12.3,30.2,30.6,30.2c12.4,0,22-4.9,27-13.8
		C316.4,72.3,316.2,71.7,315.8,71.4z"/>
	<path class="st0" d="M370.1,0.4c-0.2-0.3-0.5-0.4-0.8-0.4h-19.6c-0.4,0-0.8,0.3-0.9,0.6l-32.9,85.8c-0.1,0.3-0.1,0.7,0.1,0.9
		s0.5,0.4,0.8,0.4h19.6c0.4,0,0.8-0.3,0.9-0.6l32.9-85.8C370.3,1.1,370.2,0.7,370.1,0.4z"/>
	<path class="st0" d="M200.9,0.4c-0.2-0.3-0.5-0.4-0.8-0.4h-19.6c-0.4,0-0.8,0.3-0.9,0.6l-32.9,85.8c-0.1,0.3-0.1,0.7,0.1,0.9
		c0.2,0.3,0.5,0.4,0.8,0.4h19.6c0.4,0,0.8-0.3,0.9-0.6L201,1.4C201.2,1.1,201.1,0.7,200.9,0.4z"/>
	<path class="st0" d="M413.2,26.4c-0.2-0.3-0.5-0.4-0.8-0.4h-18.3c-0.4,0-0.8,0.3-1,0.7L381.5,62l-13.1-35.4
		c-0.1-0.4-0.5-0.7-0.9-0.7H367c-0.4,0-0.8,0.3-0.9,0.6l-8.7,22.7c-0.1,0.2-0.1,0.5,0,0.7l14,33l-1.2,2.5c-1.3,2.7-3.3,4-6.2,4
		c-2.4,0-4.4-0.8-6.9-2.9c-0.2-0.2-0.5-0.3-0.8-0.2c-0.3,0-0.5,0.2-0.7,0.5l-7.7,12.6c-0.3,0.4-0.2,1,0.2,1.3
		c5.4,4.1,10.9,6.1,17.3,6.1c11.1,0,18.6-5.3,23.1-16.2l24.8-63.3C413.4,27,413.4,26.6,413.2,26.4z"/>
</g>
</svg>
