<svg width="64" height="64" viewBox="0 0 64 64" fill="none" xmlns="http://www.w3.org/2000/svg">
<path d="M32 32L54 44C55.2444 40.8609 56.1455 30.7069 56 27.3333C55.8545 23.9597 52 18 49.3333 15.3333C46.6667 12.6667 44.6667 10.6667 40.6667 9.33333C36.6667 8 35.2579 8.88791 32 8V32Z" fill="#ABE2FF"/>
<path d="M32 56C45.2548 56 56 45.2548 56 32C56 18.7452 45.2548 8 32 8C18.7452 8 8 18.7452 8 32C8 45.2548 18.7452 56 32 56Z" stroke="#006AFF" stroke-width="2"/>
<path d="M32 48C40.8366 48 48 40.8366 48 32C48 23.1634 40.8366 16 32 16C23.1634 16 16 23.1634 16 32C16 40.8366 23.1634 48 32 48Z" stroke="#006AFF" stroke-width="1.5"/>
<path d="M32 40C36.4183 40 40 36.4183 40 32C40 27.5817 36.4183 24 32 24C27.5817 24 24 27.5817 24 32C24 36.4183 27.5817 40 32 40Z" stroke="#006AFF"/>
<path d="M32 6.66663V32L54 44.6666" stroke="#ABE2FF" stroke-width="2"/>
<path d="M32 34.6667C33.4728 34.6667 34.6667 33.4728 34.6667 32C34.6667 30.5273 33.4728 29.3334 32 29.3334C30.5272 29.3334 29.3333 30.5273 29.3333 32C29.3333 33.4728 30.5272 34.6667 32 34.6667Z" fill="#006AFF"/>
<path d="M40 26C41.1046 26 42 25.1046 42 24C42 22.8954 41.1046 22 40 22C38.8954 22 38 22.8954 38 24C38 25.1046 38.8954 26 40 26Z" fill="#006AFF"/>
</svg>
