<svg width="213" height="22" viewBox="0 0 213 22" fill="none" xmlns="http://www.w3.org/2000/svg">
<g clip-path="url(#clip0_67_465)">
<path d="M13.0246 19.6288C15.1716 19.6288 16.8408 17.8924 16.8408 15.8797C16.8408 13.726 15.2762 12.1365 13.0246 12.0032C11.9667 11.9405 11.3372 11.3802 11.3372 10.5014C11.3372 9.62265 11.9667 9.06232 13.0246 8.9997C15.2762 8.86635 16.8408 7.2769 16.8408 5.1232C16.8408 3.11042 15.1716 1.37402 13.0246 1.37402C10.8777 1.37402 9.21604 3.13342 9.21604 5.1232C9.21604 5.75007 9.37549 6.41299 9.71841 7.09755C9.8995 7.4589 9.9842 7.79425 9.9842 8.09481C9.9842 8.99204 9.18501 9.51695 8.5324 9.51695C8.00684 9.51695 7.51332 9.19612 7.1192 8.59819C6.29746 7.35147 5.15051 6.68974 3.81152 6.68992C1.70646 6.68992 0 8.39638 0 10.5014C0 12.6065 1.70646 14.313 3.81152 14.313C5.15042 14.3131 6.29737 13.6514 7.1192 12.4047C7.51332 11.8068 8.00684 11.4859 8.5324 11.4859C9.18501 11.4859 9.9842 12.0108 9.9842 12.9081C9.9842 13.2086 9.8995 13.544 9.71841 13.9053C9.37549 14.5899 9.21604 15.2528 9.21604 15.8797C9.21604 17.8549 10.8485 19.6288 13.0246 19.6288Z" fill="#006AFF"/>
<path d="M22.0884 4.71155H24.7442V5.96451C25.0983 5.53362 25.5432 5.18627 26.0472 4.94726C26.5511 4.70825 27.1016 4.58348 27.6593 4.58188C28.0376 4.5677 28.4158 4.61143 28.7809 4.71155V7.74289C28.7809 7.74289 28.4138 7.61322 27.5296 7.61322C26.014 7.61322 25.0035 8.62367 25.0035 10.1393V16.3283H22.0884V4.71155ZM36.361 4.71155H39.0168V5.83483C39.9235 5.03429 41.0895 4.5892 42.299 4.58188C45.2142 4.58188 47.7403 7.108 47.7403 10.5199C47.7403 13.9319 45.2142 16.458 42.299 16.458C41.1852 16.4608 40.1092 16.0538 39.2761 15.3145V20.4964H36.361V4.71155ZM44.8252 10.5199C44.8252 8.6203 43.5722 7.36734 41.9319 7.36734C40.2916 7.36734 39.0168 8.61525 39.0168 10.5199C39.0168 12.4246 40.2899 13.6675 41.9336 13.6675C43.5772 13.6675 44.8252 12.4213 44.8252 10.5199ZM49.8774 4.71155H52.5332V5.83483C53.4402 5.03469 54.606 4.58965 55.8155 4.58188C58.7306 4.58188 61.2567 7.108 61.2567 10.5199C61.2567 13.9319 58.7306 16.458 55.8155 16.458C54.7018 16.4599 53.6261 16.053 52.7925 15.3145V20.4964H49.8774V4.71155ZM58.3433 10.5199C58.3433 8.6203 57.0903 7.36734 55.4483 7.36734C53.8064 7.36734 52.5332 8.61525 52.5332 10.5199C52.5332 12.4246 53.808 13.6675 55.4483 13.6675C57.0886 13.6675 58.3433 12.4213 58.3433 10.5199ZM63.3955 0.41546H66.3107V16.3283H63.3955V0.41546ZM68.4478 10.5199C68.4478 7.23935 71.1035 4.58188 74.2561 4.58188C77.2993 4.58188 79.8254 6.98001 79.8254 10.5199C79.8132 10.9045 79.7698 11.2875 79.6957 11.6651H71.6004C71.8597 12.7884 72.7523 13.6675 74.2561 13.6675C75.6169 13.6675 76.1575 13.0427 76.1575 13.0427H79.3101C78.7257 14.5584 76.9119 16.453 74.2578 16.453C71.1035 16.458 68.4478 13.8022 68.4478 10.5199ZM77.0366 9.6358C76.904 8.99499 76.5546 8.41948 76.0472 8.00627C75.5398 7.59307 74.9055 7.36745 74.2511 7.36745C73.5967 7.36745 72.9624 7.59307 72.455 8.00627C71.9476 8.41948 71.5981 8.99499 71.4656 9.6358H77.0366ZM30.4818 1.66673C30.4818 1.22857 30.6559 0.808358 30.9657 0.498532C31.2755 0.188707 31.6958 0.0146484 32.1339 0.0146484C32.5721 0.0146484 32.9923 0.188707 33.3021 0.498532C33.6119 0.808358 33.786 1.22857 33.786 1.66673C33.786 2.10489 33.6119 2.52511 33.3021 2.83493C32.9923 3.14476 32.5721 3.31881 32.1339 3.31881C31.6958 3.31881 31.2755 3.14476 30.9657 2.83493C30.6559 2.52511 30.4818 2.10489 30.4818 1.66673ZM30.6772 4.71155H33.5974V16.3317H30.6822L30.6772 4.71155Z" fill="black"/>
</g>
<path d="M88.534 0.0263672H87.6924V21.079H88.534V0.0263672Z" fill="black"/>
<path fill-rule="evenodd" clip-rule="evenodd" d="M100.47 16.0176C100.561 16.0391 100.652 16.0576 100.744 16.0742C101.045 16.1279 101.354 16.1553 101.671 16.1553C102.075 16.1553 102.465 16.1094 102.841 16.0186C103.133 15.9473 103.417 15.8496 103.692 15.7246C104.337 15.4385 104.896 15.0439 105.369 14.542C105.856 14.0264 106.236 13.417 106.508 12.7148C106.795 11.998 106.938 11.2168 106.938 10.3711C106.938 9.91113 106.896 9.47266 106.811 9.05469C106.74 8.70508 106.639 8.37012 106.508 8.0498C106.236 7.33301 105.856 6.72363 105.369 6.22168C105.065 5.89062 104.726 5.60645 104.352 5.36914C104.258 5.30957 104.162 5.25391 104.064 5.2002L103.964 5.14746C103.875 5.10156 103.784 5.05859 103.692 5.01758C103.425 4.89648 103.15 4.80078 102.867 4.73047C102.483 4.63574 102.084 4.58789 101.671 4.58789C100.94 4.58789 100.252 4.73145 99.6069 5.01758C98.9761 5.30469 98.4175 5.70605 97.9297 6.22168C97.457 6.72363 97.0771 7.33301 96.7905 8.0498C96.5181 8.75195 96.3818 9.52539 96.3818 10.3711C96.3818 11.2168 96.5181 11.998 96.7905 12.7148C96.9043 12.9932 97.0322 13.2568 97.1753 13.5059L97.2734 13.6719L97.3906 13.8535L97.478 13.9805L97.5869 14.1299C97.645 14.207 97.7046 14.2822 97.7661 14.3545C97.8193 14.418 97.874 14.4805 97.9297 14.542C98.4175 15.0439 98.9761 15.4385 99.6069 15.7246C99.7236 15.7773 99.8418 15.8252 99.9614 15.8682L100.056 15.8994L100.187 15.9414L100.321 15.9795L100.47 16.0176ZM103.09 14.3486C102.646 14.5498 102.173 14.6494 101.671 14.6494C101.396 14.6494 101.128 14.6191 100.867 14.5596C100.65 14.5098 100.438 14.4395 100.23 14.3486C99.772 14.1338 99.3701 13.8398 99.0264 13.4678C98.8296 13.2461 98.6543 13.0039 98.5 12.7402C98.3843 12.543 98.2803 12.334 98.188 12.1133C97.9873 11.583 97.8867 11.002 97.8867 10.3711C97.8867 9.74121 97.9873 9.16699 98.188 8.65137C98.2344 8.53613 98.2842 8.4248 98.3369 8.31738L98.417 8.16016L98.4824 8.04297C98.6411 7.7666 98.8223 7.51758 99.0264 7.29688C99.3701 6.91016 99.772 6.61621 100.23 6.41504C100.689 6.2002 101.169 6.09277 101.671 6.09277C101.877 6.09277 102.078 6.11035 102.274 6.14648C102.556 6.19922 102.828 6.28809 103.09 6.41504C103.265 6.49121 103.431 6.58203 103.589 6.68555C103.846 6.85352 104.081 7.05762 104.294 7.29688C104.638 7.66992 104.91 8.12109 105.111 8.65137C105.18 8.81738 105.238 8.98926 105.285 9.16699C105.384 9.54199 105.433 9.94434 105.433 10.3711C105.433 11.002 105.326 11.583 105.111 12.1133C104.91 12.6289 104.638 13.0801 104.294 13.4678C103.95 13.8398 103.549 14.1338 103.09 14.3486ZM110.534 4.7168H109.029V20.1758H110.534V14.5205H110.663C110.921 14.8223 111.229 15.0938 111.588 15.3379C111.889 15.5391 112.254 15.7246 112.684 15.8965C112.945 16.002 113.234 16.0752 113.549 16.1162C113.751 16.1426 113.965 16.1553 114.189 16.1553C114.877 16.1553 115.529 16.0117 116.146 15.7246C116.776 15.4385 117.328 15.0439 117.801 14.542C118.274 14.0264 118.647 13.417 118.919 12.7148C119.113 12.2305 119.241 11.7158 119.303 11.1729C119.333 10.9121 119.349 10.6455 119.349 10.3711C119.349 9.52539 119.206 8.75195 118.919 8.0498L118.836 7.84082C118.803 7.76172 118.768 7.68359 118.732 7.60742C118.626 7.38184 118.509 7.16797 118.38 6.96582L118.295 6.83789C118.241 6.75781 118.185 6.68066 118.127 6.60547C118.024 6.47168 117.916 6.34375 117.801 6.22168C117.53 5.92676 117.234 5.66895 116.912 5.44922C116.755 5.3418 116.591 5.24316 116.422 5.15332C116.332 5.10547 116.24 5.06055 116.146 5.01758C115.802 4.8584 115.447 4.74316 115.082 4.67285C114.979 4.65332 114.875 4.63672 114.771 4.62305C114.707 4.61523 114.643 4.6084 114.578 4.60352C114.487 4.5957 114.396 4.59082 114.304 4.58887L114.189 4.58789C113.909 4.58789 113.646 4.6084 113.401 4.64941C113.267 4.67188 113.137 4.7002 113.013 4.73438C112.898 4.7666 112.789 4.80371 112.684 4.8457C112.254 5.01758 111.889 5.2041 111.588 5.40527C111.42 5.51855 111.264 5.63867 111.119 5.76465C110.952 5.90918 110.8 6.06152 110.663 6.22168H110.534V4.7168ZM115.544 14.3486C115.114 14.5498 114.662 14.6494 114.189 14.6494C113.963 14.6494 113.74 14.627 113.521 14.5811C113.281 14.5312 113.045 14.4541 112.813 14.3486C112.383 14.1338 111.996 13.8398 111.652 13.4678C111.308 13.0801 111.036 12.6289 110.835 12.1133C110.634 11.583 110.534 11.002 110.534 10.3711C110.534 9.74121 110.634 9.16699 110.835 8.65137C111.036 8.12109 111.308 7.66992 111.652 7.29688C111.996 6.91016 112.383 6.61621 112.813 6.41504C112.919 6.36328 113.026 6.31836 113.134 6.2793C113.313 6.21484 113.495 6.16699 113.679 6.13574C113.775 6.11914 113.872 6.10742 113.97 6.10059C114.042 6.0957 114.116 6.09277 114.189 6.09277C114.662 6.09277 115.114 6.2002 115.544 6.41504C115.684 6.47852 115.819 6.55078 115.949 6.63281C116.005 6.66797 116.061 6.70508 116.115 6.74414C116.164 6.7793 116.211 6.81543 116.259 6.85352C116.423 6.98438 116.579 7.13184 116.726 7.29688C117.07 7.66992 117.342 8.12109 117.543 8.65137C117.704 9.06348 117.8 9.51367 117.832 10C117.84 10.1211 117.844 10.2451 117.844 10.3711C117.844 11.002 117.744 11.583 117.543 12.1133C117.342 12.6289 117.07 13.0801 116.726 13.4678C116.382 13.8398 115.988 14.1338 115.544 14.3486ZM125.964 16.1553C125.233 16.1553 124.545 16.0117 123.9 15.7246C123.269 15.4385 122.71 15.0439 122.223 14.542C121.75 14.0264 121.37 13.417 121.084 12.7148C120.811 11.998 120.675 11.2168 120.675 10.3711C120.675 9.93652 120.711 9.52051 120.783 9.12402C120.851 8.74902 120.951 8.39062 121.084 8.0498C121.167 7.84277 121.257 7.64551 121.355 7.45605C121.417 7.33594 121.482 7.21973 121.551 7.10742C121.749 6.78223 121.973 6.4873 122.223 6.22168C122.71 5.70605 123.269 5.30469 123.9 5.01758C124.545 4.73145 125.233 4.58789 125.964 4.58789C126.681 4.58789 127.347 4.73145 127.964 5.01758C128.333 5.18164 128.672 5.38672 128.98 5.63281C129.068 5.70215 129.153 5.77539 129.235 5.85156L129.319 5.93262L129.422 6.03516L129.555 6.17871C130.013 6.66602 130.364 7.24707 130.608 7.91992C130.866 8.59375 130.995 9.3252 130.995 10.1133L130.994 10.1992L130.989 10.3096C130.986 10.3672 130.98 10.4238 130.974 10.4785L130.931 10.8018L130.906 10.9062C130.889 10.9824 130.875 11.0547 130.866 11.124H122.223C122.309 11.6543 122.46 12.1348 122.675 12.5645C122.904 12.9941 123.183 13.3672 123.513 13.6826C123.566 13.7295 123.621 13.7754 123.677 13.8193L123.759 13.8828C123.816 13.9258 123.875 13.9668 123.933 14.0059L124.081 14.1006L124.178 14.1582C124.331 14.2461 124.489 14.3242 124.653 14.3916C124.854 14.4756 125.062 14.5391 125.274 14.582C125.498 14.627 125.728 14.6494 125.964 14.6494C126.595 14.6494 127.175 14.5283 127.706 14.2842C128.236 14.041 128.644 13.6963 128.931 13.252H130.565C130.192 14.1123 129.598 14.8145 128.781 15.3594C127.978 15.8896 127.039 16.1553 125.964 16.1553ZM129.469 9.74805C129.469 9.5752 129.45 9.39844 129.412 9.21973C129.389 9.10742 129.358 8.99316 129.319 8.87793C129.283 8.76758 129.239 8.65625 129.189 8.54395C129.017 8.11426 128.773 7.71973 128.458 7.36133C128.157 6.98828 127.792 6.6875 127.362 6.45801C126.932 6.21484 126.466 6.09277 125.964 6.09277C125.505 6.09277 125.061 6.18652 124.631 6.37207C124.215 6.54395 123.836 6.79492 123.492 7.125C123.319 7.29004 123.161 7.47168 123.016 7.67188C122.947 7.7666 122.881 7.86523 122.819 7.96875C122.761 8.06445 122.706 8.16309 122.653 8.26465C122.424 8.70898 122.273 9.20312 122.202 9.74805H129.469ZM134.575 4.7168H133.07V16.0264H134.575V9.49023C134.575 8.98828 134.654 8.5293 134.812 8.11426C134.984 7.69824 135.213 7.33984 135.5 7.03906C135.801 6.73828 136.145 6.50879 136.532 6.35059C136.705 6.27637 136.884 6.21777 137.071 6.17578C137.316 6.12012 137.574 6.09277 137.843 6.09277C138.087 6.09277 138.32 6.11816 138.542 6.16992C138.725 6.21289 138.9 6.27344 139.069 6.35059C139.257 6.42773 139.433 6.52148 139.597 6.63184C139.771 6.74805 139.932 6.88379 140.079 7.03906C140.366 7.33984 140.588 7.69824 140.746 8.11426C140.84 8.3418 140.909 8.58301 140.952 8.83691C140.986 9.0459 141.004 9.26367 141.004 9.49023V16.0264H142.509V9.49023C142.509 8.83301 142.41 8.22754 142.212 7.6748L142.143 7.49023C141.914 6.88867 141.592 6.37207 141.176 5.94238C140.775 5.5127 140.294 5.18262 139.735 4.95312C139.4 4.80371 139.048 4.69922 138.68 4.6416C138.568 4.62402 138.455 4.61035 138.339 4.60156C138.219 4.59277 138.096 4.58789 137.972 4.58789C137.758 4.58789 137.554 4.60352 137.359 4.63477C137.095 4.67676 136.848 4.74707 136.618 4.8457C136.217 5.01758 135.873 5.2041 135.586 5.40527C135.256 5.64844 134.962 5.9209 134.704 6.22168H134.575V4.7168ZM153.601 16.1553C153.252 16.1553 152.923 16.127 152.614 16.0693C152.364 16.0234 152.127 15.958 151.903 15.875C151.415 15.6895 150.992 15.4385 150.634 15.123C150.533 15.0303 150.438 14.9326 150.35 14.8311C150.125 14.5742 149.94 14.292 149.796 13.9834C149.717 13.8145 149.651 13.6416 149.599 13.4658C149.568 13.3623 149.542 13.2568 149.52 13.1504C149.485 12.9795 149.463 12.8057 149.452 12.6289H150.957C150.974 12.7617 151 12.8887 151.035 13.0107C151.071 13.1357 151.118 13.2559 151.174 13.3711C151.302 13.6309 151.48 13.8633 151.709 14.0693C152.153 14.4561 152.784 14.6494 153.601 14.6494C154.361 14.6494 154.948 14.4707 155.364 14.1123C155.78 13.7393 155.988 13.3311 155.988 12.8867C155.988 12.6426 155.944 12.4316 155.854 12.2529C155.84 12.2236 155.825 12.1963 155.809 12.1689C155.783 12.1279 155.755 12.0879 155.724 12.0498C155.664 11.9775 155.595 11.9121 155.515 11.8545C155.214 11.6113 154.834 11.418 154.375 11.2744C153.931 11.1309 153.436 11.002 152.892 10.8877C152.361 10.7725 151.867 10.6074 151.408 10.3926C150.964 10.1777 150.584 9.87695 150.269 9.49023C149.968 9.08887 149.817 8.54395 149.817 7.85547C149.817 7.41113 149.903 6.99609 150.075 6.60938C150.261 6.20801 150.519 5.85645 150.849 5.55566C151.025 5.40137 151.215 5.26465 151.421 5.14453C151.618 5.0293 151.829 4.92969 152.053 4.8457C152.133 4.81641 152.215 4.79004 152.297 4.76562C152.431 4.72656 152.568 4.69434 152.708 4.66797C152.791 4.65234 152.874 4.63867 152.958 4.62793C153.025 4.61914 153.093 4.6123 153.161 4.60645C153.239 4.59961 153.318 4.59473 153.397 4.5918C153.464 4.58887 153.532 4.58789 153.601 4.58789C154.16 4.58789 154.662 4.68066 155.106 4.86719C155.565 5.03906 155.952 5.27637 156.267 5.57715C156.597 5.87793 156.855 6.23633 157.041 6.65234C157.227 7.06738 157.335 7.51172 157.364 7.98535H155.859C155.795 7.66504 155.693 7.37988 155.552 7.13086C155.441 6.93457 155.307 6.76074 155.149 6.60938C154.805 6.26465 154.289 6.09277 153.601 6.09277C153.257 6.09277 152.942 6.14258 152.655 6.24316C152.383 6.34375 152.146 6.47949 151.946 6.65234C151.759 6.80957 151.609 6.99609 151.494 7.21094C151.394 7.42578 151.344 7.64062 151.344 7.85547C151.344 8.13574 151.4 8.37305 151.512 8.56836C151.583 8.69238 151.678 8.79883 151.795 8.8877C152.096 9.11719 152.476 9.30371 152.935 9.44727C153.247 9.53516 153.576 9.61914 153.922 9.7002L154.418 9.8125C154.948 9.91309 155.443 10.0771 155.902 10.3066C156.36 10.5215 156.74 10.8301 157.041 11.2314C157.147 11.3672 157.234 11.5244 157.303 11.7012C157.43 12.0273 157.493 12.4219 157.493 12.8867C157.493 13.3311 157.399 13.7539 157.213 14.1553C157.128 14.3477 157.021 14.5293 156.893 14.7002C156.764 14.873 156.612 15.0361 156.439 15.1875C156.109 15.4883 155.701 15.7246 155.214 15.8965C155.021 15.9678 154.815 16.0234 154.6 16.0654C154.426 16.0986 154.244 16.123 154.056 16.1377C153.908 16.1494 153.757 16.1553 153.601 16.1553ZM162.178 15.7246C162.823 16.0117 163.511 16.1553 164.242 16.1553C164.958 16.1553 165.632 16.0117 166.263 15.7246C166.395 15.666 166.523 15.6025 166.647 15.5352C166.868 15.416 167.078 15.2822 167.276 15.1338C167.354 15.0762 167.43 15.0156 167.505 14.9531L167.662 14.8154C167.757 14.7285 167.85 14.6367 167.94 14.542C168.427 14.0264 168.807 13.417 169.079 12.7148C169.366 11.998 169.509 11.2168 169.509 10.3711C169.509 9.98633 169.479 9.61621 169.42 9.26074C169.394 9.10254 169.361 8.94727 169.323 8.79395C169.258 8.53711 169.177 8.28906 169.079 8.0498C168.807 7.33301 168.427 6.72363 167.94 6.22168C167.682 5.93945 167.397 5.69141 167.087 5.47754L166.997 5.41699C166.929 5.37207 166.859 5.3291 166.789 5.28711C166.62 5.18848 166.445 5.09863 166.263 5.01758C165.632 4.73145 164.958 4.58789 164.242 4.58789C164.009 4.58789 163.781 4.60254 163.556 4.63184C163.077 4.69434 162.618 4.82227 162.178 5.01758C161.749 5.21289 161.352 5.46191 160.989 5.7627L160.867 5.86719L160.759 5.96484C160.671 6.04688 160.585 6.13281 160.501 6.22168C160.028 6.72363 159.648 7.33301 159.361 8.0498C159.089 8.75195 158.953 9.52539 158.953 10.3711C158.953 11.2168 159.089 11.998 159.361 12.7148C159.648 13.417 160.028 14.0264 160.501 14.542C160.585 14.6289 160.671 14.7119 160.76 14.792C160.953 14.9678 161.156 15.1279 161.37 15.2725C161.625 15.4453 161.894 15.5957 162.178 15.7246ZM165.661 14.3486C165.216 14.5498 164.743 14.6494 164.242 14.6494C164.02 14.6494 163.801 14.6299 163.586 14.5908C163.447 14.5645 163.309 14.5303 163.172 14.4873C163.112 14.4688 163.053 14.4482 162.993 14.4258C162.929 14.4023 162.865 14.377 162.801 14.3486C162.343 14.1338 161.941 13.8398 161.597 13.4678C161.253 13.0801 160.974 12.6289 160.759 12.1133C160.558 11.583 160.458 11.002 160.458 10.3711C160.458 10.0859 160.479 9.81152 160.52 9.54883C160.57 9.23242 160.649 8.93359 160.759 8.65137C160.974 8.12109 161.253 7.66992 161.597 7.29688C161.941 6.91016 162.343 6.61621 162.801 6.41504C163.26 6.2002 163.74 6.09277 164.242 6.09277C164.743 6.09277 165.216 6.2002 165.661 6.41504C166.119 6.61621 166.521 6.91016 166.865 7.29688C166.981 7.42285 167.089 7.55762 167.189 7.70117C167.252 7.79297 167.312 7.8877 167.369 7.98633L167.458 8.15039L167.526 8.28809L167.602 8.45312L167.644 8.55371L167.682 8.65137C167.897 9.16699 168.004 9.74121 168.004 10.3711C168.004 11.002 167.897 11.583 167.682 12.1133C167.481 12.6289 167.209 13.0801 166.865 13.4678C166.521 13.8398 166.119 14.1338 165.661 14.3486ZM176.136 16.1562C175.506 16.1562 174.911 16.0342 174.352 15.79C173.807 15.5469 173.327 15.21 172.911 14.7793C172.51 14.3496 172.188 13.834 171.944 13.2314C171.715 12.6299 171.6 11.9707 171.6 11.2539V4.71777H173.105V11.2539C173.105 11.4414 173.116 11.623 173.138 11.7979C173.175 12.0918 173.243 12.3691 173.341 12.6299C173.513 13.0459 173.736 13.4033 174.008 13.7051C174.295 14.0059 174.631 14.2422 175.018 14.4141C175.405 14.5723 175.814 14.6504 176.244 14.6504C176.717 14.6504 177.154 14.5723 177.555 14.4141C177.67 14.3652 177.78 14.3105 177.885 14.251C178.001 14.1855 178.111 14.1133 178.216 14.0352C178.271 13.9941 178.325 13.9512 178.376 13.9062C178.428 13.8613 178.479 13.8145 178.527 13.7666L178.587 13.7051C178.888 13.4033 179.118 13.0459 179.275 12.6299C179.447 12.2139 179.533 11.7559 179.533 11.2539V4.71777H181.038V16.0264H179.533V14.5215H179.404C179.146 14.8232 178.853 15.0947 178.523 15.3389C178.4 15.4248 178.268 15.5078 178.124 15.5879C177.932 15.6963 177.721 15.7988 177.491 15.8975C177.09 16.0693 176.638 16.1562 176.136 16.1562ZM185.378 4.7168H183.873V16.0264H185.378V9.61914C185.378 9.11719 185.456 8.6582 185.614 8.24316C185.786 7.82715 186.015 7.46875 186.302 7.16797C186.433 7.03711 186.572 6.91992 186.719 6.81641C186.91 6.68164 187.115 6.56934 187.334 6.47949C187.735 6.30762 188.173 6.22168 188.646 6.22168H189.398V4.58789H188.904C188.359 4.58789 187.879 4.67383 187.463 4.8457C187.047 5.01758 186.696 5.2041 186.41 5.40527C186.066 5.64844 185.765 5.9209 185.507 6.22168H185.378V4.7168ZM195.664 16.1553C194.933 16.1553 194.245 16.0117 193.6 15.7246C192.969 15.4385 192.41 15.0439 191.923 14.542C191.712 14.3125 191.52 14.0645 191.346 13.7969C191.13 13.4648 190.942 13.1045 190.783 12.7148C190.511 11.998 190.375 11.2168 190.375 10.3711C190.375 9.52539 190.511 8.75195 190.783 8.0498C191.001 7.50488 191.273 7.02246 191.599 6.60156L191.687 6.49023C191.763 6.39746 191.842 6.30762 191.923 6.22168C192.41 5.70605 192.969 5.30469 193.6 5.01758C194.245 4.73145 194.933 4.58789 195.664 4.58789C195.996 4.58789 196.313 4.61719 196.616 4.6748C196.915 4.73242 197.199 4.81738 197.47 4.93164C198.014 5.14648 198.494 5.44043 198.91 5.81348C199.103 5.98633 199.28 6.17285 199.442 6.37305C199.629 6.60547 199.796 6.85547 199.942 7.125C200.229 7.62695 200.437 8.16406 200.566 8.7373H199.061C198.803 7.97754 198.373 7.34668 197.771 6.8457C197.183 6.34375 196.481 6.09277 195.664 6.09277C195.486 6.09277 195.312 6.10645 195.14 6.13379C194.825 6.18262 194.52 6.27637 194.223 6.41504C193.764 6.61621 193.363 6.91016 193.019 7.29688C192.675 7.66992 192.396 8.12109 192.181 8.65137C192.088 8.88867 192.017 9.13867 191.967 9.40137C191.909 9.70801 191.88 10.0312 191.88 10.3711C191.88 11.002 191.98 11.583 192.181 12.1133C192.396 12.6289 192.675 13.0801 193.019 13.4678C193.145 13.6045 193.279 13.7305 193.42 13.8457C193.665 14.0449 193.933 14.2129 194.223 14.3486C194.682 14.5498 195.162 14.6494 195.664 14.6494C196.481 14.6494 197.183 14.3994 197.771 13.8975C198.373 13.3955 198.803 12.7646 199.061 12.0059H200.566C200.437 12.5645 200.229 13.1016 199.942 13.6182C199.67 14.1191 199.326 14.5566 198.91 14.9297C198.494 15.3018 198.014 15.6035 197.47 15.832C197.172 15.9502 196.857 16.0361 196.525 16.0889C196.25 16.1328 195.963 16.1553 195.664 16.1553ZM204.99 15.7246C205.635 16.0117 206.323 16.1553 207.054 16.1553C208.129 16.1553 209.068 15.8896 209.871 15.3594C210.688 14.8145 211.283 14.1123 211.655 13.252H210.021C209.735 13.6963 209.326 14.041 208.796 14.2842C208.266 14.5283 207.685 14.6494 207.054 14.6494C206.596 14.6494 206.159 14.5635 205.743 14.3916C205.327 14.2197 204.947 13.9834 204.603 13.6826C204.274 13.3672 203.994 12.9941 203.765 12.5645C203.55 12.1348 203.399 11.6543 203.313 11.124H211.956C211.971 11.0234 211.992 10.916 212.021 10.8018C212.035 10.7012 212.05 10.5938 212.064 10.4785C212.078 10.3643 212.085 10.2422 212.085 10.1133C212.085 9.60742 212.032 9.12598 211.926 8.66699C211.867 8.41016 211.791 8.16113 211.698 7.91992C211.455 7.24707 211.104 6.66602 210.645 6.17871C210.201 5.67676 209.67 5.29004 209.054 5.01758C208.438 4.73145 207.771 4.58789 207.054 4.58789C206.323 4.58789 205.635 4.73145 204.99 5.01758C204.36 5.30469 203.801 5.70605 203.313 6.22168C202.84 6.72363 202.461 7.33301 202.174 8.0498C201.902 8.75195 201.765 9.52539 201.765 10.3711C201.765 11.2168 201.902 11.998 202.174 12.7148C202.461 13.417 202.84 14.0264 203.313 14.542C203.801 15.0439 204.36 15.4385 204.99 15.7246ZM210.279 8.54395C210.466 8.95996 210.559 9.36133 210.559 9.74805H203.292C203.344 9.35938 203.435 8.99609 203.566 8.65918C203.619 8.52344 203.678 8.3916 203.743 8.26465C203.973 7.82031 204.252 7.44043 204.582 7.125C204.926 6.79492 205.306 6.54395 205.721 6.37207C206.151 6.18652 206.596 6.09277 207.054 6.09277C207.556 6.09277 208.022 6.21484 208.452 6.45801C208.708 6.59473 208.94 6.75586 209.149 6.94238C209.293 7.07031 209.426 7.20996 209.548 7.36133C209.864 7.71973 210.107 8.11426 210.279 8.54395Z" fill="black"/>
<defs>
<clipPath id="clip0_67_465">
<rect width="79.8271" height="20.47" fill="white" transform="translate(0 0.0263672)"/>
</clipPath>
</defs>
</svg>
