<svg width="240" height="24" viewBox="0 0 240 24" fill="none" xmlns="http://www.w3.org/2000/svg">
    <g clip-path="url(#clip0_1778_2701)">
        <path
            d="M14.9351 13.9803C14.29 13.6064 13.5625 13.4986 12.8416 13.4751C12.237 13.4549 11.3359 13.0675 11.3359 11.9593C11.3394 11.5601 11.4988 11.1781 11.7802 10.8948C12.0615 10.6116 12.4425 10.4496 12.8416 10.4435C13.5625 10.4182 14.29 10.3104 14.9351 9.93823C15.5143 9.60285 15.995 9.12099 16.3291 8.54103C16.6632 7.96107 16.8388 7.30344 16.8383 6.63415C16.8378 5.96487 16.6612 5.3075 16.3263 4.72804C15.9913 4.14858 15.5099 3.66744 14.9302 3.33293C14.3505 2.99841 13.693 2.8223 13.0237 2.82227C12.3544 2.82224 11.6969 2.99829 11.1172 3.33275C10.5375 3.66722 10.0559 4.14831 9.72096 4.72774C9.38598 5.30716 9.20934 5.96452 9.20878 6.63381C9.20878 7.37317 9.47152 8.0536 9.80836 8.68517C10.0896 9.2157 10.2328 10.201 9.26436 10.7584C8.91435 10.9532 8.50194 11.003 8.11561 10.8972C7.72928 10.7915 7.39979 10.5385 7.19784 10.1925C6.81889 9.58623 6.35573 9.01359 5.72078 8.64812C5.14085 8.3136 4.48309 8.1376 3.81359 8.13781C3.1441 8.13801 2.48644 8.3144 1.90671 8.64926C1.32697 8.98413 0.845578 9.46567 0.510887 10.0455C0.176197 10.6253 0 11.283 0 11.9525C0 12.622 0.176197 13.2797 0.510887 13.8596C0.845578 14.4394 1.32697 14.921 1.90671 15.2558C2.48644 15.5907 3.1441 15.7671 3.81359 15.7673C4.48309 15.7675 5.14085 15.5915 5.72078 15.257C6.36078 14.8864 6.81889 14.3189 7.19784 13.7125C7.50942 13.2073 8.28584 12.5808 9.26436 13.1466C9.60807 13.3525 9.85737 13.685 9.95876 14.0726C10.0602 14.4602 10.0056 14.8721 9.80668 15.2199C9.46984 15.8515 9.20878 16.5319 9.20878 17.2713C9.20883 17.9411 9.38517 18.5991 9.72009 19.1792C10.055 19.7593 10.5367 20.241 11.1168 20.576C11.6968 20.9109 12.3548 21.0873 13.0246 21.0874C13.6945 21.0875 14.3525 20.9113 14.9327 20.5765C15.5129 20.2418 15.9947 19.7602 16.3298 19.1802C16.6648 18.6002 16.8414 17.9422 16.8416 17.2724C16.8419 16.6026 16.6658 15.9445 16.3312 15.3642C15.9965 14.784 15.515 14.3021 14.9351 13.9669V13.9803Z"
            fill="#008CFF" />
        <path
            d="M22.0901 6.16015H24.7461V7.41321C25.1003 6.98229 25.5453 6.63491 26.0492 6.39588C26.5532 6.15685 27.1037 6.03208 27.6615 6.03047C28.0398 6.0163 28.4181 6.06003 28.7832 6.16015V9.19173C28.7832 9.19173 28.416 9.06205 27.5318 9.06205C26.016 9.06205 25.0055 10.0726 25.0055 11.5884V17.7778H22.0901V6.16015ZM36.3638 6.16015H39.0198V7.28352C39.9267 6.48292 41.0927 6.03779 42.3024 6.03047C45.2177 6.03047 47.744 8.55679 47.744 11.969C47.744 15.3812 45.2177 17.9075 42.3024 17.9075C41.1884 17.9104 40.1124 17.5033 39.2792 16.7639V21.9463H36.3638V6.16015ZM44.8287 11.969C44.8287 10.0692 43.5756 8.81615 41.9352 8.81615C40.2948 8.81615 39.0198 10.0642 39.0198 11.969C39.0198 13.8738 40.2931 15.1168 41.9369 15.1168C43.5807 15.1168 44.8287 13.8705 44.8287 11.969ZM49.8813 6.16015H52.5373V7.28352C53.4444 6.48332 54.6103 6.03825 55.8198 6.03047C58.7352 6.03047 61.2615 8.55679 61.2615 11.969C61.2615 15.3812 58.7352 17.9075 55.8198 17.9075C54.7061 17.9094 53.6303 17.5025 52.7967 16.7639V21.9463H49.8813V6.16015ZM58.3478 11.969C58.3478 10.0692 57.0948 8.81615 55.4527 8.81615C53.8106 8.81615 52.5373 10.0642 52.5373 11.969C52.5373 13.8738 53.8123 15.1168 55.4527 15.1168C57.0931 15.1168 58.3478 13.8705 58.3478 11.969ZM63.4005 1.86373H66.3158V17.7778H63.4005V1.86373ZM68.4531 11.969C68.4531 8.68815 71.1091 6.03047 74.2619 6.03047C77.3053 6.03047 79.8316 8.42879 79.8316 11.969C79.8194 12.3536 79.7761 12.7366 79.7019 13.1143H71.6059C71.8653 14.2376 72.7579 15.1168 74.2619 15.1168C75.6228 15.1168 76.1634 14.4919 76.1634 14.4919H79.3163C78.7318 16.0077 76.9179 17.9025 74.2636 17.9025C71.1091 17.9075 68.4531 15.2515 68.4531 11.969ZM77.0426 11.0848C76.91 10.4439 76.5606 9.86837 76.0532 9.45513C75.5457 9.04189 74.9113 8.81626 74.2569 8.81626C73.6025 8.81626 72.9681 9.04189 72.4606 9.45513C71.9532 9.86837 71.6037 10.4439 71.4712 11.0848H77.0426ZM30.4843 3.1151C30.4843 2.67691 30.6583 2.25666 30.9682 1.94681C31.278 1.63696 31.6983 1.46289 32.1365 1.46289C32.5747 1.46289 32.9949 1.63696 33.3048 1.94681C33.6146 2.25666 33.7887 2.67691 33.7887 3.1151C33.7887 3.55329 33.6146 3.97354 33.3048 4.28339C32.9949 4.59324 32.5747 4.76731 32.1365 4.76731C31.6983 4.76731 31.278 4.59324 30.9682 4.28339C30.6583 3.97354 30.4843 3.55329 30.4843 3.1151ZM30.6796 6.16015H33.6V17.7812H30.6847L30.6796 6.16015Z"
            fill="black" />
    </g>
    <path d="M88.5343 1.47461H87.6927V22.5272H88.5343V1.47461Z" fill="black" />
    <path
        d="M101.591 17.6601C100.902 17.6601 100.24 17.5164 99.6081 17.2289C98.9901 16.9415 98.444 16.5463 97.9697 16.0433C97.4954 15.5259 97.1146 14.9151 96.8271 14.2108C96.5541 13.4922 96.4175 12.709 96.4175 11.861C96.4175 11.0131 96.5541 10.237 96.8271 9.53277C97.1146 8.81417 97.4954 8.20336 97.9697 7.70035C98.444 7.18296 98.9901 6.78054 99.6081 6.4931C100.24 6.20567 100.902 6.06195 101.591 6.06195C102.152 6.06195 102.648 6.14818 103.079 6.32064C103.524 6.4931 103.898 6.67994 104.2 6.88115C104.559 7.12547 104.868 7.39854 105.127 7.70035H105.235V1.64258H106.765V17.5307H105.235V16.0217H105.127C104.868 16.3235 104.559 16.5966 104.2 16.8409C103.898 17.0421 103.524 17.2289 103.079 17.4014C102.648 17.5739 102.152 17.6601 101.591 17.6601ZM101.591 16.151C102.066 16.151 102.518 16.0504 102.95 15.8492C103.395 15.6337 103.783 15.339 104.114 14.9654C104.459 14.5773 104.732 14.1246 104.933 13.6072C105.134 13.0754 105.235 12.4934 105.235 11.861C105.235 11.2287 105.134 10.6538 104.933 10.1364C104.732 9.60463 104.459 9.15191 104.114 8.77824C103.783 8.3902 103.395 8.09557 102.95 7.89437C102.518 7.67879 102.066 7.571 101.591 7.571C101.117 7.571 100.657 7.67879 100.212 7.89437C99.7806 8.09557 99.3925 8.3902 99.0476 8.77824C98.7027 9.15191 98.4296 9.60463 98.2284 10.1364C98.0272 10.6538 97.9266 11.2287 97.9266 11.861C97.9266 12.4934 98.0272 13.0754 98.2284 13.6072C98.4296 14.1246 98.7027 14.5773 99.0476 14.9654C99.3925 15.339 99.7806 15.6337 100.212 15.8492C100.657 16.0504 101.117 16.151 101.591 16.151Z"
        fill="black" />
    <path
        d="M113.848 17.6601C113.115 17.6601 112.425 17.5164 111.778 17.2289C111.146 16.9415 110.586 16.5463 110.097 16.0433C109.623 15.5259 109.242 14.9151 108.954 14.2108C108.681 13.4922 108.545 12.709 108.545 11.861C108.545 11.0131 108.681 10.237 108.954 9.53277C109.242 8.81417 109.623 8.20336 110.097 7.70035C110.586 7.18296 111.146 6.78054 111.778 6.4931C112.425 6.20567 113.115 6.06195 113.848 6.06195C114.567 6.06195 115.242 6.20567 115.874 6.4931C116.521 6.78054 117.082 7.18296 117.556 7.70035C118.045 8.20336 118.425 8.81417 118.698 9.53277C118.986 10.237 119.13 11.0131 119.13 11.861C119.13 12.709 118.986 13.4922 118.698 14.2108C118.425 14.9151 118.045 15.5259 117.556 16.0433C117.082 16.5463 116.521 16.9415 115.874 17.2289C115.242 17.5164 114.567 17.6601 113.848 17.6601ZM113.848 16.151C114.351 16.151 114.825 16.0504 115.271 15.8492C115.731 15.6337 116.133 15.339 116.478 14.9654C116.823 14.5773 117.096 14.1246 117.297 13.6072C117.513 13.0754 117.621 12.4934 117.621 11.861C117.621 11.2287 117.513 10.6538 117.297 10.1364C117.096 9.60463 116.823 9.15191 116.478 8.77824C116.133 8.3902 115.731 8.09557 115.271 7.89437C114.825 7.67879 114.351 7.571 113.848 7.571C113.345 7.571 112.863 7.67879 112.404 7.89437C111.944 8.09557 111.541 8.3902 111.196 8.77824C110.851 9.15191 110.571 9.60463 110.356 10.1364C110.154 10.6538 110.054 11.2287 110.054 11.861C110.054 12.4934 110.154 13.0754 110.356 13.6072C110.571 14.1246 110.851 14.5773 111.196 14.9654C111.541 15.339 111.944 15.6337 112.404 15.8492C112.863 16.0504 113.345 16.151 113.848 16.151Z"
        fill="black" />
    <path
        d="M125.99 17.6601C125.257 17.6601 124.567 17.5164 123.921 17.2289C123.288 16.9415 122.728 16.5463 122.239 16.0433C121.765 15.5259 121.384 14.9151 121.097 14.2108C120.824 13.4922 120.687 12.709 120.687 11.861C120.687 11.0131 120.824 10.237 121.097 9.53277C121.384 8.81417 121.765 8.20336 122.239 7.70035C122.728 7.18296 123.288 6.78054 123.921 6.4931C124.567 6.20567 125.257 6.06195 125.99 6.06195C126.651 6.06195 127.255 6.17692 127.801 6.40687C128.347 6.62245 128.829 6.91708 129.245 7.29075C129.662 7.66442 130.007 8.10276 130.28 8.60578C130.568 9.1088 130.776 9.64774 130.905 10.2226H129.396C129.138 9.46091 128.707 8.82854 128.103 8.32553C127.514 7.82251 126.809 7.571 125.99 7.571C125.487 7.571 125.006 7.67879 124.546 7.89437C124.086 8.09557 123.684 8.3902 123.339 8.77824C122.994 9.15191 122.713 9.60463 122.498 10.1364C122.297 10.6538 122.196 11.2287 122.196 11.861C122.196 12.4934 122.297 13.0754 122.498 13.6072C122.713 14.1246 122.994 14.5773 123.339 14.9654C123.684 15.339 124.086 15.6337 124.546 15.8492C125.006 16.0504 125.487 16.151 125.99 16.151C126.809 16.151 127.514 15.8995 128.103 15.3965C128.707 14.8935 129.138 14.2611 129.396 13.4994H130.905C130.776 14.0599 130.568 14.5989 130.28 15.1163C130.007 15.6193 129.662 16.0576 129.245 16.4313C128.829 16.805 128.347 17.1068 127.801 17.3367C127.255 17.5523 126.651 17.6601 125.99 17.6601Z"
        fill="black" />
    <path
        d="M137.412 17.6601C136.779 17.6601 136.183 17.5379 135.622 17.2936C135.076 17.0493 134.595 16.7115 134.178 16.2804C133.776 15.8492 133.452 15.3318 133.208 14.7282C132.978 14.1246 132.863 13.4635 132.863 12.7449V6.19129H134.372V12.7449C134.372 13.2479 134.451 13.7078 134.609 14.1246C134.782 14.5414 135.004 14.9007 135.277 15.2025C135.565 15.5043 135.903 15.7414 136.291 15.9139C136.679 16.072 137.088 16.151 137.52 16.151C137.994 16.151 138.432 16.072 138.835 15.9139C139.237 15.7414 139.582 15.5043 139.869 15.2025C140.171 14.9007 140.401 14.5414 140.559 14.1246C140.732 13.7078 140.818 13.2479 140.818 12.7449V6.19129H142.327V17.5307H140.818V16.0217H140.689C140.43 16.3235 140.135 16.5966 139.805 16.8409C139.517 17.0421 139.172 17.2289 138.77 17.4014C138.367 17.5739 137.915 17.6601 137.412 17.6601Z"
        fill="black" />
    <path
        d="M145.384 6.19129H146.893V7.70035H147.023C147.21 7.39854 147.432 7.12547 147.691 6.88115C147.921 6.67994 148.208 6.4931 148.553 6.32064C148.913 6.14818 149.329 6.06195 149.804 6.06195C150.407 6.06195 150.917 6.17692 151.334 6.40687C151.751 6.62245 152.089 6.86677 152.347 7.13984C152.649 7.45602 152.894 7.80814 153.08 8.19618C153.282 7.80814 153.548 7.45602 153.878 7.13984C154.166 6.86677 154.518 6.62245 154.934 6.40687C155.366 6.17692 155.883 6.06195 156.487 6.06195C156.99 6.06195 157.464 6.16974 157.909 6.38532C158.369 6.60089 158.772 6.90989 159.117 7.3123C159.462 7.71472 159.735 8.20336 159.936 8.77824C160.151 9.35312 160.259 9.99986 160.259 10.7185V17.5307H158.75V10.7185C158.75 9.71242 158.499 8.93633 157.996 8.3902C157.507 7.84407 156.918 7.571 156.228 7.571C155.883 7.571 155.552 7.65004 155.236 7.80814C154.92 7.95186 154.633 8.16025 154.374 8.43332C154.13 8.70638 153.936 9.03694 153.792 9.42498C153.648 9.81302 153.576 10.2442 153.576 10.7185V17.5307H152.067V10.7185C152.067 9.71242 151.816 8.93633 151.313 8.3902C150.824 7.84407 150.235 7.571 149.545 7.571C149.2 7.571 148.869 7.65004 148.553 7.80814C148.237 7.95186 147.95 8.16025 147.691 8.43332C147.447 8.70638 147.253 9.03694 147.109 9.42498C146.965 9.81302 146.893 10.2442 146.893 10.7185V17.5307H145.384V6.19129Z"
        fill="black" />
    <path
        d="M167.76 17.6601C167.027 17.6601 166.337 17.5164 165.69 17.2289C165.058 16.9415 164.497 16.5463 164.008 16.0433C163.534 15.5259 163.153 14.9151 162.866 14.2108C162.593 13.4922 162.456 12.709 162.456 11.861C162.456 11.0131 162.593 10.237 162.866 9.53277C163.153 8.81417 163.534 8.20336 164.008 7.70035C164.497 7.18296 165.058 6.78054 165.69 6.4931C166.337 6.20567 167.027 6.06195 167.76 6.06195C168.478 6.06195 169.146 6.20567 169.764 6.4931C170.382 6.76617 170.914 7.15421 171.36 7.65723C171.82 8.14588 172.172 8.72794 172.416 9.40342C172.675 10.0789 172.804 10.8119 172.804 11.6023C172.804 11.7317 172.797 11.8538 172.783 11.9688C172.768 12.0838 172.754 12.1916 172.739 12.2922C172.711 12.4072 172.689 12.5149 172.675 12.6155H164.008C164.095 13.1473 164.246 13.6288 164.461 14.0599C164.691 14.4911 164.971 14.8648 165.302 15.1809C165.647 15.4827 166.028 15.7199 166.444 15.8923C166.861 16.0648 167.3 16.151 167.76 16.151C168.392 16.151 168.974 16.0289 169.506 15.7846C170.037 15.5402 170.447 15.1953 170.735 14.7498H172.373C171.999 15.6121 171.403 16.3163 170.584 16.8625C169.779 17.3942 168.837 17.6601 167.76 17.6601ZM171.273 11.2358C171.273 10.8478 171.18 10.4454 170.993 10.0286C170.821 9.59744 170.576 9.20221 170.26 8.84292C169.958 8.46924 169.592 8.16743 169.161 7.93748C168.73 7.69316 168.263 7.571 167.76 7.571C167.3 7.571 166.854 7.66442 166.423 7.85125C166.006 8.02372 165.625 8.27522 165.28 8.60578C164.95 8.92196 164.67 9.30282 164.44 9.74835C164.21 10.1939 164.059 10.6897 163.987 11.2358H171.273Z"
        fill="black" />
    <path
        d="M175.1 6.19129H176.61V7.70035H176.739C176.998 7.39854 177.292 7.12547 177.623 6.88115C177.91 6.67994 178.255 6.4931 178.658 6.32064C179.06 6.14818 179.513 6.06195 180.016 6.06195C180.648 6.06195 181.237 6.18411 181.783 6.42843C182.344 6.65838 182.825 6.98894 183.228 7.42009C183.645 7.85125 183.968 8.36864 184.198 8.97226C184.442 9.57588 184.564 10.2442 184.564 10.9771V17.5307H183.055V10.9771C183.055 10.4741 182.969 10.0142 182.797 9.59744C182.639 9.18066 182.416 8.82136 182.128 8.51955C181.841 8.21774 181.503 7.98779 181.115 7.82969C180.741 7.65723 180.332 7.571 179.886 7.571C179.412 7.571 178.974 7.65723 178.571 7.82969C178.183 7.98779 177.838 8.21774 177.537 8.51955C177.249 8.82136 177.019 9.18066 176.847 9.59744C176.689 10.0142 176.61 10.4741 176.61 10.9771V17.5307H175.1V6.19129Z"
        fill="black" />
    <path
        d="M191.527 17.6601C191.081 17.6601 190.664 17.581 190.276 17.423C189.903 17.2505 189.572 17.0134 189.285 16.7115C189.012 16.3954 188.789 16.0217 188.616 15.5905C188.458 15.1594 188.379 14.6707 188.379 14.1246V7.70035H186.353V6.19129H187.237C187.682 6.19129 188.027 6.06913 188.272 5.82481C188.516 5.58049 188.638 5.23556 188.638 4.79003V3.15163H189.888V6.19129H192.54V7.70035H189.888V14.1246C189.888 14.7713 190.061 15.2744 190.406 15.6337C190.765 15.9786 191.268 16.151 191.915 16.151C192.102 16.151 192.253 16.1295 192.368 16.0864C192.425 16.072 192.482 16.0504 192.54 16.0217V17.4014C192.454 17.4445 192.36 17.4876 192.26 17.5307C192.173 17.5595 192.066 17.5882 191.936 17.617C191.821 17.6457 191.685 17.6601 191.527 17.6601Z"
        fill="black" />
    <path
        d="M198.173 17.6601C197.569 17.6601 197.03 17.5739 196.556 17.4014C196.096 17.2289 195.701 16.999 195.37 16.7115C195.054 16.4097 194.81 16.0648 194.637 15.6768C194.479 15.2744 194.4 14.8432 194.4 14.3833C194.4 13.8515 194.508 13.3629 194.723 12.9174C194.939 12.4575 195.305 12.0694 195.823 11.7532C196.355 11.4227 197.066 11.1712 197.957 10.9987C198.848 10.8119 199.969 10.7185 201.32 10.7185H201.838V10.0933C201.838 9.74835 201.766 9.42498 201.622 9.12317C201.493 8.80699 201.306 8.5411 201.061 8.32553C200.831 8.09557 200.551 7.91593 200.221 7.78658C199.904 7.64286 199.56 7.571 199.186 7.571C198.74 7.571 198.359 7.6213 198.043 7.7219C197.727 7.82251 197.454 7.95904 197.224 8.1315C197.009 8.30397 196.829 8.50517 196.685 8.73513C196.556 8.96508 196.462 9.2094 196.405 9.46809H194.896C194.953 8.99382 195.09 8.54829 195.305 8.1315C195.535 7.71472 195.83 7.35542 196.189 7.05361C196.549 6.7518 196.98 6.51466 197.483 6.3422C197.986 6.15536 198.554 6.06195 199.186 6.06195C199.789 6.06195 200.343 6.16974 200.846 6.38532C201.349 6.58652 201.787 6.86678 202.161 7.22607C202.535 7.58537 202.822 8.01653 203.023 8.51955C203.239 9.00819 203.347 9.53277 203.347 10.0933V17.5307H201.838V16.0217H201.708C201.449 16.3235 201.14 16.5966 200.781 16.8409C200.479 17.0421 200.106 17.2289 199.66 17.4014C199.229 17.5739 198.733 17.6601 198.173 17.6601ZM198.302 16.151C198.834 16.151 199.315 16.072 199.746 15.9139C200.192 15.7414 200.566 15.5187 200.867 15.2456C201.184 14.9725 201.421 14.6564 201.579 14.2971C201.751 13.9234 201.838 13.5282 201.838 13.1114V12.2275H201.32C200.185 12.2275 199.265 12.285 198.561 12.4C197.856 12.5006 197.303 12.6443 196.901 12.8311C196.513 13.018 196.247 13.2479 196.103 13.521C195.974 13.7797 195.909 14.0671 195.909 14.3833C195.909 14.8288 196.117 15.2384 196.534 15.6121C196.951 15.9714 197.54 16.151 198.302 16.151Z"
        fill="black" />
    <path
        d="M210.059 17.6601C209.613 17.6601 209.197 17.581 208.809 17.423C208.435 17.2505 208.104 17.0134 207.817 16.7115C207.544 16.3954 207.321 16.0217 207.149 15.5905C206.991 15.1594 206.912 14.6707 206.912 14.1246V7.70035H204.885V6.19129H205.769C206.214 6.19129 206.559 6.06913 206.804 5.82481C207.048 5.58049 207.17 5.23556 207.17 4.79003V3.15163H208.421V6.19129H211.072V7.70035H208.421V14.1246C208.421 14.7713 208.593 15.2744 208.938 15.6337C209.297 15.9786 209.8 16.151 210.447 16.151C210.634 16.151 210.785 16.1295 210.9 16.0864C210.957 16.072 211.015 16.0504 211.072 16.0217V17.4014C210.986 17.4445 210.893 17.4876 210.792 17.5307C210.706 17.5595 210.598 17.5882 210.469 17.617C210.354 17.6457 210.217 17.6601 210.059 17.6601Z"
        fill="black" />
    <path
        d="M213.644 6.19129H215.153V17.5307H213.644V6.19129ZM214.398 4.0355C214.082 4.0355 213.809 3.92772 213.579 3.71214C213.363 3.49656 213.256 3.22349 213.256 2.89294C213.256 2.57675 213.363 2.31087 213.579 2.09529C213.809 1.87972 214.082 1.77193 214.398 1.77193C214.714 1.77193 214.98 1.87972 215.196 2.09529C215.426 2.31087 215.541 2.57675 215.541 2.89294C215.541 3.22349 215.426 3.49656 215.196 3.71214C214.98 3.92772 214.714 4.0355 214.398 4.0355Z"
        fill="black" />
    <path
        d="M222.756 17.6601C222.023 17.6601 221.333 17.5164 220.686 17.2289C220.054 16.9415 219.493 16.5463 219.005 16.0433C218.53 15.5259 218.15 14.9151 217.862 14.2108C217.589 13.4922 217.452 12.709 217.452 11.861C217.452 11.0131 217.589 10.237 217.862 9.53277C218.15 8.81417 218.53 8.20336 219.005 7.70035C219.493 7.18296 220.054 6.78054 220.686 6.4931C221.333 6.20567 222.023 6.06195 222.756 6.06195C223.474 6.06195 224.15 6.20567 224.782 6.4931C225.429 6.78054 225.989 7.18296 226.464 7.70035C226.952 8.20336 227.333 8.81417 227.606 9.53277C227.894 10.237 228.037 11.0131 228.037 11.861C228.037 12.709 227.894 13.4922 227.606 14.2108C227.333 14.9151 226.952 15.5259 226.464 16.0433C225.989 16.5463 225.429 16.9415 224.782 17.2289C224.15 17.5164 223.474 17.6601 222.756 17.6601ZM222.756 16.151C223.259 16.151 223.733 16.0504 224.179 15.8492C224.638 15.6337 225.041 15.339 225.386 14.9654C225.731 14.5773 226.004 14.1246 226.205 13.6072C226.421 13.0754 226.528 12.4934 226.528 11.861C226.528 11.2287 226.421 10.6538 226.205 10.1364C226.004 9.60463 225.731 9.15191 225.386 8.77824C225.041 8.3902 224.638 8.09557 224.179 7.89437C223.733 7.67879 223.259 7.571 222.756 7.571C222.253 7.571 221.771 7.67879 221.311 7.89437C220.851 8.09557 220.449 8.3902 220.104 8.77824C219.759 9.15191 219.479 9.60463 219.263 10.1364C219.062 10.6538 218.962 11.2287 218.962 11.861C218.962 12.4934 219.062 13.0754 219.263 13.6072C219.479 14.1246 219.759 14.5773 220.104 14.9654C220.449 15.339 220.851 15.6337 221.311 15.8492C221.771 16.0504 222.253 16.151 222.756 16.151Z"
        fill="black" />
    <path
        d="M230.349 6.19129H231.858V7.70035H231.988C232.246 7.39854 232.541 7.12547 232.872 6.88115C233.159 6.67994 233.504 6.4931 233.906 6.32064C234.309 6.14818 234.762 6.06195 235.265 6.06195C235.897 6.06195 236.486 6.18411 237.032 6.42843C237.593 6.65838 238.074 6.98894 238.477 7.42009C238.893 7.85125 239.217 8.36864 239.447 8.97226C239.691 9.57588 239.813 10.2442 239.813 10.9771V17.5307H238.304V10.9771C238.304 10.4741 238.218 10.0142 238.046 9.59744C237.887 9.18066 237.665 8.82136 237.377 8.51955C237.09 8.21774 236.752 7.98779 236.364 7.82969C235.99 7.65723 235.581 7.571 235.135 7.571C234.661 7.571 234.223 7.65723 233.82 7.82969C233.432 7.98779 233.087 8.21774 232.785 8.51955C232.498 8.82136 232.268 9.18066 232.096 9.59744C231.937 10.0142 231.858 10.4741 231.858 10.9771V17.5307H230.349V6.19129Z"
        fill="black" />
    <defs>
        <clipPath id="clip0_1778_2701">
            <rect width="79.8333" height="20.4716" fill="white" transform="translate(0 1.47461)" />
        </clipPath>
    </defs>
</svg>