<svg width="213" height="22" viewBox="0 0 213 22" fill="none" xmlns="http://www.w3.org/2000/svg">
<g clip-path="url(#clip0_75_528)">
<path d="M13.0246 19.6288C15.1716 19.6288 16.8408 17.8924 16.8408 15.8797C16.8408 13.726 15.2762 12.1365 13.0246 12.0032C11.9667 11.9405 11.3372 11.3802 11.3372 10.5014C11.3372 9.62265 11.9667 9.06232 13.0246 8.9997C15.2762 8.86635 16.8408 7.2769 16.8408 5.1232C16.8408 3.11042 15.1716 1.37402 13.0246 1.37402C10.8777 1.37402 9.21604 3.13342 9.21604 5.1232C9.21604 5.75007 9.37549 6.41299 9.71841 7.09755C9.8995 7.4589 9.9842 7.79425 9.9842 8.09481C9.9842 8.99204 9.18501 9.51695 8.5324 9.51695C8.00684 9.51695 7.51332 9.19612 7.1192 8.59819C6.29746 7.35147 5.15051 6.68974 3.81152 6.68992C1.70646 6.68992 0 8.39638 0 10.5014C0 12.6065 1.70646 14.313 3.81152 14.313C5.15042 14.3131 6.29737 13.6514 7.1192 12.4047C7.51332 11.8068 8.00684 11.4859 8.5324 11.4859C9.18501 11.4859 9.9842 12.0108 9.9842 12.9081C9.9842 13.2086 9.8995 13.544 9.71841 13.9053C9.37549 14.5899 9.21604 15.2528 9.21604 15.8797C9.21604 17.8549 10.8485 19.6288 13.0246 19.6288Z" fill="#006AFF"/>
<path d="M22.0884 4.71155H24.7442V5.96451C25.0983 5.53362 25.5432 5.18627 26.0472 4.94726C26.5511 4.70825 27.1016 4.58348 27.6593 4.58188C28.0376 4.5677 28.4158 4.61143 28.7809 4.71155V7.74289C28.7809 7.74289 28.4138 7.61322 27.5296 7.61322C26.014 7.61322 25.0035 8.62367 25.0035 10.1393V16.3283H22.0884V4.71155ZM36.361 4.71155H39.0168V5.83483C39.9235 5.03429 41.0895 4.5892 42.299 4.58188C45.2142 4.58188 47.7403 7.108 47.7403 10.5199C47.7403 13.9319 45.2142 16.458 42.299 16.458C41.1852 16.4608 40.1092 16.0538 39.2761 15.3145V20.4964H36.361V4.71155ZM44.8252 10.5199C44.8252 8.6203 43.5722 7.36734 41.9319 7.36734C40.2916 7.36734 39.0168 8.61525 39.0168 10.5199C39.0168 12.4246 40.2899 13.6675 41.9336 13.6675C43.5772 13.6675 44.8252 12.4213 44.8252 10.5199ZM49.8774 4.71155H52.5332V5.83483C53.4402 5.03469 54.606 4.58965 55.8155 4.58188C58.7306 4.58188 61.2567 7.108 61.2567 10.5199C61.2567 13.9319 58.7306 16.458 55.8155 16.458C54.7018 16.4599 53.6261 16.053 52.7925 15.3145V20.4964H49.8774V4.71155ZM58.3433 10.5199C58.3433 8.6203 57.0903 7.36734 55.4483 7.36734C53.8064 7.36734 52.5332 8.61525 52.5332 10.5199C52.5332 12.4246 53.808 13.6675 55.4483 13.6675C57.0886 13.6675 58.3433 12.4213 58.3433 10.5199ZM63.3955 0.41546H66.3107V16.3283H63.3955V0.41546ZM68.4478 10.5199C68.4478 7.23935 71.1035 4.58188 74.2561 4.58188C77.2993 4.58188 79.8254 6.98001 79.8254 10.5199C79.8132 10.9045 79.7698 11.2875 79.6957 11.6651H71.6004C71.8597 12.7884 72.7523 13.6675 74.2561 13.6675C75.6169 13.6675 76.1575 13.0427 76.1575 13.0427H79.3101C78.7257 14.5584 76.9119 16.453 74.2578 16.453C71.1035 16.458 68.4478 13.8022 68.4478 10.5199ZM77.0366 9.6358C76.904 8.99499 76.5546 8.41948 76.0472 8.00627C75.5398 7.59307 74.9055 7.36745 74.2511 7.36745C73.5967 7.36745 72.9624 7.59307 72.455 8.00627C71.9476 8.41948 71.5981 8.99499 71.4656 9.6358H77.0366ZM30.4818 1.66673C30.4818 1.22857 30.6559 0.808358 30.9657 0.498532C31.2755 0.188707 31.6958 0.0146484 32.1339 0.0146484C32.5721 0.0146484 32.9923 0.188707 33.3021 0.498532C33.6119 0.808358 33.786 1.22857 33.786 1.66673C33.786 2.10489 33.6119 2.52511 33.3021 2.83493C32.9923 3.14476 32.5721 3.31881 32.1339 3.31881C31.6958 3.31881 31.2755 3.14476 30.9657 2.83493C30.6559 2.52511 30.4818 2.10489 30.4818 1.66673ZM30.6772 4.71155H33.5974V16.3317H30.6822L30.6772 4.71155Z" fill="white"/>
</g>
<path d="M88.534 0.0263672H87.6924V21.079H88.534V0.0263672Z" fill="white"/>
<path fill-rule="evenodd" clip-rule="evenodd" d="M99.6068 15.7249C100.252 16.0116 100.94 16.1549 101.671 16.1549C102.388 16.1549 103.061 16.0116 103.692 15.7249C104.337 15.4382 104.896 15.0441 105.369 14.5424C105.856 14.0264 106.236 13.4172 106.508 12.7149C106.795 11.9982 106.938 11.2171 106.938 10.3714C106.938 9.52573 106.795 8.75172 106.508 8.04939C106.236 7.33272 105.856 6.72356 105.369 6.22189C104.896 5.70589 104.337 5.30456 103.692 5.01789C103.061 4.73123 102.388 4.58789 101.671 4.58789C100.94 4.58789 100.252 4.73123 99.6068 5.01789C98.9762 5.30456 98.4172 5.70589 97.9298 6.22189C97.4568 6.72356 97.077 7.33272 96.7903 8.04939C96.518 8.75172 96.3818 9.52573 96.3818 10.3714C96.3818 11.2171 96.518 11.9982 96.7903 12.7149C97.077 13.4172 97.4568 14.0264 97.9298 14.5424C98.4172 15.0441 98.9762 15.4382 99.6068 15.7249ZM103.09 14.3489C102.646 14.5496 102.173 14.6499 101.671 14.6499C101.169 14.6499 100.689 14.5496 100.23 14.3489C99.7717 14.1339 99.3703 13.8401 99.0263 13.4674C98.6823 13.0804 98.4028 12.6289 98.1878 12.1129C97.9872 11.5826 97.8868 11.0021 97.8868 10.3714C97.8868 9.74073 97.9872 9.16739 98.1878 8.65139C98.4028 8.12106 98.6823 7.66956 99.0263 7.29689C99.3703 6.90989 99.7717 6.61606 100.23 6.41539C100.689 6.20039 101.169 6.09289 101.671 6.09289C102.173 6.09289 102.646 6.20039 103.09 6.41539C103.549 6.61606 103.95 6.90989 104.294 7.29689C104.638 7.66956 104.91 8.12106 105.111 8.65139C105.326 9.16739 105.433 9.74073 105.433 10.3714C105.433 11.0021 105.326 11.5826 105.111 12.1129C104.91 12.6289 104.638 13.0804 104.294 13.4674C103.95 13.8401 103.549 14.1339 103.09 14.3489ZM110.534 4.71689H109.029V20.1754H110.534V14.5209H110.663C110.921 14.8219 111.229 15.0942 111.588 15.3379C111.889 15.5386 112.254 15.7249 112.684 15.8969C113.114 16.0689 113.616 16.1549 114.189 16.1549C114.877 16.1549 115.529 16.0116 116.146 15.7249C116.776 15.4382 117.328 15.0441 117.801 14.5424C118.274 14.0264 118.647 13.4172 118.919 12.7149C119.206 11.9982 119.349 11.2171 119.349 10.3714C119.349 9.52573 119.206 8.75172 118.919 8.04939C118.647 7.33272 118.274 6.72356 117.801 6.22189C117.328 5.70589 116.776 5.30456 116.146 5.01789C115.529 4.73123 114.877 4.58789 114.189 4.58789C113.616 4.58789 113.114 4.67389 112.684 4.84589C112.254 5.01789 111.889 5.20422 111.588 5.40489C111.229 5.64856 110.921 5.92089 110.663 6.22189H110.534V4.71689ZM115.544 14.3489C115.114 14.5496 114.662 14.6499 114.189 14.6499C113.716 14.6499 113.257 14.5496 112.813 14.3489C112.383 14.1339 111.996 13.8401 111.652 13.4674C111.308 13.0804 111.036 12.6289 110.835 12.1129C110.634 11.5826 110.534 11.0021 110.534 10.3714C110.534 9.74073 110.634 9.16739 110.835 8.65139C111.036 8.12106 111.308 7.66956 111.652 7.29689C111.996 6.90989 112.383 6.61606 112.813 6.41539C113.257 6.20039 113.716 6.09289 114.189 6.09289C114.662 6.09289 115.114 6.20039 115.544 6.41539C115.988 6.61606 116.382 6.90989 116.726 7.29689C117.07 7.66956 117.342 8.12106 117.543 8.65139C117.744 9.16739 117.844 9.74073 117.844 10.3714C117.844 11.0021 117.744 11.5826 117.543 12.1129C117.342 12.6289 117.07 13.0804 116.726 13.4674C116.382 13.8401 115.988 14.1339 115.544 14.3489ZM125.964 16.1549C125.233 16.1549 124.545 16.0116 123.9 15.7249C123.269 15.4382 122.71 15.0441 122.223 14.5424C121.75 14.0264 121.37 13.4172 121.084 12.7149C120.811 11.9982 120.675 11.2171 120.675 10.3714C120.675 9.52573 120.811 8.75172 121.084 8.04939C121.37 7.33272 121.75 6.72356 122.223 6.22189C122.71 5.70589 123.269 5.30456 123.9 5.01789C124.545 4.73123 125.233 4.58789 125.964 4.58789C126.681 4.58789 127.347 4.73123 127.964 5.01789C128.58 5.29022 129.11 5.67722 129.555 6.17889C130.013 6.66622 130.364 7.24672 130.608 7.92039C130.866 8.59406 130.995 9.32506 130.995 10.1134C130.995 10.2424 130.988 10.3642 130.974 10.4789L130.971 10.4988L130.971 10.5005L130.971 10.5009C130.957 10.6073 130.944 10.7075 130.931 10.8014C130.902 10.9161 130.88 11.0236 130.866 11.1239H122.223C122.309 11.6542 122.46 12.1344 122.675 12.5644C122.904 12.9944 123.183 13.3671 123.513 13.6824C123.857 13.9834 124.237 14.2199 124.653 14.3919C125.068 14.5639 125.505 14.6499 125.964 14.6499C126.595 14.6499 127.175 14.5281 127.706 14.2844C128.236 14.0407 128.644 13.6967 128.931 13.2524H130.565C130.192 14.1124 129.598 14.8147 128.781 15.3594C127.978 15.8897 127.039 16.1549 125.964 16.1549ZM129.469 9.74789C129.469 9.36089 129.375 8.95956 129.189 8.54389C129.017 8.11389 128.773 7.71972 128.458 7.36139C128.157 6.98872 127.792 6.68772 127.362 6.45839C126.932 6.21472 126.466 6.09289 125.964 6.09289C125.505 6.09289 125.061 6.18606 124.631 6.37239C124.215 6.54439 123.836 6.79522 123.492 7.12489C123.162 7.44022 122.882 7.82006 122.653 8.26439C122.424 8.70873 122.273 9.20322 122.202 9.74789H129.469ZM134.575 4.71689H133.07V16.0259H134.575V9.48989C134.575 8.98823 134.654 8.52956 134.812 8.11389C134.984 7.69822 135.213 7.33989 135.5 7.03889C135.801 6.73789 136.145 6.50856 136.532 6.35089C136.933 6.17889 137.37 6.09289 137.843 6.09289C138.288 6.09289 138.696 6.17889 139.069 6.35089C139.456 6.50856 139.793 6.73789 140.079 7.03889C140.366 7.33989 140.588 7.69822 140.746 8.11389C140.918 8.52956 141.004 8.98823 141.004 9.48989V16.0259H142.509V9.48989C142.509 8.75889 142.387 8.09239 142.143 7.49039C141.914 6.88839 141.592 6.37239 141.176 5.94239C140.775 5.51239 140.294 5.18272 139.735 4.95339C139.191 4.70972 138.603 4.58789 137.972 4.58789C137.471 4.58789 137.019 4.67389 136.618 4.84589C136.217 5.01789 135.873 5.20422 135.586 5.40489C135.256 5.64856 134.962 5.92089 134.704 6.22189H134.575V4.71689ZM153.601 16.1549C152.97 16.1549 152.404 16.0617 151.903 15.8754C151.415 15.6891 150.992 15.4382 150.634 15.1229C150.276 14.7932 149.996 14.4134 149.796 13.9834C149.595 13.5534 149.48 13.1019 149.452 12.6289H150.957C151.028 13.2022 151.279 13.6824 151.709 14.0694C152.153 14.4564 152.784 14.6499 153.601 14.6499C154.361 14.6499 154.948 14.4707 155.364 14.1124C155.78 13.7397 155.988 13.3312 155.988 12.8869C155.988 12.4282 155.83 12.0842 155.515 11.8549C155.214 11.6112 154.834 11.4177 154.375 11.2744C153.931 11.1311 153.436 11.0021 152.892 10.8874C152.361 10.7727 151.867 10.6079 151.408 10.3929C150.964 10.1779 150.584 9.87689 150.269 9.48989C149.968 9.08856 149.817 8.54389 149.817 7.85589C149.817 7.41156 149.903 6.99589 150.075 6.60889C150.261 6.20756 150.519 5.85639 150.849 5.55539C151.193 5.25439 151.594 5.01789 152.053 4.84589C152.526 4.67389 153.042 4.58789 153.601 4.58789C154.16 4.58789 154.662 4.68106 155.106 4.86739C155.565 5.03939 155.952 5.27589 156.267 5.57689C156.597 5.87789 156.855 6.23622 157.041 6.65189C157.227 7.06756 157.335 7.51189 157.364 7.98489H155.859C155.744 7.41156 155.507 6.95289 155.149 6.60889C154.805 6.26489 154.289 6.09289 153.601 6.09289C153.257 6.09289 152.942 6.14306 152.655 6.24339C152.383 6.34372 152.146 6.47989 151.946 6.65189C151.759 6.80956 151.609 6.99589 151.494 7.21089C151.394 7.42589 151.344 7.64089 151.344 7.85589C151.344 8.31456 151.494 8.65856 151.795 8.88789C152.096 9.11722 152.476 9.30356 152.935 9.44689C153.393 9.57589 153.888 9.69772 154.418 9.81239C154.948 9.91273 155.443 10.0776 155.902 10.3069C156.36 10.5219 156.74 10.8301 157.041 11.2314C157.342 11.6184 157.493 12.1702 157.493 12.8869C157.493 13.3312 157.399 13.7541 157.213 14.1554C157.041 14.5424 156.783 14.8864 156.439 15.1874C156.109 15.4884 155.701 15.7249 155.214 15.8969C154.741 16.0689 154.203 16.1549 153.601 16.1549ZM162.178 15.7249C162.823 16.0116 163.511 16.1549 164.242 16.1549C164.958 16.1549 165.632 16.0116 166.263 15.7249C166.908 15.4382 167.467 15.0441 167.94 14.5424C168.427 14.0264 168.807 13.4172 169.079 12.7149C169.366 11.9982 169.509 11.2171 169.509 10.3714C169.509 9.52573 169.366 8.75172 169.079 8.04939C168.807 7.33272 168.427 6.72356 167.94 6.22189C167.467 5.70589 166.908 5.30456 166.263 5.01789C165.632 4.73123 164.958 4.58789 164.242 4.58789C163.511 4.58789 162.823 4.73123 162.178 5.01789C161.547 5.30456 160.988 5.70589 160.501 6.22189C160.028 6.72356 159.648 7.33272 159.361 8.04939C159.089 8.75172 158.953 9.52573 158.953 10.3714C158.953 11.2171 159.089 11.9982 159.361 12.7149C159.648 13.4172 160.028 14.0264 160.501 14.5424C160.988 15.0441 161.547 15.4382 162.178 15.7249ZM165.661 14.3489C165.216 14.5496 164.743 14.6499 164.242 14.6499C163.74 14.6499 163.26 14.5496 162.801 14.3489C162.343 14.1339 161.941 13.8401 161.597 13.4674C161.253 13.0804 160.974 12.6289 160.759 12.1129C160.558 11.5826 160.458 11.0021 160.458 10.3714C160.458 9.74073 160.558 9.16739 160.759 8.65139C160.974 8.12106 161.253 7.66956 161.597 7.29689C161.941 6.90989 162.343 6.61606 162.801 6.41539C163.26 6.20039 163.74 6.09289 164.242 6.09289C164.743 6.09289 165.216 6.20039 165.661 6.41539C166.119 6.61606 166.521 6.90989 166.865 7.29689C167.209 7.66956 167.481 8.12106 167.682 8.65139C167.897 9.16739 168.004 9.74073 168.004 10.3714C168.004 11.0021 167.897 11.5826 167.682 12.1129C167.481 12.6289 167.209 13.0804 166.865 13.4674C166.521 13.8401 166.119 14.1339 165.661 14.3489ZM176.136 16.1558C175.506 16.1558 174.911 16.034 174.352 15.7903C173.807 15.5466 173.327 15.2098 172.911 14.7798C172.51 14.3498 172.188 13.8338 171.944 13.2318C171.715 12.6298 171.6 11.9705 171.6 11.2538V4.71777H173.105V11.2538C173.105 11.7555 173.184 12.2141 173.341 12.6298C173.513 13.0455 173.736 13.4038 174.008 13.7048C174.295 14.0058 174.631 14.2423 175.018 14.4143C175.405 14.572 175.814 14.6508 176.244 14.6508C176.717 14.6508 177.154 14.572 177.555 14.4143C177.957 14.2423 178.301 14.0058 178.587 13.7048C178.888 13.4038 179.118 13.0455 179.275 12.6298C179.447 12.2141 179.533 11.7555 179.533 11.2538V4.71777H181.038V16.0268H179.533V14.5218H179.404C179.146 14.8228 178.853 15.0951 178.523 15.3388C178.236 15.5395 177.892 15.7258 177.491 15.8978C177.09 16.0698 176.638 16.1558 176.136 16.1558ZM185.378 4.71689H183.873V16.0259H185.378V9.61889C185.378 9.11722 185.456 8.65856 185.614 8.24289C185.786 7.82723 186.015 7.46889 186.302 7.16789C186.603 6.86689 186.947 6.63756 187.334 6.47989C187.735 6.30789 188.173 6.22189 188.646 6.22189H189.398V4.58789H188.904C188.359 4.58789 187.879 4.67389 187.463 4.84589C187.047 5.01789 186.696 5.20422 186.41 5.40489C186.066 5.64856 185.765 5.92089 185.507 6.22189H185.378V4.71689ZM195.664 16.1549C194.933 16.1549 194.245 16.0116 193.6 15.7249C192.969 15.4382 192.41 15.0441 191.923 14.5424C191.45 14.0264 191.07 13.4172 190.783 12.7149C190.511 11.9982 190.375 11.2171 190.375 10.3714C190.375 9.52573 190.511 8.75172 190.783 8.04939C191.07 7.33272 191.45 6.72356 191.923 6.22189C192.41 5.70589 192.969 5.30456 193.6 5.01789C194.245 4.73123 194.933 4.58789 195.664 4.58789C196.323 4.58789 196.925 4.70256 197.47 4.93189C198.014 5.14689 198.494 5.44072 198.91 5.81339C199.326 6.18606 199.67 6.62322 199.942 7.12489C200.229 7.62656 200.437 8.16406 200.566 8.73739H199.061C198.803 7.97772 198.373 7.34706 197.771 6.84539C197.183 6.34372 196.481 6.09289 195.664 6.09289C195.162 6.09289 194.682 6.20039 194.223 6.41539C193.764 6.61606 193.363 6.90989 193.019 7.29689C192.675 7.66956 192.396 8.12106 192.181 8.65139C191.98 9.16739 191.88 9.74073 191.88 10.3714C191.88 11.0021 191.98 11.5826 192.181 12.1129C192.396 12.6289 192.675 13.0804 193.019 13.4674C193.363 13.8401 193.764 14.1339 194.223 14.3489C194.682 14.5496 195.162 14.6499 195.664 14.6499C196.481 14.6499 197.183 14.3991 197.771 13.8974C198.373 13.3957 198.803 12.7651 199.061 12.0054H200.566C200.437 12.5644 200.229 13.1019 199.942 13.6179C199.67 14.1196 199.326 14.5567 198.91 14.9294C198.494 15.3021 198.014 15.6031 197.47 15.8324C196.925 16.0474 196.323 16.1549 195.664 16.1549ZM204.99 15.7249C205.635 16.0116 206.323 16.1549 207.054 16.1549C208.129 16.1549 209.068 15.8897 209.871 15.3594C210.688 14.8147 211.283 14.1124 211.655 13.2524H210.021C209.735 13.6967 209.326 14.0407 208.796 14.2844C208.266 14.5281 207.685 14.6499 207.054 14.6499C206.596 14.6499 206.159 14.5639 205.743 14.3919C205.327 14.2199 204.947 13.9834 204.603 13.6824C204.274 13.3671 203.994 12.9944 203.765 12.5644C203.55 12.1344 203.399 11.6542 203.313 11.1239H211.956C211.971 11.0236 211.992 10.9161 212.021 10.8014C212.035 10.7011 212.05 10.5936 212.064 10.4789C212.078 10.3642 212.085 10.2424 212.085 10.1134C212.085 9.32506 211.956 8.59406 211.698 7.92039C211.455 7.24672 211.104 6.66622 210.645 6.17889C210.201 5.67722 209.67 5.29022 209.054 5.01789C208.438 4.73123 207.771 4.58789 207.054 4.58789C206.323 4.58789 205.635 4.73123 204.99 5.01789C204.36 5.30456 203.801 5.70589 203.313 6.22189C202.84 6.72356 202.461 7.33272 202.174 8.04939C201.902 8.75172 201.765 9.52573 201.765 10.3714C201.765 11.2171 201.902 11.9982 202.174 12.7149C202.461 13.4172 202.84 14.0264 203.313 14.5424C203.801 15.0441 204.36 15.4382 204.99 15.7249ZM210.279 8.54389C210.466 8.95956 210.559 9.36089 210.559 9.74789H203.292C203.364 9.20322 203.514 8.70873 203.743 8.26439C203.973 7.82006 204.252 7.44022 204.582 7.12489C204.926 6.79522 205.306 6.54439 205.721 6.37239C206.151 6.18606 206.596 6.09289 207.054 6.09289C207.556 6.09289 208.022 6.21472 208.452 6.45839C208.882 6.68772 209.247 6.98872 209.548 7.36139C209.864 7.71972 210.107 8.11389 210.279 8.54389Z" fill="white"/>
<defs>
<clipPath id="clip0_75_528">
<rect width="79.8271" height="20.47" fill="white" transform="translate(0 0.0263672)"/>
</clipPath>
</defs>
</svg>
