<svg width="213" height="22" viewBox="0 0 213 22" fill="none" xmlns="http://www.w3.org/2000/svg">
<mask id="mask0_0_25" style="mask-type:luminance" maskUnits="userSpaceOnUse" x="0" y="0" width="80" height="21">
<path d="M79.8333 0H0V20.4716H79.8333V0Z" fill="white"/>
</mask>
<g mask="url(#mask0_0_25)">
<path d="M14.9351 12.5057C14.29 12.1318 13.5625 12.024 12.8416 12.0005C12.237 11.9803 11.3359 11.5929 11.3359 10.4847C11.3394 10.0855 11.4988 9.70349 11.7802 9.42019C12.0615 9.13699 12.4425 8.97499 12.8416 8.96889C13.5625 8.94359 14.29 8.83579 14.9351 8.46362C15.5143 8.12824 15.995 7.64638 16.3291 7.06642C16.6632 6.48646 16.8388 5.82883 16.8383 5.15954C16.8378 4.49026 16.6612 3.83289 16.3263 3.25343C15.9913 2.67397 15.5099 2.19283 14.9302 1.85832C14.3505 1.5238 13.693 1.34769 13.0237 1.34766C12.3544 1.34763 11.6969 1.52368 11.1172 1.85814C10.5375 2.19261 10.0559 2.6737 9.72096 3.25313C9.38598 3.83255 9.20934 4.48991 9.20878 5.1592C9.20878 5.89856 9.47152 6.57899 9.80836 7.21056C10.0896 7.74109 10.2328 8.72639 9.26436 9.28379C8.91435 9.47859 8.50194 9.52839 8.11561 9.42259C7.72928 9.31689 7.39979 9.06389 7.19784 8.71789C6.81889 8.11162 6.35573 7.53898 5.72078 7.17351C5.14085 6.83899 4.48309 6.66299 3.81359 6.6632C3.1441 6.6634 2.48644 6.83979 1.90671 7.17465C1.32697 7.50952 0.845578 7.99106 0.510887 8.57089C0.176197 9.15069 0 9.80839 0 10.4779C0 11.1474 0.176197 11.8051 0.510887 12.385C0.845578 12.9648 1.32697 13.4464 1.90671 13.7812C2.48644 14.1161 3.1441 14.2925 3.81359 14.2927C4.48309 14.2929 5.14085 14.1169 5.72078 13.7824C6.36078 13.4118 6.81889 12.8443 7.19784 12.2379C7.50942 11.7327 8.28584 11.1062 9.26436 11.672C9.60807 11.8779 9.85737 12.2104 9.95876 12.598C10.0602 12.9856 10.0056 13.3975 9.80668 13.7453C9.46984 14.3769 9.20878 15.0573 9.20878 15.7967C9.20883 16.4665 9.38517 17.1245 9.72009 17.7046C10.055 18.2847 10.5367 18.7664 11.1168 19.1014C11.6968 19.4363 12.3548 19.6127 13.0246 19.6128C13.6945 19.6129 14.3525 19.4367 14.9327 19.1019C15.5129 18.7672 15.9947 18.2856 16.3298 17.7056C16.6648 17.1256 16.8414 16.4676 16.8416 15.7978C16.8419 15.128 16.6658 14.4699 16.3312 13.8896C15.9965 13.3094 15.515 12.8275 14.9351 12.4923V12.5057Z" fill="#008CFF"/>
<path d="M22.0898 4.68554H24.7458V5.9386C25.1 5.50768 25.545 5.1603 26.0489 4.92127C26.5529 4.68224 27.1034 4.55747 27.6612 4.55586C28.0395 4.54169 28.4178 4.58542 28.7829 4.68554V7.71712C28.7829 7.71712 28.4157 7.58744 27.5315 7.58744C26.0157 7.58744 25.0052 8.59799 25.0052 10.1138V16.3032H22.0898V4.68554ZM36.3635 4.68554H39.0195V5.80891C39.9264 5.00831 41.0924 4.56318 42.3021 4.55586C45.2174 4.55586 47.7437 7.08218 47.7437 10.4944C47.7437 13.9066 45.2174 16.4329 42.3021 16.4329C41.1881 16.4358 40.1121 16.0287 39.2789 15.2893V20.4717H36.3635V4.68554ZM44.8284 10.4944C44.8284 8.59459 43.5753 7.34154 41.9349 7.34154C40.2945 7.34154 39.0195 8.58959 39.0195 10.4944C39.0195 12.3992 40.2928 13.6422 41.9366 13.6422C43.5804 13.6422 44.8284 12.3959 44.8284 10.4944ZM49.881 4.68554H52.537V5.80891C53.4441 5.00871 54.61 4.56364 55.8195 4.55586C58.7349 4.55586 61.2612 7.08218 61.2612 10.4944C61.2612 13.9066 58.7349 16.4329 55.8195 16.4329C54.7058 16.4348 53.63 16.0279 52.7964 15.2893V20.4717H49.881V4.68554ZM58.3475 10.4944C58.3475 8.59459 57.0945 7.34154 55.4524 7.34154C53.8103 7.34154 52.537 8.58959 52.537 10.4944C52.537 12.3992 53.812 13.6422 55.4524 13.6422C57.0928 13.6422 58.3475 12.3959 58.3475 10.4944ZM63.4002 0.389119H66.3155V16.3032H63.4002V0.389119ZM68.4528 10.4944C68.4528 7.21354 71.1088 4.55586 74.2616 4.55586C77.305 4.55586 79.8313 6.95418 79.8313 10.4944C79.8191 10.879 79.7758 11.262 79.7016 11.6397H71.6056C71.865 12.763 72.7576 13.6422 74.2616 13.6422C75.6225 13.6422 76.1631 13.0173 76.1631 13.0173H79.316C78.7315 14.5331 76.9176 16.4279 74.2633 16.4279C71.1088 16.4329 68.4528 13.7769 68.4528 10.4944ZM77.0423 9.61019C76.9097 8.96929 76.5603 8.39376 76.0529 7.98052C75.5454 7.56728 74.911 7.34165 74.2566 7.34165C73.6022 7.34165 72.9678 7.56728 72.4603 7.98052C71.9529 8.39376 71.6034 8.96929 71.4709 9.61019H77.0423ZM30.484 1.64049C30.484 1.2023 30.658 0.782049 30.9679 0.472199C31.2777 0.162349 31.698 -0.0117207 32.1362 -0.0117207C32.5744 -0.0117207 32.9946 0.162349 33.3045 0.472199C33.6143 0.782049 33.7884 1.2023 33.7884 1.64049C33.7884 2.07868 33.6143 2.49893 33.3045 2.80878C32.9946 3.11863 32.5744 3.2927 32.1362 3.2927C31.698 3.2927 31.2777 3.11863 30.9679 2.80878C30.658 2.49893 30.484 2.07868 30.484 1.64049ZM30.6793 4.68554H33.5997V16.3066H30.6844L30.6793 4.68554Z" fill="black"/>
</g>
<path d="M88.534 0H87.6924V21.0526H88.534V0Z" fill="black"/>
<path d="M101.671 16.129C100.94 16.129 100.252 15.9857 99.6068 15.699C98.9762 15.4123 98.4172 15.0182 97.9298 14.5165C97.4568 14.0005 97.077 13.3913 96.7903 12.689C96.518 11.9723 96.3818 11.1912 96.3818 10.3455C96.3818 9.49985 96.518 8.72584 96.7903 8.02351C97.077 7.30684 97.4568 6.69768 97.9298 6.19601C98.4172 5.68001 98.9762 5.27868 99.6068 4.99201C100.252 4.70535 100.94 4.56201 101.671 4.56201C102.388 4.56201 103.061 4.70535 103.692 4.99201C104.337 5.27868 104.896 5.68001 105.369 6.19601C105.856 6.69768 106.236 7.30684 106.508 8.02351C106.795 8.72584 106.938 9.49985 106.938 10.3455C106.938 11.1912 106.795 11.9723 106.508 12.689C106.236 13.3913 105.856 14.0005 105.369 14.5165C104.896 15.0182 104.337 15.4123 103.692 15.699C103.061 15.9857 102.388 16.129 101.671 16.129ZM101.671 14.624C102.173 14.624 102.646 14.5237 103.09 14.323C103.549 14.108 103.95 13.8142 104.294 13.4415C104.638 13.0545 104.91 12.603 105.111 12.087C105.326 11.5567 105.433 10.9762 105.433 10.3455C105.433 9.71485 105.326 9.14151 105.111 8.62551C104.91 8.09518 104.638 7.64368 104.294 7.27101C103.95 6.88401 103.549 6.59018 103.09 6.38951C102.646 6.17451 102.173 6.06701 101.671 6.06701C101.169 6.06701 100.689 6.17451 100.23 6.38951C99.7717 6.59018 99.3703 6.88401 99.0263 7.27101C98.6823 7.64368 98.4028 8.09518 98.1878 8.62551C97.9872 9.14151 97.8868 9.71485 97.8868 10.3455C97.8868 10.9762 97.9872 11.5567 98.1878 12.087C98.4028 12.603 98.6823 13.0545 99.0263 13.4415C99.3703 13.8142 99.7717 14.108 100.23 14.323C100.689 14.5237 101.169 14.624 101.671 14.624Z" fill="black"/>
<path d="M109.029 4.69101H110.534V6.19601H110.663C110.921 5.89501 111.229 5.62268 111.588 5.37901C111.889 5.17834 112.254 4.99201 112.684 4.82001C113.114 4.64801 113.616 4.56201 114.189 4.56201C114.877 4.56201 115.529 4.70535 116.146 4.99201C116.776 5.27868 117.328 5.68001 117.801 6.19601C118.274 6.69768 118.647 7.30684 118.919 8.02351C119.206 8.72584 119.349 9.49985 119.349 10.3455C119.349 11.1912 119.206 11.9723 118.919 12.689C118.647 13.3913 118.274 14.0005 117.801 14.5165C117.328 15.0182 116.776 15.4123 116.146 15.699C115.529 15.9857 114.877 16.129 114.189 16.129C113.616 16.129 113.114 16.043 112.684 15.871C112.254 15.699 111.889 15.5127 111.588 15.312C111.229 15.0683 110.921 14.796 110.663 14.495H110.534V20.1495H109.029V4.69101ZM114.189 14.624C114.662 14.624 115.114 14.5237 115.544 14.323C115.988 14.108 116.382 13.8142 116.726 13.4415C117.07 13.0545 117.342 12.603 117.543 12.087C117.744 11.5567 117.844 10.9762 117.844 10.3455C117.844 9.71485 117.744 9.14151 117.543 8.62551C117.342 8.09518 117.07 7.64368 116.726 7.27101C116.382 6.88401 115.988 6.59018 115.544 6.38951C115.114 6.17451 114.662 6.06701 114.189 6.06701C113.716 6.06701 113.257 6.17451 112.813 6.38951C112.383 6.59018 111.996 6.88401 111.652 7.27101C111.308 7.64368 111.036 8.09518 110.835 8.62551C110.634 9.14151 110.534 9.71485 110.534 10.3455C110.534 10.9762 110.634 11.5567 110.835 12.087C111.036 12.603 111.308 13.0545 111.652 13.4415C111.996 13.8142 112.383 14.108 112.813 14.323C113.257 14.5237 113.716 14.624 114.189 14.624Z" fill="black"/>
<path d="M125.964 16.129C125.233 16.129 124.545 15.9857 123.9 15.699C123.269 15.4123 122.71 15.0182 122.223 14.5165C121.75 14.0005 121.37 13.3913 121.084 12.689C120.811 11.9723 120.675 11.1912 120.675 10.3455C120.675 9.49985 120.811 8.72584 121.084 8.02351C121.37 7.30684 121.75 6.69768 122.223 6.19601C122.71 5.68001 123.269 5.27868 123.9 4.99201C124.545 4.70535 125.233 4.56201 125.964 4.56201C126.681 4.56201 127.347 4.70535 127.964 4.99201C128.58 5.26434 129.11 5.65134 129.555 6.15301C130.013 6.64034 130.364 7.22084 130.608 7.89451C130.866 8.56818 130.995 9.29918 130.995 10.0875C130.995 10.2165 130.988 10.3383 130.974 10.453C130.959 10.5677 130.945 10.6752 130.931 10.7755C130.902 10.8902 130.88 10.9977 130.866 11.098H122.223C122.309 11.6283 122.46 12.1085 122.675 12.5385C122.904 12.9685 123.183 13.3412 123.513 13.6565C123.857 13.9575 124.237 14.194 124.653 14.366C125.068 14.538 125.505 14.624 125.964 14.624C126.595 14.624 127.175 14.5022 127.706 14.2585C128.236 14.0148 128.644 13.6708 128.931 13.2265H130.565C130.192 14.0865 129.598 14.7888 128.781 15.3335C127.978 15.8638 127.039 16.129 125.964 16.129ZM129.469 9.72201C129.469 9.33501 129.375 8.93368 129.189 8.51801C129.017 8.08801 128.773 7.69384 128.458 7.33551C128.157 6.96284 127.792 6.66184 127.362 6.43251C126.932 6.18884 126.466 6.06701 125.964 6.06701C125.505 6.06701 125.061 6.16018 124.631 6.34651C124.215 6.51851 123.836 6.76934 123.492 7.09901C123.162 7.41434 122.882 7.79418 122.653 8.23851C122.424 8.68285 122.273 9.17734 122.202 9.72201H129.469Z" fill="black"/>
<path d="M133.07 4.69101H134.575V6.19601H134.704C134.962 5.89501 135.256 5.62268 135.586 5.37901C135.873 5.17834 136.217 4.99201 136.618 4.82001C137.019 4.64801 137.471 4.56201 137.972 4.56201C138.603 4.56201 139.191 4.68384 139.735 4.92751C140.294 5.15684 140.775 5.48651 141.176 5.91651C141.592 6.34651 141.914 6.86251 142.143 7.46451C142.387 8.06651 142.509 8.73301 142.509 9.46401V16H141.004V9.46401C141.004 8.96235 140.918 8.50368 140.746 8.08801C140.588 7.67234 140.366 7.31401 140.079 7.01301C139.793 6.71201 139.456 6.48268 139.069 6.32501C138.696 6.15301 138.288 6.06701 137.843 6.06701C137.37 6.06701 136.933 6.15301 136.532 6.32501C136.145 6.48268 135.801 6.71201 135.5 7.01301C135.213 7.31401 134.984 7.67234 134.812 8.08801C134.654 8.50368 134.575 8.96235 134.575 9.46401V16H133.07V4.69101Z" fill="black"/>
<path d="M153.601 16.129C152.97 16.129 152.404 16.0358 151.903 15.8495C151.415 15.6632 150.992 15.4123 150.634 15.097C150.276 14.7673 149.996 14.3875 149.796 13.9575C149.595 13.5275 149.48 13.076 149.452 12.603H150.957C151.028 13.1763 151.279 13.6565 151.709 14.0435C152.153 14.4305 152.784 14.624 153.601 14.624C154.361 14.624 154.948 14.4448 155.364 14.0865C155.78 13.7138 155.988 13.3053 155.988 12.861C155.988 12.4023 155.83 12.0583 155.515 11.829C155.214 11.5853 154.834 11.3918 154.375 11.2485C153.931 11.1052 153.436 10.9762 152.892 10.8615C152.361 10.7468 151.867 10.582 151.408 10.367C150.964 10.152 150.584 9.85101 150.269 9.46401C149.968 9.06268 149.817 8.51801 149.817 7.83001C149.817 7.38568 149.903 6.97001 150.075 6.58301C150.261 6.18168 150.519 5.83051 150.849 5.52951C151.193 5.22851 151.594 4.99201 152.053 4.82001C152.526 4.64801 153.042 4.56201 153.601 4.56201C154.16 4.56201 154.662 4.65518 155.106 4.84151C155.565 5.01351 155.952 5.25001 156.267 5.55101C156.597 5.85201 156.855 6.21034 157.041 6.62601C157.227 7.04168 157.335 7.48601 157.364 7.95901H155.859C155.744 7.38568 155.507 6.92701 155.149 6.58301C154.805 6.23901 154.289 6.06701 153.601 6.06701C153.257 6.06701 152.942 6.11718 152.655 6.21751C152.383 6.31784 152.146 6.45401 151.946 6.62601C151.759 6.78368 151.609 6.97001 151.494 7.18501C151.394 7.40001 151.344 7.61501 151.344 7.83001C151.344 8.28868 151.494 8.63268 151.795 8.86201C152.096 9.09134 152.476 9.27768 152.935 9.42101C153.393 9.55001 153.888 9.67184 154.418 9.78651C154.948 9.88685 155.443 10.0517 155.902 10.281C156.36 10.496 156.74 10.8042 157.041 11.2055C157.342 11.5925 157.493 12.1443 157.493 12.861C157.493 13.3053 157.399 13.7282 157.213 14.1295C157.041 14.5165 156.783 14.8605 156.439 15.1615C156.109 15.4625 155.701 15.699 155.214 15.871C154.741 16.043 154.203 16.129 153.601 16.129Z" fill="black"/>
<path d="M164.242 16.129C163.511 16.129 162.823 15.9857 162.178 15.699C161.547 15.4123 160.988 15.0182 160.501 14.5165C160.028 14.0005 159.648 13.3913 159.361 12.689C159.089 11.9723 158.953 11.1912 158.953 10.3455C158.953 9.49985 159.089 8.72584 159.361 8.02351C159.648 7.30684 160.028 6.69768 160.501 6.19601C160.988 5.68001 161.547 5.27868 162.178 4.99201C162.823 4.70535 163.511 4.56201 164.242 4.56201C164.958 4.56201 165.632 4.70535 166.263 4.99201C166.908 5.27868 167.467 5.68001 167.94 6.19601C168.427 6.69768 168.807 7.30684 169.079 8.02351C169.366 8.72584 169.509 9.49985 169.509 10.3455C169.509 11.1912 169.366 11.9723 169.079 12.689C168.807 13.3913 168.427 14.0005 167.94 14.5165C167.467 15.0182 166.908 15.4123 166.263 15.699C165.632 15.9857 164.958 16.129 164.242 16.129ZM164.242 14.624C164.743 14.624 165.216 14.5237 165.661 14.323C166.119 14.108 166.521 13.8142 166.865 13.4415C167.209 13.0545 167.481 12.603 167.682 12.087C167.897 11.5567 168.004 10.9762 168.004 10.3455C168.004 9.71485 167.897 9.14151 167.682 8.62551C167.481 8.09518 167.209 7.64368 166.865 7.27101C166.521 6.88401 166.119 6.59018 165.661 6.38951C165.216 6.17451 164.743 6.06701 164.242 6.06701C163.74 6.06701 163.26 6.17451 162.801 6.38951C162.343 6.59018 161.941 6.88401 161.597 7.27101C161.253 7.64368 160.974 8.09518 160.759 8.62551C160.558 9.14151 160.458 9.71485 160.458 10.3455C160.458 10.9762 160.558 11.5567 160.759 12.087C160.974 12.603 161.253 13.0545 161.597 13.4415C161.941 13.8142 162.343 14.108 162.801 14.323C163.26 14.5237 163.74 14.624 164.242 14.624Z" fill="black"/>
<path d="M176.136 16.129C175.506 16.129 174.911 16.0072 174.352 15.7635C173.807 15.5198 173.327 15.183 172.911 14.753C172.51 14.323 172.188 13.807 171.944 13.205C171.715 12.603 171.6 11.9437 171.6 11.227V4.69101H173.105V11.227C173.105 11.7287 173.184 12.1873 173.341 12.603C173.513 13.0187 173.736 13.377 174.008 13.678C174.295 13.979 174.631 14.2155 175.018 14.3875C175.405 14.5452 175.814 14.624 176.244 14.624C176.717 14.624 177.154 14.5452 177.555 14.3875C177.957 14.2155 178.301 13.979 178.587 13.678C178.888 13.377 179.118 13.0187 179.275 12.603C179.447 12.1873 179.533 11.7287 179.533 11.227V4.69101H181.038V16H179.533V14.495H179.404C179.146 14.796 178.853 15.0683 178.523 15.312C178.236 15.5127 177.892 15.699 177.491 15.871C177.09 16.043 176.638 16.129 176.136 16.129Z" fill="black"/>
<path d="M183.873 4.69101H185.378V6.19601H185.507C185.765 5.89501 186.066 5.62268 186.41 5.37901C186.696 5.17834 187.047 4.99201 187.463 4.82001C187.879 4.64801 188.359 4.56201 188.904 4.56201H189.398V6.19601H188.646C188.173 6.19601 187.735 6.28201 187.334 6.45401C186.947 6.61168 186.603 6.84101 186.302 7.14201C186.015 7.44301 185.786 7.80135 185.614 8.21701C185.456 8.63268 185.378 9.09134 185.378 9.59301V16H183.873V4.69101Z" fill="black"/>
<path d="M195.664 16.129C194.933 16.129 194.245 15.9857 193.6 15.699C192.969 15.4123 192.41 15.0182 191.923 14.5165C191.45 14.0005 191.07 13.3913 190.783 12.689C190.511 11.9723 190.375 11.1912 190.375 10.3455C190.375 9.49985 190.511 8.72584 190.783 8.02351C191.07 7.30684 191.45 6.69768 191.923 6.19601C192.41 5.68001 192.969 5.27868 193.6 4.99201C194.245 4.70535 194.933 4.56201 195.664 4.56201C196.323 4.56201 196.925 4.67668 197.47 4.90601C198.014 5.12101 198.494 5.41484 198.91 5.78751C199.326 6.16018 199.67 6.59734 199.942 7.09901C200.229 7.60068 200.437 8.13818 200.566 8.71151H199.061C198.803 7.95184 198.373 7.32118 197.771 6.81951C197.183 6.31784 196.481 6.06701 195.664 6.06701C195.162 6.06701 194.682 6.17451 194.223 6.38951C193.764 6.59018 193.363 6.88401 193.019 7.27101C192.675 7.64368 192.396 8.09518 192.181 8.62551C191.98 9.14151 191.88 9.71485 191.88 10.3455C191.88 10.9762 191.98 11.5567 192.181 12.087C192.396 12.603 192.675 13.0545 193.019 13.4415C193.363 13.8142 193.764 14.108 194.223 14.323C194.682 14.5237 195.162 14.624 195.664 14.624C196.481 14.624 197.183 14.3732 197.771 13.8715C198.373 13.3698 198.803 12.7392 199.061 11.9795H200.566C200.437 12.5385 200.229 13.076 199.942 13.592C199.67 14.0937 199.326 14.5308 198.91 14.9035C198.494 15.2762 198.014 15.5772 197.47 15.8065C196.925 16.0215 196.323 16.129 195.664 16.129Z" fill="black"/>
<path d="M207.054 16.129C206.323 16.129 205.635 15.9857 204.99 15.699C204.36 15.4123 203.801 15.0182 203.313 14.5165C202.84 14.0005 202.461 13.3913 202.174 12.689C201.902 11.9723 201.765 11.1912 201.765 10.3455C201.765 9.49985 201.902 8.72584 202.174 8.02351C202.461 7.30684 202.84 6.69768 203.313 6.19601C203.801 5.68001 204.36 5.27868 204.99 4.99201C205.635 4.70535 206.323 4.56201 207.054 4.56201C207.771 4.56201 208.438 4.70535 209.054 4.99201C209.67 5.26434 210.201 5.65134 210.645 6.15301C211.104 6.64034 211.455 7.22084 211.698 7.89451C211.956 8.56818 212.085 9.29918 212.085 10.0875C212.085 10.2165 212.078 10.3383 212.064 10.453C212.05 10.5677 212.035 10.6752 212.021 10.7755C211.992 10.8902 211.971 10.9977 211.956 11.098H203.313C203.399 11.6283 203.55 12.1085 203.765 12.5385C203.994 12.9685 204.274 13.3412 204.603 13.6565C204.947 13.9575 205.327 14.194 205.743 14.366C206.159 14.538 206.596 14.624 207.054 14.624C207.685 14.624 208.266 14.5022 208.796 14.2585C209.326 14.0148 209.735 13.6708 210.021 13.2265H211.655C211.283 14.0865 210.688 14.7888 209.871 15.3335C209.068 15.8638 208.129 16.129 207.054 16.129ZM210.559 9.72201C210.559 9.33501 210.466 8.93368 210.279 8.51801C210.107 8.08801 209.864 7.69384 209.548 7.33551C209.247 6.96284 208.882 6.66184 208.452 6.43251C208.022 6.18884 207.556 6.06701 207.054 6.06701C206.596 6.06701 206.151 6.16018 205.721 6.34651C205.306 6.51851 204.926 6.76934 204.582 7.09901C204.252 7.41434 203.973 7.79418 203.743 8.23851C203.514 8.68285 203.364 9.17734 203.292 9.72201H210.559Z" fill="black"/>
</svg>
