<svg width="64" height="64" viewBox="0 0 64 64" fill="none" xmlns="http://www.w3.org/2000/svg">
<path d="M32 10.6666L12 14.6666L12.6518 29.6573C13.0725 39.3326 18.7056 48.0193 27.3676 52.3504L32 54.6666V10.6666Z" fill="#ABE2FF"/>
<path fill-rule="evenodd" clip-rule="evenodd" d="M32.0001 5.28149L6.56873 10.3134L7.48848 31.2414C7.95797 41.9241 14.2033 51.5051 23.7879 56.2461L32.0001 60.3083L40.2123 56.2461C49.7968 51.5051 56.0422 41.9241 56.5116 31.2414L57.4314 10.3134L32.0001 5.28149ZM24.9702 53.8559L32.0001 57.3332L39.0299 53.8559C47.7431 49.5458 53.4207 40.8359 53.8475 31.1244L54.6667 12.4847L32.0001 7.99986L9.33339 12.4847L10.1526 31.1244C10.5794 40.8359 16.257 49.5458 24.9702 53.8559Z" fill="#ABE2FF"/>
<path d="M52 14.6667L32 10.6667V54.6667L36.6324 52.3505C45.2945 48.0195 50.9276 39.3328 51.3482 29.6575L52 14.6667Z" fill="#006AFF"/>
</svg>
