<svg width="181" height="117" viewBox="0 0 181 117" fill="none" xmlns="http://www.w3.org/2000/svg">
<mask id="mask0" mask-type="alpha" maskUnits="userSpaceOnUse" x="0" y="0" width="181" height="117">
<path d="M180.5 107C180.5 112.247 176.247 116.5 171 116.5L0.5 116.5L0.50001 0.499984L180.5 0.5L180.5 107Z" fill="#232325" stroke="#9A52FF"/>
</mask>
<g mask="url(#mask0)">
<path d="M11.7552 184.658C21.4663 183.395 31.1778 182.192 40.8896 181.051C101.072 173.95 161.414 168.306 221.887 164.756C239.494 163.697 257.223 162.455 274.893 161.881C274.484 152.773 273.83 143.514 272.905 134.561C266.651 98.1515 257.722 61.2999 252.863 24.3978C226.297 7.19573 194.641 -0.389279 163.164 2.90532C131.688 6.19992 102.289 20.1754 79.8607 42.5055L-57.197 180.809C-34.204 181.849 -11.2398 183.223 11.7552 184.658Z" stroke="#2DCF78" stroke-width="2.0719" stroke-miterlimit="10" stroke-linecap="round"/>
<path d="M11.7552 184.658C21.4663 183.395 31.1778 182.192 40.8896 181.051C101.072 173.95 161.414 168.306 221.887 164.756C239.494 163.697 257.223 162.455 274.893 161.881C274.484 152.773 273.83 143.514 272.905 134.561C266.651 98.1515 257.722 61.2999 252.863 24.3978C226.297 7.19573 194.641 -0.389279 163.164 2.90532C131.688 6.19992 102.289 20.1754 79.8607 42.5055L-57.197 180.809C-34.204 181.849 -11.2398 183.223 11.7552 184.658Z" stroke="#2DCF78" stroke-width="2.0719" stroke-miterlimit="10" stroke-linecap="round"/>
<path d="M11.7551 184.658C21.4663 183.395 31.1778 182.192 40.8896 181.051C101.072 173.95 161.414 168.306 221.887 164.756C239.494 163.697 257.223 162.455 274.893 161.881C274.484 152.773 273.83 143.514 272.905 134.561C266.964 100.093 258.714 65.3945 253.713 30.5277C227.475 14.3649 196.559 7.50649 165.947 11.0575C135.336 14.6085 106.811 28.3621 84.9697 50.1022L-45.1688 181.387C-26.1948 182.346 -7.22016 183.436 11.7551 184.658Z" stroke="#2DCF78" stroke-width="2.0719" stroke-miterlimit="10" stroke-linecap="round"/>
<path d="M11.7551 184.658C21.4663 183.395 31.1778 182.192 40.8896 181.051C101.072 173.95 161.414 168.306 221.887 164.756C239.494 163.697 257.223 162.455 274.893 161.881C274.484 152.773 273.83 143.514 272.905 134.561C266.964 100.093 258.714 65.3945 253.713 30.5277C227.475 14.3649 196.559 7.50649 165.947 11.0575C135.336 14.6085 106.811 28.3621 84.9697 50.1022L-45.1688 181.387C-26.1948 182.346 -7.22016 183.436 11.7551 184.658Z" stroke="#2DCF78" stroke-width="2.0719" stroke-miterlimit="10" stroke-linecap="round"/>
<path d="M11.7551 184.658C21.4663 183.395 31.1778 182.192 40.8895 181.051C101.072 173.95 161.414 168.306 221.887 164.756C239.494 163.697 257.223 162.455 274.893 161.881C274.484 152.773 273.83 143.514 272.905 134.561C267.308 102.035 259.645 69.3072 254.593 36.4753C228.725 21.3339 198.571 15.1864 168.841 18.993C139.111 22.7996 111.478 36.3458 90.26 57.5159L-33.1707 182.026C-18.2059 182.843 -3.23057 183.72 11.7551 184.658Z" stroke="#2DCF78" stroke-width="2.0719" stroke-miterlimit="10" stroke-linecap="round"/>
<path d="M11.7551 184.658C21.4663 183.395 31.1778 182.192 40.8895 181.051C101.072 173.95 161.414 168.306 221.887 164.756C239.494 163.697 257.223 162.455 274.893 161.881C274.484 152.773 273.83 143.514 272.905 134.561C267.308 102.035 259.645 69.3072 254.593 36.4753C228.725 21.3339 198.571 15.1864 168.841 18.993C139.111 22.7996 111.478 36.3458 90.26 57.5159L-33.1707 182.026C-18.2059 182.843 -3.23057 183.72 11.7551 184.658Z" stroke="#2DCF78" stroke-width="2.0719" stroke-miterlimit="10" stroke-linecap="round"/>
<path d="M11.7551 184.658C21.4663 183.395 31.1778 182.192 40.8895 181.051C101.072 173.95 161.414 168.306 221.887 164.756C239.494 163.697 257.223 162.455 274.893 161.881C274.484 152.773 273.83 143.514 272.905 134.561C267.653 104.22 260.638 73.5841 255.596 42.8777C230.113 28.6507 200.69 23.1074 171.777 27.0862C142.863 31.0649 116.031 44.3492 95.3378 64.9306L-21.2333 182.665L11.7551 184.658Z" stroke="#2DCF78" stroke-width="2.0719" stroke-miterlimit="10" stroke-linecap="round"/>
<path d="M11.7551 184.658C21.4663 183.395 31.1778 182.192 40.8895 181.051C101.072 173.95 161.414 168.306 221.887 164.756C239.494 163.697 257.223 162.455 274.893 161.881C274.484 152.773 273.83 143.514 272.905 134.561C267.653 104.22 260.638 73.5841 255.596 42.8777C230.113 28.6507 200.69 23.1074 171.777 27.0862C142.863 31.0649 116.031 44.3492 95.3378 64.9306L-21.2333 182.665L11.7551 184.658Z" stroke="#2DCF78" stroke-width="2.0719" stroke-miterlimit="10" stroke-linecap="round"/>
<path d="M11.7551 184.658C21.4663 183.395 31.1778 182.192 40.8895 181.051C101.072 173.95 161.414 168.306 221.887 164.756C239.494 163.697 257.223 162.455 274.893 161.881C274.484 152.773 273.83 143.514 272.905 134.561C268.027 106.253 261.6 77.7699 256.66 49.2191C231.584 35.9156 202.91 30.9836 174.83 35.1445C146.75 39.3053 120.738 52.3407 100.598 72.3443L-9.26539 183.335L11.7551 184.658Z" stroke="#2DCF78" stroke-width="2.0719" stroke-miterlimit="10" stroke-linecap="round"/>
<path d="M11.7551 184.658C21.4663 183.395 31.1778 182.192 40.8895 181.051C101.072 173.95 161.414 168.306 221.887 164.756C239.494 163.697 257.223 162.455 274.893 161.881C274.484 152.773 273.83 143.514 272.905 134.561C268.027 106.253 261.6 77.7699 256.66 49.2191C231.584 35.9156 202.91 30.9836 174.83 35.1445C146.75 39.3053 120.738 52.3407 100.598 72.3443L-9.26539 183.335L11.7551 184.658Z" stroke="#2DCF78" stroke-width="2.0719" stroke-miterlimit="10" stroke-linecap="round"/>
<path d="M11.7551 184.658C21.4663 183.395 31.1778 182.192 40.8895 181.051C101.072 173.95 161.413 168.306 221.887 164.756C239.494 163.697 257.223 162.455 274.893 161.881C274.484 152.773 273.83 143.514 272.905 134.561C268.403 108.407 262.563 82.1076 257.816 55.6816C233.123 43.2697 205.15 38.9425 177.861 43.3128C150.572 47.6831 125.35 60.5295 105.768 80.0319L2.64192 184.035L11.7551 184.658Z" stroke="#2DCF78" stroke-width="2.0719" stroke-miterlimit="10" stroke-linecap="round"/>
<path d="M11.7551 184.658C21.4663 183.395 31.1778 182.192 40.8895 181.051C101.072 173.95 161.413 168.306 221.887 164.756C239.494 163.697 257.223 162.455 274.893 161.881C274.484 152.773 273.83 143.514 272.905 134.561C268.403 108.407 262.563 82.1076 257.816 55.6816C233.123 43.2697 205.15 38.9425 177.861 43.3128C150.572 47.6831 125.35 60.5295 105.768 80.0319L2.64192 184.035L11.7551 184.658Z" stroke="#2DCF78" stroke-width="2.0719" stroke-miterlimit="10" stroke-linecap="round"/>
<path d="M40.8892 180.96C101.072 173.859 161.413 168.214 221.887 164.665C239.494 163.606 257.222 162.364 274.893 161.79C274.483 152.682 273.83 143.423 272.905 134.47C268.777 110.5 263.556 86.4148 259.003 62.2653C234.73 50.6429 207.451 46.8323 180.923 51.3583C154.395 55.8844 129.922 68.5244 110.877 87.5375L15.1537 184.124C23.7422 183.049 32.3004 181.974 40.8892 180.96Z" stroke="#2DCF78" stroke-width="2.0719" stroke-miterlimit="10" stroke-linecap="round"/>
<path d="M40.8892 180.96C101.072 173.859 161.413 168.214 221.887 164.665C239.494 163.606 257.222 162.364 274.893 161.79C274.483 152.682 273.83 143.423 272.905 134.47C268.777 110.5 263.556 86.4148 259.003 62.2653C234.73 50.6429 207.451 46.8323 180.923 51.3583C154.395 55.8844 129.922 68.5244 110.877 87.5375L15.1537 184.124C23.7422 183.049 32.3004 181.974 40.8892 180.96Z" stroke="#2DCF78" stroke-width="2.0719" stroke-miterlimit="10" stroke-linecap="round"/>
<path d="M40.8889 180.96C101.071 173.859 161.413 168.214 221.886 164.665C239.494 163.606 257.222 162.364 274.893 161.79C274.483 152.682 273.83 143.423 272.905 134.469C269.153 112.745 264.489 90.9346 260.433 69.0602C236.585 58.1769 209.983 54.8303 184.183 59.4677C158.382 64.1051 134.611 76.5056 116.045 95.0123L29.5993 182.352L40.8889 180.96Z" stroke="#2DCF78" stroke-width="2.0719" stroke-miterlimit="10" stroke-linecap="round"/>
<path d="M40.8889 180.96C101.071 173.859 161.413 168.214 221.886 164.665C239.494 163.606 257.222 162.364 274.893 161.79C274.483 152.682 273.83 143.423 272.905 134.469C269.153 112.745 264.489 90.9346 260.433 69.0602C236.585 58.1769 209.983 54.8303 184.183 59.4677C158.382 64.1051 134.611 76.5056 116.045 95.0123L29.5993 182.352L40.8889 180.96Z" stroke="#2DCF78" stroke-width="2.0719" stroke-miterlimit="10" stroke-linecap="round"/>
<path d="M221.886 164.664C239.493 163.605 257.222 162.363 274.892 161.79C274.483 152.682 273.829 143.423 272.904 134.469C269.558 114.869 265.452 95.3328 261.62 75.7044C238.221 65.6665 212.353 62.8617 187.347 67.651C162.34 72.4403 139.34 84.6045 121.306 102.578L44.0751 180.579C103.165 173.666 162.475 168.178 221.886 164.664Z" stroke="#2DCF78" stroke-width="2.0719" stroke-miterlimit="10" stroke-linecap="round"/>
<path d="M221.886 164.664C239.493 163.605 257.222 162.363 274.892 161.79C274.483 152.682 273.829 143.423 272.904 134.469C269.558 114.869 265.452 95.3328 261.62 75.7044C238.221 65.6665 212.353 62.8617 187.347 67.651C162.34 72.4403 139.34 84.6045 121.306 102.578L44.0751 180.579C103.165 173.666 162.475 168.178 221.886 164.664Z" stroke="#2DCF78" stroke-width="2.0719" stroke-miterlimit="10" stroke-linecap="round"/>
<path d="M221.886 164.665C239.494 163.605 257.222 162.363 274.893 161.79C274.483 152.682 273.83 143.423 272.905 134.469C269.934 117.205 266.386 99.9138 262.929 82.5611C239.983 73.2416 214.801 70.8848 190.524 75.7846C166.247 80.6845 143.95 92.624 126.415 110.114L58.1279 179.082C112.605 172.799 167.181 167.882 221.886 164.665Z" stroke="#2DCF78" stroke-width="2.0719" stroke-miterlimit="10" stroke-linecap="round"/>
<path d="M221.886 164.665C239.494 163.605 257.222 162.363 274.893 161.79C274.483 152.682 273.83 143.423 272.905 134.469C269.934 117.205 266.386 99.9138 262.929 82.5611C239.983 73.2416 214.801 70.8848 190.524 75.7846C166.247 80.6845 143.95 92.624 126.415 110.114L58.1279 179.082C112.605 172.799 167.181 167.882 221.886 164.665Z" stroke="#2DCF78" stroke-width="2.0719" stroke-miterlimit="10" stroke-linecap="round"/>
<path d="M221.886 164.664C239.494 163.605 257.222 162.363 274.893 161.789C274.483 152.681 273.83 143.423 272.905 134.469C270.34 119.45 267.35 104.433 264.361 89.5378C241.863 80.9029 217.347 78.9624 193.771 83.9506C170.195 88.9387 148.566 100.642 131.493 117.649L72.4226 177.401C122.137 171.962 171.978 167.615 221.886 164.664Z" stroke="#2DCF78" stroke-width="2.0719" stroke-miterlimit="10" stroke-linecap="round"/>
<path d="M221.886 164.664C239.494 163.605 257.222 162.363 274.893 161.789C274.483 152.681 273.83 143.423 272.905 134.469C270.34 119.45 267.35 104.433 264.361 89.5378C241.863 80.9029 217.347 78.9624 193.771 83.9506C170.195 88.9387 148.566 100.642 131.493 117.649L72.4226 177.401C122.137 171.962 171.978 167.615 221.886 164.664Z" stroke="#2DCF78" stroke-width="2.0719" stroke-miterlimit="10" stroke-linecap="round"/>
<path d="M221.886 164.664C239.494 163.605 257.222 162.363 274.893 161.79C274.483 152.682 273.83 143.423 272.905 134.469C270.747 121.847 268.255 109.227 265.732 96.5461C243.732 88.5805 219.92 87.0378 197.077 92.0982C174.233 97.1585 153.301 108.613 136.723 125.124L86.5052 175.874C131.546 171.156 176.683 167.318 221.886 164.664Z" stroke="#2DCF78" stroke-width="2.0719" stroke-miterlimit="10" stroke-linecap="round"/>
<path d="M221.886 164.664C239.494 163.605 257.222 162.363 274.893 161.79C274.483 152.682 273.83 143.423 272.905 134.469C270.747 121.847 268.255 109.227 265.732 96.5461C243.732 88.5805 219.92 87.0378 197.077 92.0982C174.233 97.1585 153.301 108.613 136.723 125.124L86.5052 175.874C131.546 171.156 176.683 167.318 221.886 164.664Z" stroke="#2DCF78" stroke-width="2.0719" stroke-miterlimit="10" stroke-linecap="round"/>
<path d="M221.886 164.664C239.493 163.605 257.222 162.363 274.892 161.789C274.483 152.681 273.829 143.423 272.904 134.469C271.153 124.214 269.158 113.929 267.133 103.645C245.64 96.3488 222.536 95.205 200.428 100.343C178.32 105.48 158.087 116.694 142.014 132.72L100.74 174.406C141.047 170.38 181.419 167.052 221.886 164.664Z" stroke="#2DCF78" stroke-width="2.0719" stroke-miterlimit="10" stroke-linecap="round"/>
<path d="M221.886 164.664C239.493 163.605 257.222 162.363 274.892 161.789C274.483 152.681 273.829 143.423 272.904 134.469C271.153 124.214 269.158 113.929 267.133 103.645C245.64 96.3488 222.536 95.205 200.428 100.343C178.32 105.48 158.087 116.694 142.014 132.72L100.74 174.406C141.047 170.38 181.419 167.052 221.886 164.664Z" stroke="#2DCF78" stroke-width="2.0719" stroke-miterlimit="10" stroke-linecap="round"/>
<path d="M221.886 164.665C239.494 163.606 257.222 162.364 274.893 161.79C274.483 152.682 273.83 143.423 272.905 134.47C271.529 126.49 270.032 118.511 268.474 110.502C247.471 103.89 225.059 103.159 203.67 108.388C182.281 113.618 162.735 124.608 147.153 140.166L114.368 173.064C150.245 169.626 186.084 166.827 221.886 164.665Z" stroke="#2DCF78" stroke-width="2.0719" stroke-miterlimit="10" stroke-linecap="round"/>
<path d="M221.886 164.665C239.494 163.606 257.222 162.364 274.893 161.79C274.483 152.682 273.83 143.423 272.905 134.47C271.529 126.49 270.032 118.511 268.474 110.502C247.471 103.89 225.059 103.159 203.67 108.388C182.281 113.618 162.735 124.608 147.153 140.166L114.368 173.064C150.245 169.626 186.084 166.827 221.886 164.665Z" stroke="#2DCF78" stroke-width="2.0719" stroke-miterlimit="10" stroke-linecap="round"/>
<path d="M221.887 164.665C239.494 163.606 257.222 162.364 274.893 161.79C274.483 152.682 273.83 143.423 272.905 134.47C271.966 128.917 270.937 123.365 269.786 117.814C249.315 111.817 227.609 111.427 206.936 116.685C186.263 121.942 167.381 132.654 152.262 147.701L128.452 171.749C159.554 168.882 190.699 166.52 221.887 164.665Z" stroke="#2DCF78" stroke-width="2.0719" stroke-miterlimit="10" stroke-linecap="round"/>
<path d="M221.887 164.665C239.494 163.606 257.222 162.364 274.893 161.79C274.483 152.682 273.83 143.423 272.905 134.47C271.966 128.917 270.937 123.365 269.786 117.814C249.315 111.817 227.609 111.427 206.936 116.685C186.263 121.942 167.381 132.654 152.262 147.701L128.452 171.749C159.554 168.882 190.699 166.52 221.887 164.665Z" stroke="#2DCF78" stroke-width="2.0719" stroke-miterlimit="10" stroke-linecap="round"/>
</g>
</svg>
