<svg width="165" height="113" viewBox="0 0 165 113" fill="none" xmlns="http://www.w3.org/2000/svg">
<mask id="mask0" mask-type="alpha" maskUnits="userSpaceOnUse" x="0" y="0" width="165" height="113">
<path d="M164.5 103C164.5 108.247 160.247 112.5 155 112.5L0.5 112.5L0.50001 0.499986L164.5 0.5L164.5 103Z" fill="#232325" stroke="url(#paint0_linear)"/>
</mask>
<g mask="url(#mask0)">
<path d="M3.75517 188.658C13.4663 187.395 23.1778 186.192 32.8896 185.051C93.072 177.95 153.414 172.306 213.887 168.756C231.494 167.697 249.223 166.455 266.893 165.881C266.484 156.773 265.83 147.514 264.905 138.561C258.651 102.151 249.722 65.2999 244.863 28.3978C218.297 11.1957 186.641 3.61071 155.164 6.90531C123.688 10.1999 94.2886 24.1754 71.8607 46.5055L-65.197 184.809C-42.204 185.849 -19.2398 187.223 3.75517 188.658Z" stroke="#2DCF78" stroke-width="2.0719" stroke-miterlimit="10" stroke-linecap="round"/>
<path d="M3.75517 188.658C13.4663 187.395 23.1778 186.192 32.8896 185.051C93.072 177.95 153.414 172.306 213.887 168.756C231.494 167.697 249.223 166.455 266.893 165.881C266.484 156.773 265.83 147.514 264.905 138.561C258.651 102.151 249.722 65.2999 244.863 28.3978C218.297 11.1957 186.641 3.61071 155.164 6.90531C123.688 10.1999 94.2886 24.1754 71.8607 46.5055L-65.197 184.809C-42.204 185.849 -19.2398 187.223 3.75517 188.658Z" stroke="#2DCF78" stroke-width="2.0719" stroke-miterlimit="10" stroke-linecap="round"/>
<path d="M3.75515 188.658C13.4663 187.395 23.1778 186.192 32.8896 185.051C93.072 177.95 153.414 172.306 213.887 168.756C231.494 167.697 249.223 166.455 266.893 165.881C266.484 156.773 265.83 147.514 264.905 138.561C258.964 104.093 250.714 69.3945 245.713 34.5277C219.475 18.3649 188.559 11.5065 157.947 15.0575C127.336 18.6085 98.8111 32.3621 76.9697 54.1022L-53.1688 185.387C-34.1948 186.346 -15.2202 187.436 3.75515 188.658Z" stroke="#2DCF78" stroke-width="2.0719" stroke-miterlimit="10" stroke-linecap="round"/>
<path d="M3.75515 188.658C13.4663 187.395 23.1778 186.192 32.8896 185.051C93.072 177.95 153.414 172.306 213.887 168.756C231.494 167.697 249.223 166.455 266.893 165.881C266.484 156.773 265.83 147.514 264.905 138.561C258.964 104.093 250.714 69.3945 245.713 34.5277C219.475 18.3649 188.559 11.5065 157.947 15.0575C127.336 18.6085 98.8111 32.3621 76.9697 54.1022L-53.1688 185.387C-34.1948 186.346 -15.2202 187.436 3.75515 188.658Z" stroke="#2DCF78" stroke-width="2.0719" stroke-miterlimit="10" stroke-linecap="round"/>
<path d="M3.75513 188.658C13.4663 187.395 23.1778 186.192 32.8895 185.051C93.072 177.95 153.414 172.306 213.887 168.756C231.494 167.697 249.223 166.455 266.893 165.881C266.484 156.773 265.83 147.514 264.905 138.561C259.308 106.035 251.645 73.3072 246.593 40.4753C220.725 25.3339 190.571 19.1864 160.841 22.993C131.111 26.7995 103.478 40.3458 82.26 61.5159L-41.1707 186.026C-26.2059 186.843 -11.2306 187.72 3.75513 188.658Z" stroke="#2DCF78" stroke-width="2.0719" stroke-miterlimit="10" stroke-linecap="round"/>
<path d="M3.75513 188.658C13.4663 187.395 23.1778 186.192 32.8895 185.051C93.072 177.95 153.414 172.306 213.887 168.756C231.494 167.697 249.223 166.455 266.893 165.881C266.484 156.773 265.83 147.514 264.905 138.561C259.308 106.035 251.645 73.3072 246.593 40.4753C220.725 25.3339 190.571 19.1864 160.841 22.993C131.111 26.7995 103.478 40.3458 82.26 61.5159L-41.1707 186.026C-26.2059 186.843 -11.2306 187.72 3.75513 188.658Z" stroke="#2DCF78" stroke-width="2.0719" stroke-miterlimit="10" stroke-linecap="round"/>
<path d="M3.75513 188.658C13.4663 187.395 23.1778 186.192 32.8895 185.051C93.072 177.95 153.414 172.306 213.887 168.756C231.494 167.697 249.223 166.455 266.893 165.881C266.484 156.773 265.83 147.514 264.905 138.561C259.653 108.22 252.638 77.5841 247.596 46.8777C222.113 32.6507 192.69 27.1074 163.777 31.0861C134.863 35.0649 108.031 48.3492 87.3378 68.9305L-29.2333 186.665L3.75513 188.658Z" stroke="#2DCF78" stroke-width="2.0719" stroke-miterlimit="10" stroke-linecap="round"/>
<path d="M3.75513 188.658C13.4663 187.395 23.1778 186.192 32.8895 185.051C93.072 177.95 153.414 172.306 213.887 168.756C231.494 167.697 249.223 166.455 266.893 165.881C266.484 156.773 265.83 147.514 264.905 138.561C259.653 108.22 252.638 77.5841 247.596 46.8777C222.113 32.6507 192.69 27.1074 163.777 31.0861C134.863 35.0649 108.031 48.3492 87.3378 68.9305L-29.2333 186.665L3.75513 188.658Z" stroke="#2DCF78" stroke-width="2.0719" stroke-miterlimit="10" stroke-linecap="round"/>
<path d="M3.75513 188.658C13.4663 187.395 23.1778 186.192 32.8895 185.051C93.072 177.95 153.414 172.306 213.887 168.756C231.494 167.697 249.223 166.455 266.893 165.881C266.484 156.773 265.83 147.514 264.905 138.561C260.027 110.253 253.6 81.7699 248.66 53.2191C223.584 39.9156 194.91 34.9836 166.83 39.1445C138.75 43.3053 112.738 56.3407 92.5977 76.3443L-17.2654 187.335L3.75513 188.658Z" stroke="#2DCF78" stroke-width="2.0719" stroke-miterlimit="10" stroke-linecap="round"/>
<path d="M3.75513 188.658C13.4663 187.395 23.1778 186.192 32.8895 185.051C93.072 177.95 153.414 172.306 213.887 168.756C231.494 167.697 249.223 166.455 266.893 165.881C266.484 156.773 265.83 147.514 264.905 138.561C260.027 110.253 253.6 81.7699 248.66 53.2191C223.584 39.9156 194.91 34.9836 166.83 39.1445C138.75 43.3053 112.738 56.3407 92.5977 76.3443L-17.2654 187.335L3.75513 188.658Z" stroke="#2DCF78" stroke-width="2.0719" stroke-miterlimit="10" stroke-linecap="round"/>
<path d="M3.75511 188.658C13.4663 187.395 23.1778 186.192 32.8895 185.051C93.072 177.95 153.413 172.306 213.887 168.756C231.494 167.697 249.223 166.455 266.893 165.881C266.484 156.773 265.83 147.514 264.905 138.561C260.403 112.407 254.563 86.1076 249.816 59.6816C225.123 47.2697 197.15 42.9425 169.861 47.3128C142.572 51.6831 117.35 64.5295 97.7679 84.0319L-5.35808 188.035L3.75511 188.658Z" stroke="#2DCF78" stroke-width="2.0719" stroke-miterlimit="10" stroke-linecap="round"/>
<path d="M3.75511 188.658C13.4663 187.395 23.1778 186.192 32.8895 185.051C93.072 177.95 153.413 172.306 213.887 168.756C231.494 167.697 249.223 166.455 266.893 165.881C266.484 156.773 265.83 147.514 264.905 138.561C260.403 112.407 254.563 86.1076 249.816 59.6816C225.123 47.2697 197.15 42.9425 169.861 47.3128C142.572 51.6831 117.35 64.5295 97.7679 84.0319L-5.35808 188.035L3.75511 188.658Z" stroke="#2DCF78" stroke-width="2.0719" stroke-miterlimit="10" stroke-linecap="round"/>
<path d="M32.8892 184.96C93.0716 177.859 153.413 172.215 213.887 168.665C231.494 167.606 249.222 166.364 266.893 165.79C266.483 156.682 265.83 147.423 264.905 138.47C260.777 114.5 255.556 90.4148 251.003 66.2653C226.73 54.6429 199.451 50.8323 172.923 55.3584C146.395 59.8844 121.922 72.5245 102.877 91.5375L7.15369 188.124C15.7422 187.049 24.3004 185.974 32.8892 184.96Z" stroke="#2DCF78" stroke-width="2.0719" stroke-miterlimit="10" stroke-linecap="round"/>
<path d="M32.8892 184.96C93.0716 177.859 153.413 172.215 213.887 168.665C231.494 167.606 249.222 166.364 266.893 165.79C266.483 156.682 265.83 147.423 264.905 138.47C260.777 114.5 255.556 90.4148 251.003 66.2653C226.73 54.6429 199.451 50.8323 172.923 55.3584C146.395 59.8844 121.922 72.5245 102.877 91.5375L7.15369 188.124C15.7422 187.049 24.3004 185.974 32.8892 184.96Z" stroke="#2DCF78" stroke-width="2.0719" stroke-miterlimit="10" stroke-linecap="round"/>
<path d="M32.8889 184.96C93.0713 177.859 153.413 172.214 213.886 168.665C231.494 167.606 249.222 166.364 266.893 165.79C266.483 156.682 265.83 147.423 264.905 138.469C261.153 116.745 256.489 94.9347 252.433 73.0602C228.585 62.1769 201.983 58.8303 176.183 63.4677C150.382 68.1051 126.611 80.5056 108.045 99.0123L21.5993 186.352L32.8889 184.96Z" stroke="#2DCF78" stroke-width="2.0719" stroke-miterlimit="10" stroke-linecap="round"/>
<path d="M32.8889 184.96C93.0713 177.859 153.413 172.214 213.886 168.665C231.494 167.606 249.222 166.364 266.893 165.79C266.483 156.682 265.83 147.423 264.905 138.469C261.153 116.745 256.489 94.9347 252.433 73.0602C228.585 62.1769 201.983 58.8303 176.183 63.4677C150.382 68.1051 126.611 80.5056 108.045 99.0123L21.5993 186.352L32.8889 184.96Z" stroke="#2DCF78" stroke-width="2.0719" stroke-miterlimit="10" stroke-linecap="round"/>
<path d="M213.886 168.664C231.493 167.605 249.222 166.363 266.892 165.79C266.483 156.682 265.829 147.423 264.904 138.469C261.558 118.869 257.452 99.3328 253.62 79.7044C230.221 69.6665 204.353 66.8617 179.347 71.651C154.34 76.4403 131.34 88.6045 113.306 106.578L36.0751 184.579C95.1653 177.666 154.475 172.178 213.886 168.664Z" stroke="#2DCF78" stroke-width="2.0719" stroke-miterlimit="10" stroke-linecap="round"/>
<path d="M213.886 168.664C231.493 167.605 249.222 166.363 266.892 165.79C266.483 156.682 265.829 147.423 264.904 138.469C261.558 118.869 257.452 99.3328 253.62 79.7044C230.221 69.6665 204.353 66.8617 179.347 71.651C154.34 76.4403 131.34 88.6045 113.306 106.578L36.0751 184.579C95.1653 177.666 154.475 172.178 213.886 168.664Z" stroke="#2DCF78" stroke-width="2.0719" stroke-miterlimit="10" stroke-linecap="round"/>
<path d="M213.886 168.665C231.494 167.605 249.222 166.363 266.893 165.79C266.483 156.682 265.83 147.423 264.905 138.469C261.934 121.205 258.386 103.914 254.929 86.561C231.983 77.2416 206.801 74.8848 182.524 79.7846C158.247 84.6844 135.95 96.624 118.415 114.114L50.1279 183.082C104.605 176.799 159.181 171.882 213.886 168.665Z" stroke="#2DCF78" stroke-width="2.0719" stroke-miterlimit="10" stroke-linecap="round"/>
<path d="M213.886 168.665C231.494 167.605 249.222 166.363 266.893 165.79C266.483 156.682 265.83 147.423 264.905 138.469C261.934 121.205 258.386 103.914 254.929 86.561C231.983 77.2416 206.801 74.8848 182.524 79.7846C158.247 84.6844 135.95 96.624 118.415 114.114L50.1279 183.082C104.605 176.799 159.181 171.882 213.886 168.665Z" stroke="#2DCF78" stroke-width="2.0719" stroke-miterlimit="10" stroke-linecap="round"/>
<path d="M213.886 168.664C231.494 167.605 249.222 166.363 266.893 165.789C266.483 156.681 265.83 147.422 264.905 138.469C262.34 123.45 259.35 108.433 256.361 93.5378C233.863 84.9028 209.347 82.9624 185.771 87.9506C162.195 92.9387 140.566 104.642 123.493 121.649L64.4226 181.401C114.137 175.962 163.978 171.615 213.886 168.664Z" stroke="#2DCF78" stroke-width="2.0719" stroke-miterlimit="10" stroke-linecap="round"/>
<path d="M213.886 168.664C231.494 167.605 249.222 166.363 266.893 165.789C266.483 156.681 265.83 147.422 264.905 138.469C262.34 123.45 259.35 108.433 256.361 93.5378C233.863 84.9028 209.347 82.9624 185.771 87.9506C162.195 92.9387 140.566 104.642 123.493 121.649L64.4226 181.401C114.137 175.962 163.978 171.615 213.886 168.664Z" stroke="#2DCF78" stroke-width="2.0719" stroke-miterlimit="10" stroke-linecap="round"/>
<path d="M213.886 168.664C231.494 167.605 249.222 166.363 266.893 165.79C266.483 156.682 265.83 147.423 264.905 138.469C262.747 125.847 260.255 113.227 257.732 100.546C235.732 92.5805 211.92 91.0378 189.077 96.0981C166.233 101.159 145.301 112.613 128.723 129.124L78.5052 179.874C123.546 175.156 168.683 171.318 213.886 168.664Z" stroke="#2DCF78" stroke-width="2.0719" stroke-miterlimit="10" stroke-linecap="round"/>
<path d="M213.886 168.664C231.494 167.605 249.222 166.363 266.893 165.79C266.483 156.682 265.83 147.423 264.905 138.469C262.747 125.847 260.255 113.227 257.732 100.546C235.732 92.5805 211.92 91.0378 189.077 96.0981C166.233 101.159 145.301 112.613 128.723 129.124L78.5052 179.874C123.546 175.156 168.683 171.318 213.886 168.664Z" stroke="#2DCF78" stroke-width="2.0719" stroke-miterlimit="10" stroke-linecap="round"/>
<path d="M213.886 168.664C231.493 167.605 249.222 166.363 266.892 165.789C266.483 156.681 265.829 147.423 264.904 138.469C263.153 128.214 261.158 117.929 259.133 107.645C237.64 100.349 214.536 99.205 192.428 104.343C170.32 109.48 150.087 120.694 134.014 136.72L92.7396 178.406C133.047 174.38 173.419 171.052 213.886 168.664Z" stroke="#2DCF78" stroke-width="2.0719" stroke-miterlimit="10" stroke-linecap="round"/>
<path d="M213.886 168.664C231.493 167.605 249.222 166.363 266.892 165.789C266.483 156.681 265.829 147.423 264.904 138.469C263.153 128.214 261.158 117.929 259.133 107.645C237.64 100.349 214.536 99.205 192.428 104.343C170.32 109.48 150.087 120.694 134.014 136.72L92.7396 178.406C133.047 174.38 173.419 171.052 213.886 168.664Z" stroke="#2DCF78" stroke-width="2.0719" stroke-miterlimit="10" stroke-linecap="round"/>
<path d="M213.886 168.665C231.494 167.606 249.222 166.364 266.893 165.79C266.483 156.682 265.83 147.423 264.905 138.47C263.529 130.49 262.032 122.511 260.474 114.502C239.471 107.89 217.059 107.159 195.67 112.388C174.281 117.618 154.735 128.608 139.153 144.166L106.368 177.064C142.245 173.626 178.084 170.827 213.886 168.665Z" stroke="#2DCF78" stroke-width="2.0719" stroke-miterlimit="10" stroke-linecap="round"/>
<path d="M213.886 168.665C231.494 167.606 249.222 166.364 266.893 165.79C266.483 156.682 265.83 147.423 264.905 138.47C263.529 130.49 262.032 122.511 260.474 114.502C239.471 107.89 217.059 107.159 195.67 112.388C174.281 117.618 154.735 128.608 139.153 144.166L106.368 177.064C142.245 173.626 178.084 170.827 213.886 168.665Z" stroke="#2DCF78" stroke-width="2.0719" stroke-miterlimit="10" stroke-linecap="round"/>
</g>
<defs>
<linearGradient id="paint0_linear" x1="165.533" y1="56.4866" x2="-0.535632" y2="56.4866" gradientUnits="userSpaceOnUse">
<stop stop-color="#B480FF"/>
<stop offset="0.604167" stop-color="#5F00E6"/>
<stop offset="0.859375" stop-color="#1AA4FF" stop-opacity="0.49"/>
<stop offset="1" stop-color="#28B86A" stop-opacity="0.27"/>
</linearGradient>
</defs>
</svg>
