<svg width="165" height="113" viewBox="0 0 165 113" fill="none" xmlns="http://www.w3.org/2000/svg">
<mask id="mask0" mask-type="alpha" maskUnits="userSpaceOnUse" x="0" y="0" width="165" height="113">
<path d="M0.5 10C0.5 4.75329 4.75329 0.5 10 0.5L164.5 0.5V112.5L0.5 112.5L0.5 10Z" fill="#232325" stroke="#9A52FF"/>
</mask>
<g mask="url(#mask0)">
<path d="M153.245 -83.6576C143.534 -82.3947 133.822 -81.1925 124.11 -80.051C63.928 -72.9499 3.58648 -67.3056 -56.8869 -63.756C-74.4945 -62.6968 -92.2226 -61.4548 -109.893 -60.8812C-109.484 -51.7731 -108.83 -42.5144 -107.905 -33.5608C-101.651 2.84855 -92.7223 39.7001 -87.8625 76.6022C-61.2969 93.8043 -29.6412 101.389 1.83559 98.0947C33.3124 94.8001 62.7114 80.8246 85.1393 58.4945L222.197 -79.8094C199.204 -80.8491 176.24 -82.2231 153.245 -83.6576Z" stroke="#9A52FF" stroke-width="2.0719" stroke-miterlimit="10" stroke-linecap="round"/>
<path d="M153.245 -83.6576C143.534 -82.3947 133.822 -81.1925 124.11 -80.051C63.928 -72.9499 3.58648 -67.3056 -56.8869 -63.756C-74.4945 -62.6968 -92.2226 -61.4548 -109.893 -60.8812C-109.484 -51.7731 -108.83 -42.5144 -107.905 -33.5608C-101.651 2.84855 -92.7223 39.7001 -87.8625 76.6022C-61.2969 93.8043 -29.6412 101.389 1.83559 98.0947C33.3124 94.8001 62.7114 80.8246 85.1393 58.4945L222.197 -79.8094C199.204 -80.8491 176.24 -82.2231 153.245 -83.6576Z" stroke="#9A52FF" stroke-width="2.0719" stroke-miterlimit="10" stroke-linecap="round"/>
<path d="M153.245 -83.6576C143.534 -82.3947 133.822 -81.1925 124.11 -80.051C63.928 -72.9499 3.58649 -67.3056 -56.8869 -63.756C-74.4945 -62.6968 -92.2226 -61.4548 -109.893 -60.8812C-109.484 -51.7731 -108.83 -42.5144 -107.905 -33.5608C-101.964 0.906612 -93.7144 35.6055 -88.7129 70.4723C-62.4747 86.6351 -31.559 93.4935 -0.947376 89.9425C29.6642 86.3915 58.1889 72.6379 80.0303 50.8978L210.169 -80.3874C191.195 -81.3458 172.22 -82.4359 153.245 -83.6576Z" stroke="#9A52FF" stroke-width="2.0719" stroke-miterlimit="10" stroke-linecap="round"/>
<path d="M153.245 -83.6576C143.534 -82.3947 133.822 -81.1925 124.11 -80.051C63.928 -72.9499 3.58649 -67.3056 -56.8869 -63.756C-74.4945 -62.6968 -92.2226 -61.4548 -109.893 -60.8812C-109.484 -51.7731 -108.83 -42.5144 -107.905 -33.5608C-101.964 0.906612 -93.7144 35.6055 -88.7129 70.4723C-62.4747 86.6351 -31.559 93.4935 -0.947376 89.9425C29.6642 86.3915 58.1889 72.6379 80.0303 50.8978L210.169 -80.3874C191.195 -81.3458 172.22 -82.4359 153.245 -83.6576Z" stroke="#9A52FF" stroke-width="2.0719" stroke-miterlimit="10" stroke-linecap="round"/>
<path d="M153.245 -83.6576C143.534 -82.3947 133.822 -81.1925 124.11 -80.051C63.928 -72.9499 3.5865 -67.3056 -56.8869 -63.756C-74.4945 -62.6968 -92.2226 -61.4548 -109.893 -60.8812C-109.484 -51.7731 -108.83 -42.5144 -107.905 -33.5608C-102.308 -1.03516 -94.6449 31.6928 -89.5927 64.5247C-63.7253 79.6661 -33.5713 85.8136 -3.841 82.007C25.8893 78.2004 53.5218 64.6541 74.74 43.4841L198.171 -81.0262C183.206 -81.8426 168.231 -82.7198 153.245 -83.6576Z" stroke="#9A52FF" stroke-width="2.0719" stroke-miterlimit="10" stroke-linecap="round"/>
<path d="M153.245 -83.6576C143.534 -82.3947 133.822 -81.1925 124.11 -80.051C63.928 -72.9499 3.5865 -67.3056 -56.8869 -63.756C-74.4945 -62.6968 -92.2226 -61.4548 -109.893 -60.8812C-109.484 -51.7731 -108.83 -42.5144 -107.905 -33.5608C-102.308 -1.03516 -94.6449 31.6928 -89.5927 64.5247C-63.7253 79.6661 -33.5713 85.8136 -3.841 82.007C25.8893 78.2004 53.5218 64.6541 74.74 43.4841L198.171 -81.0262C183.206 -81.8426 168.231 -82.7198 153.245 -83.6576Z" stroke="#9A52FF" stroke-width="2.0719" stroke-miterlimit="10" stroke-linecap="round"/>
<path d="M153.245 -83.6576C143.534 -82.3947 133.822 -81.1925 124.11 -80.051C63.928 -72.9499 3.5865 -67.3056 -56.8869 -63.756C-74.4945 -62.6968 -92.2226 -61.4548 -109.893 -60.8812C-109.484 -51.7731 -108.83 -42.5144 -107.905 -33.5608C-102.653 -3.21987 -95.6378 27.4159 -90.5962 58.1223C-65.1128 72.3493 -35.69 77.8926 -6.77663 73.9138C22.1368 69.9351 48.9687 56.6508 69.6623 36.0694L186.233 -81.6654L153.245 -83.6576Z" stroke="#9A52FF" stroke-width="2.0719" stroke-miterlimit="10" stroke-linecap="round"/>
<path d="M153.245 -83.6576C143.534 -82.3947 133.822 -81.1925 124.11 -80.051C63.928 -72.9499 3.5865 -67.3056 -56.8869 -63.756C-74.4945 -62.6968 -92.2226 -61.4548 -109.893 -60.8812C-109.484 -51.7731 -108.83 -42.5144 -107.905 -33.5608C-102.653 -3.21987 -95.6378 27.4159 -90.5962 58.1223C-65.1128 72.3493 -35.69 77.8926 -6.77663 73.9138C22.1368 69.9351 48.9687 56.6508 69.6623 36.0694L186.233 -81.6654L153.245 -83.6576Z" stroke="#9A52FF" stroke-width="2.0719" stroke-miterlimit="10" stroke-linecap="round"/>
<path d="M153.245 -83.6576C143.534 -82.3947 133.822 -81.1925 124.11 -80.051C63.928 -72.9499 3.5865 -67.3056 -56.8869 -63.756C-74.4945 -62.6968 -92.2226 -61.4548 -109.893 -60.8812C-109.484 -51.7731 -108.83 -42.5144 -107.905 -33.5608C-103.027 -5.2526 -96.6 23.2301 -91.6602 51.7809C-66.5843 65.0844 -37.9098 70.0164 -9.83005 65.8555C18.2497 61.6947 44.2618 48.6593 64.4023 28.6556L174.265 -82.3347L153.245 -83.6576Z" stroke="#9A52FF" stroke-width="2.0719" stroke-miterlimit="10" stroke-linecap="round"/>
<path d="M153.245 -83.6576C143.534 -82.3947 133.822 -81.1925 124.11 -80.051C63.928 -72.9499 3.5865 -67.3056 -56.8869 -63.756C-74.4945 -62.6968 -92.2226 -61.4548 -109.893 -60.8812C-109.484 -51.7731 -108.83 -42.5144 -107.905 -33.5608C-103.027 -5.2526 -96.6 23.2301 -91.6602 51.7809C-66.5843 65.0844 -37.9098 70.0164 -9.83005 65.8555C18.2497 61.6947 44.2618 48.6593 64.4023 28.6556L174.265 -82.3347L153.245 -83.6576Z" stroke="#9A52FF" stroke-width="2.0719" stroke-miterlimit="10" stroke-linecap="round"/>
<path d="M153.245 -83.6576C143.534 -82.3947 133.822 -81.1925 124.11 -80.051C63.928 -72.9499 3.5865 -67.3056 -56.8869 -63.756C-74.4945 -62.6968 -92.2226 -61.4548 -109.893 -60.8812C-109.484 -51.7731 -108.83 -42.5144 -107.905 -33.5608C-103.403 -7.4068 -97.5629 18.8924 -92.8159 45.3184C-68.1229 57.7303 -40.1504 62.0575 -12.8612 57.6872C14.428 53.3169 39.6501 40.4705 59.2321 20.9681L162.358 -83.0348L153.245 -83.6576Z" stroke="#9A52FF" stroke-width="2.0719" stroke-miterlimit="10" stroke-linecap="round"/>
<path d="M153.245 -83.6576C143.534 -82.3947 133.822 -81.1925 124.11 -80.051C63.928 -72.9499 3.5865 -67.3056 -56.8869 -63.756C-74.4945 -62.6968 -92.2226 -61.4548 -109.893 -60.8812C-109.484 -51.7731 -108.83 -42.5144 -107.905 -33.5608C-103.403 -7.4068 -97.5629 18.8924 -92.8159 45.3184C-68.1229 57.7303 -40.1504 62.0575 -12.8612 57.6872C14.428 53.3169 39.6501 40.4705 59.2321 20.9681L162.358 -83.0348L153.245 -83.6576Z" stroke="#9A52FF" stroke-width="2.0719" stroke-miterlimit="10" stroke-linecap="round"/>
<path d="M124.111 -79.9599C63.9284 -72.8588 3.58683 -67.2145 -56.8866 -63.6649C-74.4942 -62.6057 -92.2223 -61.3637 -109.893 -60.7901C-109.483 -51.682 -108.83 -42.4233 -107.905 -33.4697C-103.777 -9.50024 -98.5562 14.5852 -94.0027 38.7347C-69.7302 50.3571 -42.4511 54.1677 -15.9229 49.6416C10.6054 45.1156 35.0777 32.4755 54.1234 13.4625L149.846 -83.1244C141.258 -82.0493 132.7 -80.9743 124.111 -79.9599Z" stroke="#9A52FF" stroke-width="2.0719" stroke-miterlimit="10" stroke-linecap="round"/>
<path d="M124.111 -79.9599C63.9284 -72.8588 3.58683 -67.2145 -56.8866 -63.6649C-74.4942 -62.6057 -92.2223 -61.3637 -109.893 -60.7901C-109.483 -51.682 -108.83 -42.4233 -107.905 -33.4697C-103.777 -9.50024 -98.5562 14.5852 -94.0027 38.7347C-69.7302 50.3571 -42.4511 54.1677 -15.9229 49.6416C10.6054 45.1156 35.0777 32.4755 54.1234 13.4625L149.846 -83.1244C141.258 -82.0493 132.7 -80.9743 124.111 -79.9599Z" stroke="#9A52FF" stroke-width="2.0719" stroke-miterlimit="10" stroke-linecap="round"/>
<path d="M124.111 -79.9597C63.9287 -72.8586 3.58716 -67.2143 -56.8862 -63.6647C-74.4938 -62.6055 -92.222 -61.3635 -109.893 -60.7899C-109.483 -51.6818 -108.83 -42.4231 -107.905 -33.4695C-104.153 -11.7454 -99.4893 10.0653 -95.433 31.9398C-71.5848 42.8231 -44.9834 46.1696 -19.1827 41.5323C6.61792 36.8949 30.389 24.4944 48.9546 5.98769L135.401 -81.352L124.111 -79.9597Z" stroke="#9A52FF" stroke-width="2.0719" stroke-miterlimit="10" stroke-linecap="round"/>
<path d="M124.111 -79.9597C63.9287 -72.8586 3.58716 -67.2143 -56.8862 -63.6647C-74.4938 -62.6055 -92.222 -61.3635 -109.893 -60.7899C-109.483 -51.6818 -108.83 -42.4231 -107.905 -33.4695C-104.153 -11.7454 -99.4893 10.0653 -95.433 31.9398C-71.5848 42.8231 -44.9834 46.1696 -19.1827 41.5323C6.61792 36.8949 30.389 24.4944 48.9546 5.98769L135.401 -81.352L124.111 -79.9597Z" stroke="#9A52FF" stroke-width="2.0719" stroke-miterlimit="10" stroke-linecap="round"/>
<path d="M-56.8859 -63.6644C-74.4935 -62.6052 -92.2216 -61.3632 -109.892 -60.7896C-109.483 -51.6815 -108.829 -42.4228 -107.904 -33.4692C-104.558 -13.8687 -100.452 5.66721 -96.6196 25.2956C-73.2208 35.3335 -47.3533 38.1383 -22.3468 33.349C2.65962 28.5597 25.6603 16.3955 43.6943 -1.57763L120.925 -79.5792C61.8347 -72.6657 2.52485 -67.1784 -56.8859 -63.6644Z" stroke="#9A52FF" stroke-width="2.0719" stroke-miterlimit="10" stroke-linecap="round"/>
<path d="M-56.8859 -63.6644C-74.4935 -62.6052 -92.2216 -61.3632 -109.892 -60.7896C-109.483 -51.6815 -108.829 -42.4228 -107.904 -33.4692C-104.558 -13.8687 -100.452 5.66721 -96.6196 25.2956C-73.2208 35.3335 -47.3533 38.1383 -22.3468 33.349C2.65962 28.5597 25.6603 16.3955 43.6943 -1.57763L120.925 -79.5792C61.8347 -72.6657 2.52485 -67.1784 -56.8859 -63.6644Z" stroke="#9A52FF" stroke-width="2.0719" stroke-miterlimit="10" stroke-linecap="round"/>
<path d="M-56.8861 -63.6646C-74.4937 -62.6054 -92.2219 -61.3634 -109.893 -60.7898C-109.483 -51.6817 -108.83 -42.4231 -107.905 -33.4694C-104.934 -16.2053 -101.386 1.08622 -97.9293 18.439C-74.9831 27.7584 -49.8008 30.1152 -25.5238 25.2154C-1.24684 20.3156 21.05 8.37599 38.5853 -9.11385L106.872 -78.0824C52.3946 -71.7992 -2.18082 -66.8819 -56.8861 -63.6646Z" stroke="#9A52FF" stroke-width="2.0719" stroke-miterlimit="10" stroke-linecap="round"/>
<path d="M-56.8861 -63.6646C-74.4937 -62.6054 -92.2219 -61.3634 -109.893 -60.7898C-109.483 -51.6817 -108.83 -42.4231 -107.905 -33.4694C-104.934 -16.2053 -101.386 1.08622 -97.9293 18.439C-74.9831 27.7584 -49.8008 30.1152 -25.5238 25.2154C-1.24684 20.3156 21.05 8.37599 38.5853 -9.11385L106.872 -78.0824C52.3946 -71.7992 -2.18082 -66.8819 -56.8861 -63.6646Z" stroke="#9A52FF" stroke-width="2.0719" stroke-miterlimit="10" stroke-linecap="round"/>
<path d="M-56.8863 -63.6641C-74.4939 -62.6049 -92.2221 -61.3629 -109.893 -60.7892C-109.483 -51.6812 -108.83 -42.4225 -107.905 -33.4688C-105.34 -18.4499 -102.35 -3.4331 -99.361 11.4622C-76.8631 20.0972 -52.3473 22.0376 -28.7711 17.0494C-5.19498 12.0613 16.4341 0.357667 33.5068 -16.6494L92.5774 -76.4014C42.8633 -70.9617 -6.97766 -66.6146 -56.8863 -63.6641Z" stroke="#9A52FF" stroke-width="2.0719" stroke-miterlimit="10" stroke-linecap="round"/>
<path d="M-56.8863 -63.6641C-74.4939 -62.6049 -92.2221 -61.3629 -109.893 -60.7892C-109.483 -51.6812 -108.83 -42.4225 -107.905 -33.4688C-105.34 -18.4499 -102.35 -3.4331 -99.361 11.4622C-76.8631 20.0972 -52.3473 22.0376 -28.7711 17.0494C-5.19498 12.0613 16.4341 0.357667 33.5068 -16.6494L92.5774 -76.4014C42.8633 -70.9617 -6.97766 -66.6146 -56.8863 -63.6641Z" stroke="#9A52FF" stroke-width="2.0719" stroke-miterlimit="10" stroke-linecap="round"/>
<path d="M-56.8862 -63.6645C-74.4938 -62.6053 -92.222 -61.3633 -109.893 -60.7897C-109.483 -51.6816 -108.83 -42.4229 -107.905 -33.4692C-105.747 -20.8473 -103.255 -8.22701 -100.732 4.45386C-78.7322 12.4195 -54.9203 13.9622 -32.0767 8.90179C-9.23315 3.84142 11.6995 -7.61318 28.277 -24.1245L78.4948 -74.8742C33.4537 -70.1562 -11.683 -66.3184 -56.8862 -63.6645Z" stroke="#9A52FF" stroke-width="2.0719" stroke-miterlimit="10" stroke-linecap="round"/>
<path d="M-56.8862 -63.6645C-74.4938 -62.6053 -92.222 -61.3633 -109.893 -60.7897C-109.483 -51.6816 -108.83 -42.4229 -107.905 -33.4692C-105.747 -20.8473 -103.255 -8.22701 -100.732 4.45386C-78.7322 12.4195 -54.9203 13.9622 -32.0767 8.90179C-9.23315 3.84142 11.6995 -7.61318 28.277 -24.1245L78.4948 -74.8742C33.4537 -70.1562 -11.683 -66.3184 -56.8862 -63.6645Z" stroke="#9A52FF" stroke-width="2.0719" stroke-miterlimit="10" stroke-linecap="round"/>
<path d="M-56.8859 -63.6642C-74.4934 -62.605 -92.2216 -61.363 -109.892 -60.7894C-109.483 -51.6813 -108.829 -42.4227 -107.904 -33.469C-106.153 -23.2137 -104.158 -12.9292 -102.133 -2.64481C-80.6404 4.65124 -57.5362 5.79503 -35.4279 0.657482C-13.3196 -4.48006 6.91283 -15.6944 22.9861 -31.7201L64.2604 -73.4064C23.953 -69.38 -16.4185 -66.0517 -56.8859 -63.6642Z" stroke="#9A52FF" stroke-width="2.0719" stroke-miterlimit="10" stroke-linecap="round"/>
<path d="M-56.8859 -63.6642C-74.4934 -62.605 -92.2216 -61.363 -109.892 -60.7894C-109.483 -51.6813 -108.829 -42.4227 -107.904 -33.469C-106.153 -23.2137 -104.158 -12.9292 -102.133 -2.64481C-80.6404 4.65124 -57.5362 5.79503 -35.4279 0.657482C-13.3196 -4.48006 6.91283 -15.6944 22.9861 -31.7201L64.2604 -73.4064C23.953 -69.38 -16.4185 -66.0517 -56.8859 -63.6642Z" stroke="#9A52FF" stroke-width="2.0719" stroke-miterlimit="10" stroke-linecap="round"/>
</g>
</svg>
