<svg width="181" height="117" viewBox="0 0 181 117" fill="none" xmlns="http://www.w3.org/2000/svg">
<mask id="mask0" mask-type="alpha" maskUnits="userSpaceOnUse" x="0" y="0" width="181" height="117">
<path d="M0.5 10C0.5 4.75329 4.75329 0.5 10 0.5L180.5 0.5L180.5 116.5L0.5 116.5L0.5 10Z" fill="#232325" stroke="#9A52FF"/>
</mask>
<g mask="url(#mask0)">
<path d="M169.245 -67.6576C159.534 -66.3947 149.822 -65.1925 140.11 -64.051C79.928 -56.9499 19.5865 -51.3056 -40.8869 -47.756C-58.4945 -46.6968 -76.2226 -45.4548 -93.8934 -44.8812C-93.4837 -35.7731 -92.8304 -26.5144 -91.9053 -17.5608C-85.6511 18.8486 -76.7223 55.7001 -71.8625 92.6022C-45.2969 109.804 -13.6412 117.389 17.8356 114.095C49.3124 110.8 78.7114 96.8246 101.139 74.4945L238.197 -63.8094C215.204 -64.8491 192.24 -66.2231 169.245 -67.6576Z" stroke="#FF6719" stroke-width="2.0719" stroke-miterlimit="10" stroke-linecap="round"/>
<path d="M169.245 -67.6576C159.534 -66.3947 149.822 -65.1925 140.11 -64.051C79.928 -56.9499 19.5865 -51.3056 -40.8869 -47.756C-58.4945 -46.6968 -76.2226 -45.4548 -93.8934 -44.8812C-93.4837 -35.7731 -92.8304 -26.5144 -91.9053 -17.5608C-85.6511 18.8486 -76.7223 55.7001 -71.8625 92.6022C-45.2969 109.804 -13.6412 117.389 17.8356 114.095C49.3124 110.8 78.7114 96.8246 101.139 74.4945L238.197 -63.8094C215.204 -64.8491 192.24 -66.2231 169.245 -67.6576Z" stroke="#FF6719" stroke-width="2.0719" stroke-miterlimit="10" stroke-linecap="round"/>
<path d="M169.245 -67.6576C159.534 -66.3947 149.822 -65.1925 140.11 -64.051C79.928 -56.9499 19.5865 -51.3056 -40.8869 -47.756C-58.4945 -46.6968 -76.2226 -45.4548 -93.8934 -44.8812C-93.4837 -35.7731 -92.8304 -26.5144 -91.9053 -17.5608C-85.9644 16.9066 -77.7144 51.6055 -72.7129 86.4723C-46.4747 102.635 -15.559 109.494 15.0526 105.943C45.6642 102.392 74.1889 88.6379 96.0303 66.8978L226.169 -64.3874C207.195 -65.3458 188.22 -66.4359 169.245 -67.6576Z" stroke="#FF6719" stroke-width="2.0719" stroke-miterlimit="10" stroke-linecap="round"/>
<path d="M169.245 -67.6576C159.534 -66.3947 149.822 -65.1925 140.11 -64.051C79.928 -56.9499 19.5865 -51.3056 -40.8869 -47.756C-58.4945 -46.6968 -76.2226 -45.4548 -93.8934 -44.8812C-93.4837 -35.7731 -92.8304 -26.5144 -91.9053 -17.5608C-85.9644 16.9066 -77.7144 51.6055 -72.7129 86.4723C-46.4747 102.635 -15.559 109.494 15.0526 105.943C45.6642 102.392 74.1889 88.6379 96.0303 66.8978L226.169 -64.3874C207.195 -65.3458 188.22 -66.4359 169.245 -67.6576Z" stroke="#FF6719" stroke-width="2.0719" stroke-miterlimit="10" stroke-linecap="round"/>
<path d="M169.245 -67.6576C159.534 -66.3947 149.822 -65.1925 140.11 -64.051C79.928 -56.9499 19.5865 -51.3056 -40.8869 -47.756C-58.4945 -46.6968 -76.2226 -45.4548 -93.8934 -44.8812C-93.4837 -35.7731 -92.8304 -26.5144 -91.9053 -17.5608C-86.3081 14.9648 -78.6449 47.6928 -73.5927 80.5247C-47.7253 95.6661 -17.5713 101.814 12.159 98.007C41.8893 94.2004 69.5218 80.6541 90.74 59.4841L214.171 -65.0262C199.206 -65.8426 184.231 -66.7198 169.245 -67.6576Z" stroke="#FF6719" stroke-width="2.0719" stroke-miterlimit="10" stroke-linecap="round"/>
<path d="M169.245 -67.6576C159.534 -66.3947 149.822 -65.1925 140.11 -64.051C79.928 -56.9499 19.5865 -51.3056 -40.8869 -47.756C-58.4945 -46.6968 -76.2226 -45.4548 -93.8934 -44.8812C-93.4837 -35.7731 -92.8304 -26.5144 -91.9053 -17.5608C-86.3081 14.9648 -78.6449 47.6928 -73.5927 80.5247C-47.7253 95.6661 -17.5713 101.814 12.159 98.007C41.8893 94.2004 69.5218 80.6541 90.74 59.4841L214.171 -65.0262C199.206 -65.8426 184.231 -66.7198 169.245 -67.6576Z" stroke="#FF6719" stroke-width="2.0719" stroke-miterlimit="10" stroke-linecap="round"/>
<path d="M169.245 -67.6576C159.534 -66.3947 149.822 -65.1925 140.11 -64.051C79.928 -56.9499 19.5865 -51.3056 -40.8869 -47.756C-58.4945 -46.6968 -76.2226 -45.4548 -93.8934 -44.8812C-93.4837 -35.7731 -92.8304 -26.5144 -91.9053 -17.5608C-86.6529 12.7801 -79.6378 43.4159 -74.5962 74.1223C-49.1128 88.3493 -19.69 93.8926 9.22337 89.9138C38.1368 85.9351 64.9687 72.6508 85.6623 52.0694L202.233 -65.6654L169.245 -67.6576Z" stroke="#FF6719" stroke-width="2.0719" stroke-miterlimit="10" stroke-linecap="round"/>
<path d="M169.245 -67.6576C159.534 -66.3947 149.822 -65.1925 140.11 -64.051C79.928 -56.9499 19.5865 -51.3056 -40.8869 -47.756C-58.4945 -46.6968 -76.2226 -45.4548 -93.8934 -44.8812C-93.4837 -35.7731 -92.8304 -26.5144 -91.9053 -17.5608C-86.6529 12.7801 -79.6378 43.4159 -74.5962 74.1223C-49.1128 88.3493 -19.69 93.8926 9.22337 89.9138C38.1368 85.9351 64.9687 72.6508 85.6623 52.0694L202.233 -65.6654L169.245 -67.6576Z" stroke="#FF6719" stroke-width="2.0719" stroke-miterlimit="10" stroke-linecap="round"/>
<path d="M169.245 -67.6576C159.534 -66.3947 149.822 -65.1925 140.11 -64.051C79.928 -56.9499 19.5865 -51.3056 -40.8869 -47.756C-58.4945 -46.6968 -76.2226 -45.4548 -93.8934 -44.8812C-93.4837 -35.7731 -92.8304 -26.5144 -91.9053 -17.5608C-87.0274 10.7474 -80.6 39.2301 -75.6602 67.7809C-50.5843 81.0844 -21.9098 86.0164 6.16995 81.8555C34.2497 77.6947 60.2618 64.6593 80.4023 44.6556L190.265 -66.3347L169.245 -67.6576Z" stroke="#FF6719" stroke-width="2.0719" stroke-miterlimit="10" stroke-linecap="round"/>
<path d="M169.245 -67.6576C159.534 -66.3947 149.822 -65.1925 140.11 -64.051C79.928 -56.9499 19.5865 -51.3056 -40.8869 -47.756C-58.4945 -46.6968 -76.2226 -45.4548 -93.8934 -44.8812C-93.4837 -35.7731 -92.8304 -26.5144 -91.9053 -17.5608C-87.0274 10.7474 -80.6 39.2301 -75.6602 67.7809C-50.5843 81.0844 -21.9098 86.0164 6.16995 81.8555C34.2497 77.6947 60.2618 64.6593 80.4023 44.6556L190.265 -66.3347L169.245 -67.6576Z" stroke="#FF6719" stroke-width="2.0719" stroke-miterlimit="10" stroke-linecap="round"/>
<path d="M169.245 -67.6576C159.534 -66.3947 149.822 -65.1925 140.11 -64.051C79.928 -56.9499 19.5865 -51.3056 -40.8869 -47.756C-58.4945 -46.6968 -76.2226 -45.4548 -93.8934 -44.8812C-93.4837 -35.7731 -92.8304 -26.5144 -91.9053 -17.5608C-87.4025 8.5932 -81.5629 34.8924 -76.8159 61.3184C-52.1229 73.7303 -24.1504 78.0575 3.1388 73.6872C30.428 69.3169 55.6501 56.4705 75.2321 36.9681L178.358 -67.0348L169.245 -67.6576Z" stroke="#FF6719" stroke-width="2.0719" stroke-miterlimit="10" stroke-linecap="round"/>
<path d="M169.245 -67.6576C159.534 -66.3947 149.822 -65.1925 140.11 -64.051C79.928 -56.9499 19.5865 -51.3056 -40.8869 -47.756C-58.4945 -46.6968 -76.2226 -45.4548 -93.8934 -44.8812C-93.4837 -35.7731 -92.8304 -26.5144 -91.9053 -17.5608C-87.4025 8.5932 -81.5629 34.8924 -76.8159 61.3184C-52.1229 73.7303 -24.1504 78.0575 3.1388 73.6872C30.428 69.3169 55.6501 56.4705 75.2321 36.9681L178.358 -67.0348L169.245 -67.6576Z" stroke="#FF6719" stroke-width="2.0719" stroke-miterlimit="10" stroke-linecap="round"/>
<path d="M140.111 -63.9599C79.9284 -56.8588 19.5868 -51.2145 -40.8866 -47.6649C-58.4942 -46.6057 -76.2223 -45.3637 -93.893 -44.79C-93.4834 -35.682 -92.8301 -26.4233 -91.905 -17.4696C-87.7775 6.49979 -82.5562 30.5852 -78.0027 54.7347C-53.7302 66.3571 -26.4511 70.1677 0.0771257 65.6417C26.6054 61.1156 51.0777 48.4755 70.1234 29.4625L165.846 -67.1244C157.258 -66.0493 148.7 -64.9743 140.111 -63.9599Z" stroke="#FF6719" stroke-width="2.0719" stroke-miterlimit="10" stroke-linecap="round"/>
<path d="M140.111 -63.9599C79.9284 -56.8588 19.5868 -51.2145 -40.8866 -47.6649C-58.4942 -46.6057 -76.2223 -45.3637 -93.893 -44.79C-93.4834 -35.682 -92.8301 -26.4233 -91.905 -17.4696C-87.7775 6.49979 -82.5562 30.5852 -78.0027 54.7347C-53.7302 66.3571 -26.4511 70.1677 0.0771257 65.6417C26.6054 61.1156 51.0777 48.4755 70.1234 29.4625L165.846 -67.1244C157.258 -66.0493 148.7 -64.9743 140.111 -63.9599Z" stroke="#FF6719" stroke-width="2.0719" stroke-miterlimit="10" stroke-linecap="round"/>
<path d="M140.111 -63.9597C79.9287 -56.8586 19.5872 -51.2143 -40.8862 -47.6647C-58.4938 -46.6055 -76.222 -45.3635 -93.8927 -44.7899C-93.4831 -35.6818 -92.8297 -26.4231 -91.9046 -17.4695C-88.1527 4.25466 -83.4893 26.0654 -79.433 47.9398C-55.5848 58.8231 -28.9834 62.1697 -3.18273 57.5323C22.6179 52.8949 46.389 40.4944 64.9546 21.9877L151.401 -65.352L140.111 -63.9597Z" stroke="#FF6719" stroke-width="2.0719" stroke-miterlimit="10" stroke-linecap="round"/>
<path d="M140.111 -63.9597C79.9287 -56.8586 19.5872 -51.2143 -40.8862 -47.6647C-58.4938 -46.6055 -76.222 -45.3635 -93.8927 -44.7899C-93.4831 -35.6818 -92.8297 -26.4231 -91.9046 -17.4695C-88.1527 4.25466 -83.4893 26.0654 -79.433 47.9398C-55.5848 58.8231 -28.9834 62.1697 -3.18273 57.5323C22.6179 52.8949 46.389 40.4944 64.9546 21.9877L151.401 -65.352L140.111 -63.9597Z" stroke="#FF6719" stroke-width="2.0719" stroke-miterlimit="10" stroke-linecap="round"/>
<path d="M-40.8859 -47.6644C-58.4935 -46.6052 -76.2216 -45.3632 -93.8924 -44.7896C-93.4827 -35.6815 -92.8294 -26.4228 -91.9043 -17.4692C-88.5577 2.13126 -84.4522 21.6672 -80.6196 41.2956C-57.2208 51.3335 -31.3533 54.1383 -6.34682 49.349C18.6596 44.5597 41.6603 32.3955 59.6943 14.4224L136.925 -63.5792C77.8347 -56.6657 18.5249 -51.1784 -40.8859 -47.6644Z" stroke="#FF6719" stroke-width="2.0719" stroke-miterlimit="10" stroke-linecap="round"/>
<path d="M-40.8859 -47.6644C-58.4935 -46.6052 -76.2216 -45.3632 -93.8924 -44.7896C-93.4827 -35.6815 -92.8294 -26.4228 -91.9043 -17.4692C-88.5577 2.13126 -84.4522 21.6672 -80.6196 41.2956C-57.2208 51.3335 -31.3533 54.1383 -6.34682 49.349C18.6596 44.5597 41.6603 32.3955 59.6943 14.4224L136.925 -63.5792C77.8347 -56.6657 18.5249 -51.1784 -40.8859 -47.6644Z" stroke="#FF6719" stroke-width="2.0719" stroke-miterlimit="10" stroke-linecap="round"/>
<path d="M-40.8861 -47.6647C-58.4937 -46.6055 -76.2219 -45.3635 -93.8926 -44.7898C-93.483 -35.6818 -92.8296 -26.4231 -91.9045 -17.4694C-88.9339 -0.205356 -85.3862 17.0862 -81.9293 34.4389C-58.9831 43.7584 -33.8008 46.1152 -9.52381 41.2154C14.7532 36.3155 37.05 24.376 54.5853 6.88613L122.872 -62.0824C68.3946 -55.7992 13.8192 -50.882 -40.8861 -47.6647Z" stroke="#FF6719" stroke-width="2.0719" stroke-miterlimit="10" stroke-linecap="round"/>
<path d="M-40.8861 -47.6647C-58.4937 -46.6055 -76.2219 -45.3635 -93.8926 -44.7898C-93.483 -35.6818 -92.8296 -26.4231 -91.9045 -17.4694C-88.9339 -0.205356 -85.3862 17.0862 -81.9293 34.4389C-58.9831 43.7584 -33.8008 46.1152 -9.52381 41.2154C14.7532 36.3155 37.05 24.376 54.5853 6.88613L122.872 -62.0824C68.3946 -55.7992 13.8192 -50.882 -40.8861 -47.6647Z" stroke="#FF6719" stroke-width="2.0719" stroke-miterlimit="10" stroke-linecap="round"/>
<path d="M-40.8863 -47.6641C-58.4939 -46.6049 -76.2221 -45.3629 -93.8928 -44.7892C-93.4831 -35.6812 -92.8298 -26.4225 -91.9047 -17.4688C-89.34 -2.44992 -86.3502 12.5669 -83.361 27.4622C-60.8631 36.0971 -36.3473 38.0376 -12.7711 33.0494C10.805 28.0613 32.4341 16.3577 49.5068 -0.649443L108.577 -60.4014C58.8633 -54.9617 9.02234 -50.6146 -40.8863 -47.6641Z" stroke="#FF6719" stroke-width="2.0719" stroke-miterlimit="10" stroke-linecap="round"/>
<path d="M-40.8863 -47.6641C-58.4939 -46.6049 -76.2221 -45.3629 -93.8928 -44.7892C-93.4831 -35.6812 -92.8298 -26.4225 -91.9047 -17.4688C-89.34 -2.44992 -86.3502 12.5669 -83.361 27.4622C-60.8631 36.0971 -36.3473 38.0376 -12.7711 33.0494C10.805 28.0613 32.4341 16.3577 49.5068 -0.649443L108.577 -60.4014C58.8633 -54.9617 9.02234 -50.6146 -40.8863 -47.6641Z" stroke="#FF6719" stroke-width="2.0719" stroke-miterlimit="10" stroke-linecap="round"/>
<path d="M-40.8862 -47.6644C-58.4938 -46.6052 -76.222 -45.3632 -93.8927 -44.7896C-93.4831 -35.6815 -92.8297 -26.4229 -91.9046 -17.4692C-89.7466 -4.84725 -87.2546 7.77304 -84.7319 20.4539C-62.7322 28.4195 -38.9203 29.9622 -16.0767 24.9018C6.76685 19.8415 27.6995 8.38686 44.277 -8.12448L94.4948 -58.8742C49.4537 -54.1562 4.31702 -50.3183 -40.8862 -47.6644Z" stroke="#FF6719" stroke-width="2.0719" stroke-miterlimit="10" stroke-linecap="round"/>
<path d="M-40.8862 -47.6644C-58.4938 -46.6052 -76.222 -45.3632 -93.8927 -44.7896C-93.4831 -35.6815 -92.8297 -26.4229 -91.9046 -17.4692C-89.7466 -4.84725 -87.2546 7.77304 -84.7319 20.4539C-62.7322 28.4195 -38.9203 29.9622 -16.0767 24.9018C6.76685 19.8415 27.6995 8.38686 44.277 -8.12448L94.4948 -58.8742C49.4537 -54.1562 4.31702 -50.3183 -40.8862 -47.6644Z" stroke="#FF6719" stroke-width="2.0719" stroke-miterlimit="10" stroke-linecap="round"/>
<path d="M-40.8859 -47.6643C-58.4934 -46.6051 -76.2216 -45.3631 -93.8923 -44.7894C-93.4827 -35.6814 -92.8294 -26.4227 -91.9042 -17.469C-90.1528 -7.21368 -88.1582 3.07081 -86.1333 13.3552C-64.6404 20.6512 -41.5362 21.795 -19.4279 16.6575C2.68043 11.5199 22.9128 0.305534 38.9861 -15.7201L80.2604 -57.4064C39.953 -53.38 -0.418527 -50.0517 -40.8859 -47.6643Z" stroke="#FF6719" stroke-width="2.0719" stroke-miterlimit="10" stroke-linecap="round"/>
<path d="M-40.8859 -47.6643C-58.4934 -46.6051 -76.2216 -45.3631 -93.8923 -44.7894C-93.4827 -35.6814 -92.8294 -26.4227 -91.9042 -17.469C-90.1528 -7.21368 -88.1582 3.07081 -86.1333 13.3552C-64.6404 20.6512 -41.5362 21.795 -19.4279 16.6575C2.68043 11.5199 22.9128 0.305534 38.9861 -15.7201L80.2604 -57.4064C39.953 -53.38 -0.418527 -50.0517 -40.8859 -47.6643Z" stroke="#FF6719" stroke-width="2.0719" stroke-miterlimit="10" stroke-linecap="round"/>
<path d="M-40.8863 -47.6649C-58.4939 -46.6057 -76.2221 -45.3637 -93.8928 -44.7901C-93.4831 -35.682 -92.8298 -26.4234 -91.9047 -17.4697C-90.5289 -9.49 -89.0317 -1.51093 -87.4736 6.49822C-66.4712 13.1105 -44.0585 13.8414 -22.67 8.61179C-1.28141 3.38212 18.2653 -7.60824 33.847 -23.1656L66.6318 -56.064C30.7551 -52.6264 -5.08427 -49.8267 -40.8863 -47.6649Z" stroke="#FF6719" stroke-width="2.0719" stroke-miterlimit="10" stroke-linecap="round"/>
<path d="M-40.8863 -47.6649C-58.4939 -46.6057 -76.2221 -45.3637 -93.8928 -44.7901C-93.4831 -35.682 -92.8298 -26.4234 -91.9047 -17.4697C-90.5289 -9.49 -89.0317 -1.51093 -87.4736 6.49822C-66.4712 13.1105 -44.0585 13.8414 -22.67 8.61179C-1.28141 3.38212 18.2653 -7.60824 33.847 -23.1656L66.6318 -56.064C30.7551 -52.6264 -5.08427 -49.8267 -40.8863 -47.6649Z" stroke="#FF6719" stroke-width="2.0719" stroke-miterlimit="10" stroke-linecap="round"/>
<path d="M-40.8867 -47.6648C-58.4942 -46.6056 -76.2224 -45.3636 -93.8931 -44.79C-93.4835 -35.6819 -92.8302 -26.4232 -91.905 -17.4696C-90.9665 -11.9171 -89.9368 -6.36503 -88.7856 -0.813588C-68.3147 5.18275 -46.6093 5.57257 -25.9363 0.315147C-5.26333 -4.94228 13.6188 -15.6541 28.738 -30.7014L52.5477 -54.7489C21.4459 -51.8816 -9.69886 -49.5203 -40.8867 -47.6648Z" stroke="#FF6719" stroke-width="2.0719" stroke-miterlimit="10" stroke-linecap="round"/>
<path d="M-40.8867 -47.6648C-58.4942 -46.6056 -76.2224 -45.3636 -93.8931 -44.79C-93.4835 -35.6819 -92.8302 -26.4232 -91.905 -17.4696C-90.9665 -11.9171 -89.9368 -6.36503 -88.7856 -0.813588C-68.3147 5.18275 -46.6093 5.57257 -25.9363 0.315147C-5.26333 -4.94228 13.6188 -15.6541 28.738 -30.7014L52.5477 -54.7489C21.4459 -51.8816 -9.69886 -49.5203 -40.8867 -47.6648Z" stroke="#FF6719" stroke-width="2.0719" stroke-miterlimit="10" stroke-linecap="round"/>
</g>
</svg>
