<svg width="165" height="113" viewBox="0 0 165 113" fill="none" xmlns="http://www.w3.org/2000/svg">
<mask id="mask0" mask-type="alpha" maskUnits="userSpaceOnUse" x="0" y="0" width="165" height="113">
<path d="M164.5 103C164.5 108.247 160.247 112.5 155 112.5L0.5 112.5L0.50001 0.499986L164.5 0.5L164.5 103Z" fill="#232325" stroke="url(#paint0_linear)"/>
</mask>
<g mask="url(#mask0)">
<path d="M11.7552 196.658C21.4663 195.395 31.1778 194.192 40.8896 193.051C101.072 185.95 161.414 180.306 221.887 176.756C239.494 175.697 257.223 174.455 274.893 173.881C274.484 164.773 273.83 155.514 272.905 146.561C266.651 110.151 257.722 73.2999 252.863 36.3978C226.297 19.1957 194.641 11.6107 163.164 14.9053C131.688 18.1999 102.289 32.1754 79.8607 54.5055L-57.197 192.809C-34.204 193.849 -11.2398 195.223 11.7552 196.658Z" stroke="#2DCF78" stroke-width="2.0719" stroke-miterlimit="10" stroke-linecap="round"/>
<path d="M11.7552 196.658C21.4663 195.395 31.1778 194.192 40.8896 193.051C101.072 185.95 161.414 180.306 221.887 176.756C239.494 175.697 257.223 174.455 274.893 173.881C274.484 164.773 273.83 155.514 272.905 146.561C266.651 110.151 257.722 73.2999 252.863 36.3978C226.297 19.1957 194.641 11.6107 163.164 14.9053C131.688 18.1999 102.289 32.1754 79.8607 54.5055L-57.197 192.809C-34.204 193.849 -11.2398 195.223 11.7552 196.658Z" stroke="#2DCF78" stroke-width="2.0719" stroke-miterlimit="10" stroke-linecap="round"/>
<path d="M11.7551 196.658C21.4663 195.395 31.1778 194.192 40.8896 193.051C101.072 185.95 161.414 180.306 221.887 176.756C239.494 175.697 257.223 174.455 274.893 173.881C274.484 164.773 273.83 155.514 272.905 146.561C266.964 112.093 258.714 77.3945 253.713 42.5277C227.475 26.3649 196.559 19.5065 165.947 23.0575C135.336 26.6085 106.811 40.3621 84.9697 62.1022L-45.1688 193.387C-26.1948 194.346 -7.22016 195.436 11.7551 196.658Z" stroke="#2DCF78" stroke-width="2.0719" stroke-miterlimit="10" stroke-linecap="round"/>
<path d="M11.7551 196.658C21.4663 195.395 31.1778 194.192 40.8896 193.051C101.072 185.95 161.414 180.306 221.887 176.756C239.494 175.697 257.223 174.455 274.893 173.881C274.484 164.773 273.83 155.514 272.905 146.561C266.964 112.093 258.714 77.3945 253.713 42.5277C227.475 26.3649 196.559 19.5065 165.947 23.0575C135.336 26.6085 106.811 40.3621 84.9697 62.1022L-45.1688 193.387C-26.1948 194.346 -7.22016 195.436 11.7551 196.658Z" stroke="#2DCF78" stroke-width="2.0719" stroke-miterlimit="10" stroke-linecap="round"/>
<path d="M11.7551 196.658C21.4663 195.395 31.1778 194.192 40.8895 193.051C101.072 185.95 161.414 180.306 221.887 176.756C239.494 175.697 257.223 174.455 274.893 173.881C274.484 164.773 273.83 155.514 272.905 146.561C267.308 114.035 259.645 81.3072 254.593 48.4753C228.725 33.3339 198.571 27.1864 168.841 30.993C139.111 34.7995 111.478 48.3458 90.26 69.5159L-33.1707 194.026C-18.2059 194.843 -3.23057 195.72 11.7551 196.658Z" stroke="#2DCF78" stroke-width="2.0719" stroke-miterlimit="10" stroke-linecap="round"/>
<path d="M11.7551 196.658C21.4663 195.395 31.1778 194.192 40.8895 193.051C101.072 185.95 161.414 180.306 221.887 176.756C239.494 175.697 257.223 174.455 274.893 173.881C274.484 164.773 273.83 155.514 272.905 146.561C267.308 114.035 259.645 81.3072 254.593 48.4753C228.725 33.3339 198.571 27.1864 168.841 30.993C139.111 34.7995 111.478 48.3458 90.26 69.5159L-33.1707 194.026C-18.2059 194.843 -3.23057 195.72 11.7551 196.658Z" stroke="#2DCF78" stroke-width="2.0719" stroke-miterlimit="10" stroke-linecap="round"/>
<path d="M11.7551 196.658C21.4663 195.395 31.1778 194.192 40.8895 193.051C101.072 185.95 161.414 180.306 221.887 176.756C239.494 175.697 257.223 174.455 274.893 173.881C274.484 164.773 273.83 155.514 272.905 146.561C267.653 116.22 260.638 85.5841 255.596 54.8777C230.113 40.6507 200.69 35.1074 171.777 39.0861C142.863 43.0649 116.031 56.3492 95.3378 76.9305L-21.2333 194.665L11.7551 196.658Z" stroke="#2DCF78" stroke-width="2.0719" stroke-miterlimit="10" stroke-linecap="round"/>
<path d="M11.7551 196.658C21.4663 195.395 31.1778 194.192 40.8895 193.051C101.072 185.95 161.414 180.306 221.887 176.756C239.494 175.697 257.223 174.455 274.893 173.881C274.484 164.773 273.83 155.514 272.905 146.561C267.653 116.22 260.638 85.5841 255.596 54.8777C230.113 40.6507 200.69 35.1074 171.777 39.0861C142.863 43.0649 116.031 56.3492 95.3378 76.9305L-21.2333 194.665L11.7551 196.658Z" stroke="#2DCF78" stroke-width="2.0719" stroke-miterlimit="10" stroke-linecap="round"/>
<path d="M11.7551 196.658C21.4663 195.395 31.1778 194.192 40.8895 193.051C101.072 185.95 161.414 180.306 221.887 176.756C239.494 175.697 257.223 174.455 274.893 173.881C274.484 164.773 273.83 155.514 272.905 146.561C268.027 118.253 261.6 89.7699 256.66 61.2191C231.584 47.9156 202.91 42.9836 174.83 47.1445C146.75 51.3053 120.738 64.3407 100.598 84.3443L-9.26539 195.335L11.7551 196.658Z" stroke="#2DCF78" stroke-width="2.0719" stroke-miterlimit="10" stroke-linecap="round"/>
<path d="M11.7551 196.658C21.4663 195.395 31.1778 194.192 40.8895 193.051C101.072 185.95 161.414 180.306 221.887 176.756C239.494 175.697 257.223 174.455 274.893 173.881C274.484 164.773 273.83 155.514 272.905 146.561C268.027 118.253 261.6 89.7699 256.66 61.2191C231.584 47.9156 202.91 42.9836 174.83 47.1445C146.75 51.3053 120.738 64.3407 100.598 84.3443L-9.26539 195.335L11.7551 196.658Z" stroke="#2DCF78" stroke-width="2.0719" stroke-miterlimit="10" stroke-linecap="round"/>
<path d="M11.7551 196.658C21.4663 195.395 31.1778 194.192 40.8895 193.051C101.072 185.95 161.413 180.306 221.887 176.756C239.494 175.697 257.223 174.455 274.893 173.881C274.484 164.773 273.83 155.514 272.905 146.561C268.403 120.407 262.563 94.1076 257.816 67.6816C233.123 55.2697 205.15 50.9425 177.861 55.3128C150.572 59.6831 125.35 72.5295 105.768 92.0319L2.64192 196.035L11.7551 196.658Z" stroke="#2DCF78" stroke-width="2.0719" stroke-miterlimit="10" stroke-linecap="round"/>
<path d="M11.7551 196.658C21.4663 195.395 31.1778 194.192 40.8895 193.051C101.072 185.95 161.413 180.306 221.887 176.756C239.494 175.697 257.223 174.455 274.893 173.881C274.484 164.773 273.83 155.514 272.905 146.561C268.403 120.407 262.563 94.1076 257.816 67.6816C233.123 55.2697 205.15 50.9425 177.861 55.3128C150.572 59.6831 125.35 72.5295 105.768 92.0319L2.64192 196.035L11.7551 196.658Z" stroke="#2DCF78" stroke-width="2.0719" stroke-miterlimit="10" stroke-linecap="round"/>
<path d="M40.8892 192.96C101.072 185.859 161.413 180.215 221.887 176.665C239.494 175.606 257.222 174.364 274.893 173.79C274.483 164.682 273.83 155.423 272.905 146.47C268.777 122.5 263.556 98.4148 259.003 74.2653C234.73 62.6429 207.451 58.8323 180.923 63.3584C154.395 67.8844 129.922 80.5245 110.877 99.5375L15.1537 196.124C23.7422 195.049 32.3004 193.974 40.8892 192.96Z" stroke="#2DCF78" stroke-width="2.0719" stroke-miterlimit="10" stroke-linecap="round"/>
<path d="M40.8892 192.96C101.072 185.859 161.413 180.215 221.887 176.665C239.494 175.606 257.222 174.364 274.893 173.79C274.483 164.682 273.83 155.423 272.905 146.47C268.777 122.5 263.556 98.4148 259.003 74.2653C234.73 62.6429 207.451 58.8323 180.923 63.3584C154.395 67.8844 129.922 80.5245 110.877 99.5375L15.1537 196.124C23.7422 195.049 32.3004 193.974 40.8892 192.96Z" stroke="#2DCF78" stroke-width="2.0719" stroke-miterlimit="10" stroke-linecap="round"/>
<path d="M40.8889 192.96C101.071 185.859 161.413 180.214 221.886 176.665C239.494 175.606 257.222 174.364 274.893 173.79C274.483 164.682 273.83 155.423 272.905 146.469C269.153 124.745 264.489 102.935 260.433 81.0602C236.585 70.1769 209.983 66.8303 184.183 71.4677C158.382 76.1051 134.611 88.5056 116.045 107.012L29.5993 194.352L40.8889 192.96Z" stroke="#2DCF78" stroke-width="2.0719" stroke-miterlimit="10" stroke-linecap="round"/>
<path d="M40.8889 192.96C101.071 185.859 161.413 180.214 221.886 176.665C239.494 175.606 257.222 174.364 274.893 173.79C274.483 164.682 273.83 155.423 272.905 146.469C269.153 124.745 264.489 102.935 260.433 81.0602C236.585 70.1769 209.983 66.8303 184.183 71.4677C158.382 76.1051 134.611 88.5056 116.045 107.012L29.5993 194.352L40.8889 192.96Z" stroke="#2DCF78" stroke-width="2.0719" stroke-miterlimit="10" stroke-linecap="round"/>
<path d="M221.886 176.664C239.493 175.605 257.222 174.363 274.892 173.79C274.483 164.682 273.829 155.423 272.904 146.469C269.558 126.869 265.452 107.333 261.62 87.7044C238.221 77.6665 212.353 74.8617 187.347 79.651C162.34 84.4403 139.34 96.6045 121.306 114.578L44.0751 192.579C103.165 185.666 162.475 180.178 221.886 176.664Z" stroke="#2DCF78" stroke-width="2.0719" stroke-miterlimit="10" stroke-linecap="round"/>
<path d="M221.886 176.664C239.493 175.605 257.222 174.363 274.892 173.79C274.483 164.682 273.829 155.423 272.904 146.469C269.558 126.869 265.452 107.333 261.62 87.7044C238.221 77.6665 212.353 74.8617 187.347 79.651C162.34 84.4403 139.34 96.6045 121.306 114.578L44.0751 192.579C103.165 185.666 162.475 180.178 221.886 176.664Z" stroke="#2DCF78" stroke-width="2.0719" stroke-miterlimit="10" stroke-linecap="round"/>
<path d="M221.886 176.665C239.494 175.605 257.222 174.363 274.893 173.79C274.483 164.682 273.83 155.423 272.905 146.469C269.934 129.205 266.386 111.914 262.929 94.561C239.983 85.2416 214.801 82.8848 190.524 87.7846C166.247 92.6844 143.95 104.624 126.415 122.114L58.1279 191.082C112.605 184.799 167.181 179.882 221.886 176.665Z" stroke="#2DCF78" stroke-width="2.0719" stroke-miterlimit="10" stroke-linecap="round"/>
<path d="M221.886 176.665C239.494 175.605 257.222 174.363 274.893 173.79C274.483 164.682 273.83 155.423 272.905 146.469C269.934 129.205 266.386 111.914 262.929 94.561C239.983 85.2416 214.801 82.8848 190.524 87.7846C166.247 92.6844 143.95 104.624 126.415 122.114L58.1279 191.082C112.605 184.799 167.181 179.882 221.886 176.665Z" stroke="#2DCF78" stroke-width="2.0719" stroke-miterlimit="10" stroke-linecap="round"/>
<path d="M221.886 176.664C239.494 175.605 257.222 174.363 274.893 173.789C274.483 164.681 273.83 155.422 272.905 146.469C270.34 131.45 267.35 116.433 264.361 101.538C241.863 92.9028 217.347 90.9624 193.771 95.9506C170.195 100.939 148.566 112.642 131.493 129.649L72.4226 189.401C122.137 183.962 171.978 179.615 221.886 176.664Z" stroke="#2DCF78" stroke-width="2.0719" stroke-miterlimit="10" stroke-linecap="round"/>
<path d="M221.886 176.664C239.494 175.605 257.222 174.363 274.893 173.789C274.483 164.681 273.83 155.422 272.905 146.469C270.34 131.45 267.35 116.433 264.361 101.538C241.863 92.9028 217.347 90.9624 193.771 95.9506C170.195 100.939 148.566 112.642 131.493 129.649L72.4226 189.401C122.137 183.962 171.978 179.615 221.886 176.664Z" stroke="#2DCF78" stroke-width="2.0719" stroke-miterlimit="10" stroke-linecap="round"/>
<path d="M221.886 176.664C239.494 175.605 257.222 174.363 274.893 173.79C274.483 164.682 273.83 155.423 272.905 146.469C270.747 133.847 268.255 121.227 265.732 108.546C243.732 100.581 219.92 99.0378 197.077 104.098C174.233 109.159 153.301 120.613 136.723 137.125L86.5052 187.874C131.546 183.156 176.683 179.318 221.886 176.664Z" stroke="#2DCF78" stroke-width="2.0719" stroke-miterlimit="10" stroke-linecap="round"/>
<path d="M221.886 176.664C239.494 175.605 257.222 174.363 274.893 173.79C274.483 164.682 273.83 155.423 272.905 146.469C270.747 133.847 268.255 121.227 265.732 108.546C243.732 100.581 219.92 99.0378 197.077 104.098C174.233 109.159 153.301 120.613 136.723 137.125L86.5052 187.874C131.546 183.156 176.683 179.318 221.886 176.664Z" stroke="#2DCF78" stroke-width="2.0719" stroke-miterlimit="10" stroke-linecap="round"/>
<path d="M221.886 176.664C239.493 175.605 257.222 174.363 274.892 173.789C274.483 164.681 273.829 155.423 272.904 146.469C271.153 136.214 269.158 125.929 267.133 115.645C245.64 108.349 222.536 107.205 200.428 112.343C178.32 117.48 158.087 128.694 142.014 144.72L100.74 186.406C141.047 182.38 181.419 179.052 221.886 176.664Z" stroke="#2DCF78" stroke-width="2.0719" stroke-miterlimit="10" stroke-linecap="round"/>
<path d="M221.886 176.664C239.493 175.605 257.222 174.363 274.892 173.789C274.483 164.681 273.829 155.423 272.904 146.469C271.153 136.214 269.158 125.929 267.133 115.645C245.64 108.349 222.536 107.205 200.428 112.343C178.32 117.48 158.087 128.694 142.014 144.72L100.74 186.406C141.047 182.38 181.419 179.052 221.886 176.664Z" stroke="#2DCF78" stroke-width="2.0719" stroke-miterlimit="10" stroke-linecap="round"/>
</g>
<defs>
<linearGradient id="paint0_linear" x1="165.533" y1="56.4866" x2="-0.535632" y2="56.4866" gradientUnits="userSpaceOnUse">
<stop stop-color="#B480FF"/>
<stop offset="0.604167" stop-color="#5F00E6"/>
<stop offset="0.859375" stop-color="#1AA4FF" stop-opacity="0.49"/>
<stop offset="1" stop-color="#28B86A" stop-opacity="0.27"/>
</linearGradient>
</defs>
</svg>
