<svg width="165" height="146" viewBox="0 0 165 146" fill="none" xmlns="http://www.w3.org/2000/svg">
<mask id="mask0" mask-type="alpha" maskUnits="userSpaceOnUse" x="0" y="0" width="165" height="146">
<path d="M164.5 136C164.5 141.247 160.247 145.5 155 145.5L0.499985 145.5L0.499997 0.500001L164.5 0.500015L164.5 136Z" fill="#232325" stroke="url(#paint0_linear)"/>
</mask>
<g mask="url(#mask0)">
<path d="M60.8338 193.986C70.5449 192.723 80.2564 191.521 89.9682 190.379C150.151 183.278 210.492 177.634 270.966 174.084C288.573 173.025 306.301 171.783 323.972 171.21C323.562 162.101 322.909 152.843 321.984 143.889C315.73 107.48 306.801 70.6283 301.941 33.7262C275.376 16.5241 243.72 8.93908 212.243 12.2337C180.766 15.5283 151.367 29.5037 128.939 51.8339L-8.11836 190.138C14.8746 191.177 37.8389 192.551 60.8338 193.986Z" stroke="#2DCF78" stroke-width="2.0719" stroke-miterlimit="10" stroke-linecap="round"/>
<path d="M60.8338 193.986C70.5449 192.723 80.2564 191.521 89.9682 190.379C150.151 183.278 210.492 177.634 270.966 174.084C288.573 173.025 306.301 171.783 323.972 171.21C323.562 162.101 322.909 152.843 321.984 143.889C315.73 107.48 306.801 70.6283 301.941 33.7262C275.376 16.5241 243.72 8.93908 212.243 12.2337C180.766 15.5283 151.367 29.5037 128.939 51.8339L-8.11836 190.138C14.8746 191.177 37.8389 192.551 60.8338 193.986Z" stroke="#2DCF78" stroke-width="2.0719" stroke-miterlimit="10" stroke-linecap="round"/>
<path d="M60.8338 193.986C70.5449 192.723 80.2564 191.521 89.9682 190.379C150.151 183.278 210.492 177.634 270.966 174.084C288.573 173.025 306.301 171.783 323.972 171.21C323.562 162.101 322.909 152.843 321.984 143.889C316.043 109.422 307.793 74.7229 302.792 39.8561C276.553 23.6933 245.638 16.8349 215.026 20.3859C184.414 23.9369 155.89 37.6905 134.048 59.4306L3.90981 190.716C22.8838 191.674 41.8585 192.764 60.8338 193.986Z" stroke="#2DCF78" stroke-width="2.0719" stroke-miterlimit="10" stroke-linecap="round"/>
<path d="M60.8338 193.986C70.5449 192.723 80.2564 191.521 89.9682 190.379C150.151 183.278 210.492 177.634 270.966 174.084C288.573 173.025 306.301 171.783 323.972 171.21C323.562 162.101 322.909 152.843 321.984 143.889C316.043 109.422 307.793 74.7229 302.792 39.8561C276.553 23.6933 245.638 16.8349 215.026 20.3859C184.414 23.9369 155.89 37.6905 134.048 59.4306L3.90981 190.716C22.8838 191.674 41.8585 192.764 60.8338 193.986Z" stroke="#2DCF78" stroke-width="2.0719" stroke-miterlimit="10" stroke-linecap="round"/>
<path d="M60.8337 193.986C70.5449 192.723 80.2564 191.521 89.9681 190.379C150.151 183.278 210.492 177.634 270.966 174.084C288.573 173.025 306.301 171.783 323.972 171.21C323.562 162.101 322.909 152.843 321.984 143.889C316.387 111.364 308.723 78.6356 303.671 45.8036C277.804 30.6623 247.65 24.5148 217.92 28.3213C188.189 32.1279 160.557 45.6742 139.339 66.8442L15.9079 191.355C30.8728 192.171 45.848 193.048 60.8337 193.986Z" stroke="#2DCF78" stroke-width="2.0719" stroke-miterlimit="10" stroke-linecap="round"/>
<path d="M60.8337 193.986C70.5449 192.723 80.2564 191.521 89.9681 190.379C150.151 183.278 210.492 177.634 270.966 174.084C288.573 173.025 306.301 171.783 323.972 171.21C323.562 162.101 322.909 152.843 321.984 143.889C316.387 111.364 308.723 78.6356 303.671 45.8036C277.804 30.6623 247.65 24.5148 217.92 28.3213C188.189 32.1279 160.557 45.6742 139.339 66.8442L15.9079 191.355C30.8728 192.171 45.848 193.048 60.8337 193.986Z" stroke="#2DCF78" stroke-width="2.0719" stroke-miterlimit="10" stroke-linecap="round"/>
<path d="M60.8337 193.986C70.5449 192.723 80.2564 191.521 89.9681 190.379C150.151 183.278 210.492 177.634 270.966 174.084C288.573 173.025 306.301 171.783 323.972 171.21C323.562 162.101 322.909 152.843 321.984 143.889C316.732 113.548 309.716 82.9124 304.675 52.2061C279.191 37.979 249.769 32.4358 220.855 36.4145C191.942 40.3932 165.11 53.6775 144.416 74.2589L27.8453 191.994L60.8337 193.986Z" stroke="#2DCF78" stroke-width="2.0719" stroke-miterlimit="10" stroke-linecap="round"/>
<path d="M60.8337 193.986C70.5449 192.723 80.2564 191.521 89.9681 190.379C150.151 183.278 210.492 177.634 270.966 174.084C288.573 173.025 306.301 171.783 323.972 171.21C323.562 162.101 322.909 152.843 321.984 143.889C316.732 113.548 309.716 82.9124 304.675 52.2061C279.191 37.979 249.769 32.4358 220.855 36.4145C191.942 40.3932 165.11 53.6775 144.416 74.2589L27.8453 191.994L60.8337 193.986Z" stroke="#2DCF78" stroke-width="2.0719" stroke-miterlimit="10" stroke-linecap="round"/>
<path d="M60.8337 193.986C70.5449 192.723 80.2564 191.521 89.9681 190.379C150.151 183.278 210.492 177.634 270.966 174.084C288.573 173.025 306.301 171.783 323.972 171.21C323.562 162.101 322.909 152.843 321.984 143.889C317.106 115.581 310.679 87.0983 305.739 58.5475C280.663 45.244 251.988 40.312 223.909 44.4728C195.829 48.6337 169.817 61.669 149.676 81.6727L39.8132 192.663L60.8337 193.986Z" stroke="#2DCF78" stroke-width="2.0719" stroke-miterlimit="10" stroke-linecap="round"/>
<path d="M60.8337 193.986C70.5449 192.723 80.2564 191.521 89.9681 190.379C150.151 183.278 210.492 177.634 270.966 174.084C288.573 173.025 306.301 171.783 323.972 171.21C323.562 162.101 322.909 152.843 321.984 143.889C317.106 115.581 310.679 87.0983 305.739 58.5475C280.663 45.244 251.988 40.312 223.909 44.4728C195.829 48.6337 169.817 61.669 149.676 81.6727L39.8132 192.663L60.8337 193.986Z" stroke="#2DCF78" stroke-width="2.0719" stroke-miterlimit="10" stroke-linecap="round"/>
<path d="M60.8337 193.986C70.5449 192.723 80.2564 191.521 89.9681 190.379C150.151 183.278 210.492 177.634 270.966 174.084C288.573 173.025 306.301 171.783 323.972 171.21C323.562 162.101 322.909 152.843 321.984 143.889C317.481 117.735 311.642 91.436 306.895 65.0099C282.202 52.5981 254.229 48.2708 226.94 52.6412C199.651 57.0115 174.428 69.8578 154.847 89.3603L51.7205 193.363L60.8337 193.986Z" stroke="#2DCF78" stroke-width="2.0719" stroke-miterlimit="10" stroke-linecap="round"/>
<path d="M60.8337 193.986C70.5449 192.723 80.2564 191.521 89.9681 190.379C150.151 183.278 210.492 177.634 270.966 174.084C288.573 173.025 306.301 171.783 323.972 171.21C323.562 162.101 322.909 152.843 321.984 143.889C317.481 117.735 311.642 91.436 306.895 65.0099C282.202 52.5981 254.229 48.2708 226.94 52.6412C199.651 57.0115 174.428 69.8578 154.847 89.3603L51.7205 193.363L60.8337 193.986Z" stroke="#2DCF78" stroke-width="2.0719" stroke-miterlimit="10" stroke-linecap="round"/>
<path d="M89.9678 190.288C150.15 183.187 210.492 177.543 270.965 173.993C288.573 172.934 306.301 171.692 323.972 171.118C323.562 162.01 322.909 152.752 321.984 143.798C317.856 119.829 312.635 95.7432 308.081 71.5937C283.809 59.9713 256.53 56.1607 230.001 60.6867C203.473 65.2128 179.001 77.8528 159.955 96.8659L64.2323 193.453C72.8208 192.378 81.379 191.303 89.9678 190.288Z" stroke="#2DCF78" stroke-width="2.0719" stroke-miterlimit="10" stroke-linecap="round"/>
<path d="M89.9678 190.288C150.15 183.187 210.492 177.543 270.965 173.993C288.573 172.934 306.301 171.692 323.972 171.118C323.562 162.01 322.909 152.752 321.984 143.798C317.856 119.829 312.635 95.7432 308.081 71.5937C283.809 59.9713 256.53 56.1607 230.001 60.6867C203.473 65.2128 179.001 77.8528 159.955 96.8659L64.2323 193.453C72.8208 192.378 81.379 191.303 89.9678 190.288Z" stroke="#2DCF78" stroke-width="2.0719" stroke-miterlimit="10" stroke-linecap="round"/>
<path d="M89.9675 190.288C150.15 183.187 210.491 177.543 270.965 173.993C288.572 172.934 306.301 171.692 323.971 171.118C323.562 162.01 322.908 152.752 321.983 143.798C318.231 122.074 313.568 100.263 309.512 78.3886C285.663 67.5053 259.062 64.1587 233.261 68.7961C207.461 73.4335 183.69 85.8339 165.124 104.341L78.6779 191.68L89.9675 190.288Z" stroke="#2DCF78" stroke-width="2.0719" stroke-miterlimit="10" stroke-linecap="round"/>
<path d="M89.9675 190.288C150.15 183.187 210.491 177.543 270.965 173.993C288.572 172.934 306.301 171.692 323.971 171.118C323.562 162.01 322.908 152.752 321.983 143.798C318.231 122.074 313.568 100.263 309.512 78.3886C285.663 67.5053 259.062 64.1587 233.261 68.7961C207.461 73.4335 183.69 85.8339 165.124 104.341L78.6779 191.68L89.9675 190.288Z" stroke="#2DCF78" stroke-width="2.0719" stroke-miterlimit="10" stroke-linecap="round"/>
<path d="M270.964 173.993C288.572 172.934 306.3 171.692 323.971 171.118C323.561 162.01 322.908 152.751 321.983 143.798C318.636 124.197 314.531 104.661 310.698 85.0328C287.299 74.9949 261.432 72.1901 236.425 76.9793C211.419 81.7686 188.418 93.9328 170.384 111.906L93.1537 189.908C152.244 182.994 211.554 177.507 270.964 173.993Z" stroke="#2DCF78" stroke-width="2.0719" stroke-miterlimit="10" stroke-linecap="round"/>
<path d="M270.964 173.993C288.572 172.934 306.3 171.692 323.971 171.118C323.561 162.01 322.908 152.751 321.983 143.798C318.636 124.197 314.531 104.661 310.698 85.0328C287.299 74.9949 261.432 72.1901 236.425 76.9793C211.419 81.7686 188.418 93.9328 170.384 111.906L93.1537 189.908C152.244 182.994 211.554 177.507 270.964 173.993Z" stroke="#2DCF78" stroke-width="2.0719" stroke-miterlimit="10" stroke-linecap="round"/>
<path d="M270.965 173.993C288.572 172.934 306.3 171.692 323.971 171.118C323.562 162.01 322.908 152.751 321.983 143.798C319.013 126.534 315.465 109.242 312.008 91.8894C289.062 82.57 263.879 80.2131 239.602 85.113C215.325 90.0128 193.029 101.952 175.493 119.442L107.207 188.411C161.684 182.128 216.259 177.21 270.965 173.993Z" stroke="#2DCF78" stroke-width="2.0719" stroke-miterlimit="10" stroke-linecap="round"/>
<path d="M270.965 173.993C288.572 172.934 306.3 171.692 323.971 171.118C323.562 162.01 322.908 152.751 321.983 143.798C319.013 126.534 315.465 109.242 312.008 91.8894C289.062 82.57 263.879 80.2131 239.602 85.113C215.325 90.0128 193.029 101.952 175.493 119.442L107.207 188.411C161.684 182.128 216.259 177.21 270.965 173.993Z" stroke="#2DCF78" stroke-width="2.0719" stroke-miterlimit="10" stroke-linecap="round"/>
<path d="M270.965 173.992C288.573 172.933 306.301 171.691 323.971 171.118C323.562 162.01 322.908 152.751 321.983 143.797C319.419 128.778 316.429 113.761 313.44 98.8661C290.942 90.2312 266.426 88.2908 242.85 93.2789C219.274 98.2671 197.644 109.971 180.572 126.978L121.501 186.73C171.215 181.29 221.056 176.943 270.965 173.992Z" stroke="#2DCF78" stroke-width="2.0719" stroke-miterlimit="10" stroke-linecap="round"/>
<path d="M270.965 173.992C288.573 172.933 306.301 171.691 323.971 171.118C323.562 162.01 322.908 152.751 321.983 143.797C319.419 128.778 316.429 113.761 313.44 98.8661C290.942 90.2312 266.426 88.2908 242.85 93.2789C219.274 98.2671 197.644 109.971 180.572 126.978L121.501 186.73C171.215 181.29 221.056 176.943 270.965 173.992Z" stroke="#2DCF78" stroke-width="2.0719" stroke-miterlimit="10" stroke-linecap="round"/>
<path d="M270.965 173.993C288.572 172.934 306.301 171.692 323.971 171.118C323.562 162.01 322.908 152.751 321.983 143.798C319.825 131.176 317.333 118.555 314.81 105.875C292.811 97.9089 268.999 96.3662 246.155 101.427C223.312 106.487 202.379 117.942 185.802 134.453L135.584 185.203C180.625 180.485 225.762 176.647 270.965 173.993Z" stroke="#2DCF78" stroke-width="2.0719" stroke-miterlimit="10" stroke-linecap="round"/>
<path d="M270.965 173.993C288.572 172.934 306.301 171.692 323.971 171.118C323.562 162.01 322.908 152.751 321.983 143.798C319.825 131.176 317.333 118.555 314.81 105.875C292.811 97.9089 268.999 96.3662 246.155 101.427C223.312 106.487 202.379 117.942 185.802 134.453L135.584 185.203C180.625 180.485 225.762 176.647 270.965 173.993Z" stroke="#2DCF78" stroke-width="2.0719" stroke-miterlimit="10" stroke-linecap="round"/>
<path d="M270.964 173.993C288.572 172.933 306.3 171.691 323.971 171.118C323.561 162.01 322.908 152.751 321.983 143.797C320.231 133.542 318.237 123.258 316.212 112.973C294.719 105.677 271.615 104.533 249.507 109.671C227.398 114.808 207.166 126.023 191.092 142.048L149.818 183.735C190.126 179.708 230.497 176.38 270.964 173.993Z" stroke="#2DCF78" stroke-width="2.0719" stroke-miterlimit="10" stroke-linecap="round"/>
<path d="M270.964 173.993C288.572 172.933 306.3 171.691 323.971 171.118C323.561 162.01 322.908 152.751 321.983 143.797C320.231 133.542 318.237 123.258 316.212 112.973C294.719 105.677 271.615 104.533 249.507 109.671C227.398 114.808 207.166 126.023 191.092 142.048L149.818 183.735C190.126 179.708 230.497 176.38 270.964 173.993Z" stroke="#2DCF78" stroke-width="2.0719" stroke-miterlimit="10" stroke-linecap="round"/>
<path d="M270.965 173.993C288.573 172.934 306.301 171.692 323.971 171.118C323.562 162.01 322.908 152.752 321.983 143.798C320.608 135.818 319.11 127.839 317.552 119.83C296.55 113.218 274.137 112.487 252.749 117.717C231.36 122.946 211.813 133.937 196.232 149.494L163.447 182.392C199.324 178.955 235.163 176.155 270.965 173.993Z" stroke="#2DCF78" stroke-width="2.0719" stroke-miterlimit="10" stroke-linecap="round"/>
<path d="M270.965 173.993C288.573 172.934 306.301 171.692 323.971 171.118C323.562 162.01 322.908 152.752 321.983 143.798C320.608 135.818 319.11 127.839 317.552 119.83C296.55 113.218 274.137 112.487 252.749 117.717C231.36 122.946 211.813 133.937 196.232 149.494L163.447 182.392C199.324 178.955 235.163 176.155 270.965 173.993Z" stroke="#2DCF78" stroke-width="2.0719" stroke-miterlimit="10" stroke-linecap="round"/>
</g>
<defs>
<linearGradient id="paint0_linear" x1="165.533" y1="72.9827" x2="-0.535646" y2="72.9827" gradientUnits="userSpaceOnUse">
<stop stop-color="#B480FF"/>
<stop offset="0.604167" stop-color="#5F00E6"/>
<stop offset="0.859375" stop-color="#1AA4FF" stop-opacity="0.49"/>
<stop offset="1" stop-color="#28B86A" stop-opacity="0.27"/>
</linearGradient>
</defs>
</svg>
