<svg width="165" height="146" viewBox="0 0 165 146" fill="none" xmlns="http://www.w3.org/2000/svg">
<mask id="mask0" mask-type="alpha" maskUnits="userSpaceOnUse" x="0" y="0" width="165" height="146">
<path d="M0.5 10C0.5 4.75329 4.75329 0.5 10 0.5L164.5 0.5L164.5 145.5L0.5 145.5L0.5 10Z" fill="#232325" stroke="#9A52FF"/>
</mask>
<g mask="url(#mask0)">
<path d="M104.167 -47.9859C94.4555 -46.723 84.7441 -45.5209 75.0323 -44.3794C14.8499 -37.2783 -45.4916 -31.634 -105.965 -28.0844C-123.573 -27.0252 -141.301 -25.7832 -158.971 -25.2095C-158.562 -16.1015 -157.909 -6.8428 -156.983 2.11087C-150.729 38.5202 -141.8 75.3717 -136.941 112.274C-110.375 129.476 -78.7193 137.061 -47.2425 133.766C-15.7657 130.472 13.6333 116.496 36.0612 94.1661L173.119 -44.1378C150.126 -45.1775 127.162 -46.5514 104.167 -47.9859Z" stroke="#9A52FF" stroke-width="2.0719" stroke-miterlimit="10" stroke-linecap="round"/>
<path d="M104.167 -47.9859C94.4555 -46.723 84.7441 -45.5209 75.0323 -44.3794C14.8499 -37.2783 -45.4916 -31.634 -105.965 -28.0844C-123.573 -27.0252 -141.301 -25.7832 -158.971 -25.2095C-158.562 -16.1015 -157.909 -6.8428 -156.983 2.11087C-150.729 38.5202 -141.8 75.3717 -136.941 112.274C-110.375 129.476 -78.7193 137.061 -47.2425 133.766C-15.7657 130.472 13.6333 116.496 36.0612 94.1661L173.119 -44.1378C150.126 -45.1775 127.162 -46.5514 104.167 -47.9859Z" stroke="#9A52FF" stroke-width="2.0719" stroke-miterlimit="10" stroke-linecap="round"/>
<path d="M104.167 -47.9859C94.4556 -46.723 84.7441 -45.5209 75.0323 -44.3794C14.8499 -37.2783 -45.4916 -31.634 -105.965 -28.0844C-123.573 -27.0252 -141.301 -25.7832 -158.971 -25.2095C-158.562 -16.1015 -157.909 -6.8428 -156.983 2.11086C-151.043 36.5782 -142.793 71.2771 -137.791 106.144C-111.553 122.307 -80.6371 129.165 -50.0255 125.614C-19.4139 122.063 9.11076 108.309 30.9522 86.5694L161.091 -44.7157C142.117 -45.6742 123.142 -46.7643 104.167 -47.9859Z" stroke="#9A52FF" stroke-width="2.0719" stroke-miterlimit="10" stroke-linecap="round"/>
<path d="M104.167 -47.9859C94.4556 -46.723 84.7441 -45.5209 75.0323 -44.3794C14.8499 -37.2783 -45.4916 -31.634 -105.965 -28.0844C-123.573 -27.0252 -141.301 -25.7832 -158.971 -25.2095C-158.562 -16.1015 -157.909 -6.8428 -156.983 2.11086C-151.043 36.5782 -142.793 71.2771 -137.791 106.144C-111.553 122.307 -80.6371 129.165 -50.0255 125.614C-19.4139 122.063 9.11076 108.309 30.9522 86.5694L161.091 -44.7157C142.117 -45.6742 123.142 -46.7643 104.167 -47.9859Z" stroke="#9A52FF" stroke-width="2.0719" stroke-miterlimit="10" stroke-linecap="round"/>
<path d="M104.167 -47.9859C94.4556 -46.723 84.7441 -45.5209 75.0323 -44.3794C14.8499 -37.2783 -45.4916 -31.634 -105.965 -28.0844C-123.573 -27.0252 -141.301 -25.7832 -158.971 -25.2095C-158.562 -16.1015 -157.909 -6.8428 -156.983 2.11087C-151.386 34.6365 -143.723 67.3644 -138.671 100.196C-112.803 115.338 -82.6495 121.485 -52.9191 117.679C-23.1888 113.872 4.44363 100.326 25.6619 79.1557L149.093 -45.3546C134.128 -46.171 119.152 -47.0481 104.167 -47.9859Z" stroke="#9A52FF" stroke-width="2.0719" stroke-miterlimit="10" stroke-linecap="round"/>
<path d="M104.167 -47.9859C94.4556 -46.723 84.7441 -45.5209 75.0323 -44.3794C14.8499 -37.2783 -45.4916 -31.634 -105.965 -28.0844C-123.573 -27.0252 -141.301 -25.7832 -158.971 -25.2095C-158.562 -16.1015 -157.909 -6.8428 -156.983 2.11087C-151.386 34.6365 -143.723 67.3644 -138.671 100.196C-112.803 115.338 -82.6495 121.485 -52.9191 117.679C-23.1888 113.872 4.44363 100.326 25.6619 79.1557L149.093 -45.3546C134.128 -46.171 119.152 -47.0481 104.167 -47.9859Z" stroke="#9A52FF" stroke-width="2.0719" stroke-miterlimit="10" stroke-linecap="round"/>
<path d="M104.167 -47.9859C94.4556 -46.723 84.7441 -45.5209 75.0323 -44.3794C14.8499 -37.2783 -45.4916 -31.634 -105.965 -28.0844C-123.573 -27.0252 -141.301 -25.7832 -158.971 -25.2095C-158.562 -16.1015 -157.909 -6.8428 -156.983 2.11087C-151.731 32.4518 -144.716 63.0876 -139.674 93.7939C-114.191 108.021 -84.7682 113.564 -55.8548 109.585C-26.9413 105.607 -0.109414 92.3224 20.5841 71.7411L137.155 -45.9937L104.167 -47.9859Z" stroke="#9A52FF" stroke-width="2.0719" stroke-miterlimit="10" stroke-linecap="round"/>
<path d="M104.167 -47.9859C94.4556 -46.723 84.7441 -45.5209 75.0323 -44.3794C14.8499 -37.2783 -45.4916 -31.634 -105.965 -28.0844C-123.573 -27.0252 -141.301 -25.7832 -158.971 -25.2095C-158.562 -16.1015 -157.909 -6.8428 -156.983 2.11087C-151.731 32.4518 -144.716 63.0876 -139.674 93.7939C-114.191 108.021 -84.7682 113.564 -55.8548 109.585C-26.9413 105.607 -0.109414 92.3224 20.5841 71.7411L137.155 -45.9937L104.167 -47.9859Z" stroke="#9A52FF" stroke-width="2.0719" stroke-miterlimit="10" stroke-linecap="round"/>
<path d="M104.167 -47.9859C94.4556 -46.723 84.7441 -45.5209 75.0323 -44.3794C14.8499 -37.2783 -45.4916 -31.634 -105.965 -28.0844C-123.573 -27.0252 -141.301 -25.7832 -158.971 -25.2095C-158.562 -16.1015 -157.909 -6.8428 -156.983 2.11087C-152.106 30.419 -145.678 58.9017 -140.738 87.4525C-115.662 100.756 -86.988 105.688 -58.9082 101.527C-30.8284 97.3663 -4.81632 84.331 15.3242 64.3273L125.187 -46.6631L104.167 -47.9859Z" stroke="#9A52FF" stroke-width="2.0719" stroke-miterlimit="10" stroke-linecap="round"/>
<path d="M104.167 -47.9859C94.4556 -46.723 84.7441 -45.5209 75.0323 -44.3794C14.8499 -37.2783 -45.4916 -31.634 -105.965 -28.0844C-123.573 -27.0252 -141.301 -25.7832 -158.971 -25.2095C-158.562 -16.1015 -157.909 -6.8428 -156.983 2.11087C-152.106 30.419 -145.678 58.9017 -140.738 87.4525C-115.662 100.756 -86.988 105.688 -58.9082 101.527C-30.8284 97.3663 -4.81632 84.331 15.3242 64.3273L125.187 -46.6631L104.167 -47.9859Z" stroke="#9A52FF" stroke-width="2.0719" stroke-miterlimit="10" stroke-linecap="round"/>
<path d="M104.167 -47.9859C94.4556 -46.723 84.7441 -45.5209 75.0324 -44.3794C14.8499 -37.2783 -45.4916 -31.634 -105.965 -28.0844C-123.573 -27.0252 -141.301 -25.7832 -158.971 -25.2095C-158.562 -16.1015 -157.909 -6.8428 -156.983 2.11086C-152.481 28.2648 -146.641 54.564 -141.894 80.9901C-117.201 93.4019 -89.2285 97.7291 -61.9393 93.3588C-34.6502 88.9885 -9.428 76.1422 10.154 56.6397L113.28 -47.3631L104.167 -47.9859Z" stroke="#9A52FF" stroke-width="2.0719" stroke-miterlimit="10" stroke-linecap="round"/>
<path d="M104.167 -47.9859C94.4556 -46.723 84.7441 -45.5209 75.0324 -44.3794C14.8499 -37.2783 -45.4916 -31.634 -105.965 -28.0844C-123.573 -27.0252 -141.301 -25.7832 -158.971 -25.2095C-158.562 -16.1015 -157.909 -6.8428 -156.983 2.11086C-152.481 28.2648 -146.641 54.564 -141.894 80.9901C-117.201 93.4019 -89.2285 97.7291 -61.9393 93.3588C-34.6502 88.9885 -9.428 76.1422 10.154 56.6397L113.28 -47.3631L104.167 -47.9859Z" stroke="#9A52FF" stroke-width="2.0719" stroke-miterlimit="10" stroke-linecap="round"/>
<path d="M75.0327 -44.2883C14.8502 -37.1872 -45.4913 -31.5429 -105.965 -27.9933C-123.572 -26.9341 -141.3 -25.6921 -158.971 -25.1184C-158.562 -16.0104 -157.908 -6.75169 -156.983 2.20198C-152.856 26.1714 -147.634 50.2568 -143.081 74.4063C-118.808 86.0287 -91.5293 89.8393 -65.001 85.3133C-38.4727 80.7872 -14.0004 68.1471 5.0453 49.1341L100.768 -47.4528C92.1797 -46.3777 83.6215 -45.3027 75.0327 -44.2883Z" stroke="#9A52FF" stroke-width="2.0719" stroke-miterlimit="10" stroke-linecap="round"/>
<path d="M75.0327 -44.2883C14.8502 -37.1872 -45.4913 -31.5429 -105.965 -27.9933C-123.572 -26.9341 -141.3 -25.6921 -158.971 -25.1184C-158.562 -16.0104 -157.908 -6.75169 -156.983 2.20198C-152.856 26.1714 -147.634 50.2568 -143.081 74.4063C-118.808 86.0287 -91.5293 89.8393 -65.001 85.3133C-38.4727 80.7872 -14.0004 68.1471 5.0453 49.1341L100.768 -47.4528C92.1797 -46.3777 83.6215 -45.3027 75.0327 -44.2883Z" stroke="#9A52FF" stroke-width="2.0719" stroke-miterlimit="10" stroke-linecap="round"/>
<path d="M75.033 -44.2881C14.8505 -37.187 -45.491 -31.5427 -105.964 -27.9931C-123.572 -26.9339 -141.3 -25.6919 -158.971 -25.1183C-158.561 -16.0102 -157.908 -6.75151 -156.983 2.20215C-153.231 23.9263 -148.567 45.737 -144.511 67.6114C-120.663 78.4947 -94.0615 81.8413 -68.2609 77.2039C-42.4602 72.5665 -18.6891 60.166 -0.123533 41.6593L86.3226 -45.6803L75.033 -44.2881Z" stroke="#9A52FF" stroke-width="2.0719" stroke-miterlimit="10" stroke-linecap="round"/>
<path d="M75.033 -44.2881C14.8505 -37.187 -45.491 -31.5427 -105.964 -27.9931C-123.572 -26.9339 -141.3 -25.6919 -158.971 -25.1183C-158.561 -16.0102 -157.908 -6.75151 -156.983 2.20215C-153.231 23.9263 -148.567 45.737 -144.511 67.6114C-120.663 78.4947 -94.0615 81.8413 -68.2609 77.2039C-42.4602 72.5665 -18.6891 60.166 -0.123533 41.6593L86.3226 -45.6803L75.033 -44.2881Z" stroke="#9A52FF" stroke-width="2.0719" stroke-miterlimit="10" stroke-linecap="round"/>
<path d="M-105.964 -27.9928C-123.572 -26.9336 -141.3 -25.6916 -158.97 -25.118C-158.561 -16.0099 -157.908 -6.75122 -156.982 2.20245C-153.636 21.8029 -149.53 41.3388 -145.698 60.9672C-122.299 71.0051 -96.4314 73.8099 -71.4249 69.0206C-46.4185 64.2314 -23.4178 52.0672 -5.38386 34.094L71.8467 -43.9076C12.7566 -36.9941 -46.5533 -31.5068 -105.964 -27.9928Z" stroke="#9A52FF" stroke-width="2.0719" stroke-miterlimit="10" stroke-linecap="round"/>
<path d="M-105.964 -27.9928C-123.572 -26.9336 -141.3 -25.6916 -158.97 -25.118C-158.561 -16.0099 -157.908 -6.75122 -156.982 2.20245C-153.636 21.8029 -149.53 41.3388 -145.698 60.9672C-122.299 71.0051 -96.4314 73.8099 -71.4249 69.0206C-46.4185 64.2314 -23.4178 52.0672 -5.38386 34.094L71.8467 -43.9076C12.7566 -36.9941 -46.5533 -31.5068 -105.964 -27.9928Z" stroke="#9A52FF" stroke-width="2.0719" stroke-miterlimit="10" stroke-linecap="round"/>
<path d="M-105.964 -27.993C-123.572 -26.9338 -141.3 -25.6918 -158.971 -25.1182C-158.561 -16.0101 -157.908 -6.75143 -156.983 2.20223C-154.012 19.4663 -150.464 36.7578 -147.007 54.1106C-124.061 63.43 -98.8789 65.7869 -74.6019 60.887C-50.325 55.9872 -28.0281 44.0476 -10.4929 26.5578L57.794 -42.4108C3.31644 -36.1275 -51.2589 -31.2103 -105.964 -27.993Z" stroke="#9A52FF" stroke-width="2.0719" stroke-miterlimit="10" stroke-linecap="round"/>
<path d="M-105.964 -27.993C-123.572 -26.9338 -141.3 -25.6918 -158.971 -25.1182C-158.561 -16.0101 -157.908 -6.75143 -156.983 2.20223C-154.012 19.4663 -150.464 36.7578 -147.007 54.1106C-124.061 63.43 -98.8789 65.7869 -74.6019 60.887C-50.325 55.9872 -28.0281 44.0476 -10.4929 26.5578L57.794 -42.4108C3.31644 -36.1275 -51.2589 -31.2103 -105.964 -27.993Z" stroke="#9A52FF" stroke-width="2.0719" stroke-miterlimit="10" stroke-linecap="round"/>
<path d="M-105.964 -27.9924C-123.572 -26.9332 -141.3 -25.6912 -158.971 -25.1176C-158.561 -16.0095 -157.908 -6.75085 -156.983 2.20281C-154.418 17.2217 -151.428 32.2385 -148.439 47.1339C-125.941 55.7688 -101.425 57.7092 -77.8492 52.7211C-54.2731 47.7329 -32.644 36.0293 -15.5714 19.0222L43.4993 -40.7297C-6.21479 -35.2901 -56.0558 -30.943 -105.964 -27.9924Z" stroke="#9A52FF" stroke-width="2.0719" stroke-miterlimit="10" stroke-linecap="round"/>
<path d="M-105.964 -27.9924C-123.572 -26.9332 -141.3 -25.6912 -158.971 -25.1176C-158.561 -16.0095 -157.908 -6.75085 -156.983 2.20281C-154.418 17.2217 -151.428 32.2385 -148.439 47.1339C-125.941 55.7688 -101.425 57.7092 -77.8492 52.7211C-54.2731 47.7329 -32.644 36.0293 -15.5714 19.0222L43.4993 -40.7297C-6.21479 -35.2901 -56.0558 -30.943 -105.964 -27.9924Z" stroke="#9A52FF" stroke-width="2.0719" stroke-miterlimit="10" stroke-linecap="round"/>
<path d="M-105.964 -27.9928C-123.572 -26.9336 -141.3 -25.6916 -158.971 -25.118C-158.561 -16.0099 -157.908 -6.75122 -156.983 2.20245C-154.825 14.8244 -152.333 27.4447 -149.81 40.1256C-127.81 48.0912 -103.998 49.6339 -81.1549 44.5735C-58.3113 39.5131 -37.3786 28.0585 -20.8012 11.5472L29.4167 -39.2025C-15.6245 -34.4845 -60.7611 -30.6467 -105.964 -27.9928Z" stroke="#9A52FF" stroke-width="2.0719" stroke-miterlimit="10" stroke-linecap="round"/>
<path d="M-105.964 -27.9928C-123.572 -26.9336 -141.3 -25.6916 -158.971 -25.118C-158.561 -16.0099 -157.908 -6.75122 -156.983 2.20245C-154.825 14.8244 -152.333 27.4447 -149.81 40.1256C-127.81 48.0912 -103.998 49.6339 -81.1549 44.5735C-58.3113 39.5131 -37.3786 28.0585 -20.8012 11.5472L29.4167 -39.2025C-15.6245 -34.4845 -60.7611 -30.6467 -105.964 -27.9928Z" stroke="#9A52FF" stroke-width="2.0719" stroke-miterlimit="10" stroke-linecap="round"/>
<path d="M-105.964 -27.9927C-123.572 -26.9335 -141.3 -25.6915 -158.97 -25.1178C-158.561 -16.0098 -157.907 -6.75109 -156.982 2.20258C-155.231 12.4579 -153.236 22.7424 -151.211 33.0268C-129.719 40.3228 -106.614 41.4666 -84.506 36.3291C-62.3977 31.1915 -42.1653 19.9771 -26.092 3.95146L15.1822 -37.7348C-25.1251 -33.7084 -65.4967 -30.3801 -105.964 -27.9927Z" stroke="#9A52FF" stroke-width="2.0719" stroke-miterlimit="10" stroke-linecap="round"/>
<path d="M-105.964 -27.9927C-123.572 -26.9335 -141.3 -25.6915 -158.97 -25.1178C-158.561 -16.0098 -157.907 -6.75109 -156.982 2.20258C-155.231 12.4579 -153.236 22.7424 -151.211 33.0268C-129.719 40.3228 -106.614 41.4666 -84.506 36.3291C-62.3977 31.1915 -42.1653 19.9771 -26.092 3.95146L15.1822 -37.7348C-25.1251 -33.7084 -65.4967 -30.3801 -105.964 -27.9927Z" stroke="#9A52FF" stroke-width="2.0719" stroke-miterlimit="10" stroke-linecap="round"/>
<path d="M-105.964 -27.9933C-123.572 -26.9341 -141.3 -25.6921 -158.971 -25.1185C-158.561 -16.0104 -157.908 -6.75175 -156.983 2.20191C-155.607 10.1816 -154.11 18.1607 -152.552 26.1698C-131.549 32.7821 -109.137 33.513 -87.7481 28.2834C-66.3595 23.0537 -46.8128 12.0634 -31.2311 -3.49395L1.55368 -36.3924C-34.323 -32.9548 -70.1624 -30.1551 -105.964 -27.9933Z" stroke="#9A52FF" stroke-width="2.0719" stroke-miterlimit="10" stroke-linecap="round"/>
<path d="M-105.964 -27.9933C-123.572 -26.9341 -141.3 -25.6921 -158.971 -25.1185C-158.561 -16.0104 -157.908 -6.75175 -156.983 2.20191C-155.607 10.1816 -154.11 18.1607 -152.552 26.1698C-131.549 32.7821 -109.137 33.513 -87.7481 28.2834C-66.3595 23.0537 -46.8128 12.0634 -31.2311 -3.49395L1.55368 -36.3924C-34.323 -32.9548 -70.1624 -30.1551 -105.964 -27.9933Z" stroke="#9A52FF" stroke-width="2.0719" stroke-miterlimit="10" stroke-linecap="round"/>
</g>
</svg>
