<svg width="295" height="784" viewBox="0 0 295 784" fill="none" xmlns="http://www.w3.org/2000/svg">
<g opacity="0.9">
<mask id="mask0_3274_149741" style="mask-type:alpha" maskUnits="userSpaceOnUse" x="0" y="0" width="295" height="784">
<rect width="295" height="784" transform="matrix(-1 0 0 1 295 0)" fill="#C4C4C4"/>
</mask>
<g mask="url(#mask0_3274_149741)">
<path d="M2209.96 1248.16L2045.69 1085.73C1996.16 1036.7 1996.16 957.247 2045.69 908.215L2209.84 745.907L2209.84 746.394L2426.07 532.621C2504.32 455.239 2504.32 329.797 2426.07 252.416L2209.84 38.6421L2200.59 29.6386L1986.92 -186.325C1909.52 -264.558 1784.07 -264.558 1706.68 -186.325L1492.88 29.8819L1493.36 29.8819L1331.4 193.528C1282.36 243.047 1202.9 243.047 1153.87 193.528L991.418 29.2736L991.296 29.2736L778.105 -186.325C700.714 -264.558 575.258 -264.558 497.867 -186.325L284.068 29.882L275.915 37.4255L59.6822 251.077C-18.5607 328.459 -18.5607 453.901 59.6822 531.282L276.037 744.691L440.31 907.12C489.836 956.152 489.836 1035.6 440.31 1084.64L276.158 1246.94L276.158 1246.46L59.9256 1460.23C-18.3173 1537.61 -18.3173 1663.05 59.9257 1740.43L276.158 1954.21L285.406 1963.21L499.206 2179.42C576.597 2257.65 702.053 2257.65 779.444 2179.42L993.121 1963.09L992.513 1963.09L1154.47 1799.44C1203.51 1749.92 1282.97 1749.92 1332.01 1799.44L1494.46 1963.7L1494.83 1963.7L1708.14 2179.3C1785.53 2257.53 1910.99 2257.53 1988.38 2179.3L2201.93 1963.09L2210.08 1955.55L2426.32 1741.77C2504.56 1664.39 2504.56 1538.95 2426.32 1461.57L2210.08 1247.79L2209.96 1248.16Z" stroke="url(#paint0_linear_3274_149741)" stroke-width="1.75" stroke-miterlimit="10" stroke-linecap="round"/>
<path d="M2209.96 1248.16L2045.69 1085.73C1996.16 1036.7 1996.16 957.247 2045.69 908.215L2209.84 745.907L2209.84 746.394L2426.07 532.621C2504.32 455.239 2504.32 329.797 2426.07 252.416L2209.84 38.6421L2200.59 29.6386L1986.92 -186.325C1909.52 -264.558 1784.07 -264.558 1706.68 -186.325L1492.88 29.8819L1493.36 29.8819L1331.4 193.528C1282.36 243.047 1202.9 243.047 1153.87 193.528L991.418 29.2736L991.296 29.2736L778.105 -186.325C700.714 -264.558 575.258 -264.558 497.867 -186.325L284.068 29.882L275.915 37.4255L59.6822 251.077C-18.5607 328.459 -18.5607 453.901 59.6822 531.282L276.037 744.691L440.31 907.12C489.836 956.152 489.836 1035.6 440.31 1084.64L276.158 1246.94L276.158 1246.46L59.9256 1460.23C-18.3173 1537.61 -18.3173 1663.05 59.9257 1740.43L276.158 1954.21L285.406 1963.21L499.206 2179.42C576.597 2257.65 702.053 2257.65 779.444 2179.42L993.121 1963.09L992.513 1963.09L1154.47 1799.44C1203.51 1749.92 1282.97 1749.92 1332.01 1799.44L1494.46 1963.7L1494.83 1963.7L1708.14 2179.3C1785.53 2257.53 1910.99 2257.53 1988.38 2179.3L2201.93 1963.09L2210.08 1955.55L2426.32 1741.77C2504.56 1664.39 2504.56 1538.95 2426.32 1461.57L2210.08 1247.79L2209.96 1248.16Z" stroke="url(#paint1_linear_3274_149741)" stroke-width="1.75" stroke-miterlimit="10" stroke-linecap="round"/>
<path d="M2201.33 1245.97L2038.63 1085C1989.47 1036.45 1989.47 957.734 2038.63 909.188L2201.33 748.341L2201.33 748.827L2415.61 537.001C2493.12 460.349 2493.12 336.003 2415.61 259.351L2201.33 47.524L2192.2 38.6422L1980.22 -175.74C1903.56 -253.243 1779.2 -253.243 1702.54 -175.74L1490.69 38.5205L1491.18 38.5205L1330.8 200.706C1282.24 249.861 1203.52 249.861 1154.96 200.706L993.975 38.0339L993.61 38.0339L782.245 -175.74C705.584 -253.243 581.222 -253.243 504.561 -175.74L292.709 38.5205L284.557 45.9424L70.3924 257.769C-7.12035 334.421 -7.12034 458.767 70.3925 535.419L284.8 747.002L447.492 907.971C496.652 956.517 496.652 1035.24 447.492 1083.78L284.8 1244.63L284.8 1244.14L70.5142 1455.97C-6.99858 1532.62 -6.99857 1656.97 70.5142 1733.62L284.8 1945.45L293.926 1954.33L505.778 2168.59C582.439 2246.09 706.801 2246.09 783.462 2168.59L995.314 1954.33L994.827 1954.33L1155.33 1792.14C1203.88 1742.99 1282.61 1742.99 1331.16 1792.14L1492.15 1954.82L1492.52 1954.82L1703.88 2168.47C1780.54 2245.97 1904.9 2245.97 1981.56 2168.47L2193.42 1954.21L2201.57 1946.79L2415.85 1734.96C2493.37 1658.31 2493.37 1533.96 2415.85 1457.31L2201.57 1245.48L2201.33 1245.97Z" stroke="url(#paint2_linear_3274_149741)" stroke-width="1.75" stroke-miterlimit="10" stroke-linecap="round"/>
<path d="M2201.33 1245.97L2038.63 1085C1989.47 1036.45 1989.47 957.734 2038.63 909.188L2201.33 748.341L2201.33 748.827L2415.61 537.001C2493.12 460.349 2493.12 336.003 2415.61 259.351L2201.33 47.524L2192.2 38.6422L1980.22 -175.74C1903.56 -253.243 1779.2 -253.243 1702.54 -175.74L1490.69 38.5205L1491.18 38.5205L1330.8 200.706C1282.24 249.861 1203.52 249.861 1154.96 200.706L993.975 38.0339L993.61 38.0339L782.245 -175.74C705.584 -253.243 581.222 -253.243 504.561 -175.74L292.709 38.5205L284.557 45.9424L70.3924 257.769C-7.12035 334.421 -7.12034 458.767 70.3925 535.419L284.8 747.002L447.492 907.971C496.652 956.517 496.652 1035.24 447.492 1083.78L284.8 1244.63L284.8 1244.14L70.5142 1455.97C-6.99858 1532.62 -6.99857 1656.97 70.5142 1733.62L284.8 1945.45L293.926 1954.33L505.778 2168.59C582.439 2246.09 706.801 2246.09 783.462 2168.59L995.314 1954.33L994.827 1954.33L1155.33 1792.14C1203.88 1742.99 1282.61 1742.99 1331.16 1792.14L1492.15 1954.82L1492.52 1954.82L1703.88 2168.47C1780.54 2245.97 1904.9 2245.97 1981.56 2168.47L2193.42 1954.21L2201.57 1946.79L2415.85 1734.96C2493.37 1658.31 2493.37 1533.96 2415.85 1457.31L2201.57 1245.48L2201.33 1245.97Z" stroke="url(#paint3_linear_3274_149741)" stroke-width="1.75" stroke-miterlimit="10" stroke-linecap="round"/>
<path d="M2192.56 1243.66L2031.33 1084.15C1982.66 1035.97 1982.66 957.979 2031.33 909.919L2192.56 750.532L2192.56 751.019L2404.9 541.139C2481.8 465.095 2481.8 341.965 2404.9 265.922L2192.56 56.0419L2183.56 47.2816L1973.53 -165.032C1897.48 -241.927 1774.33 -241.927 1698.28 -165.032L1488.37 47.2817L1488.86 47.2817L1329.82 208.007C1281.63 256.675 1203.63 256.675 1155.57 208.007L996.162 46.6733L995.797 46.6733L786.378 -165.032C710.326 -241.927 587.181 -241.927 511.129 -165.032L301.345 47.16L293.314 54.4602L80.9752 264.462C4.07081 340.505 4.07082 463.635 80.9752 539.679L293.436 749.315L454.667 908.703C503.341 956.884 503.341 1034.87 454.667 1082.93L293.436 1242.32L293.436 1241.83L81.097 1451.71C4.19257 1527.76 4.19258 1650.89 81.097 1726.93L293.436 1936.81L302.44 1945.57L512.346 2157.88C588.398 2234.78 711.543 2234.78 787.595 2157.88L997.5 1945.57L997.014 1945.57L1156.05 1784.85C1204.24 1736.18 1282.24 1736.18 1330.31 1784.85L1489.83 1946.06L1490.2 1946.06L1699.62 2157.88C1775.67 2234.78 1898.82 2234.78 1974.87 2157.88L2184.77 1945.57L2192.8 1938.27L2405.14 1728.39C2482.05 1652.35 2482.05 1529.22 2405.14 1453.17L2192.8 1243.29L2192.56 1243.66Z" stroke="url(#paint4_linear_3274_149741)" stroke-width="1.75" stroke-miterlimit="10" stroke-linecap="round"/>
<path d="M2192.56 1243.66L2031.33 1084.15C1982.66 1035.97 1982.66 957.979 2031.33 909.919L2192.56 750.532L2192.56 751.019L2404.9 541.139C2481.8 465.095 2481.8 341.965 2404.9 265.922L2192.56 56.0419L2183.56 47.2816L1973.53 -165.032C1897.48 -241.927 1774.33 -241.927 1698.28 -165.032L1488.37 47.2817L1488.86 47.2817L1329.82 208.007C1281.63 256.675 1203.63 256.675 1155.57 208.007L996.162 46.6733L995.797 46.6733L786.378 -165.032C710.326 -241.927 587.181 -241.927 511.129 -165.032L301.345 47.16L293.314 54.4602L80.9752 264.462C4.07081 340.505 4.07082 463.635 80.9752 539.679L293.436 749.315L454.667 908.703C503.341 956.884 503.341 1034.87 454.667 1082.93L293.436 1242.32L293.436 1241.83L81.097 1451.71C4.19257 1527.76 4.19258 1650.89 81.097 1726.93L293.436 1936.81L302.44 1945.57L512.346 2157.88C588.398 2234.78 711.543 2234.78 787.595 2157.88L997.5 1945.57L997.014 1945.57L1156.05 1784.85C1204.24 1736.18 1282.24 1736.18 1330.31 1784.85L1489.83 1946.06L1490.2 1946.06L1699.62 2157.88C1775.67 2234.78 1898.82 2234.78 1974.87 2157.88L2184.77 1945.57L2192.8 1938.27L2405.14 1728.39C2482.05 1652.35 2482.05 1529.22 2405.14 1453.17L2192.8 1243.29L2192.56 1243.66Z" stroke="url(#paint5_linear_3274_149741)" stroke-width="1.75" stroke-miterlimit="10" stroke-linecap="round"/>
<path d="M2183.92 1241.35L2024.15 1083.42C1975.96 1035.72 1975.96 958.465 2024.15 910.77L2183.92 752.843L2183.92 753.33L2394.31 545.397C2470.49 470.083 2470.49 348.049 2394.31 272.735L2183.92 64.802L2174.91 56.0418L1966.83 -154.447C1891.51 -230.612 1769.46 -230.612 1694.14 -154.447L1486.18 55.9201L1486.67 55.9201L1329.09 215.186C1281.39 263.367 1204.12 263.367 1156.42 215.186L998.472 55.4335L998.107 55.4335L790.636 -154.446C715.313 -230.612 593.264 -230.612 517.942 -154.446L309.862 55.9202L301.831 63.2203L91.5604 271.154C15.3862 346.467 15.3862 468.502 91.5604 543.815L302.074 751.505L461.845 909.554C510.032 957.248 510.032 1034.51 461.845 1082.2L302.074 1240.13L302.074 1239.64L91.6822 1447.58C15.5079 1522.89 15.5079 1644.92 91.6822 1720.24L302.074 1928.17L311.079 1936.93L519.159 2147.3C594.481 2223.46 716.53 2223.46 791.853 2147.3L999.811 1937.05L999.324 1937.05L1156.78 1777.79C1204.48 1729.61 1281.75 1729.61 1329.45 1777.79L1487.52 1937.54L1487.89 1937.54L1695.36 2147.42C1770.68 2223.58 1892.73 2223.58 1968.05 2147.42L2176.01 1937.05L2184.04 1929.75L2394.43 1721.82C2470.61 1646.51 2470.61 1524.47 2394.43 1449.16L2184.04 1241.22L2183.92 1241.35Z" stroke="url(#paint6_linear_3274_149741)" stroke-width="1.75" stroke-miterlimit="10" stroke-linecap="round"/>
<path d="M2183.92 1241.35L2024.15 1083.42C1975.96 1035.72 1975.96 958.465 2024.15 910.77L2183.92 752.843L2183.92 753.33L2394.31 545.397C2470.49 470.083 2470.49 348.049 2394.31 272.735L2183.92 64.802L2174.91 56.0418L1966.83 -154.447C1891.51 -230.612 1769.46 -230.612 1694.14 -154.447L1486.18 55.9201L1486.67 55.9201L1329.09 215.186C1281.39 263.367 1204.12 263.367 1156.42 215.186L998.472 55.4335L998.107 55.4335L790.636 -154.446C715.313 -230.612 593.264 -230.612 517.942 -154.446L309.862 55.9202L301.831 63.2203L91.5604 271.154C15.3862 346.467 15.3862 468.502 91.5604 543.815L302.074 751.505L461.845 909.554C510.032 957.248 510.032 1034.51 461.845 1082.2L302.074 1240.13L302.074 1239.64L91.6822 1447.58C15.5079 1522.89 15.5079 1644.92 91.6822 1720.24L302.074 1928.17L311.079 1936.93L519.159 2147.3C594.481 2223.46 716.53 2223.46 791.853 2147.3L999.811 1937.05L999.324 1937.05L1156.78 1777.79C1204.48 1729.61 1281.75 1729.61 1329.45 1777.79L1487.52 1937.54L1487.89 1937.54L1695.36 2147.42C1770.68 2223.58 1892.73 2223.58 1968.05 2147.42L2176.01 1937.05L2184.04 1929.75L2394.43 1721.82C2470.61 1646.51 2470.61 1524.47 2394.43 1449.16L2184.04 1241.22L2183.92 1241.35Z" stroke="url(#paint7_linear_3274_149741)" stroke-width="1.75" stroke-miterlimit="10" stroke-linecap="round"/>
<path d="M2175.28 1239.15L2016.97 1082.56C1969.15 1035.36 1969.15 958.705 2016.97 911.497L2175.28 755.03L2175.28 755.517L2383.73 549.408C2459.17 474.825 2459.17 353.885 2383.73 279.302L2175.28 73.1934L2166.4 64.5549L1960.14 -143.743C1885.55 -219.179 1764.6 -219.179 1690.01 -143.743L1483.87 64.6766L1484.36 64.6766L1328.36 222.36C1281.15 270.177 1204.49 270.177 1157.27 222.36L1000.66 64.0683L1000.3 64.0683L794.654 -143.865C720.061 -219.3 599.107 -219.3 524.515 -143.865L318.382 64.555L310.472 71.7335L102.271 277.842C26.8265 352.425 26.8265 473.365 102.271 547.948L310.837 753.692L469.148 910.28C516.97 957.488 516.97 1034.14 469.148 1081.35L310.837 1237.94L310.837 1237.45L102.392 1443.56C26.9482 1518.14 26.9483 1639.08 102.392 1713.66L310.837 1919.77L319.72 1928.41L525.853 2136.83C600.446 2212.27 721.4 2212.27 795.992 2136.83L1002.13 1928.41L1001.64 1928.41L1157.76 1770.61C1204.97 1722.79 1281.63 1722.79 1328.85 1770.61L1485.45 1928.9L1485.82 1928.9L1691.47 2136.83C1766.06 2212.27 1887.01 2212.27 1961.6 2136.83L2167.74 1928.41L2175.65 1921.23L2384.09 1715.12C2459.54 1640.54 2459.54 1519.6 2384.09 1445.02L2175.65 1238.91L2175.28 1239.15Z" stroke="url(#paint8_linear_3274_149741)" stroke-width="1.75" stroke-miterlimit="10" stroke-linecap="round"/>
<path d="M2175.28 1239.15L2016.97 1082.56C1969.15 1035.36 1969.15 958.705 2016.97 911.497L2175.28 755.03L2175.28 755.517L2383.73 549.408C2459.17 474.825 2459.17 353.885 2383.73 279.302L2175.28 73.1934L2166.4 64.5549L1960.14 -143.743C1885.55 -219.179 1764.6 -219.179 1690.01 -143.743L1483.87 64.6766L1484.36 64.6766L1328.36 222.36C1281.15 270.177 1204.49 270.177 1157.27 222.36L1000.66 64.0683L1000.3 64.0683L794.654 -143.865C720.061 -219.3 599.107 -219.3 524.515 -143.865L318.382 64.555L310.472 71.7335L102.271 277.842C26.8265 352.425 26.8265 473.365 102.271 547.948L310.837 753.692L469.148 910.28C516.97 957.488 516.97 1034.14 469.148 1081.35L310.837 1237.94L310.837 1237.45L102.392 1443.56C26.9482 1518.14 26.9483 1639.08 102.392 1713.66L310.837 1919.77L319.72 1928.41L525.853 2136.83C600.446 2212.27 721.4 2212.27 795.992 2136.83L1002.13 1928.41L1001.64 1928.41L1157.76 1770.61C1204.97 1722.79 1281.63 1722.79 1328.85 1770.61L1485.45 1928.9L1485.82 1928.9L1691.47 2136.83C1766.06 2212.27 1887.01 2212.27 1961.6 2136.83L2167.74 1928.41L2175.65 1921.23L2384.09 1715.12C2459.54 1640.54 2459.54 1519.6 2384.09 1445.02L2175.65 1238.91L2175.28 1239.15Z" stroke="url(#paint9_linear_3274_149741)" stroke-width="1.75" stroke-miterlimit="10" stroke-linecap="round"/>
<path d="M2166.52 1236.84L2009.67 1081.72C1962.34 1034.87 1962.34 959.073 2009.67 912.23L2166.52 757.345L2166.52 757.831L2373.02 553.67C2447.74 479.816 2447.74 359.972 2373.02 286.119L2166.52 81.957L2157.76 73.4401L1953.58 -133.033C1879.71 -207.738 1759.85 -207.738 1685.99 -133.033L1481.68 73.3184L1482.17 73.3184L1327.51 229.664C1280.66 276.993 1204.85 276.993 1158 229.664L1002.98 72.8318L1002.61 72.8318L799.036 -133.155C725.174 -207.86 605.315 -207.86 531.453 -133.155L327.267 73.3185L319.479 80.497L112.981 284.659C38.2668 358.512 38.2668 478.357 112.981 552.21L319.601 756.128L476.452 911.257C523.787 958.1 523.787 1033.9 476.452 1080.74L319.722 1235.75L319.722 1235.26L113.224 1439.42C38.5103 1513.28 38.5103 1633.12 113.224 1706.98L319.722 1911.14L328.484 1919.65L532.548 2126.13C606.41 2200.83 726.269 2200.83 800.132 2126.13L1004.32 1919.65L1003.83 1919.65L1158.49 1763.31C1205.34 1715.98 1281.15 1715.98 1328 1763.31L1483.14 1920.14L1483.51 1920.14L1687.21 2126.13C1761.07 2200.83 1880.93 2200.83 1954.79 2126.13L2158.98 1919.65L2166.77 1912.48L2373.26 1708.31C2447.98 1634.46 2447.98 1514.62 2373.26 1440.76L2166.77 1236.6L2166.52 1236.84Z" stroke="url(#paint10_linear_3274_149741)" stroke-width="1.75" stroke-miterlimit="10" stroke-linecap="round"/>
<path d="M2166.52 1236.84L2009.67 1081.72C1962.34 1034.87 1962.34 959.073 2009.67 912.23L2166.52 757.345L2166.52 757.831L2373.02 553.67C2447.74 479.816 2447.74 359.972 2373.02 286.119L2166.52 81.957L2157.76 73.4401L1953.58 -133.033C1879.71 -207.738 1759.85 -207.738 1685.99 -133.033L1481.68 73.3184L1482.17 73.3184L1327.51 229.664C1280.66 276.993 1204.85 276.993 1158 229.664L1002.98 72.8318L1002.61 72.8318L799.036 -133.155C725.174 -207.86 605.315 -207.86 531.453 -133.155L327.267 73.3185L319.479 80.497L112.981 284.659C38.2668 358.512 38.2668 478.357 112.981 552.21L319.601 756.128L476.452 911.257C523.787 958.1 523.787 1033.9 476.452 1080.74L319.722 1235.75L319.722 1235.26L113.224 1439.42C38.5103 1513.28 38.5103 1633.12 113.224 1706.98L319.722 1911.14L328.484 1919.65L532.548 2126.13C606.41 2200.83 726.269 2200.83 800.132 2126.13L1004.32 1919.65L1003.83 1919.65L1158.49 1763.31C1205.34 1715.98 1281.15 1715.98 1328 1763.31L1483.14 1920.14L1483.51 1920.14L1687.21 2126.13C1761.07 2200.83 1880.93 2200.83 1954.79 2126.13L2158.98 1919.65L2166.77 1912.48L2373.26 1708.31C2447.98 1634.46 2447.98 1514.62 2373.26 1440.76L2166.77 1236.6L2166.52 1236.84Z" stroke="url(#paint11_linear_3274_149741)" stroke-width="1.75" stroke-miterlimit="10" stroke-linecap="round"/>
<path d="M2157.89 1234.65L2002.5 1080.99C1955.65 1034.63 1955.65 959.438 2002.5 913.082L2157.77 759.535L2157.77 760.022L2362.32 557.807C2436.3 484.562 2436.3 365.934 2362.32 292.689L2157.77 90.4739L2149 81.957L1946.76 -122.57C1873.51 -196.545 1754.87 -196.545 1681.61 -122.57L1479.38 81.957L1479.86 81.957L1326.66 236.842C1280.3 283.685 1205.1 283.685 1158.74 236.842L1005.29 81.4704L1004.93 81.4704L803.177 -122.569C729.923 -196.545 611.281 -196.545 538.027 -122.569L335.788 81.9571L328 89.0139L123.449 291.229C49.465 364.474 49.465 483.102 123.449 556.347L328.122 758.318L483.512 911.987C530.361 958.343 530.361 1033.53 483.513 1079.89L328.244 1233.44L328.244 1232.95L123.692 1435.17C49.7084 1508.41 49.7084 1627.04 123.692 1700.28L328.244 1902.5L337.005 1911.02L539.244 2115.54C612.498 2189.52 731.14 2189.52 804.394 2115.54L1006.63 1911.02L1006.15 1911.02L1159.22 1756.13C1205.59 1709.29 1280.79 1709.29 1327.15 1756.13L1480.84 1911.5L1481.2 1911.5L1682.95 2115.54C1756.21 2189.52 1874.85 2189.52 1948.1 2115.54L2150.34 1911.02L2158.13 1903.96L2362.68 1701.74C2436.67 1628.5 2436.67 1509.87 2362.68 1436.63L2158.01 1234.29L2157.89 1234.65Z" stroke="url(#paint12_linear_3274_149741)" stroke-width="1.75" stroke-miterlimit="10" stroke-linecap="round"/>
<path d="M2157.89 1234.65L2002.5 1080.99C1955.65 1034.63 1955.65 959.438 2002.5 913.082L2157.77 759.535L2157.77 760.022L2362.32 557.807C2436.3 484.562 2436.3 365.934 2362.32 292.689L2157.77 90.4739L2149 81.957L1946.76 -122.57C1873.51 -196.545 1754.87 -196.545 1681.61 -122.57L1479.38 81.957L1479.86 81.957L1326.66 236.842C1280.3 283.685 1205.1 283.685 1158.74 236.842L1005.29 81.4704L1004.93 81.4704L803.177 -122.569C729.923 -196.545 611.281 -196.545 538.027 -122.569L335.788 81.9571L328 89.0139L123.449 291.229C49.465 364.474 49.465 483.102 123.449 556.347L328.122 758.318L483.512 911.987C530.361 958.343 530.361 1033.53 483.513 1079.89L328.244 1233.44L328.244 1232.95L123.692 1435.17C49.7084 1508.41 49.7084 1627.04 123.692 1700.28L328.244 1902.5L337.005 1911.02L539.244 2115.54C612.498 2189.52 731.14 2189.52 804.394 2115.54L1006.63 1911.02L1006.15 1911.02L1159.22 1756.13C1205.59 1709.29 1280.79 1709.29 1327.15 1756.13L1480.84 1911.5L1481.2 1911.5L1682.95 2115.54C1756.21 2189.52 1874.85 2189.52 1948.1 2115.54L2150.34 1911.02L2158.13 1903.96L2362.68 1701.74C2436.67 1628.5 2436.67 1509.87 2362.68 1436.63L2158.01 1234.29L2157.89 1234.65Z" stroke="url(#paint13_linear_3274_149741)" stroke-width="1.75" stroke-miterlimit="10" stroke-linecap="round"/>
<path d="M2149.12 1232.34L1995.19 1080.13C1948.71 1034.27 1948.71 959.804 1995.19 913.812L2149 761.726L2149 762.212L2351.61 561.944C2424.98 489.429 2424.98 371.896 2351.61 299.381L2149.12 99.1133L2140.48 90.7181L1940.19 -111.862C1867.67 -185.228 1750.12 -185.228 1677.6 -111.862L1477.31 90.7181L1477.79 90.7181L1325.93 244.022C1280.06 290.499 1205.59 290.499 1159.59 244.022L1007.48 90.2314L1007.24 90.2314L807.313 -111.862C734.79 -185.228 617.243 -185.228 544.719 -111.862L344.427 90.7181L336.761 97.7749L134.157 298.043C60.7812 370.558 60.7812 488.091 134.157 560.606L336.882 760.631L490.813 912.839C537.296 958.709 537.296 1033.17 490.813 1079.16L337.004 1231.25L337.004 1230.88L134.4 1431.15C61.0246 1503.67 61.0246 1621.2 134.4 1693.71L337.004 1893.98L345.644 1902.38L545.936 2104.84C618.46 2178.2 736.007 2178.2 808.53 2104.84L1008.82 1902.26L1008.34 1902.26L1160.08 1748.83C1205.95 1702.35 1280.42 1702.35 1326.42 1748.83L1478.64 1902.74L1478.89 1902.74L1678.69 2104.84C1751.22 2178.2 1868.76 2178.2 1941.29 2104.84L2141.58 1902.26L2149.25 1895.2L2351.85 1694.93C2425.23 1622.42 2425.23 1504.88 2351.85 1432.37L2149.25 1232.1L2149.12 1232.34Z" stroke="url(#paint14_linear_3274_149741)" stroke-width="1.75" stroke-miterlimit="10" stroke-linecap="round"/>
<path d="M2149.12 1232.34L1995.19 1080.13C1948.71 1034.27 1948.71 959.804 1995.19 913.812L2149 761.726L2149 762.212L2351.61 561.944C2424.98 489.429 2424.98 371.896 2351.61 299.381L2149.12 99.1133L2140.48 90.7181L1940.19 -111.862C1867.67 -185.228 1750.12 -185.228 1677.6 -111.862L1477.31 90.7181L1477.79 90.7181L1325.93 244.022C1280.06 290.499 1205.59 290.499 1159.59 244.022L1007.48 90.2314L1007.24 90.2314L807.313 -111.862C734.79 -185.228 617.243 -185.228 544.719 -111.862L344.427 90.7181L336.761 97.7749L134.157 298.043C60.7812 370.558 60.7812 488.091 134.157 560.606L336.882 760.631L490.813 912.839C537.296 958.709 537.296 1033.17 490.813 1079.16L337.004 1231.25L337.004 1230.88L134.4 1431.15C61.0246 1503.67 61.0246 1621.2 134.4 1693.71L337.004 1893.98L345.644 1902.38L545.936 2104.84C618.46 2178.2 736.007 2178.2 808.53 2104.84L1008.82 1902.26L1008.34 1902.26L1160.08 1748.83C1205.95 1702.35 1280.42 1702.35 1326.42 1748.83L1478.64 1902.74L1478.89 1902.74L1678.69 2104.84C1751.22 2178.2 1868.76 2178.2 1941.29 2104.84L2141.58 1902.26L2149.25 1895.2L2351.85 1694.93C2425.23 1622.42 2425.23 1504.88 2351.85 1432.37L2149.25 1232.1L2149.12 1232.34Z" stroke="url(#paint15_linear_3274_149741)" stroke-width="1.75" stroke-miterlimit="10" stroke-linecap="round"/>
<path d="M2140.48 1230.03L1988.01 1079.28C1942.02 1033.78 1942.02 960.043 1988.01 914.539L2140.36 763.912L2140.36 764.277L2341.02 565.956C2413.66 494.171 2413.66 377.733 2341.02 305.948L2140.36 107.626L2131.84 99.3528L1933.5 -101.28C1861.7 -173.917 1745.25 -173.917 1673.46 -101.28L1475.11 99.3528L1475.6 99.3528L1325.32 251.318C1279.81 297.309 1206.07 297.309 1160.56 251.318L1009.79 98.8661L1009.55 98.8661L811.57 -101.28C739.776 -173.917 623.325 -173.917 551.531 -101.28L353.186 99.3528L345.641 106.288L144.984 304.609C72.3387 376.394 72.3387 492.832 144.984 564.617L345.763 762.695L498.233 913.444C544.23 958.948 544.23 1032.68 498.233 1078.18L345.885 1228.81L345.885 1228.45L145.228 1426.77C72.5821 1498.55 72.5821 1614.99 145.228 1686.78L345.885 1885.1L354.403 1893.37L552.748 2094C624.542 2166.64 740.993 2166.64 812.787 2094L1011.13 1893.37L1010.65 1893.37L1160.8 1741.65C1206.31 1695.66 1280.05 1695.66 1325.56 1741.65L1476.33 1894.1L1476.57 1894.1L1674.55 2094.25C1746.35 2166.88 1862.8 2166.88 1934.59 2094.25L2132.94 1893.61L2140.48 1886.68L2341.14 1688.36C2413.79 1616.57 2413.79 1500.13 2341.14 1428.35L2140.48 1230.03V1230.03Z" stroke="url(#paint16_linear_3274_149741)" stroke-width="1.75" stroke-miterlimit="10" stroke-linecap="round"/>
<path d="M2140.48 1230.03L1988.01 1079.28C1942.02 1033.78 1942.02 960.043 1988.01 914.539L2140.36 763.912L2140.36 764.277L2341.02 565.956C2413.66 494.171 2413.66 377.733 2341.02 305.948L2140.36 107.626L2131.84 99.3528L1933.5 -101.28C1861.7 -173.917 1745.25 -173.917 1673.46 -101.28L1475.11 99.3528L1475.6 99.3528L1325.32 251.318C1279.81 297.309 1206.07 297.309 1160.56 251.318L1009.79 98.8661L1009.55 98.8661L811.57 -101.28C739.776 -173.917 623.325 -173.917 551.531 -101.28L353.186 99.3528L345.641 106.288L144.984 304.609C72.3387 376.394 72.3387 492.832 144.984 564.617L345.763 762.695L498.233 913.444C544.23 958.948 544.23 1032.68 498.233 1078.18L345.885 1228.81L345.885 1228.45L145.228 1426.77C72.5821 1498.55 72.5821 1614.99 145.228 1686.78L345.885 1885.1L354.403 1893.37L552.748 2094C624.542 2166.64 740.993 2166.64 812.787 2094L1011.13 1893.37L1010.65 1893.37L1160.8 1741.65C1206.31 1695.66 1280.05 1695.66 1325.56 1741.65L1476.33 1894.1L1476.57 1894.1L1674.55 2094.25C1746.35 2166.88 1862.8 2166.88 1934.59 2094.25L2132.94 1893.61L2140.48 1886.68L2341.14 1688.36C2413.79 1616.57 2413.79 1500.13 2341.14 1428.35L2140.48 1230.03V1230.03Z" stroke="url(#paint17_linear_3274_149741)" stroke-width="1.75" stroke-miterlimit="10" stroke-linecap="round"/>
<path d="M2131.72 1227.84L1980.83 1078.55C1935.32 1033.53 1935.32 960.531 1980.83 915.513L2131.72 766.346L2131.72 766.711L2330.43 570.215C2402.35 499.038 2402.35 383.817 2330.43 312.64L2131.72 116.144L2123.2 107.87L1926.68 -90.8161C1855.5 -162.723 1740.26 -162.723 1669.08 -90.8161L1472.56 107.87L1473.04 107.87L1324.35 258.497C1279.32 304.002 1206.31 304.002 1161.29 258.497L1011.98 107.627L1011.74 107.627L815.707 -90.5727C744.522 -162.479 629.287 -162.479 558.102 -90.5727L361.582 108.114L354.037 115.049L155.327 311.545C83.4118 382.722 83.4118 497.943 155.327 569.12L354.159 765.373L505.048 914.661C550.557 959.679 550.557 1032.68 505.048 1077.7L354.159 1226.87L354.159 1226.5L155.449 1423C83.5336 1494.17 83.5336 1609.39 155.449 1680.57L354.281 1876.7L362.799 1884.98L559.319 2083.54C630.504 2155.45 745.739 2155.45 816.924 2083.54L1013.44 1884.85L1012.96 1884.85L1161.66 1734.47C1206.68 1688.97 1279.69 1688.97 1324.71 1734.47L1474.02 1885.34L1474.26 1885.34L1670.3 2083.54C1741.48 2155.45 1856.72 2155.45 1927.9 2083.54L2124.42 1884.85L2131.96 1877.92L2330.68 1681.42C2402.59 1610.25 2402.59 1495.03 2330.68 1423.85L2131.96 1227.35L2131.72 1227.84Z" stroke="url(#paint18_linear_3274_149741)" stroke-width="1.75" stroke-miterlimit="10" stroke-linecap="round"/>
<path d="M2131.72 1227.84L1980.83 1078.55C1935.32 1033.53 1935.32 960.531 1980.83 915.513L2131.72 766.346L2131.72 766.711L2330.43 570.215C2402.35 499.038 2402.35 383.817 2330.43 312.64L2131.72 116.144L2123.2 107.87L1926.68 -90.8161C1855.5 -162.723 1740.26 -162.723 1669.08 -90.8161L1472.56 107.87L1473.04 107.87L1324.35 258.497C1279.32 304.002 1206.31 304.002 1161.29 258.497L1011.98 107.627L1011.74 107.627L815.707 -90.5727C744.522 -162.479 629.287 -162.479 558.102 -90.5727L361.582 108.114L354.037 115.049L155.327 311.545C83.4118 382.722 83.4118 497.943 155.327 569.12L354.159 765.373L505.048 914.661C550.557 959.679 550.557 1032.68 505.048 1077.7L354.159 1226.87L354.159 1226.5L155.449 1423C83.5336 1494.17 83.5336 1609.39 155.449 1680.57L354.281 1876.7L362.799 1884.98L559.319 2083.54C630.504 2155.45 745.739 2155.45 816.924 2083.54L1013.44 1884.85L1012.96 1884.85L1161.66 1734.47C1206.68 1688.97 1279.69 1688.97 1324.71 1734.47L1474.02 1885.34L1474.26 1885.34L1670.3 2083.54C1741.48 2155.45 1856.72 2155.45 1927.9 2083.54L2124.42 1884.85L2131.96 1877.92L2330.68 1681.42C2402.59 1610.25 2402.59 1495.03 2330.68 1423.85L2131.96 1227.35L2131.72 1227.84Z" stroke="url(#paint19_linear_3274_149741)" stroke-width="1.75" stroke-miterlimit="10" stroke-linecap="round"/>
<path d="M2123.08 1225.53L1973.66 1077.7C1928.51 1033.04 1928.51 960.773 1973.66 916.242L2122.96 768.535L2122.96 768.9L2319.73 574.35C2390.91 503.904 2390.91 389.778 2319.73 319.331L2122.96 124.903L2114.57 116.751L1919.99 -79.9886C1849.54 -151.165 1735.4 -151.165 1664.94 -79.9886L1470.37 116.751L1470.86 116.751L1323.5 265.675C1278.84 310.814 1206.56 310.814 1162.02 265.675L1014.3 116.264L1014.05 116.264L819.846 -79.9886C749.391 -151.165 635.252 -151.165 564.796 -79.9886L370.223 116.751L362.801 123.565L166.037 318.114C94.8522 388.561 94.8522 502.687 166.037 573.134L362.922 767.44L512.351 915.269C557.495 959.921 557.495 1032.19 512.351 1076.72L362.922 1224.43L362.922 1224.07L166.281 1418.49C95.0956 1488.94 95.0956 1603.07 166.281 1673.51L363.044 1868.06L371.44 1876.21L566.013 2072.95C636.469 2144.13 750.608 2144.13 821.063 2072.95L1015.64 1876.21L1015.15 1876.21L1162.51 1727.29C1207.17 1682.15 1279.45 1682.15 1323.98 1727.29L1471.83 1876.7L1472.07 1876.7L1666.16 2072.95C1736.62 2144.13 1850.75 2144.13 1921.21 2072.95L2115.78 1876.21L2123.21 1869.4L2319.97 1674.85C2391.15 1604.4 2391.15 1490.28 2319.97 1419.83L2123.21 1225.28L2123.08 1225.53Z" stroke="url(#paint20_linear_3274_149741)" stroke-width="1.75" stroke-miterlimit="10" stroke-linecap="round"/>
<path d="M2123.08 1225.53L1973.66 1077.7C1928.51 1033.04 1928.51 960.773 1973.66 916.242L2122.96 768.535L2122.96 768.9L2319.73 574.35C2390.91 503.904 2390.91 389.778 2319.73 319.331L2122.96 124.903L2114.57 116.751L1919.99 -79.9886C1849.54 -151.165 1735.4 -151.165 1664.94 -79.9886L1470.37 116.751L1470.86 116.751L1323.5 265.675C1278.84 310.814 1206.56 310.814 1162.02 265.675L1014.3 116.264L1014.05 116.264L819.846 -79.9886C749.391 -151.165 635.252 -151.165 564.796 -79.9886L370.223 116.751L362.801 123.565L166.037 318.114C94.8522 388.561 94.8522 502.687 166.037 573.134L362.922 767.44L512.351 915.269C557.495 959.921 557.495 1032.19 512.351 1076.72L362.922 1224.43L362.922 1224.07L166.281 1418.49C95.0956 1488.94 95.0956 1603.07 166.281 1673.51L363.044 1868.06L371.44 1876.21L566.013 2072.95C636.469 2144.13 750.608 2144.13 821.063 2072.95L1015.64 1876.21L1015.15 1876.21L1162.51 1727.29C1207.17 1682.15 1279.45 1682.15 1323.98 1727.29L1471.83 1876.7L1472.07 1876.7L1666.16 2072.95C1736.62 2144.13 1850.75 2144.13 1921.21 2072.95L2115.78 1876.21L2123.21 1869.4L2319.97 1674.85C2391.15 1604.4 2391.15 1490.28 2319.97 1419.83L2123.21 1225.28L2123.08 1225.53Z" stroke="url(#paint21_linear_3274_149741)" stroke-width="1.75" stroke-miterlimit="10" stroke-linecap="round"/>
<path d="M2114.32 1223.34L1966.35 1076.97C1921.69 1032.81 1921.69 961.264 1966.35 917.097L2114.32 770.851L2114.32 771.216L2309.13 578.613C2379.59 508.896 2379.59 395.865 2309.13 326.148L2114.32 133.545L2106.04 125.515L1913.42 -69.2777C1843.69 -139.724 1730.65 -139.724 1660.92 -69.2777L1468.3 125.515L1468.78 125.515L1322.88 272.979C1278.71 317.632 1207.16 317.632 1162.99 272.979L1016.48 125.029L1016.24 125.029L824.1 -69.3994C754.375 -139.846 641.33 -139.846 571.605 -69.3994L378.979 125.394L371.556 132.085L176.74 324.688C106.285 394.405 106.285 507.436 176.74 577.153L371.678 769.512L519.646 915.881C564.304 960.047 564.304 1031.59 519.646 1075.75L371.678 1222.12L371.678 1221.76L176.862 1414.36C106.406 1484.08 106.406 1597.11 176.862 1666.83L371.678 1859.43L379.953 1867.46L572.7 2062.25C642.425 2132.7 755.47 2132.7 825.195 2062.25L1017.82 1867.46L1017.33 1867.46L1163.23 1720C1207.41 1675.34 1278.96 1675.34 1323.13 1720L1469.51 1867.95L1469.76 1867.95L1661.9 2062.25C1731.62 2132.7 1844.67 2132.7 1914.39 2062.25L2107.14 1867.46L2114.56 1860.77L2309.38 1668.16C2379.83 1598.45 2379.83 1485.42 2309.38 1415.7L2114.44 1223.1L2114.32 1223.34Z" stroke="url(#paint22_linear_3274_149741)" stroke-width="1.75" stroke-miterlimit="10" stroke-linecap="round"/>
<path d="M2114.32 1223.34L1966.35 1076.97C1921.69 1032.81 1921.69 961.264 1966.35 917.097L2114.32 770.851L2114.32 771.216L2309.13 578.613C2379.59 508.896 2379.59 395.865 2309.13 326.148L2114.32 133.545L2106.04 125.515L1913.42 -69.2777C1843.69 -139.724 1730.65 -139.724 1660.92 -69.2777L1468.3 125.515L1468.78 125.515L1322.88 272.979C1278.71 317.632 1207.16 317.632 1162.99 272.979L1016.48 125.029L1016.24 125.029L824.1 -69.3994C754.375 -139.846 641.33 -139.846 571.605 -69.3994L378.979 125.394L371.556 132.085L176.74 324.688C106.285 394.405 106.285 507.436 176.74 577.153L371.678 769.512L519.646 915.881C564.304 960.047 564.304 1031.59 519.646 1075.75L371.678 1222.12L371.678 1221.76L176.862 1414.36C106.406 1484.08 106.406 1597.11 176.862 1666.83L371.678 1859.43L379.953 1867.46L572.7 2062.25C642.425 2132.7 755.47 2132.7 825.195 2062.25L1017.82 1867.46L1017.33 1867.46L1163.23 1720C1207.41 1675.34 1278.96 1675.34 1323.13 1720L1469.51 1867.95L1469.76 1867.95L1661.9 2062.25C1731.62 2132.7 1844.67 2132.7 1914.39 2062.25L2107.14 1867.46L2114.56 1860.77L2309.38 1668.16C2379.83 1598.45 2379.83 1485.42 2309.38 1415.7L2114.44 1223.1L2114.32 1223.34Z" stroke="url(#paint23_linear_3274_149741)" stroke-width="1.75" stroke-miterlimit="10" stroke-linecap="round"/>
<path d="M2105.68 1221.03L1959.17 1076.12C1915 1032.44 1915 961.504 1959.17 917.825L2105.56 773.038L2105.56 773.403L2298.43 582.747C2368.28 513.76 2368.28 401.824 2298.43 332.716L2105.56 142.06L2097.29 134.03L1906.61 -58.8166C1837.61 -128.655 1725.66 -128.655 1656.55 -58.8166L1465.87 134.03L1466.35 134.03L1321.91 280.033C1278.23 324.199 1207.29 324.199 1163.6 280.033L1018.8 133.665L1018.56 133.665L828.241 -58.6949C759.246 -128.533 647.297 -128.533 578.18 -58.6949L387.501 134.151L380.2 140.843L187.33 331.499C117.484 400.486 117.484 512.422 187.33 581.53L380.322 771.943L526.829 916.73C571.001 960.409 571.001 1031.34 526.829 1075.02L380.322 1219.81L380.322 1219.44L187.452 1410.1C117.605 1479.09 117.605 1591.02 187.452 1660.13L380.443 1850.79L388.718 1858.82L579.397 2051.66C648.392 2121.5 760.341 2121.5 829.458 2051.66L1020.14 1858.82L1019.65 1858.82L1164.09 1712.81C1207.77 1668.65 1278.72 1668.65 1322.4 1712.81L1467.33 1859.3L1467.57 1859.3L1657.88 2051.66C1726.88 2121.5 1838.83 2121.5 1907.94 2051.66L2098.62 1858.82L2105.92 1852.13L2298.79 1661.47C2368.64 1592.48 2368.64 1480.55 2298.79 1411.44L2105.92 1220.78L2105.68 1221.03Z" stroke="url(#paint24_linear_3274_149741)" stroke-width="1.75" stroke-miterlimit="10" stroke-linecap="round"/>
<path d="M2105.68 1221.03L1959.17 1076.12C1915 1032.44 1915 961.504 1959.17 917.825L2105.56 773.038L2105.56 773.403L2298.43 582.747C2368.28 513.76 2368.28 401.824 2298.43 332.716L2105.56 142.06L2097.29 134.03L1906.61 -58.8166C1837.61 -128.655 1725.66 -128.655 1656.55 -58.8166L1465.87 134.03L1466.35 134.03L1321.91 280.033C1278.23 324.199 1207.29 324.199 1163.6 280.033L1018.8 133.665L1018.56 133.665L828.241 -58.6949C759.246 -128.533 647.297 -128.533 578.18 -58.6949L387.501 134.151L380.2 140.843L187.33 331.499C117.484 400.486 117.484 512.422 187.33 581.53L380.322 771.943L526.829 916.73C571.001 960.409 571.001 1031.34 526.829 1075.02L380.322 1219.81L380.322 1219.44L187.452 1410.1C117.605 1479.09 117.605 1591.02 187.452 1660.13L380.443 1850.79L388.718 1858.82L579.397 2051.66C648.392 2121.5 760.341 2121.5 829.458 2051.66L1020.14 1858.82L1019.65 1858.82L1164.09 1712.81C1207.77 1668.65 1278.72 1668.65 1322.4 1712.81L1467.33 1859.3L1467.57 1859.3L1657.88 2051.66C1726.88 2121.5 1838.83 2121.5 1907.94 2051.66L2098.62 1858.82L2105.92 1852.13L2298.79 1661.47C2368.64 1592.48 2368.64 1480.55 2298.79 1411.44L2105.92 1220.78L2105.68 1221.03Z" stroke="url(#paint25_linear_3274_149741)" stroke-width="1.75" stroke-miterlimit="10" stroke-linecap="round"/>
<path d="M2097.04 1218.71L1952 1075.27C1908.19 1031.95 1908.19 961.869 1952 918.555L2096.92 775.228L2096.92 775.593L2287.84 586.883C2356.96 518.505 2356.96 407.786 2287.84 339.407L2096.92 150.698L2088.77 142.789L1900.04 -48.1102C1831.65 -117.219 1720.92 -117.219 1652.53 -48.1102L1463.8 142.789L1464.29 142.789L1321.31 287.333C1277.99 331.134 1207.9 331.134 1164.58 287.333L1021.11 142.424L1020.87 142.424L832.38 -48.1102C763.994 -117.219 653.261 -117.219 584.875 -48.1102L396.142 142.789L388.963 149.36L198.041 338.069C128.924 406.447 128.924 517.167 198.041 585.545L389.085 774.011L534.132 917.46C577.939 960.774 577.939 1030.86 534.132 1074.17L389.207 1217.5L389.207 1217.13L198.284 1405.84C129.167 1474.22 129.167 1584.94 198.284 1653.32L389.207 1842.03L397.359 1849.94L585.97 2040.96C654.356 2110.06 765.089 2110.06 833.475 2040.96L1022.21 1850.06L1021.72 1850.06L1164.7 1705.51C1208.02 1661.71 1278.11 1661.71 1321.43 1705.51L1464.89 1850.54L1465.14 1850.54L1653.51 2040.96C1721.89 2110.06 1832.62 2110.06 1901.01 2040.96L2089.74 1850.06L2096.92 1843.49L2287.84 1654.78C2356.96 1586.4 2356.96 1475.68 2287.84 1407.3L2097.17 1218.47L2097.04 1218.71Z" stroke="url(#paint26_linear_3274_149741)" stroke-width="1.75" stroke-miterlimit="10" stroke-linecap="round"/>
<path d="M2097.04 1218.71L1952 1075.27C1908.19 1031.95 1908.19 961.869 1952 918.555L2096.92 775.228L2096.92 775.593L2287.84 586.883C2356.96 518.505 2356.96 407.786 2287.84 339.407L2096.92 150.698L2088.77 142.789L1900.04 -48.1102C1831.65 -117.219 1720.92 -117.219 1652.53 -48.1102L1463.8 142.789L1464.29 142.789L1321.31 287.333C1277.99 331.134 1207.9 331.134 1164.58 287.333L1021.11 142.424L1020.87 142.424L832.38 -48.1102C763.994 -117.219 653.261 -117.219 584.875 -48.1102L396.142 142.789L388.963 149.36L198.041 338.069C128.924 406.447 128.924 517.167 198.041 585.545L389.085 774.011L534.132 917.46C577.939 960.774 577.939 1030.86 534.132 1074.17L389.207 1217.5L389.207 1217.13L198.284 1405.84C129.167 1474.22 129.167 1584.94 198.284 1653.32L389.207 1842.03L397.359 1849.94L585.97 2040.96C654.356 2110.06 765.089 2110.06 833.475 2040.96L1022.21 1850.06L1021.72 1850.06L1164.7 1705.51C1208.02 1661.71 1278.11 1661.71 1321.43 1705.51L1464.89 1850.54L1465.14 1850.54L1653.51 2040.96C1721.89 2110.06 1832.62 2110.06 1901.01 2040.96L2089.74 1850.06L2096.92 1843.49L2287.84 1654.78C2356.96 1586.4 2356.96 1475.68 2287.84 1407.3L2097.17 1218.47L2097.04 1218.71Z" stroke="url(#paint27_linear_3274_149741)" stroke-width="1.75" stroke-miterlimit="10" stroke-linecap="round"/>
<path d="M2088.28 1216.52L1944.69 1074.53C1901.37 1031.71 1901.37 962.234 1944.69 919.406L2088.16 777.539L2088.16 777.905L2277.13 591.02C2345.52 523.372 2345.52 413.747 2277.13 346.099L2088.16 159.215L2080.13 151.428L1893.22 -37.5249C1825.56 -105.903 1715.93 -105.903 1648.27 -37.5249L1461.36 151.428L1461.85 151.428L1320.33 294.511C1277.5 337.826 1208.02 337.826 1165.19 294.511L1023.18 150.941L1022.94 150.941L836.638 -37.4032C768.981 -105.782 659.344 -105.782 591.688 -37.4032L404.781 151.55L397.601 158.12L208.626 344.883C140.239 412.531 140.239 522.155 208.626 589.803L397.723 776.445L541.31 918.433C584.63 961.261 584.63 1030.73 541.31 1073.56L397.845 1215.43L397.845 1215.06L208.869 1401.83C140.483 1469.47 140.483 1579.1 208.869 1646.75L397.845 1833.63L405.876 1841.42L592.783 2030.37C660.439 2098.75 770.077 2098.75 837.733 2030.37L1024.52 1841.42L1024.03 1841.42L1165.55 1698.33C1208.38 1655.02 1277.86 1655.02 1320.7 1698.33L1462.7 1841.9L1462.95 1841.9L1649.37 2030.37C1717.02 2098.75 1826.66 2098.75 1894.32 2030.37L2081.22 1841.42L2088.4 1834.85L2277.38 1647.96C2345.76 1580.32 2345.76 1470.69 2277.38 1403.04L2088.4 1216.16L2088.28 1216.52Z" stroke="url(#paint28_linear_3274_149741)" stroke-width="1.75" stroke-miterlimit="10" stroke-linecap="round"/>
<path d="M2088.28 1216.52L1944.69 1074.53C1901.37 1031.71 1901.37 962.234 1944.69 919.406L2088.16 777.539L2088.16 777.905L2277.13 591.02C2345.52 523.372 2345.52 413.747 2277.13 346.099L2088.16 159.215L2080.13 151.428L1893.22 -37.5249C1825.56 -105.903 1715.93 -105.903 1648.27 -37.5249L1461.36 151.428L1461.85 151.428L1320.33 294.511C1277.5 337.826 1208.02 337.826 1165.19 294.511L1023.18 150.941L1022.94 150.941L836.638 -37.4032C768.981 -105.782 659.344 -105.782 591.688 -37.4032L404.781 151.55L397.601 158.12L208.626 344.883C140.239 412.531 140.239 522.155 208.626 589.803L397.723 776.445L541.31 918.433C584.63 961.261 584.63 1030.73 541.31 1073.56L397.845 1215.43L397.845 1215.06L208.869 1401.83C140.483 1469.47 140.483 1579.1 208.869 1646.75L397.845 1833.63L405.876 1841.42L592.783 2030.37C660.439 2098.75 770.077 2098.75 837.733 2030.37L1024.52 1841.42L1024.03 1841.42L1165.55 1698.33C1208.38 1655.02 1277.86 1655.02 1320.7 1698.33L1462.7 1841.9L1462.95 1841.9L1649.37 2030.37C1717.02 2098.75 1826.66 2098.75 1894.32 2030.37L2081.22 1841.42L2088.4 1834.85L2277.38 1647.96C2345.76 1580.32 2345.76 1470.69 2277.38 1403.04L2088.4 1216.16L2088.28 1216.52Z" stroke="url(#paint29_linear_3274_149741)" stroke-width="1.75" stroke-miterlimit="10" stroke-linecap="round"/>
<path d="M2079.64 1214.21L1937.51 1073.68C1894.68 1031.34 1894.68 962.599 1937.51 920.136L2079.51 779.73L2079.51 780.095L2266.54 595.157C2334.2 528.239 2334.2 419.709 2266.54 352.791L2079.51 167.853L2071.48 160.067L1886.52 -26.9396C1819.6 -94.5879 1711.05 -94.5879 1644.13 -26.9396L1459.17 160.067L1459.66 160.067L1319.6 301.69C1277.25 344.518 1208.5 344.518 1166.03 301.69L1025.61 159.702L1025.36 159.702L840.769 -26.8179C773.843 -94.4662 665.301 -94.4662 598.374 -26.8179L413.415 160.188L406.357 166.637L219.328 351.575C151.672 418.493 151.672 527.022 219.328 593.94L406.479 778.635L548.484 919.163C591.317 961.504 591.317 1030.25 548.484 1072.71L406.479 1213.12L406.479 1212.75L219.45 1397.69C151.794 1464.61 151.794 1573.14 219.45 1640.06L406.479 1824.99L414.51 1832.78L599.47 2019.79C666.396 2087.43 774.938 2087.43 841.865 2019.79L1026.82 1832.78L1026.34 1832.78L1166.4 1691.16C1208.74 1648.33 1277.49 1648.33 1319.96 1691.16L1460.51 1833.27L1460.75 1833.27L1645.22 2019.79C1712.15 2087.43 1820.69 2087.43 1887.62 2019.79L2072.58 1832.78L2079.64 1826.33L2266.66 1641.39C2334.32 1574.48 2334.32 1465.95 2266.66 1399.03L2079.64 1214.09L2079.64 1214.21Z" stroke="url(#paint30_linear_3274_149741)" stroke-width="1.75" stroke-miterlimit="10" stroke-linecap="round"/>
<path d="M2079.64 1214.21L1937.51 1073.68C1894.68 1031.34 1894.68 962.599 1937.51 920.136L2079.51 779.73L2079.51 780.095L2266.54 595.157C2334.2 528.239 2334.2 419.709 2266.54 352.791L2079.51 167.853L2071.48 160.067L1886.52 -26.9396C1819.6 -94.5879 1711.05 -94.5879 1644.13 -26.9396L1459.17 160.067L1459.66 160.067L1319.6 301.69C1277.25 344.518 1208.5 344.518 1166.03 301.69L1025.61 159.702L1025.36 159.702L840.769 -26.8179C773.843 -94.4662 665.301 -94.4662 598.374 -26.8179L413.415 160.188L406.357 166.637L219.328 351.575C151.672 418.493 151.672 527.022 219.328 593.94L406.479 778.635L548.484 919.163C591.317 961.504 591.317 1030.25 548.484 1072.71L406.479 1213.12L406.479 1212.75L219.45 1397.69C151.794 1464.61 151.794 1573.14 219.45 1640.06L406.479 1824.99L414.51 1832.78L599.47 2019.79C666.396 2087.43 774.938 2087.43 841.865 2019.79L1026.82 1832.78L1026.34 1832.78L1166.4 1691.16C1208.74 1648.33 1277.49 1648.33 1319.96 1691.16L1460.51 1833.27L1460.75 1833.27L1645.22 2019.79C1712.15 2087.43 1820.69 2087.43 1887.62 2019.79L2072.58 1832.78L2079.64 1826.33L2266.66 1641.39C2334.32 1574.48 2334.32 1465.95 2266.66 1399.03L2079.64 1214.09L2079.64 1214.21Z" stroke="url(#paint31_linear_3274_149741)" stroke-width="1.75" stroke-miterlimit="10" stroke-linecap="round"/>
<path d="M2070.88 1212.02L1930.33 1072.95C1887.87 1030.98 1887.87 962.965 1930.33 920.989L2070.88 782.042L2070.88 782.407L2255.96 599.416C2323.01 533.228 2323.01 425.794 2255.96 359.484L2070.88 176.493L2062.97 168.828L1879.96 -16.2318C1813.76 -83.2718 1706.31 -83.2717 1640 -16.2318L1456.98 168.828L1457.47 168.828L1318.87 308.991C1276.89 351.454 1208.87 351.454 1166.89 308.991L1027.8 168.463L1027.56 168.463L844.911 -16.1101C778.715 -83.15 671.267 -83.15 604.949 -16.1101L421.936 168.949L414.879 175.398L229.919 358.267C162.871 424.455 162.871 531.89 229.919 598.199L415.122 780.947L555.667 920.015C598.135 961.991 598.135 1030 555.667 1071.98L415.122 1210.93L415.122 1210.56L230.041 1393.55C162.993 1459.74 162.993 1567.18 230.041 1633.49L415.122 1816.48L423.032 1824.14L606.045 2009.2C672.241 2076.24 779.688 2076.24 846.006 2009.2L1029.02 1824.02L1028.53 1824.02L1167.13 1683.86C1209.11 1641.39 1277.13 1641.39 1319.11 1683.86L1458.2 1824.39L1458.44 1824.39L1641.09 2008.96C1707.29 2076 1814.73 2076 1881.05 2008.96L2064.06 1823.9L2071.12 1817.45L2256.08 1634.58C2323.13 1568.39 2323.13 1460.96 2256.08 1394.65L2071 1211.66L2070.88 1212.02Z" stroke="url(#paint32_linear_3274_149741)" stroke-width="1.75" stroke-miterlimit="10" stroke-linecap="round"/>
<path d="M2070.88 1212.02L1930.33 1072.95C1887.87 1030.98 1887.87 962.965 1930.33 920.989L2070.88 782.042L2070.88 782.407L2255.96 599.416C2323.01 533.228 2323.01 425.794 2255.96 359.484L2070.88 176.493L2062.97 168.828L1879.96 -16.2318C1813.76 -83.2718 1706.31 -83.2717 1640 -16.2318L1456.98 168.828L1457.47 168.828L1318.87 308.991C1276.89 351.454 1208.87 351.454 1166.89 308.991L1027.8 168.463L1027.56 168.463L844.911 -16.1101C778.715 -83.15 671.267 -83.15 604.949 -16.1101L421.936 168.949L414.879 175.398L229.919 358.267C162.871 424.455 162.871 531.89 229.919 598.199L415.122 780.947L555.667 920.015C598.135 961.991 598.135 1030 555.667 1071.98L415.122 1210.93L415.122 1210.56L230.041 1393.55C162.993 1459.74 162.993 1567.18 230.041 1633.49L415.122 1816.48L423.032 1824.14L606.045 2009.2C672.241 2076.24 779.688 2076.24 846.006 2009.2L1029.02 1824.02L1028.53 1824.02L1167.13 1683.86C1209.11 1641.39 1277.13 1641.39 1319.11 1683.86L1458.2 1824.39L1458.44 1824.39L1641.09 2008.96C1707.29 2076 1814.73 2076 1881.05 2008.96L2064.06 1823.9L2071.12 1817.45L2256.08 1634.58C2323.13 1568.39 2323.13 1460.96 2256.08 1394.65L2071 1211.66L2070.88 1212.02Z" stroke="url(#paint33_linear_3274_149741)" stroke-width="1.75" stroke-miterlimit="10" stroke-linecap="round"/>
<path d="M2062.24 1209.71L1923.15 1072.1C1881.17 1030.61 1881.17 963.329 1923.15 921.718L2062.24 784.232L2062.24 784.597L2245.37 603.552C2311.69 537.973 2311.69 431.755 2245.37 366.175L2062.12 185.131L2054.33 177.587L1873.26 -5.52542C1807.67 -71.8353 1701.44 -71.8353 1635.86 -5.52542L1454.79 177.587L1455.28 177.587L1318.14 316.291C1276.64 358.267 1209.35 358.267 1167.74 316.291L1030.11 177.101L1029.87 177.101L849.168 -5.52539C783.581 -71.8353 677.35 -71.8353 611.762 -5.52539L430.696 177.587L423.76 183.914L240.504 364.958C174.186 430.538 174.186 536.756 240.504 602.336L423.76 783.137L562.967 920.745C604.948 962.234 604.948 1029.52 562.967 1071.13L423.882 1208.62L423.882 1208.25L240.747 1389.29C174.43 1454.87 174.43 1561.09 240.748 1626.67L423.882 1807.72L431.67 1815.26L612.736 1998.37C678.324 2064.68 784.554 2064.68 850.142 1998.37L1031.21 1815.26L1030.72 1815.26L1167.86 1676.56C1209.35 1634.58 1276.64 1634.58 1318.26 1676.56L1455.89 1815.62L1456.13 1815.62L1636.83 1998.25C1702.42 2064.56 1808.65 2064.56 1874.24 1998.25L2055.3 1815.14L2062.24 1808.81L2245.37 1627.77C2311.69 1562.19 2311.69 1455.97 2245.37 1390.39L2062.24 1209.35L2062.24 1209.71Z" stroke="url(#paint34_linear_3274_149741)" stroke-width="1.75" stroke-miterlimit="10" stroke-linecap="round"/>
<path d="M2062.24 1209.71L1923.15 1072.1C1881.17 1030.61 1881.17 963.329 1923.15 921.718L2062.24 784.232L2062.24 784.597L2245.37 603.552C2311.69 537.973 2311.69 431.755 2245.37 366.175L2062.12 185.131L2054.33 177.587L1873.26 -5.52542C1807.67 -71.8353 1701.44 -71.8353 1635.86 -5.52542L1454.79 177.587L1455.28 177.587L1318.14 316.291C1276.64 358.267 1209.35 358.267 1167.74 316.291L1030.11 177.101L1029.87 177.101L849.168 -5.52539C783.581 -71.8353 677.35 -71.8353 611.762 -5.52539L430.696 177.587L423.76 183.914L240.504 364.958C174.186 430.538 174.186 536.756 240.504 602.336L423.76 783.137L562.967 920.745C604.948 962.234 604.948 1029.52 562.967 1071.13L423.882 1208.62L423.882 1208.25L240.747 1389.29C174.43 1454.87 174.43 1561.09 240.748 1626.67L423.882 1807.72L431.67 1815.26L612.736 1998.37C678.324 2064.68 784.554 2064.68 850.142 1998.37L1031.21 1815.26L1030.72 1815.26L1167.86 1676.56C1209.35 1634.58 1276.64 1634.58 1318.26 1676.56L1455.89 1815.62L1456.13 1815.62L1636.83 1998.25C1702.42 2064.56 1808.65 2064.56 1874.24 1998.25L2055.3 1815.14L2062.24 1808.81L2245.37 1627.77C2311.69 1562.19 2311.69 1455.97 2245.37 1390.39L2062.24 1209.35L2062.24 1209.71Z" stroke="url(#paint35_linear_3274_149741)" stroke-width="1.75" stroke-miterlimit="10" stroke-linecap="round"/>
<path d="M2053.48 1207.4L1915.85 1071.25C1874.36 1030.13 1874.36 963.572 1915.85 922.57L2053.48 786.543L2053.48 786.908L2234.67 607.811C2300.25 542.961 2300.25 437.838 2234.67 372.989L2053.48 193.891L2045.69 186.347L1866.45 5.18154C1801.59 -60.3983 1696.46 -60.3983 1631.6 5.18155L1452.48 186.226L1452.97 186.226L1317.29 323.469C1276.16 364.958 1209.6 364.958 1168.59 323.469L1032.31 185.861L1032.06 185.861L853.308 5.0599C788.45 -60.52 683.315 -60.52 618.457 5.0599L439.216 186.226L432.402 192.553L251.214 371.65C185.627 436.5 185.627 541.623 251.214 606.472L432.524 785.448L570.149 921.597C611.643 962.721 611.643 1029.27 570.149 1070.28L432.524 1206.3L432.524 1205.94L251.336 1385.16C185.748 1450.01 185.748 1555.13 251.336 1619.98L432.524 1799.2L440.312 1806.74L619.431 1987.91C684.288 2053.49 789.424 2053.49 854.281 1987.91L1033.52 1806.74L1033.04 1806.74L1168.71 1669.5C1209.84 1628.01 1276.4 1628.01 1317.41 1669.5L1453.58 1807.11L1453.82 1807.11L1632.57 1987.91C1697.43 2053.49 1802.57 2053.49 1867.42 1987.91L2046.66 1806.74L2053.48 1800.42L2234.79 1621.2C2300.38 1556.35 2300.38 1451.22 2234.79 1386.37L2053.6 1207.15L2053.48 1207.4Z" stroke="url(#paint36_linear_3274_149741)" stroke-width="1.75" stroke-miterlimit="10" stroke-linecap="round"/>
<path d="M2053.48 1207.4L1915.85 1071.25C1874.36 1030.13 1874.36 963.572 1915.85 922.57L2053.48 786.543L2053.48 786.908L2234.67 607.811C2300.25 542.961 2300.25 437.838 2234.67 372.989L2053.48 193.891L2045.69 186.347L1866.45 5.18154C1801.59 -60.3983 1696.46 -60.3983 1631.6 5.18155L1452.48 186.226L1452.97 186.226L1317.29 323.469C1276.16 364.958 1209.6 364.958 1168.59 323.469L1032.31 185.861L1032.06 185.861L853.308 5.0599C788.45 -60.52 683.315 -60.52 618.457 5.0599L439.216 186.226L432.402 192.553L251.214 371.65C185.627 436.5 185.627 541.623 251.214 606.472L432.524 785.448L570.149 921.597C611.643 962.721 611.643 1029.27 570.149 1070.28L432.524 1206.3L432.524 1205.94L251.336 1385.16C185.748 1450.01 185.748 1555.13 251.336 1619.98L432.524 1799.2L440.312 1806.74L619.431 1987.91C684.288 2053.49 789.424 2053.49 854.281 1987.91L1033.52 1806.74L1033.04 1806.74L1168.71 1669.5C1209.84 1628.01 1276.4 1628.01 1317.41 1669.5L1453.58 1807.11L1453.82 1807.11L1632.57 1987.91C1697.43 2053.49 1802.57 2053.49 1867.42 1987.91L2046.66 1806.74L2053.48 1800.42L2234.79 1621.2C2300.38 1556.35 2300.38 1451.22 2234.79 1386.37L2053.6 1207.15L2053.48 1207.4Z" stroke="url(#paint37_linear_3274_149741)" stroke-width="1.75" stroke-miterlimit="10" stroke-linecap="round"/>
<path d="M2044.84 1205.21L1908.68 1070.52C1867.55 1029.88 1867.55 964.06 1908.68 923.422L2044.84 788.855L2044.84 789.22L2223.96 611.948C2288.82 547.828 2288.82 443.8 2223.96 379.559L2044.72 202.286L2037.05 194.864L1859.76 15.6452C1795.63 -49.2047 1691.59 -49.2047 1627.34 15.6452L1450.05 194.865L1450.54 194.865L1316.32 330.648C1275.68 371.772 1209.85 371.772 1169.2 330.648L1034.62 194.499L1034.38 194.499L857.448 15.7669C793.32 -49.083 689.28 -49.083 625.031 15.7669L447.737 194.986L440.923 201.191L261.682 378.464C196.825 442.584 196.825 546.611 261.682 610.853L441.167 787.76L577.331 922.449C618.46 963.086 618.46 1028.91 577.331 1069.55L441.288 1204.11L441.288 1203.75L262.047 1381.02C197.19 1445.14 197.19 1549.17 262.047 1613.41L441.288 1790.56L448.954 1797.98L626.248 1977.2C690.376 2042.05 794.416 2042.05 858.665 1977.2L1035.96 1797.98L1035.47 1797.98L1169.69 1662.2C1210.33 1621.08 1276.16 1621.08 1316.81 1662.2L1451.51 1798.35L1451.75 1798.35L1628.56 1977.2C1692.69 2042.05 1796.73 2042.05 1860.98 1977.2L2038.27 1797.98L2045.09 1791.78L2224.33 1614.51C2289.18 1550.39 2289.18 1446.36 2224.33 1382.12L2045.09 1204.84L2044.84 1205.21Z" stroke="url(#paint38_linear_3274_149741)" stroke-width="1.75" stroke-miterlimit="10" stroke-linecap="round"/>
<path d="M2044.84 1205.21L1908.68 1070.52C1867.55 1029.88 1867.55 964.06 1908.68 923.422L2044.84 788.855L2044.84 789.22L2223.96 611.948C2288.82 547.828 2288.82 443.8 2223.96 379.559L2044.72 202.286L2037.05 194.864L1859.76 15.6452C1795.63 -49.2047 1691.59 -49.2047 1627.34 15.6452L1450.05 194.865L1450.54 194.865L1316.32 330.648C1275.68 371.772 1209.85 371.772 1169.2 330.648L1034.62 194.499L1034.38 194.499L857.448 15.7669C793.32 -49.083 689.28 -49.083 625.031 15.7669L447.737 194.986L440.923 201.191L261.682 378.464C196.825 442.584 196.825 546.611 261.682 610.853L441.167 787.76L577.331 922.449C618.46 963.086 618.46 1028.91 577.331 1069.55L441.288 1204.11L441.288 1203.75L262.047 1381.02C197.19 1445.14 197.19 1549.17 262.047 1613.41L441.288 1790.56L448.954 1797.98L626.248 1977.2C690.376 2042.05 794.416 2042.05 858.665 1977.2L1035.96 1797.98L1035.47 1797.98L1169.69 1662.2C1210.33 1621.08 1276.16 1621.08 1316.81 1662.2L1451.51 1798.35L1451.75 1798.35L1628.56 1977.2C1692.69 2042.05 1796.73 2042.05 1860.98 1977.2L2038.27 1797.98L2045.09 1791.78L2224.33 1614.51C2289.18 1550.39 2289.18 1446.36 2224.33 1382.12L2045.09 1204.84L2044.84 1205.21Z" stroke="url(#paint39_linear_3274_149741)" stroke-width="1.75" stroke-miterlimit="10" stroke-linecap="round"/>
<path d="M2036.08 1202.9L1901.5 1069.79C1860.85 1029.64 1860.85 964.424 1901.5 924.273L2036.08 791.167L2036.08 791.532L2213.37 616.206C2277.5 552.694 2277.5 449.883 2213.37 386.372L2036.08 211.046L2028.53 203.746L1853.19 26.4733C1789.67 -37.6466 1686.84 -37.6466 1623.33 26.4733L1447.98 203.746L1448.47 203.746L1315.71 337.947C1275.55 378.585 1210.33 378.585 1170.17 337.947L1036.93 203.259L1036.69 203.259L861.705 26.3516C798.185 -37.7683 695.362 -37.7683 631.843 26.3516L456.496 203.624L449.804 209.708L272.51 385.034C208.382 448.545 208.382 551.356 272.51 614.867L449.925 789.95L584.63 923.178C625.272 963.329 625.272 1028.54 584.63 1068.7L450.047 1201.8L450.047 1201.44L272.753 1376.76C208.626 1440.27 208.626 1543.08 272.753 1606.6L450.047 1781.92L457.591 1789.22L632.938 1966.49C696.458 2030.61 799.281 2030.61 862.8 1966.49L1038.15 1789.22L1037.54 1789.22L1170.3 1655.02C1210.45 1614.38 1275.67 1614.38 1315.83 1655.02L1449.07 1789.71L1449.32 1789.71L1624.3 1966.62C1687.82 2030.74 1790.64 2030.74 1854.16 1966.62L2029.51 1789.34L2036.2 1783.26L2213.49 1607.81C2277.62 1544.3 2277.62 1441.49 2213.49 1377.98L2036.2 1202.65L2036.08 1202.9Z" stroke="url(#paint40_linear_3274_149741)" stroke-width="1.75" stroke-miterlimit="10" stroke-linecap="round"/>
<path d="M2036.08 1202.9L1901.5 1069.79C1860.85 1029.64 1860.85 964.424 1901.5 924.273L2036.08 791.167L2036.08 791.532L2213.37 616.206C2277.5 552.694 2277.5 449.883 2213.37 386.372L2036.08 211.046L2028.53 203.746L1853.19 26.4733C1789.67 -37.6466 1686.84 -37.6466 1623.33 26.4733L1447.98 203.746L1448.47 203.746L1315.71 337.947C1275.55 378.585 1210.33 378.585 1170.17 337.947L1036.93 203.259L1036.69 203.259L861.705 26.3516C798.185 -37.7683 695.362 -37.7683 631.843 26.3516L456.496 203.624L449.804 209.708L272.51 385.034C208.382 448.545 208.382 551.356 272.51 614.867L449.925 789.95L584.63 923.178C625.272 963.329 625.272 1028.54 584.63 1068.7L450.047 1201.8L450.047 1201.44L272.753 1376.76C208.626 1440.27 208.626 1543.08 272.753 1606.6L450.047 1781.92L457.591 1789.22L632.938 1966.49C696.458 2030.61 799.281 2030.61 862.8 1966.49L1038.15 1789.22L1037.54 1789.22L1170.3 1655.02C1210.45 1614.38 1275.67 1614.38 1315.83 1655.02L1449.07 1789.71L1449.32 1789.71L1624.3 1966.62C1687.82 2030.74 1790.64 2030.74 1854.16 1966.62L2029.51 1789.34L2036.2 1783.26L2213.49 1607.81C2277.62 1544.3 2277.62 1441.49 2213.49 1377.98L2036.2 1202.65L2036.08 1202.9Z" stroke="url(#paint41_linear_3274_149741)" stroke-width="1.75" stroke-miterlimit="10" stroke-linecap="round"/>
<path d="M2027.44 1200.71L1894.19 1068.94C1854.04 1029.15 1854.04 964.79 1894.19 925.004L2027.31 793.357L2027.31 793.722L2202.66 620.343C2266.18 557.562 2266.18 455.846 2202.66 393.064L2027.44 219.564L2019.89 212.264L1846.49 37.0594C1783.7 -26.4521 1681.97 -26.4521 1619.18 37.0594L1445.79 212.385L1446.27 212.385L1314.97 345.127C1275.18 385.278 1210.81 385.278 1171.02 345.127L1039.12 211.899L1038.87 211.899L865.838 37.0594C803.049 -26.4521 701.321 -26.4521 638.532 37.0594L465.132 212.385L458.439 218.469L283.093 391.848C219.573 454.629 219.573 556.345 283.093 619.127L458.561 792.262L591.805 924.031C631.961 963.817 631.961 1028.18 591.805 1067.97L458.683 1199.61L458.683 1199.25L283.336 1372.63C219.817 1435.41 219.817 1537.12 283.336 1599.91L458.683 1773.28L466.227 1780.58L639.627 1955.91C702.416 2019.42 804.144 2019.42 866.933 1955.91L1040.33 1780.58L1039.85 1780.58L1171.14 1647.84C1210.93 1607.69 1275.31 1607.69 1315.1 1647.84L1446.88 1781.07L1447.12 1781.07L1620.16 1956.03C1682.95 2019.54 1784.68 2019.54 1847.46 1956.03L2020.86 1780.58L2027.56 1774.5L2202.9 1601.12C2266.42 1538.34 2266.42 1436.62 2202.9 1373.84L2027.56 1200.46L2027.44 1200.71Z" stroke="url(#paint42_linear_3274_149741)" stroke-width="1.75" stroke-miterlimit="10" stroke-linecap="round"/>
<path d="M2027.44 1200.71L1894.19 1068.94C1854.04 1029.15 1854.04 964.79 1894.19 925.004L2027.31 793.357L2027.31 793.722L2202.66 620.343C2266.18 557.562 2266.18 455.846 2202.66 393.064L2027.44 219.564L2019.89 212.264L1846.49 37.0594C1783.7 -26.4521 1681.97 -26.4521 1619.18 37.0594L1445.79 212.385L1446.27 212.385L1314.97 345.127C1275.18 385.278 1210.81 385.278 1171.02 345.127L1039.12 211.899L1038.87 211.899L865.838 37.0594C803.049 -26.4521 701.321 -26.4521 638.532 37.0594L465.132 212.385L458.439 218.469L283.093 391.848C219.573 454.629 219.573 556.345 283.093 619.127L458.561 792.262L591.805 924.031C631.961 963.817 631.961 1028.18 591.805 1067.97L458.683 1199.61L458.683 1199.25L283.336 1372.63C219.817 1435.41 219.817 1537.12 283.336 1599.91L458.683 1773.28L466.227 1780.58L639.627 1955.91C702.416 2019.42 804.144 2019.42 866.933 1955.91L1040.33 1780.58L1039.85 1780.58L1171.14 1647.84C1210.93 1607.69 1275.31 1607.69 1315.1 1647.84L1446.88 1781.07L1447.12 1781.07L1620.16 1956.03C1682.95 2019.54 1784.68 2019.54 1847.46 1956.03L2020.86 1780.58L2027.56 1774.5L2202.9 1601.12C2266.42 1538.34 2266.42 1436.62 2202.9 1373.84L2027.56 1200.46L2027.44 1200.71Z" stroke="url(#paint43_linear_3274_149741)" stroke-width="1.75" stroke-miterlimit="10" stroke-linecap="round"/>
<path d="M2018.68 1198.4L1886.9 1068.09C1847.1 1028.79 1847.1 965.033 1886.9 925.734L2018.56 795.548L2018.56 795.913L2191.96 624.48C2254.75 562.429 2254.75 461.808 2191.96 399.756L2018.56 228.324L2011.13 221.145L1839.68 47.7663C1777.62 -15.0152 1676.99 -15.0152 1614.93 47.7664L1443.48 221.145L1443.96 221.145L1314.13 352.427C1274.82 392.213 1211.06 392.213 1171.76 352.427L1041.43 220.659L1041.19 220.659L870.102 47.6447C808.043 -15.1368 707.411 -15.1368 645.352 47.6447L473.899 221.024L467.328 226.986L293.928 398.418C231.139 460.47 231.139 561.09 293.928 623.142L467.449 794.331L599.233 924.639C639.024 963.938 639.024 1027.69 599.233 1066.99L467.571 1197.18L467.571 1196.81L294.171 1368.25C231.382 1430.3 231.382 1530.92 294.171 1592.97L467.328 1764.77L474.751 1771.95L646.204 1945.33C708.263 2008.11 808.895 2008.11 870.954 1945.33L1042.41 1771.95L1041.92 1771.95L1171.76 1640.66C1211.06 1600.88 1274.82 1600.88 1314.13 1640.66L1444.45 1772.43L1444.7 1772.43L1615.78 1945.45C1677.84 2008.23 1778.47 2008.23 1840.53 1945.45L2012.23 1771.95L2018.8 1765.98L2192.32 1594.43C2255.11 1532.38 2255.11 1431.76 2192.32 1369.71L2018.92 1198.27L2018.68 1198.4Z" stroke="url(#paint44_linear_3274_149741)" stroke-width="1.75" stroke-miterlimit="10" stroke-linecap="round"/>
<path d="M2018.68 1198.4L1886.9 1068.09C1847.1 1028.79 1847.1 965.033 1886.9 925.734L2018.56 795.548L2018.56 795.913L2191.96 624.48C2254.75 562.429 2254.75 461.808 2191.96 399.756L2018.56 228.324L2011.13 221.145L1839.68 47.7663C1777.62 -15.0152 1676.99 -15.0152 1614.93 47.7664L1443.48 221.145L1443.96 221.145L1314.13 352.427C1274.82 392.213 1211.06 392.213 1171.76 352.427L1041.43 220.659L1041.19 220.659L870.102 47.6447C808.043 -15.1368 707.411 -15.1368 645.352 47.6447L473.899 221.024L467.328 226.986L293.928 398.418C231.139 460.47 231.139 561.09 293.928 623.142L467.449 794.331L599.233 924.639C639.024 963.938 639.024 1027.69 599.233 1066.99L467.571 1197.18L467.571 1196.81L294.171 1368.25C231.382 1430.3 231.382 1530.92 294.171 1592.97L467.328 1764.77L474.751 1771.95L646.204 1945.33C708.263 2008.11 808.895 2008.11 870.954 1945.33L1042.41 1771.95L1041.92 1771.95L1171.76 1640.66C1211.06 1600.88 1274.82 1600.88 1314.13 1640.66L1444.45 1772.43L1444.7 1772.43L1615.78 1945.45C1677.84 2008.23 1778.47 2008.23 1840.53 1945.45L2012.23 1771.95L2018.8 1765.98L2192.32 1594.43C2255.11 1532.38 2255.11 1431.76 2192.32 1369.71L2018.92 1198.27L2018.68 1198.4Z" stroke="url(#paint45_linear_3274_149741)" stroke-width="1.75" stroke-miterlimit="10" stroke-linecap="round"/>
<path d="M2010.03 1196.08L1879.83 1067.24C1840.53 1028.42 1840.53 965.399 1879.83 926.465L2010.03 797.738L2010.03 798.103L2181.49 628.496C2243.55 567.174 2243.55 467.649 2181.49 406.206L2010.03 236.598L2002.73 229.541L1833.11 58.1089C1771.78 -3.9426 1672.24 -3.9426 1610.79 58.1089L1441.16 229.541L1441.53 229.541L1313.15 359.363C1274.33 398.662 1211.3 398.662 1172.36 359.363L1043.62 229.298L1043.38 229.298L874.235 58.2306C812.906 -3.8209 713.368 -3.8209 651.918 58.2306L482.29 229.663L475.841 235.625L304.388 405.232C242.329 466.554 242.329 566.079 304.388 627.523L475.963 796.887L606.286 925.735C645.59 964.547 645.59 1027.57 606.286 1066.51L476.084 1195.23L476.084 1194.87L304.631 1364.48C242.572 1425.8 242.573 1525.32 304.631 1586.77L476.084 1756.37L483.385 1763.43L653.013 1934.86C714.342 1996.91 813.88 1996.91 875.33 1934.86L1044.96 1763.43L1044.59 1763.43L1172.73 1633.36C1211.54 1594.07 1274.58 1594.07 1313.51 1633.36L1442.38 1763.55L1442.62 1763.55L1611.76 1934.62C1673.09 1996.67 1772.63 1996.67 1834.08 1934.62L2003.71 1763.19L2010.16 1757.22L2181.61 1587.62C2243.67 1526.3 2243.67 1426.77 2181.61 1365.33L2010.16 1195.72L2010.03 1196.08Z" stroke="url(#paint46_linear_3274_149741)" stroke-width="1.75" stroke-miterlimit="10" stroke-linecap="round"/>
<path d="M2010.03 1196.08L1879.83 1067.24C1840.53 1028.42 1840.53 965.399 1879.83 926.465L2010.03 797.738L2010.03 798.103L2181.49 628.496C2243.55 567.174 2243.55 467.649 2181.49 406.206L2010.03 236.598L2002.73 229.541L1833.11 58.1089C1771.78 -3.9426 1672.24 -3.9426 1610.79 58.1089L1441.16 229.541L1441.53 229.541L1313.15 359.363C1274.33 398.662 1211.3 398.662 1172.36 359.363L1043.62 229.298L1043.38 229.298L874.235 58.2306C812.906 -3.8209 713.368 -3.8209 651.918 58.2306L482.29 229.663L475.841 235.625L304.388 405.232C242.329 466.554 242.329 566.079 304.388 627.523L475.963 796.887L606.286 925.735C645.59 964.547 645.59 1027.57 606.286 1066.51L476.084 1195.23L476.084 1194.87L304.631 1364.48C242.572 1425.8 242.573 1525.32 304.631 1586.77L476.084 1756.37L483.385 1763.43L653.013 1934.86C714.342 1996.91 813.88 1996.91 875.33 1934.86L1044.96 1763.43L1044.59 1763.43L1172.73 1633.36C1211.54 1594.07 1274.58 1594.07 1313.51 1633.36L1442.38 1763.55L1442.62 1763.55L1611.76 1934.62C1673.09 1996.67 1772.63 1996.67 1834.08 1934.62L2003.71 1763.19L2010.16 1757.22L2181.61 1587.62C2243.67 1526.3 2243.67 1426.77 2181.61 1365.33L2010.16 1195.72L2010.03 1196.08Z" stroke="url(#paint47_linear_3274_149741)" stroke-width="1.75" stroke-miterlimit="10" stroke-linecap="round"/>
<path d="M2001.39 1193.89L1872.65 1066.51C1833.84 1028.06 1833.84 965.763 1872.65 927.315L2001.27 800.049L2001.27 800.414L2170.78 632.753C2232.11 572.04 2232.11 473.731 2170.78 413.018L2001.27 245.479L1994.09 238.422L1826.41 68.9364C1765.69 7.6149 1667.37 7.6149 1606.65 68.9364L1438.97 238.422L1439.34 238.422L1312.42 366.784C1273.97 405.596 1211.66 405.596 1173.21 366.784L1045.93 238.057L1045.69 238.057L878.371 68.9364C817.651 7.61493 719.33 7.61493 658.609 68.9364L490.929 238.422L484.479 244.262L314.973 411.923C253.644 472.636 253.644 570.945 314.973 631.658L484.601 799.076L613.343 926.464C652.16 964.911 652.16 1027.21 613.343 1065.65L484.601 1192.92L484.601 1192.55L315.095 1360.22C253.766 1420.93 253.766 1519.24 315.095 1579.95L484.601 1747.61L491.78 1754.67L659.461 1924.15C720.182 1985.48 818.503 1985.48 879.223 1924.15L1046.9 1754.67L1046.54 1754.67L1173.46 1626.31C1211.91 1587.49 1274.21 1587.49 1312.66 1626.31L1440.07 1755.03L1440.31 1755.03L1607.62 1924.15C1668.34 1985.48 1766.67 1985.48 1827.39 1924.15L1995.07 1754.67L2001.52 1748.83L2171.02 1581.05C2232.35 1520.33 2232.35 1422.02 2171.02 1361.31L2001.52 1193.65L2001.39 1193.89Z" stroke="url(#paint48_linear_3274_149741)" stroke-width="1.75" stroke-miterlimit="10" stroke-linecap="round"/>
<path d="M2001.39 1193.89L1872.65 1066.51C1833.84 1028.06 1833.84 965.763 1872.65 927.315L2001.27 800.049L2001.27 800.414L2170.78 632.753C2232.11 572.04 2232.11 473.731 2170.78 413.018L2001.27 245.479L1994.09 238.422L1826.41 68.9364C1765.69 7.6149 1667.37 7.6149 1606.65 68.9364L1438.97 238.422L1439.34 238.422L1312.42 366.784C1273.97 405.596 1211.66 405.596 1173.21 366.784L1045.93 238.057L1045.69 238.057L878.371 68.9364C817.651 7.61493 719.33 7.61493 658.609 68.9364L490.929 238.422L484.479 244.262L314.973 411.923C253.644 472.636 253.644 570.945 314.973 631.658L484.601 799.076L613.343 926.464C652.16 964.911 652.16 1027.21 613.343 1065.65L484.601 1192.92L484.601 1192.55L315.095 1360.22C253.766 1420.93 253.766 1519.24 315.095 1579.95L484.601 1747.61L491.78 1754.67L659.461 1924.15C720.182 1985.48 818.503 1985.48 879.223 1924.15L1046.9 1754.67L1046.54 1754.67L1173.46 1626.31C1211.91 1587.49 1274.21 1587.49 1312.66 1626.31L1440.07 1755.03L1440.31 1755.03L1607.62 1924.15C1668.34 1985.48 1766.67 1985.48 1827.39 1924.15L1995.07 1754.67L2001.52 1748.83L2171.02 1581.05C2232.35 1520.33 2232.35 1422.02 2171.02 1361.31L2001.52 1193.65L2001.39 1193.89Z" stroke="url(#paint49_linear_3274_149741)" stroke-width="1.75" stroke-miterlimit="10" stroke-linecap="round"/>
<path d="M1992.64 1191.58L1865.36 1065.66C1826.91 1027.69 1826.91 966.129 1865.36 928.047L1992.64 802.362L1992.64 802.727L2160.2 637.013C2220.92 577.03 2220.92 479.816 2160.2 419.833L1992.64 254.119L1985.46 247.184L1819.73 79.6448C1759.74 18.9316 1662.51 18.9316 1602.52 79.6448L1436.79 247.184L1437.15 247.184L1311.7 374.085C1273.73 412.533 1212.16 412.533 1174.07 374.085L1048.13 246.697L1047.88 246.697L882.637 79.5231C822.647 18.81 725.421 18.81 665.431 79.5231L499.697 247.062L493.37 252.902L325.689 418.616C264.968 478.599 264.968 575.813 325.689 635.796L493.37 801.267L620.651 927.195C659.104 965.156 659.104 1026.72 620.651 1064.8L493.37 1190.61L493.37 1190.24L325.811 1355.96C265.09 1415.94 265.09 1513.16 325.811 1573.14L493.37 1738.85L500.549 1745.79L666.283 1913.33C726.273 1974.04 823.499 1974.04 883.489 1913.33L1049.22 1745.79L1048.86 1745.79L1174.31 1618.89C1212.28 1580.44 1273.85 1580.44 1311.94 1618.89L1437.88 1746.15L1438.13 1746.15L1603.49 1913.33C1663.48 1974.04 1760.71 1974.04 1820.7 1913.33L1986.43 1745.79L1992.76 1739.95L2160.32 1574.23C2221.04 1514.25 2221.04 1417.04 2160.32 1357.05L1992.76 1191.34L1992.64 1191.58Z" stroke="url(#paint50_linear_3274_149741)" stroke-width="1.75" stroke-miterlimit="10" stroke-linecap="round"/>
<path d="M1992.64 1191.58L1865.36 1065.66C1826.91 1027.69 1826.91 966.129 1865.36 928.047L1992.64 802.362L1992.64 802.727L2160.2 637.013C2220.92 577.03 2220.92 479.816 2160.2 419.833L1992.64 254.119L1985.46 247.184L1819.73 79.6448C1759.74 18.9316 1662.51 18.9316 1602.52 79.6448L1436.79 247.184L1437.15 247.184L1311.7 374.085C1273.73 412.533 1212.16 412.533 1174.07 374.085L1048.13 246.697L1047.88 246.697L882.637 79.5231C822.647 18.81 725.421 18.81 665.431 79.5231L499.697 247.062L493.37 252.902L325.689 418.616C264.968 478.599 264.968 575.813 325.689 635.796L493.37 801.267L620.651 927.195C659.104 965.156 659.104 1026.72 620.651 1064.8L493.37 1190.61L493.37 1190.24L325.811 1355.96C265.09 1415.94 265.09 1513.16 325.811 1573.14L493.37 1738.85L500.549 1745.79L666.283 1913.33C726.273 1974.04 823.499 1974.04 883.489 1913.33L1049.22 1745.79L1048.86 1745.79L1174.31 1618.89C1212.28 1580.44 1273.85 1580.44 1311.94 1618.89L1437.88 1746.15L1438.13 1746.15L1603.49 1913.33C1663.48 1974.04 1760.71 1974.04 1820.7 1913.33L1986.43 1745.79L1992.76 1739.95L2160.32 1574.23C2221.04 1514.25 2221.04 1417.04 2160.32 1357.05L1992.76 1191.34L1992.64 1191.58Z" stroke="url(#paint51_linear_3274_149741)" stroke-width="1.75" stroke-miterlimit="10" stroke-linecap="round"/>
<path d="M1984 1189.39L1858.18 1064.92C1820.21 1027.33 1820.21 966.494 1858.18 928.898L1984 804.551L1984 804.916L2149.61 641.149C2209.6 581.896 2209.6 485.777 2149.61 426.402L1984 262.635L1976.94 255.822L1813.15 90.2295C1753.89 30.2464 1657.76 30.2464 1598.38 90.2295L1434.6 255.822L1434.96 255.822L1310.96 381.263C1273.36 419.224 1212.52 419.224 1174.92 381.263L1050.44 255.457L1050.19 255.457L886.773 90.2295C827.513 30.2464 731.382 30.2464 672.001 90.2295L508.214 255.822L501.886 261.54L336.274 425.307C276.284 484.561 276.284 580.679 336.274 640.054L502.008 803.578L627.829 928.046C665.795 965.642 665.795 1026.48 627.829 1064.07L502.13 1188.3L502.13 1187.93L336.517 1351.7C276.527 1410.95 276.527 1507.07 336.517 1566.45L502.13 1730.34L509.187 1737.15L672.974 1902.74C732.234 1962.72 828.365 1962.72 887.747 1902.74L1051.53 1737.15L1051.17 1737.15L1175.16 1611.71C1212.77 1573.75 1273.61 1573.75 1311.21 1611.71L1435.69 1737.51L1435.93 1737.51L1599.36 1902.74C1658.62 1962.72 1754.75 1962.72 1814.13 1902.74L1977.92 1737.15L1984.24 1731.43L2149.73 1567.66C2209.72 1508.41 2209.72 1412.29 2149.73 1352.92L1984.12 1189.15L1984 1189.39Z" stroke="url(#paint52_linear_3274_149741)" stroke-width="1.75" stroke-miterlimit="10" stroke-linecap="round"/>
<path d="M1984 1189.39L1858.18 1064.92C1820.21 1027.33 1820.21 966.494 1858.18 928.898L1984 804.551L1984 804.916L2149.61 641.149C2209.6 581.896 2209.6 485.777 2149.61 426.402L1984 262.635L1976.94 255.822L1813.15 90.2295C1753.89 30.2464 1657.76 30.2464 1598.38 90.2295L1434.6 255.822L1434.96 255.822L1310.96 381.263C1273.36 419.224 1212.52 419.224 1174.92 381.263L1050.44 255.457L1050.19 255.457L886.773 90.2295C827.513 30.2464 731.382 30.2464 672.001 90.2295L508.214 255.822L501.886 261.54L336.274 425.307C276.284 484.561 276.284 580.679 336.274 640.054L502.008 803.578L627.829 928.046C665.795 965.642 665.795 1026.48 627.829 1064.07L502.13 1188.3L502.13 1187.93L336.517 1351.7C276.527 1410.95 276.527 1507.07 336.517 1566.45L502.13 1730.34L509.187 1737.15L672.974 1902.74C732.234 1962.72 828.365 1962.72 887.747 1902.74L1051.53 1737.15L1051.17 1737.15L1175.16 1611.71C1212.77 1573.75 1273.61 1573.75 1311.21 1611.71L1435.69 1737.51L1435.93 1737.51L1599.36 1902.74C1658.62 1962.72 1754.75 1962.72 1814.13 1902.74L1977.92 1737.15L1984.24 1731.43L2149.73 1567.66C2209.72 1508.41 2209.72 1412.29 2149.73 1352.92L1984.12 1189.15L1984 1189.39Z" stroke="url(#paint53_linear_3274_149741)" stroke-width="1.75" stroke-miterlimit="10" stroke-linecap="round"/>
<path d="M1975.23 1187.08L1850.87 1064.07C1813.39 1026.96 1813.39 966.859 1850.87 929.75L1975.23 806.863L1975.23 807.228L2138.9 645.408C2198.16 586.763 2198.16 491.861 2138.9 433.216L1975.23 271.396L1968.3 264.582L1806.46 100.936C1747.8 41.6834 1652.89 41.6834 1594.24 100.936L1432.4 264.582L1432.76 264.582L1310.11 388.442C1272.99 425.916 1212.88 425.916 1175.77 388.442L1052.74 264.095L1052.5 264.095L890.905 100.815C832.253 41.5617 737.339 41.5617 678.687 100.815L516.848 264.46L510.642 270.179L346.976 431.999C287.716 490.644 287.716 585.546 346.976 644.191L510.763 805.89L635.125 928.898C672.603 966.007 672.603 1026.11 635.125 1063.22L510.763 1186.11L510.763 1185.74L347.098 1347.56C287.838 1406.21 287.838 1501.11 347.098 1559.75L510.763 1721.58L517.699 1728.39L679.539 1892.03C738.191 1951.29 833.105 1951.29 891.757 1892.03L1053.6 1728.39L1053.35 1728.39L1176.01 1604.41C1213.12 1566.93 1273.24 1566.93 1310.35 1604.41L1433.37 1728.75L1433.62 1728.75L1595.09 1892.03C1653.74 1951.29 1748.66 1951.29 1807.31 1892.03L1969.15 1728.39L1975.35 1722.67L2139.02 1560.85C2198.28 1502.21 2198.28 1407.3 2139.02 1348.66L1975.35 1186.84L1975.23 1187.08Z" stroke="url(#paint54_linear_3274_149741)" stroke-width="1.75" stroke-miterlimit="10" stroke-linecap="round"/>
<path d="M1975.23 1187.08L1850.87 1064.07C1813.39 1026.96 1813.39 966.859 1850.87 929.75L1975.23 806.863L1975.23 807.228L2138.9 645.408C2198.16 586.763 2198.16 491.861 2138.9 433.216L1975.23 271.396L1968.3 264.582L1806.46 100.936C1747.8 41.6834 1652.89 41.6834 1594.24 100.936L1432.4 264.582L1432.76 264.582L1310.11 388.442C1272.99 425.916 1212.88 425.916 1175.77 388.442L1052.74 264.095L1052.5 264.095L890.905 100.815C832.253 41.5617 737.339 41.5617 678.687 100.815L516.848 264.46L510.642 270.179L346.976 431.999C287.716 490.644 287.716 585.546 346.976 644.191L510.763 805.89L635.125 928.898C672.603 966.007 672.603 1026.11 635.125 1063.22L510.763 1186.11L510.763 1185.74L347.098 1347.56C287.838 1406.21 287.838 1501.11 347.098 1559.75L510.763 1721.58L517.699 1728.39L679.539 1892.03C738.191 1951.29 833.105 1951.29 891.757 1892.03L1053.6 1728.39L1053.35 1728.39L1176.01 1604.41C1213.12 1566.93 1273.24 1566.93 1310.35 1604.41L1433.37 1728.75L1433.62 1728.75L1595.09 1892.03C1653.74 1951.29 1748.66 1951.29 1807.31 1892.03L1969.15 1728.39L1975.35 1722.67L2139.02 1560.85C2198.28 1502.21 2198.28 1407.3 2139.02 1348.66L1975.35 1186.84L1975.23 1187.08Z" stroke="url(#paint55_linear_3274_149741)" stroke-width="1.75" stroke-miterlimit="10" stroke-linecap="round"/>
</g>
</g>
<defs>
<linearGradient id="paint0_linear_3274_149741" x1="1242.88" y1="-244.972" x2="1242.88" y2="2238.14" gradientUnits="userSpaceOnUse">
<stop stop-color="#FEFF01"/>
<stop offset="0.3082" stop-color="#FF2D9A"/>
<stop offset="0.6401" stop-color="#A3088F"/>
<stop offset="1" stop-color="#2C0480"/>
</linearGradient>
<linearGradient id="paint1_linear_3274_149741" x1="1242.88" y1="-244.972" x2="1242.88" y2="2238.14" gradientUnits="userSpaceOnUse">
<stop stop-color="#FEFF01"/>
<stop offset="0.3082" stop-color="#FF2D9A"/>
<stop offset="0.6401" stop-color="#A3088F"/>
<stop offset="1" stop-color="#2C0480"/>
</linearGradient>
<linearGradient id="paint2_linear_3274_149741" x1="1243.01" y1="-233.839" x2="1243.01" y2="2226.77" gradientUnits="userSpaceOnUse">
<stop stop-color="#FEFF01"/>
<stop offset="0.3082" stop-color="#FF2D9A"/>
<stop offset="0.6401" stop-color="#A3088F"/>
<stop offset="1" stop-color="#2C0480"/>
</linearGradient>
<linearGradient id="paint3_linear_3274_149741" x1="1243.01" y1="-233.839" x2="1243.01" y2="2226.77" gradientUnits="userSpaceOnUse">
<stop stop-color="#FEFF01"/>
<stop offset="0.3082" stop-color="#FF2D9A"/>
<stop offset="0.6401" stop-color="#A3088F"/>
<stop offset="1" stop-color="#2C0480"/>
</linearGradient>
<linearGradient id="paint4_linear_3274_149741" x1="1242.95" y1="-222.675" x2="1242.95" y2="2215.61" gradientUnits="userSpaceOnUse">
<stop stop-color="#FEFF01"/>
<stop offset="0.3082" stop-color="#FF2D9A"/>
<stop offset="0.6401" stop-color="#A3088F"/>
<stop offset="1" stop-color="#2C0480"/>
</linearGradient>
<linearGradient id="paint5_linear_3274_149741" x1="1242.95" y1="-222.675" x2="1242.95" y2="2215.61" gradientUnits="userSpaceOnUse">
<stop stop-color="#FEFF01"/>
<stop offset="0.3082" stop-color="#FF2D9A"/>
<stop offset="0.6401" stop-color="#A3088F"/>
<stop offset="1" stop-color="#2C0480"/>
</linearGradient>
<linearGradient id="paint6_linear_3274_149741" x1="1242.88" y1="-211.543" x2="1242.88" y2="2204.59" gradientUnits="userSpaceOnUse">
<stop stop-color="#FEFF01"/>
<stop offset="0.3082" stop-color="#FF2D9A"/>
<stop offset="0.6401" stop-color="#A3088F"/>
<stop offset="1" stop-color="#2C0480"/>
</linearGradient>
<linearGradient id="paint7_linear_3274_149741" x1="1242.88" y1="-211.543" x2="1242.88" y2="2204.59" gradientUnits="userSpaceOnUse">
<stop stop-color="#FEFF01"/>
<stop offset="0.3082" stop-color="#FF2D9A"/>
<stop offset="0.6401" stop-color="#A3088F"/>
<stop offset="1" stop-color="#2C0480"/>
</linearGradient>
<linearGradient id="paint8_linear_3274_149741" x1="1243.07" y1="-200.414" x2="1243.07" y2="2193.46" gradientUnits="userSpaceOnUse">
<stop stop-color="#FEFF01"/>
<stop offset="0.3082" stop-color="#FF2D9A"/>
<stop offset="0.6401" stop-color="#A3088F"/>
<stop offset="1" stop-color="#2C0480"/>
</linearGradient>
<linearGradient id="paint9_linear_3274_149741" x1="1243.07" y1="-200.414" x2="1243.07" y2="2193.46" gradientUnits="userSpaceOnUse">
<stop stop-color="#FEFF01"/>
<stop offset="0.3082" stop-color="#FF2D9A"/>
<stop offset="0.6401" stop-color="#A3088F"/>
<stop offset="1" stop-color="#2C0480"/>
</linearGradient>
<linearGradient id="paint10_linear_3274_149741" x1="1243.01" y1="-189.156" x2="1243.01" y2="2182.21" gradientUnits="userSpaceOnUse">
<stop stop-color="#FEFF01"/>
<stop offset="0.3082" stop-color="#FF2D9A"/>
<stop offset="0.6401" stop-color="#A3088F"/>
<stop offset="1" stop-color="#2C0480"/>
</linearGradient>
<linearGradient id="paint11_linear_3274_149741" x1="1243.01" y1="-189.156" x2="1243.01" y2="2182.21" gradientUnits="userSpaceOnUse">
<stop stop-color="#FEFF01"/>
<stop offset="0.3082" stop-color="#FF2D9A"/>
<stop offset="0.6401" stop-color="#A3088F"/>
<stop offset="1" stop-color="#2C0480"/>
</linearGradient>
<linearGradient id="paint12_linear_3274_149741" x1="1242.96" y1="-178.024" x2="1242.96" y2="2171.07" gradientUnits="userSpaceOnUse">
<stop stop-color="#FEFF01"/>
<stop offset="0.3082" stop-color="#FF2D9A"/>
<stop offset="0.6401" stop-color="#A3088F"/>
<stop offset="1" stop-color="#2C0480"/>
</linearGradient>
<linearGradient id="paint13_linear_3274_149741" x1="1242.96" y1="-178.024" x2="1242.96" y2="2171.07" gradientUnits="userSpaceOnUse">
<stop stop-color="#FEFF01"/>
<stop offset="0.3082" stop-color="#FF2D9A"/>
<stop offset="0.6401" stop-color="#A3088F"/>
<stop offset="1" stop-color="#2C0480"/>
</linearGradient>
<linearGradient id="paint14_linear_3274_149741" x1="1242.9" y1="-166.86" x2="1242.9" y2="2159.91" gradientUnits="userSpaceOnUse">
<stop stop-color="#FEFF01"/>
<stop offset="0.3082" stop-color="#FF2D9A"/>
<stop offset="0.6401" stop-color="#A3088F"/>
<stop offset="1" stop-color="#2C0480"/>
</linearGradient>
<linearGradient id="paint15_linear_3274_149741" x1="1242.9" y1="-166.86" x2="1242.9" y2="2159.91" gradientUnits="userSpaceOnUse">
<stop stop-color="#FEFF01"/>
<stop offset="0.3082" stop-color="#FF2D9A"/>
<stop offset="0.6401" stop-color="#A3088F"/>
<stop offset="1" stop-color="#2C0480"/>
</linearGradient>
<linearGradient id="paint16_linear_3274_149741" x1="1242.96" y1="-155.731" x2="1242.96" y2="2148.77" gradientUnits="userSpaceOnUse">
<stop stop-color="#FEFF01"/>
<stop offset="0.3082" stop-color="#FF2D9A"/>
<stop offset="0.6401" stop-color="#A3088F"/>
<stop offset="1" stop-color="#2C0480"/>
</linearGradient>
<linearGradient id="paint17_linear_3274_149741" x1="1242.96" y1="-155.731" x2="1242.96" y2="2148.77" gradientUnits="userSpaceOnUse">
<stop stop-color="#FEFF01"/>
<stop offset="0.3082" stop-color="#FF2D9A"/>
<stop offset="0.6401" stop-color="#A3088F"/>
<stop offset="1" stop-color="#2C0480"/>
</linearGradient>
<linearGradient id="paint18_linear_3274_149741" x1="1242.9" y1="-144.72" x2="1242.9" y2="2137.52" gradientUnits="userSpaceOnUse">
<stop stop-color="#FEFF01"/>
<stop offset="0.3082" stop-color="#FF2D9A"/>
<stop offset="0.6401" stop-color="#A3088F"/>
<stop offset="1" stop-color="#2C0480"/>
</linearGradient>
<linearGradient id="paint19_linear_3274_149741" x1="1242.9" y1="-144.72" x2="1242.9" y2="2137.52" gradientUnits="userSpaceOnUse">
<stop stop-color="#FEFF01"/>
<stop offset="0.3082" stop-color="#FF2D9A"/>
<stop offset="0.6401" stop-color="#A3088F"/>
<stop offset="1" stop-color="#2C0480"/>
</linearGradient>
<linearGradient id="paint20_linear_3274_149741" x1="1242.9" y1="-133.345" x2="1242.9" y2="2126.38" gradientUnits="userSpaceOnUse">
<stop stop-color="#FEFF01"/>
<stop offset="0.3082" stop-color="#FF2D9A"/>
<stop offset="0.6401" stop-color="#A3088F"/>
<stop offset="1" stop-color="#2C0480"/>
</linearGradient>
<linearGradient id="paint21_linear_3274_149741" x1="1242.9" y1="-133.345" x2="1242.9" y2="2126.38" gradientUnits="userSpaceOnUse">
<stop stop-color="#FEFF01"/>
<stop offset="0.3082" stop-color="#FF2D9A"/>
<stop offset="0.6401" stop-color="#A3088F"/>
<stop offset="1" stop-color="#2C0480"/>
</linearGradient>
<linearGradient id="paint22_linear_3274_149741" x1="1242.95" y1="-122.209" x2="1242.95" y2="2115.13" gradientUnits="userSpaceOnUse">
<stop stop-color="#FEFF01"/>
<stop offset="0.3082" stop-color="#FF2D9A"/>
<stop offset="0.6401" stop-color="#A3088F"/>
<stop offset="1" stop-color="#2C0480"/>
</linearGradient>
<linearGradient id="paint23_linear_3274_149741" x1="1242.95" y1="-122.209" x2="1242.95" y2="2115.13" gradientUnits="userSpaceOnUse">
<stop stop-color="#FEFF01"/>
<stop offset="0.3082" stop-color="#FF2D9A"/>
<stop offset="0.6401" stop-color="#A3088F"/>
<stop offset="1" stop-color="#2C0480"/>
</linearGradient>
<linearGradient id="paint24_linear_3274_149741" x1="1242.96" y1="-111.17" x2="1242.96" y2="2104.09" gradientUnits="userSpaceOnUse">
<stop stop-color="#FEFF01"/>
<stop offset="0.3082" stop-color="#FF2D9A"/>
<stop offset="0.6401" stop-color="#A3088F"/>
<stop offset="1" stop-color="#2C0480"/>
</linearGradient>
<linearGradient id="paint25_linear_3274_149741" x1="1242.96" y1="-111.17" x2="1242.96" y2="2104.09" gradientUnits="userSpaceOnUse">
<stop stop-color="#FEFF01"/>
<stop offset="0.3082" stop-color="#FF2D9A"/>
<stop offset="0.6401" stop-color="#A3088F"/>
<stop offset="1" stop-color="#2C0480"/>
</linearGradient>
<linearGradient id="paint26_linear_3274_149741" x1="1242.84" y1="-99.9163" x2="1242.84" y2="2092.83" gradientUnits="userSpaceOnUse">
<stop stop-color="#FEFF01"/>
<stop offset="0.3082" stop-color="#FF2D9A"/>
<stop offset="0.6401" stop-color="#A3088F"/>
<stop offset="1" stop-color="#2C0480"/>
</linearGradient>
<linearGradient id="paint27_linear_3274_149741" x1="1242.84" y1="-99.9163" x2="1242.84" y2="2092.83" gradientUnits="userSpaceOnUse">
<stop stop-color="#FEFF01"/>
<stop offset="0.3082" stop-color="#FF2D9A"/>
<stop offset="0.6401" stop-color="#A3088F"/>
<stop offset="1" stop-color="#2C0480"/>
</linearGradient>
<linearGradient id="paint28_linear_3274_149741" x1="1242.9" y1="-88.7837" x2="1242.9" y2="2081.7" gradientUnits="userSpaceOnUse">
<stop stop-color="#FEFF01"/>
<stop offset="0.3082" stop-color="#FF2D9A"/>
<stop offset="0.6401" stop-color="#A3088F"/>
<stop offset="1" stop-color="#2C0480"/>
</linearGradient>
<linearGradient id="paint29_linear_3274_149741" x1="1242.9" y1="-88.7837" x2="1242.9" y2="2081.7" gradientUnits="userSpaceOnUse">
<stop stop-color="#FEFF01"/>
<stop offset="0.3082" stop-color="#FF2D9A"/>
<stop offset="0.6401" stop-color="#A3088F"/>
<stop offset="1" stop-color="#2C0480"/>
</linearGradient>
<linearGradient id="paint30_linear_3274_149741" x1="1242.9" y1="-77.6512" x2="1242.9" y2="2070.57" gradientUnits="userSpaceOnUse">
<stop stop-color="#FEFF01"/>
<stop offset="0.3082" stop-color="#FF2D9A"/>
<stop offset="0.6401" stop-color="#A3088F"/>
<stop offset="1" stop-color="#2C0480"/>
</linearGradient>
<linearGradient id="paint31_linear_3274_149741" x1="1242.9" y1="-77.6512" x2="1242.9" y2="2070.57" gradientUnits="userSpaceOnUse">
<stop stop-color="#FEFF01"/>
<stop offset="0.3082" stop-color="#FF2D9A"/>
<stop offset="0.6401" stop-color="#A3088F"/>
<stop offset="1" stop-color="#2C0480"/>
</linearGradient>
<linearGradient id="paint32_linear_3274_149741" x1="1242.9" y1="-66.4874" x2="1242.9" y2="2059.52" gradientUnits="userSpaceOnUse">
<stop stop-color="#FEFF01"/>
<stop offset="0.3082" stop-color="#FF2D9A"/>
<stop offset="0.6401" stop-color="#A3088F"/>
<stop offset="1" stop-color="#2C0480"/>
</linearGradient>
<linearGradient id="paint33_linear_3274_149741" x1="1242.9" y1="-66.4874" x2="1242.9" y2="2059.52" gradientUnits="userSpaceOnUse">
<stop stop-color="#FEFF01"/>
<stop offset="0.3082" stop-color="#FF2D9A"/>
<stop offset="0.6401" stop-color="#A3088F"/>
<stop offset="1" stop-color="#2C0480"/>
</linearGradient>
<linearGradient id="paint34_linear_3274_149741" x1="1242.84" y1="-55.2337" x2="1242.84" y2="2048.15" gradientUnits="userSpaceOnUse">
<stop stop-color="#FEFF01"/>
<stop offset="0.3082" stop-color="#FF2D9A"/>
<stop offset="0.6401" stop-color="#A3088F"/>
<stop offset="1" stop-color="#2C0480"/>
</linearGradient>
<linearGradient id="paint35_linear_3274_149741" x1="1242.84" y1="-55.2337" x2="1242.84" y2="2048.15" gradientUnits="userSpaceOnUse">
<stop stop-color="#FEFF01"/>
<stop offset="0.3082" stop-color="#FF2D9A"/>
<stop offset="0.6401" stop-color="#A3088F"/>
<stop offset="1" stop-color="#2C0480"/>
</linearGradient>
<linearGradient id="paint36_linear_3274_149741" x1="1242.9" y1="-44.1012" x2="1242.9" y2="2037.14" gradientUnits="userSpaceOnUse">
<stop stop-color="#FEFF01"/>
<stop offset="0.3082" stop-color="#FF2D9A"/>
<stop offset="0.6401" stop-color="#A3088F"/>
<stop offset="1" stop-color="#2C0480"/>
</linearGradient>
<linearGradient id="paint37_linear_3274_149741" x1="1242.9" y1="-44.1012" x2="1242.9" y2="2037.14" gradientUnits="userSpaceOnUse">
<stop stop-color="#FEFF01"/>
<stop offset="0.3082" stop-color="#FF2D9A"/>
<stop offset="0.6401" stop-color="#A3088F"/>
<stop offset="1" stop-color="#2C0480"/>
</linearGradient>
<linearGradient id="paint38_linear_3274_149741" x1="1242.91" y1="-32.9686" x2="1242.91" y2="2025.88" gradientUnits="userSpaceOnUse">
<stop stop-color="#FEFF01"/>
<stop offset="0.3082" stop-color="#FF2D9A"/>
<stop offset="0.6401" stop-color="#A3088F"/>
<stop offset="1" stop-color="#2C0480"/>
</linearGradient>
<linearGradient id="paint39_linear_3274_149741" x1="1242.91" y1="-32.9686" x2="1242.91" y2="2025.88" gradientUnits="userSpaceOnUse">
<stop stop-color="#FEFF01"/>
<stop offset="0.3082" stop-color="#FF2D9A"/>
<stop offset="0.6401" stop-color="#A3088F"/>
<stop offset="1" stop-color="#2C0480"/>
</linearGradient>
<linearGradient id="paint40_linear_3274_149741" x1="1242.91" y1="-21.715" x2="1242.91" y2="2014.75" gradientUnits="userSpaceOnUse">
<stop stop-color="#FEFF01"/>
<stop offset="0.3082" stop-color="#FF2D9A"/>
<stop offset="0.6401" stop-color="#A3088F"/>
<stop offset="1" stop-color="#2C0480"/>
</linearGradient>
<linearGradient id="paint41_linear_3274_149741" x1="1242.91" y1="-21.715" x2="1242.91" y2="2014.75" gradientUnits="userSpaceOnUse">
<stop stop-color="#FEFF01"/>
<stop offset="0.3082" stop-color="#FF2D9A"/>
<stop offset="0.6401" stop-color="#A3088F"/>
<stop offset="1" stop-color="#2C0480"/>
</linearGradient>
<linearGradient id="paint42_linear_3274_149741" x1="1242.9" y1="-10.5511" x2="1242.9" y2="2003.71" gradientUnits="userSpaceOnUse">
<stop stop-color="#FEFF01"/>
<stop offset="0.3082" stop-color="#FF2D9A"/>
<stop offset="0.6401" stop-color="#A3088F"/>
<stop offset="1" stop-color="#2C0480"/>
</linearGradient>
<linearGradient id="paint43_linear_3274_149741" x1="1242.9" y1="-10.5511" x2="1242.9" y2="2003.71" gradientUnits="userSpaceOnUse">
<stop stop-color="#FEFF01"/>
<stop offset="0.3082" stop-color="#FF2D9A"/>
<stop offset="0.6401" stop-color="#A3088F"/>
<stop offset="1" stop-color="#2C0480"/>
</linearGradient>
<linearGradient id="paint44_linear_3274_149741" x1="1243.03" y1="0.581415" x2="1243.03" y2="1992.57" gradientUnits="userSpaceOnUse">
<stop stop-color="#FEFF01"/>
<stop offset="0.3082" stop-color="#FF2D9A"/>
<stop offset="0.6401" stop-color="#A3088F"/>
<stop offset="1" stop-color="#2C0480"/>
</linearGradient>
<linearGradient id="paint45_linear_3274_149741" x1="1243.03" y1="0.581415" x2="1243.03" y2="1992.57" gradientUnits="userSpaceOnUse">
<stop stop-color="#FEFF01"/>
<stop offset="0.3082" stop-color="#FF2D9A"/>
<stop offset="0.6401" stop-color="#A3088F"/>
<stop offset="1" stop-color="#2C0480"/>
</linearGradient>
<linearGradient id="paint46_linear_3274_149741" x1="1242.91" y1="11.5929" x2="1242.91" y2="1981.44" gradientUnits="userSpaceOnUse">
<stop stop-color="#FEFF01"/>
<stop offset="0.3082" stop-color="#FF2D9A"/>
<stop offset="0.6401" stop-color="#A3088F"/>
<stop offset="1" stop-color="#2C0480"/>
</linearGradient>
<linearGradient id="paint47_linear_3274_149741" x1="1242.91" y1="11.5929" x2="1242.91" y2="1981.44" gradientUnits="userSpaceOnUse">
<stop stop-color="#FEFF01"/>
<stop offset="0.3082" stop-color="#FF2D9A"/>
<stop offset="0.6401" stop-color="#A3088F"/>
<stop offset="1" stop-color="#2C0480"/>
</linearGradient>
<linearGradient id="paint48_linear_3274_149741" x1="1242.91" y1="22.9676" x2="1242.91" y2="1970.19" gradientUnits="userSpaceOnUse">
<stop stop-color="#FEFF01"/>
<stop offset="0.3082" stop-color="#FF2D9A"/>
<stop offset="0.6401" stop-color="#A3088F"/>
<stop offset="1" stop-color="#2C0480"/>
</linearGradient>
<linearGradient id="paint49_linear_3274_149741" x1="1242.91" y1="22.9676" x2="1242.91" y2="1970.19" gradientUnits="userSpaceOnUse">
<stop stop-color="#FEFF01"/>
<stop offset="0.3082" stop-color="#FF2D9A"/>
<stop offset="0.6401" stop-color="#A3088F"/>
<stop offset="1" stop-color="#2C0480"/>
</linearGradient>
<linearGradient id="paint50_linear_3274_149741" x1="1242.92" y1="34.0103" x2="1242.92" y2="1958.9" gradientUnits="userSpaceOnUse">
<stop stop-color="#FEFF01"/>
<stop offset="0.3082" stop-color="#FF2D9A"/>
<stop offset="0.6401" stop-color="#A3088F"/>
<stop offset="1" stop-color="#2C0480"/>
</linearGradient>
<linearGradient id="paint51_linear_3274_149741" x1="1242.92" y1="34.0103" x2="1242.92" y2="1958.9" gradientUnits="userSpaceOnUse">
<stop stop-color="#FEFF01"/>
<stop offset="0.3082" stop-color="#FF2D9A"/>
<stop offset="0.6401" stop-color="#A3088F"/>
<stop offset="1" stop-color="#2C0480"/>
</linearGradient>
<linearGradient id="paint52_linear_3274_149741" x1="1242.92" y1="45.264" x2="1242.92" y2="1947.77" gradientUnits="userSpaceOnUse">
<stop stop-color="#FEFF01"/>
<stop offset="0.3082" stop-color="#FF2D9A"/>
<stop offset="0.6401" stop-color="#A3088F"/>
<stop offset="1" stop-color="#2C0480"/>
</linearGradient>
<linearGradient id="paint53_linear_3274_149741" x1="1242.92" y1="45.264" x2="1242.92" y2="1947.77" gradientUnits="userSpaceOnUse">
<stop stop-color="#FEFF01"/>
<stop offset="0.3082" stop-color="#FF2D9A"/>
<stop offset="0.6401" stop-color="#A3088F"/>
<stop offset="1" stop-color="#2C0480"/>
</linearGradient>
<linearGradient id="paint54_linear_3274_149741" x1="1242.91" y1="56.3965" x2="1242.91" y2="1936.51" gradientUnits="userSpaceOnUse">
<stop stop-color="#FEFF01"/>
<stop offset="0.3082" stop-color="#FF2D9A"/>
<stop offset="0.6401" stop-color="#A3088F"/>
<stop offset="1" stop-color="#2C0480"/>
</linearGradient>
<linearGradient id="paint55_linear_3274_149741" x1="1242.91" y1="56.3965" x2="1242.91" y2="1936.51" gradientUnits="userSpaceOnUse">
<stop stop-color="#FEFF01"/>
<stop offset="0.3082" stop-color="#FF2D9A"/>
<stop offset="0.6401" stop-color="#A3088F"/>
<stop offset="1" stop-color="#2C0480"/>
</linearGradient>
</defs>
</svg>
