<svg width="1440" height="517" viewBox="0 0 1440 517" fill="none" xmlns="http://www.w3.org/2000/svg">
<g opacity="0.9">
<mask id="mask0" mask-type="alpha" maskUnits="userSpaceOnUse" x="0" y="0" width="1440" height="518">
<rect y="0.00012207" width="1440" height="517" fill="url(#paint0_linear)"/>
</mask>
<g mask="url(#mask0)">
<path d="M-470.3 734.114L-468.5 734.114L-589.7 545.114C-624.3 491.014 -635.7 426.814 -621.6 364.414C-607.5 301.914 -569.5 248.614 -514.6 214.514L-200.5 19.2137L-187.1 11.0137L124.6 -187.586C179.1 -222.286 243.6 -233.586 306.3 -219.486C368.8 -205.386 422 -167.486 456.1 -112.986L650.8 198.514L650.2 198.414L799.4 436.914C821.2 471.714 855.2 495.914 895.1 504.914C935.1 513.914 976.3 506.714 1011.1 484.614L1247.8 333.714L1247.9 333.714L1559.1 135.314C1613.6 100.614 1678.1 89.3137 1740.8 103.414C1803.3 117.514 1856.5 155.414 1890.6 209.914L2086.3 523.114L2093.9 534.214L2222.1 734.214L2223.9 734.214L2095.2 533.414L2087.6 522.314L1892 209.214C1857.7 154.314 1804.1 116.214 1741.2 102.014C1678.1 87.7137 1613.2 99.1137 1558.3 134.114L1247.6 332.214L1247.5 332.214L1010.3 483.414C975.8 505.314 935 512.514 895.4 503.514C855.9 494.614 822.2 470.714 800.6 436.214L653.3 200.714L653.9 200.814L457.3 -113.786C423 -168.686 369.4 -206.786 306.5 -220.986C243.4 -235.286 178.5 -223.886 123.6 -188.886L-187.9 9.71375L-201.3 17.9137L-515.4 213.214C-570.6 247.514 -608.8 301.114 -623.1 364.114C-637.3 426.914 -625.9 491.514 -591 546.014L-470.3 734.114Z" fill="#7919FF"/>
<path d="M-470.3 734.114L-468.5 734.114L-589.7 545.114C-624.3 491.014 -635.7 426.814 -621.6 364.414C-607.5 301.914 -569.5 248.614 -514.6 214.514L-200.5 19.2137L-187.1 11.0137L124.6 -187.586C179.1 -222.286 243.6 -233.586 306.3 -219.486C368.8 -205.386 422 -167.486 456.1 -112.986L650.8 198.514L650.2 198.414L799.4 436.914C821.2 471.714 855.2 495.914 895.1 504.914C935.1 513.914 976.3 506.714 1011.1 484.614L1247.8 333.714L1247.9 333.714L1559.1 135.314C1613.6 100.614 1678.1 89.3137 1740.8 103.414C1803.3 117.514 1856.5 155.414 1890.6 209.914L2086.3 523.114L2093.9 534.214L2222.1 734.214L2223.9 734.214L2095.2 533.414L2087.6 522.314L1892 209.214C1857.7 154.314 1804.1 116.214 1741.2 102.014C1678.1 87.7137 1613.2 99.1137 1558.3 134.114L1247.6 332.214L1247.5 332.214L1010.3 483.414C975.8 505.314 935 512.514 895.4 503.514C855.9 494.614 822.2 470.714 800.6 436.214L653.3 200.714L653.9 200.814L457.3 -113.786C423 -168.686 369.4 -206.786 306.5 -220.986C243.4 -235.286 178.5 -223.886 123.6 -188.886L-187.9 9.71375L-201.3 17.9137L-515.4 213.214C-570.6 247.514 -608.8 301.114 -623.1 364.114C-637.3 426.914 -625.9 491.514 -591 546.014L-470.3 734.114Z" fill="#7919FF"/>
<path d="M-464.2 734.114L-462.4 734.114L-578.4 553.114C-612.8 499.514 -624 435.914 -610 374.014C-596 312.014 -558.3 259.314 -504 225.514L-192.8 32.0138L-179.6 23.9138L129.7 -173.186C183.7 -207.586 247.6 -218.786 309.7 -204.786C371.7 -190.786 424.4 -153.286 458.2 -99.2862L651 209.414L650.4 209.314L798.1 445.714C819.7 480.214 853.3 504.214 892.9 513.114C932.6 522.114 973.4 514.914 1007.9 492.914L1242.4 343.514L1242.8 343.614L1551.4 146.814C1605.4 112.414 1669.3 101.214 1731.4 115.214C1793.4 129.214 1846.1 166.714 1879.9 220.714L2073.8 531.014L2081.5 541.914L2204.5 734.114L2206.3 734.114L2082.7 541.114L2075 530.214L1881.2 220.014C1847.2 165.614 1794.1 127.914 1731.8 113.814C1669.3 99.7138 1604.9 110.914 1550.6 145.614L1242.6 342.014L1242.2 341.914L1007.2 491.614C973.1 513.414 932.6 520.514 893.4 511.614C854.2 502.714 820.9 479.014 799.6 444.814L653.8 211.514L654.4 211.614L459.6 -100.186C425.6 -154.586 372.6 -192.286 310.2 -206.386C247.7 -220.486 183.3 -209.286 129 -174.586L-180.3 22.6138L-193.5 30.7138L-504.8 224.214C-559.5 258.214 -597.4 311.314 -611.5 373.714C-625.6 435.914 -614.3 499.914 -579.7 553.914L-464.2 734.114Z" fill="#7919FF"/>
<path d="M-464.2 734.114L-462.4 734.114L-578.4 553.114C-612.8 499.514 -624 435.914 -610 374.014C-596 312.014 -558.3 259.314 -504 225.514L-192.8 32.0138L-179.6 23.9138L129.7 -173.186C183.7 -207.586 247.6 -218.786 309.7 -204.786C371.7 -190.786 424.4 -153.286 458.2 -99.2862L651 209.414L650.4 209.314L798.1 445.714C819.7 480.214 853.3 504.214 892.9 513.114C932.6 522.114 973.4 514.914 1007.9 492.914L1242.4 343.514L1242.8 343.614L1551.4 146.814C1605.4 112.414 1669.3 101.214 1731.4 115.214C1793.4 129.214 1846.1 166.714 1879.9 220.714L2073.8 531.014L2081.5 541.914L2204.5 734.114L2206.3 734.114L2082.7 541.114L2075 530.214L1881.2 220.014C1847.2 165.614 1794.1 127.914 1731.8 113.814C1669.3 99.7138 1604.9 110.914 1550.6 145.614L1242.6 342.014L1242.2 341.914L1007.2 491.614C973.1 513.414 932.6 520.514 893.4 511.614C854.2 502.714 820.9 479.014 799.6 444.814L653.8 211.514L654.4 211.614L459.6 -100.186C425.6 -154.586 372.6 -192.286 310.2 -206.386C247.7 -220.486 183.3 -209.286 129 -174.586L-180.3 22.6138L-193.5 30.7138L-504.8 224.214C-559.5 258.214 -597.4 311.314 -611.5 373.714C-625.6 435.914 -614.3 499.914 -579.7 553.914L-464.2 734.114Z" fill="#7919FF"/>
<path d="M-457.5 734.114L-455.7 734.114L-566.8 560.914C-600.9 507.714 -612.1 444.614 -598.2 383.414C-584.3 321.914 -547 269.714 -493.1 236.114L-184.7 44.4138L-171.6 36.4138L134.7 -158.786C188.3 -192.886 251.7 -204.086 313.2 -190.086C374.6 -176.186 426.8 -139.086 460.3 -85.3862L651.4 220.514L650.8 220.414L797.3 454.714C818.7 488.914 852.1 512.714 891.4 521.514C930.7 530.414 971.1 523.214 1005.2 501.514L1237.5 353.114L1237.9 353.214L1543.6 158.414C1597.1 124.314 1660.5 113.114 1722.1 127.014C1783.5 140.914 1835.7 178.014 1869.2 231.714L2061.2 539.014L2068.7 549.814L2186.9 734.114L2188.7 734.114L2070 548.914L2062.5 538.114L1870.6 230.914C1836.9 176.914 1784.3 139.514 1722.5 125.614C1660.6 111.614 1596.8 122.814 1542.9 157.214L1237.7 351.714L1237.3 351.614L1004.4 500.114C970.6 521.714 930.6 528.714 891.8 519.914C853 511.114 819.9 487.714 798.7 453.714L654 222.514L654.6 222.614L461.6 -86.2862C427.9 -140.286 375.3 -177.686 313.5 -191.586C251.6 -205.586 187.8 -194.386 133.9 -159.986L-172.4 35.2138L-185.4 43.2138L-493.9 234.814C-548.2 268.614 -585.8 321.214 -599.7 383.014C-613.6 444.714 -602.4 508.114 -568.1 561.714L-457.5 734.114Z" fill="#7919FF"/>
<path d="M-457.5 734.114L-455.7 734.114L-566.8 560.914C-600.9 507.714 -612.1 444.614 -598.2 383.414C-584.3 321.914 -547 269.714 -493.1 236.114L-184.7 44.4138L-171.6 36.4138L134.7 -158.786C188.3 -192.886 251.7 -204.086 313.2 -190.086C374.6 -176.186 426.8 -139.086 460.3 -85.3862L651.4 220.514L650.8 220.414L797.3 454.714C818.7 488.914 852.1 512.714 891.4 521.514C930.7 530.414 971.1 523.214 1005.2 501.514L1237.5 353.114L1237.9 353.214L1543.6 158.414C1597.1 124.314 1660.5 113.114 1722.1 127.014C1783.5 140.914 1835.7 178.014 1869.2 231.714L2061.2 539.014L2068.7 549.814L2186.9 734.114L2188.7 734.114L2070 548.914L2062.5 538.114L1870.6 230.914C1836.9 176.914 1784.3 139.514 1722.5 125.614C1660.6 111.614 1596.8 122.814 1542.9 157.214L1237.7 351.714L1237.3 351.614L1004.4 500.114C970.6 521.714 930.6 528.714 891.8 519.914C853 511.114 819.9 487.714 798.7 453.714L654 222.514L654.6 222.614L461.6 -86.2862C427.9 -140.286 375.3 -177.686 313.5 -191.586C251.6 -205.586 187.8 -194.386 133.9 -159.986L-172.4 35.2138L-185.4 43.2138L-493.9 234.814C-548.2 268.614 -585.8 321.214 -599.7 383.014C-613.6 444.714 -602.4 508.114 -568.1 561.714L-457.5 734.114Z" fill="#7919FF"/>
<path d="M-451.2 734.114L-449.4 734.114L-555.4 568.714C-589.2 516.014 -600.2 453.514 -586.5 392.814C-572.7 332.014 -535.8 280.214 -482.3 246.914L-176.8 57.1137L-163.7 49.1137L139.8 -144.486C192.8 -178.286 255.6 -189.286 316.6 -175.486C377.4 -161.686 429.2 -124.886 462.4 -71.7863L651.7 231.314L651.1 231.214L796.3 463.414C817.5 497.314 850.5 520.814 889.4 529.514C928.3 538.314 968.4 531.314 1002.3 509.714L1232.4 363.014L1232.8 363.114L1535.7 169.914C1588.7 136.114 1651.5 125.114 1712.5 138.914C1773.3 152.714 1825.1 189.514 1858.3 242.614L2048.7 547.214L2056.2 558.014L2169.2 734.414L2171 734.414L2057.5 557.214L2050 546.414L1859.6 241.814C1826.2 188.414 1774.1 151.314 1712.9 137.514C1651.5 123.614 1588.3 134.714 1534.9 168.714L1232.5 361.614L1232.1 361.514L1001.4 508.614C967.9 529.914 928.2 536.914 889.7 528.214C851.3 519.514 818.5 496.314 797.6 462.714L654.4 233.614L655 233.714L463.8 -72.3863C430.4 -125.786 378.3 -162.886 317.1 -176.686C255.6 -190.886 192.4 -179.786 139 -145.686L-164.5 47.8137L-177.5 55.8137L-483.1 245.714C-536.9 279.114 -574.1 331.314 -587.9 392.514C-601.7 453.614 -590.6 516.414 -556.6 569.514L-451.2 734.114Z" fill="#7919FF"/>
<path d="M-451.2 734.114L-449.4 734.114L-555.4 568.714C-589.2 516.014 -600.2 453.514 -586.5 392.814C-572.7 332.014 -535.8 280.214 -482.3 246.914L-176.8 57.1137L-163.7 49.1137L139.8 -144.486C192.8 -178.286 255.6 -189.286 316.6 -175.486C377.4 -161.686 429.2 -124.886 462.4 -71.7863L651.7 231.314L651.1 231.214L796.3 463.414C817.5 497.314 850.5 520.814 889.4 529.514C928.3 538.314 968.4 531.314 1002.3 509.714L1232.4 363.014L1232.8 363.114L1535.7 169.914C1588.7 136.114 1651.5 125.114 1712.5 138.914C1773.3 152.714 1825.1 189.514 1858.3 242.614L2048.7 547.214L2056.2 558.014L2169.2 734.414L2171 734.414L2057.5 557.214L2050 546.414L1859.6 241.814C1826.2 188.414 1774.1 151.314 1712.9 137.514C1651.5 123.614 1588.3 134.714 1534.9 168.714L1232.5 361.614L1232.1 361.514L1001.4 508.614C967.9 529.914 928.2 536.914 889.7 528.214C851.3 519.514 818.5 496.314 797.6 462.714L654.4 233.614L655 233.714L463.8 -72.3863C430.4 -125.786 378.3 -162.886 317.1 -176.686C255.6 -190.886 192.4 -179.786 139 -145.686L-164.5 47.8137L-177.5 55.8137L-483.1 245.714C-536.9 279.114 -574.1 331.314 -587.9 392.514C-601.7 453.614 -590.6 516.414 -556.6 569.514L-451.2 734.114Z" fill="#7919FF"/>
<path d="M-444.6 734.114L-442.8 734.114L-543.9 576.314C-577.4 524.114 -588.3 462.214 -574.7 402.114C-561.1 341.814 -524.4 290.514 -471.5 257.614L-168.7 69.3137L-155.8 61.4137L144.9 -129.986C197.4 -163.486 259.6 -174.386 320 -160.686C380.3 -147.086 431.6 -110.586 464.4 -57.9863L652.1 242.314L651.5 242.214L795.2 472.114C816.2 505.714 848.9 529.014 887.4 537.714C926 546.414 965.7 539.414 999.3 518.014L1227.4 372.614L1227.8 372.714L1528 181.314C1580.5 147.814 1642.7 136.914 1703.1 150.614C1763.4 164.214 1814.6 200.714 1847.5 253.314L2036.1 555.114L2043.5 565.714L2151.6 734.114L2153.4 734.114L2045 564.714L2037.6 554.114L1849 252.314C1815.9 199.414 1764.3 162.714 1703.6 149.014C1642.8 135.314 1580.2 146.214 1527.3 179.914L1227.6 370.914L1227.2 370.814L998.5 516.514C965.3 537.714 926 544.614 887.8 536.014C849.7 527.414 817.3 504.314 796.5 471.114L654.7 244.314L655.3 244.414L465.7 -58.8863C432.6 -111.786 381 -148.486 320.3 -162.186C259.5 -175.886 196.9 -164.986 144 -131.286L-156.7 60.2137L-169.6 68.1137L-472.3 256.314C-525.6 289.414 -562.5 341.114 -576.2 401.814C-589.9 462.314 -578.9 524.614 -545.2 577.114L-444.6 734.114Z" fill="#7919FF"/>
<path d="M-444.6 734.114L-442.8 734.114L-543.9 576.314C-577.4 524.114 -588.3 462.214 -574.7 402.114C-561.1 341.814 -524.4 290.514 -471.5 257.614L-168.7 69.3137L-155.8 61.4137L144.9 -129.986C197.4 -163.486 259.6 -174.386 320 -160.686C380.3 -147.086 431.6 -110.586 464.4 -57.9863L652.1 242.314L651.5 242.214L795.2 472.114C816.2 505.714 848.9 529.014 887.4 537.714C926 546.414 965.7 539.414 999.3 518.014L1227.4 372.614L1227.8 372.714L1528 181.314C1580.5 147.814 1642.7 136.914 1703.1 150.614C1763.4 164.214 1814.6 200.714 1847.5 253.314L2036.1 555.114L2043.5 565.714L2151.6 734.114L2153.4 734.114L2045 564.714L2037.6 554.114L1849 252.314C1815.9 199.414 1764.3 162.714 1703.6 149.014C1642.8 135.314 1580.2 146.214 1527.3 179.914L1227.6 370.914L1227.2 370.814L998.5 516.514C965.3 537.714 926 544.614 887.8 536.014C849.7 527.414 817.3 504.314 796.5 471.114L654.7 244.314L655.3 244.414L465.7 -58.8863C432.6 -111.786 381 -148.486 320.3 -162.186C259.5 -175.886 196.9 -164.986 144 -131.286L-156.7 60.2137L-169.6 68.1137L-472.3 256.314C-525.6 289.414 -562.5 341.114 -576.2 401.814C-589.9 462.314 -578.9 524.614 -545.2 577.114L-444.6 734.114Z" fill="#7919FF"/>
<path d="M-438.1 734.114L-436.3 734.114L-532.3 584.214C-565.4 532.514 -576.3 471.214 -562.8 411.614C-549.3 351.914 -513 301.114 -460.7 268.614L-160.8 82.1137L-148.1 74.3137L149.7 -115.586C201.7 -148.786 263.3 -159.586 323.2 -145.986C382.9 -132.486 433.7 -96.3863 466.2 -44.2863L652.2 253.014L651.6 252.914L794.1 480.814C814.9 514.114 847.4 537.114 885.5 545.814C923.7 554.414 963.1 547.514 996.3 526.414L1222.2 382.314L1222.6 382.414L1520 192.714C1572 159.514 1633.6 148.714 1693.5 162.314C1753.2 175.814 1804 211.914 1836.5 264.014L2023.3 563.014L2030.6 573.614L2133.6 734.114L2135.4 734.114L2032 572.714L2024.7 562.114L1837.9 263.114C1805.1 210.714 1754 174.314 1693.9 160.714C1633.6 147.114 1571.6 158.014 1519.3 191.314L1222.6 380.614L1222.2 380.514L995.8 524.914C962.9 545.914 923.9 552.714 886.1 544.114C848.4 535.614 816.3 512.714 795.7 479.814L655 255.114L655.6 255.214L467.6 -45.1863C434.9 -97.5863 383.7 -133.986 323.6 -147.586C263.3 -161.186 201.3 -150.286 149 -116.986L-148.8 73.0137L-161.5 80.7137L-461.5 267.314C-514.2 300.114 -550.8 351.214 -564.3 411.414C-577.9 471.414 -567 533.114 -533.6 585.114L-438.1 734.114Z" fill="#7919FF"/>
<path d="M-438.1 734.114L-436.3 734.114L-532.3 584.214C-565.4 532.514 -576.3 471.214 -562.8 411.614C-549.3 351.914 -513 301.114 -460.7 268.614L-160.8 82.1137L-148.1 74.3137L149.7 -115.586C201.7 -148.786 263.3 -159.586 323.2 -145.986C382.9 -132.486 433.7 -96.3863 466.2 -44.2863L652.2 253.014L651.6 252.914L794.1 480.814C814.9 514.114 847.4 537.114 885.5 545.814C923.7 554.414 963.1 547.514 996.3 526.414L1222.2 382.314L1222.6 382.414L1520 192.714C1572 159.514 1633.6 148.714 1693.5 162.314C1753.2 175.814 1804 211.914 1836.5 264.014L2023.3 563.014L2030.6 573.614L2133.6 734.114L2135.4 734.114L2032 572.714L2024.7 562.114L1837.9 263.114C1805.1 210.714 1754 174.314 1693.9 160.714C1633.6 147.114 1571.6 158.014 1519.3 191.314L1222.6 380.614L1222.2 380.514L995.8 524.914C962.9 545.914 923.9 552.714 886.1 544.114C848.4 535.614 816.3 512.714 795.7 479.814L655 255.114L655.6 255.214L467.6 -45.1863C434.9 -97.5863 383.7 -133.986 323.6 -147.586C263.3 -161.186 201.3 -150.286 149 -116.986L-148.8 73.0137L-161.5 80.7137L-461.5 267.314C-514.2 300.114 -550.8 351.214 -564.3 411.414C-577.9 471.414 -567 533.114 -533.6 585.114L-438.1 734.114Z" fill="#7919FF"/>
<path d="M-431.4 734.114L-429.6 734.114L-520.7 591.914C-553.5 540.614 -564.2 479.914 -550.9 420.914C-537.5 361.714 -501.6 311.414 -449.7 279.114L-152.6 94.4137L-139.9 86.7137L155.1 -101.386C206.6 -134.186 267.7 -144.886 327 -131.486C386.1 -118.086 436.5 -82.3863 468.8 -30.7863L652.9 263.814L652.3 263.714L793.4 489.514C814 522.414 846.2 545.314 883.9 553.814C921.8 562.414 960.8 555.514 993.7 534.614L1217.3 391.814L1217.7 391.914L1512.2 204.114C1563.8 171.314 1624.8 160.614 1684.1 174.014C1743.2 187.414 1793.6 223.114 1825.8 274.714L2011 570.914L2018.3 581.314L2116.2 734.114L2118 734.114L2019.5 580.514L2012.2 570.114L1827.2 274.014C1794.7 222.114 1744 186.114 1684.5 172.614C1624.8 159.114 1563.4 169.914 1511.5 202.914L1217.5 390.414L1217.1 390.314L993 533.414C960.4 554.114 921.8 560.914 884.4 552.414C847 543.914 815.2 521.314 794.8 488.714L655.6 266.014L656.2 266.114L470.2 -31.5863C437.7 -83.4863 387 -119.486 327.5 -132.986C267.8 -146.486 206.4 -135.686 154.5 -102.686L-140.5 85.4137L-153.2 93.1137L-450.5 277.914C-502.7 310.414 -538.9 361.114 -552.4 420.714C-565.8 480.114 -555 541.214 -522 592.814L-431.4 734.114Z" fill="#7919FF"/>
<path d="M-431.4 734.114L-429.6 734.114L-520.7 591.914C-553.5 540.614 -564.2 479.914 -550.9 420.914C-537.5 361.714 -501.6 311.414 -449.7 279.114L-152.6 94.4137L-139.9 86.7137L155.1 -101.386C206.6 -134.186 267.7 -144.886 327 -131.486C386.1 -118.086 436.5 -82.3863 468.8 -30.7863L652.9 263.814L652.3 263.714L793.4 489.514C814 522.414 846.2 545.314 883.9 553.814C921.8 562.414 960.8 555.514 993.7 534.614L1217.3 391.814L1217.7 391.914L1512.2 204.114C1563.8 171.314 1624.8 160.614 1684.1 174.014C1743.2 187.414 1793.6 223.114 1825.8 274.714L2011 570.914L2018.3 581.314L2116.2 734.114L2118 734.114L2019.5 580.514L2012.2 570.114L1827.2 274.014C1794.7 222.114 1744 186.114 1684.5 172.614C1624.8 159.114 1563.4 169.914 1511.5 202.914L1217.5 390.414L1217.1 390.314L993 533.414C960.4 554.114 921.8 560.914 884.4 552.414C847 543.914 815.2 521.314 794.8 488.714L655.6 266.014L656.2 266.114L470.2 -31.5863C437.7 -83.4863 387 -119.486 327.5 -132.986C267.8 -146.486 206.4 -135.686 154.5 -102.686L-140.5 85.4137L-153.2 93.1137L-450.5 277.914C-502.7 310.414 -538.9 361.114 -552.4 420.714C-565.8 480.114 -555 541.214 -522 592.814L-431.4 734.114Z" fill="#7919FF"/>
<path d="M-424.8 734.114L-423 734.114L-509.1 599.714C-541.6 548.914 -552.3 488.814 -539.1 430.414C-525.9 371.814 -490.2 321.914 -438.8 290.014L-144.7 107.014L-132.2 99.4137L160 -86.8863C211.1 -119.486 271.5 -130.086 330.3 -116.786C388.9 -103.586 438.7 -68.0863 470.6 -16.9863L652.9 274.814L652.3 274.714L792.3 498.314C812.6 530.914 844.4 553.614 881.8 562.114C919.4 570.614 958 563.814 990.7 543.014L1212.3 401.814L1212.6 401.914L1504.5 215.914C1555.6 183.314 1616 172.714 1674.7 186.014C1733.3 199.214 1783.1 234.714 1815 285.814L1998.3 579.114L2005.5 589.514L2098.3 734.314L2100.1 734.314L2006.8 588.714L1999.6 578.314L1816.3 285.014C1784.1 233.514 1734 197.814 1675 184.514C1615.9 171.114 1555 181.814 1503.6 214.614L1212.3 400.114L1212 400.014L989.9 541.614C957.6 562.214 919.3 568.914 882.1 560.514C845.1 552.114 813.6 529.714 793.5 497.414L655.4 276.914L656 277.014L471.8 -17.7863C439.6 -69.2863 389.5 -104.986 330.5 -118.286C271.4 -131.686 210.5 -120.986 159.1 -88.1863L-133 98.1137L-145.5 105.714L-439.6 288.714C-491.4 320.914 -527.2 371.114 -540.6 430.114C-553.9 488.914 -543.2 549.514 -510.4 600.614L-424.8 734.114Z" fill="#7919FF"/>
<path d="M-424.8 734.114L-423 734.114L-509.1 599.714C-541.6 548.914 -552.3 488.814 -539.1 430.414C-525.9 371.814 -490.2 321.914 -438.8 290.014L-144.7 107.014L-132.2 99.4137L160 -86.8863C211.1 -119.486 271.5 -130.086 330.3 -116.786C388.9 -103.586 438.7 -68.0863 470.6 -16.9863L652.9 274.814L652.3 274.714L792.3 498.314C812.6 530.914 844.4 553.614 881.8 562.114C919.4 570.614 958 563.814 990.7 543.014L1212.3 401.814L1212.6 401.914L1504.5 215.914C1555.6 183.314 1616 172.714 1674.7 186.014C1733.3 199.214 1783.1 234.714 1815 285.814L1998.3 579.114L2005.5 589.514L2098.3 734.314L2100.1 734.314L2006.8 588.714L1999.6 578.314L1816.3 285.014C1784.1 233.514 1734 197.814 1675 184.514C1615.9 171.114 1555 181.814 1503.6 214.614L1212.3 400.114L1212 400.014L989.9 541.614C957.6 562.214 919.3 568.914 882.1 560.514C845.1 552.114 813.6 529.714 793.5 497.414L655.4 276.914L656 277.014L471.8 -17.7863C439.6 -69.2863 389.5 -104.986 330.5 -118.286C271.4 -131.686 210.5 -120.986 159.1 -88.1863L-133 98.1137L-145.5 105.714L-439.6 288.714C-491.4 320.914 -527.2 371.114 -540.6 430.114C-553.9 488.914 -543.2 549.514 -510.4 600.614L-424.8 734.114Z" fill="#7919FF"/>
<path d="M-418.2 734.114L-416.4 734.114L-497.7 607.314C-529.9 557.114 -540.4 497.514 -527.3 439.614C-514.2 381.614 -478.9 332.214 -428 300.514L-136.6 119.314L-124.3 111.814L165 -72.6862C215.5 -104.886 275.4 -115.486 333.6 -102.286C391.6 -89.1862 441 -54.0862 472.6 -3.48623L653.1 285.514L652.5 285.414L791 507.014C811.2 539.314 842.8 561.814 879.8 570.114C917 578.514 955.2 571.814 987.5 551.214L1207.1 411.214L1207.4 411.314L1496.4 227.114C1546.9 194.914 1606.8 184.314 1665 197.514C1723 210.614 1772.4 245.714 1804 296.314L1985.5 586.814L1992.6 597.014L2080.5 734.114L2082.3 734.114L1994 596.214L1986.9 586.014L1805.4 295.514C1773.6 244.514 1723.9 209.214 1665.5 196.014C1606.9 182.814 1546.7 193.314 1495.8 225.814L1207.3 409.714L1207 409.614L986.8 550.014C954.8 570.414 917 577.014 880.2 568.714C843.5 560.414 812.3 538.214 792.3 506.214L655.8 287.714L656.4 287.814L474 -4.18622C442.2 -55.1862 392.5 -90.4862 334.1 -103.686C275.5 -116.886 215.3 -106.386 164.4 -73.8862L-125 110.614L-137.3 118.114L-428.8 299.314C-480.1 331.214 -515.6 380.914 -528.8 439.314C-542 497.614 -531.4 557.514 -498.9 608.114L-418.2 734.114Z" fill="#7919FF"/>
<path d="M-418.2 734.114L-416.4 734.114L-497.7 607.314C-529.9 557.114 -540.4 497.514 -527.3 439.614C-514.2 381.614 -478.9 332.214 -428 300.514L-136.6 119.314L-124.3 111.814L165 -72.6862C215.5 -104.886 275.4 -115.486 333.6 -102.286C391.6 -89.1862 441 -54.0862 472.6 -3.48623L653.1 285.514L652.5 285.414L791 507.014C811.2 539.314 842.8 561.814 879.8 570.114C917 578.514 955.2 571.814 987.5 551.214L1207.1 411.214L1207.4 411.314L1496.4 227.114C1546.9 194.914 1606.8 184.314 1665 197.514C1723 210.614 1772.4 245.714 1804 296.314L1985.5 586.814L1992.6 597.014L2080.5 734.114L2082.3 734.114L1994 596.214L1986.9 586.014L1805.4 295.514C1773.6 244.514 1723.9 209.214 1665.5 196.014C1606.9 182.814 1546.7 193.314 1495.8 225.814L1207.3 409.714L1207 409.614L986.8 550.014C954.8 570.414 917 577.014 880.2 568.714C843.5 560.414 812.3 538.214 792.3 506.214L655.8 287.714L656.4 287.814L474 -4.18622C442.2 -55.1862 392.5 -90.4862 334.1 -103.686C275.5 -116.886 215.3 -106.386 164.4 -73.8862L-125 110.614L-137.3 118.114L-428.8 299.314C-480.1 331.214 -515.6 380.914 -528.8 439.314C-542 497.614 -531.4 557.514 -498.9 608.114L-418.2 734.114Z" fill="#7919FF"/>
<path d="M-411.8 734.114L-410 734.114L-486.2 615.114C-518.1 565.314 -528.5 506.314 -515.5 449.014C-502.5 391.514 -467.6 342.614 -417.2 311.214L-128.6 131.714L-116.3 124.214L170.3 -58.4863C220.4 -90.3863 279.7 -100.786 337.3 -87.7863C394.7 -74.7863 443.6 -40.0863 475 10.1137L653.9 296.314L653.3 296.214L790.2 515.814C810.2 547.814 841.4 570.014 878.1 578.314C914.9 586.614 952.8 580.014 984.7 559.614L1202.2 421.114L1202.5 421.214L1488.7 238.814C1538.8 206.914 1598.1 196.514 1655.7 209.514C1713.1 222.514 1762 257.214 1793.4 307.414L1973.2 595.114L1980.3 605.314L2063 734.114L2064.8 734.114L1981.7 604.314L1974.6 594.114L1794.8 306.414C1763.2 255.914 1714 220.914 1656.2 207.914C1598.2 194.814 1538.5 205.314 1488.1 237.414L1202.4 419.514L1202.1 419.414L984.1 558.314C952.5 578.514 915 585.014 878.6 576.814C842.3 568.614 811.4 546.614 791.6 515.014L656.6 298.514L657.2 298.614L476.4 9.41374C444.8 -41.0863 395.6 -76.0863 337.8 -89.0863C279.8 -102.186 220.1 -91.6863 169.7 -59.5863L-117.1 123.014L-129.4 130.514L-418 310.014C-468.8 341.614 -503.9 390.914 -517 448.714C-530 506.414 -519.6 565.814 -487.5 615.914L-411.8 734.114Z" fill="#7919FF"/>
<path d="M-411.8 734.114L-410 734.114L-486.2 615.114C-518.1 565.314 -528.5 506.314 -515.5 449.014C-502.5 391.514 -467.6 342.614 -417.2 311.214L-128.6 131.714L-116.3 124.214L170.3 -58.4863C220.4 -90.3863 279.7 -100.786 337.3 -87.7863C394.7 -74.7863 443.6 -40.0863 475 10.1137L653.9 296.314L653.3 296.214L790.2 515.814C810.2 547.814 841.4 570.014 878.1 578.314C914.9 586.614 952.8 580.014 984.7 559.614L1202.2 421.114L1202.5 421.214L1488.7 238.814C1538.8 206.914 1598.1 196.514 1655.7 209.514C1713.1 222.514 1762 257.214 1793.4 307.414L1973.2 595.114L1980.3 605.314L2063 734.114L2064.8 734.114L1981.7 604.314L1974.6 594.114L1794.8 306.414C1763.2 255.914 1714 220.914 1656.2 207.914C1598.2 194.814 1538.5 205.314 1488.1 237.414L1202.4 419.514L1202.1 419.414L984.1 558.314C952.5 578.514 915 585.014 878.6 576.814C842.3 568.614 811.4 546.614 791.6 515.014L656.6 298.514L657.2 298.614L476.4 9.41374C444.8 -41.0863 395.6 -76.0863 337.8 -89.0863C279.8 -102.186 220.1 -91.6863 169.7 -59.5863L-117.1 123.014L-129.4 130.514L-418 310.014C-468.8 341.614 -503.9 390.914 -517 448.714C-530 506.414 -519.6 565.814 -487.5 615.914L-411.8 734.114Z" fill="#7919FF"/>
<path d="M-405.2 734.114L-403.4 734.114L-474.6 622.914C-506.1 573.614 -516.5 515.214 -503.6 458.514C-490.7 401.614 -456.2 353.214 -406.3 322.114L-120.5 144.514L-108.3 137.114L175.5 -43.7862C225.1 -75.3862 283.8 -85.6862 340.8 -72.7862C397.7 -59.8862 446.1 -25.4862 477.1 24.1138L654.2 307.414L653.6 307.314L789.4 524.514C809.3 556.314 840.2 578.314 876.6 586.514C913 594.714 950.5 588.114 982.1 567.914L1197.3 430.714L1197.6 430.814L1481 250.114C1530.6 218.514 1589.3 208.214 1646.3 221.114C1703.2 234.014 1751.6 268.414 1782.6 318.014L1960.7 602.914L1967.7 612.914L2045.4 734.114L2047.2 734.114L1969 612.114L1962 602.114L1784 317.214C1752.7 267.214 1704 232.614 1646.7 219.714C1589.3 206.714 1530.2 217.114 1480.2 248.914L1197.2 429.214L1196.9 429.114L981.2 566.714C949.9 586.714 912.9 593.214 876.9 585.114C840.9 577.014 810.3 555.214 790.6 523.814L656.7 309.714L657.3 309.814L478.3 23.4138C447 -26.5862 398.3 -61.1862 341 -74.0862C283.6 -87.0862 224.5 -76.6862 174.5 -44.8862L-109.2 135.814L-121.4 143.214L-407.1 320.814C-457.4 352.114 -492.2 400.914 -505.1 458.114C-518 515.214 -507.6 574.014 -475.9 623.714L-405.2 734.114Z" fill="#7919FF"/>
<path d="M-405.2 734.114L-403.4 734.114L-474.6 622.914C-506.1 573.614 -516.5 515.214 -503.6 458.514C-490.7 401.614 -456.2 353.214 -406.3 322.114L-120.5 144.514L-108.3 137.114L175.5 -43.7862C225.1 -75.3862 283.8 -85.6862 340.8 -72.7862C397.7 -59.8862 446.1 -25.4862 477.1 24.1138L654.2 307.414L653.6 307.314L789.4 524.514C809.3 556.314 840.2 578.314 876.6 586.514C913 594.714 950.5 588.114 982.1 567.914L1197.3 430.714L1197.6 430.814L1481 250.114C1530.6 218.514 1589.3 208.214 1646.3 221.114C1703.2 234.014 1751.6 268.414 1782.6 318.014L1960.7 602.914L1967.7 612.914L2045.4 734.114L2047.2 734.114L1969 612.114L1962 602.114L1784 317.214C1752.7 267.214 1704 232.614 1646.7 219.714C1589.3 206.714 1530.2 217.114 1480.2 248.914L1197.2 429.214L1196.9 429.114L981.2 566.714C949.9 586.714 912.9 593.214 876.9 585.114C840.9 577.014 810.3 555.214 790.6 523.814L656.7 309.714L657.3 309.814L478.3 23.4138C447 -26.5862 398.3 -61.1862 341 -74.0862C283.6 -87.0862 224.5 -76.6862 174.5 -44.8862L-109.2 135.814L-121.4 143.214L-407.1 320.814C-457.4 352.114 -492.2 400.914 -505.1 458.114C-518 515.214 -507.6 574.014 -475.9 623.714L-405.2 734.114Z" fill="#7919FF"/>
<path d="M-398.8 734.114L-397 734.114L-463.2 630.814C-494.4 582.014 -504.6 524.214 -491.9 468.014C-479.2 411.714 -444.9 363.714 -395.5 333.014L-112.5 157.114L-100.5 149.814L180.5 -29.2863C229.6 -60.5863 287.7 -70.6863 344.2 -57.9863C400.5 -45.2863 448.4 -11.1863 479.2 37.9137L654.5 318.414L653.9 318.314L788.4 533.414C808 564.814 838.6 586.614 874.6 594.714C910.7 602.914 947.8 596.314 979.2 576.314L1192.6 440.514L1192.9 440.614L1473.5 261.614C1522.6 230.314 1580.7 220.214 1637.2 232.914C1693.5 245.614 1741.4 279.714 1772.1 328.814L1948 610.814L1955 620.714L2027.7 734.214L2029.5 734.214L1956.3 619.914L1949.3 610.014L1773 327.914C1742.1 278.514 1693.8 244.214 1637.1 231.314C1580.2 218.414 1521.7 228.714 1472.3 260.214L1192.3 438.914L1192 438.814L978.1 575.014C947.1 594.814 910.3 601.214 874.7 593.214C839.1 585.214 808.8 563.614 789.4 532.614L656.8 320.614L657.4 320.714L480.2 37.1137C449.3 -12.2863 401 -46.5863 344.3 -59.4863C287.4 -72.3863 228.9 -62.0863 179.5 -30.5863L-101.5 148.514L-113.5 155.814L-396.5 331.814C-446.2 362.814 -480.7 411.114 -493.5 467.814C-506.3 524.414 -496 582.614 -464.6 631.714L-398.8 734.114Z" fill="#7919FF"/>
<path d="M-398.8 734.114L-397 734.114L-463.2 630.814C-494.4 582.014 -504.6 524.214 -491.9 468.014C-479.2 411.714 -444.9 363.714 -395.5 333.014L-112.5 157.114L-100.5 149.814L180.5 -29.2863C229.6 -60.5863 287.7 -70.6863 344.2 -57.9863C400.5 -45.2863 448.4 -11.1863 479.2 37.9137L654.5 318.414L653.9 318.314L788.4 533.414C808 564.814 838.6 586.614 874.6 594.714C910.7 602.914 947.8 596.314 979.2 576.314L1192.6 440.514L1192.9 440.614L1473.5 261.614C1522.6 230.314 1580.7 220.214 1637.2 232.914C1693.5 245.614 1741.4 279.714 1772.1 328.814L1948 610.814L1955 620.714L2027.7 734.214L2029.5 734.214L1956.3 619.914L1949.3 610.014L1773 327.914C1742.1 278.514 1693.8 244.214 1637.1 231.314C1580.2 218.414 1521.7 228.714 1472.3 260.214L1192.3 438.914L1192 438.814L978.1 575.014C947.1 594.814 910.3 601.214 874.7 593.214C839.1 585.214 808.8 563.614 789.4 532.614L656.8 320.614L657.4 320.714L480.2 37.1137C449.3 -12.2863 401 -46.5863 344.3 -59.4863C287.4 -72.3863 228.9 -62.0863 179.5 -30.5863L-101.5 148.514L-113.5 155.814L-396.5 331.814C-446.2 362.814 -480.7 411.114 -493.5 467.814C-506.3 524.414 -496 582.614 -464.6 631.714L-398.8 734.114Z" fill="#7919FF"/>
<path d="M-392.2 734.114L-390.4 734.114L-451.6 638.514C-482.6 590.214 -492.7 533.014 -480.1 477.414C-467.5 421.614 -433.6 374.014 -384.6 343.514L-104.5 169.314L-92.5003 162.014L185.6 -15.2862C234.1 -46.2862 291.7 -56.3862 347.5 -43.7862C403.3 -31.1862 450.8 2.61378 481.3 51.3138L654.8 329.114L654.2 329.014L787.3 542.014C806.7 573.114 837 594.614 872.7 602.714C908.4 610.814 945.2 604.314 976.2 584.614L1187.1 450.214L1187.4 450.314L1465.2 273.314C1513.7 242.314 1571.3 232.214 1627.1 244.814C1682.9 257.414 1730.4 291.214 1760.9 339.914L1935.4 619.214L1942.3 629.014L2010 734.114L2011.8 734.114L1943.7 627.914L1936.9 618.114L1762.4 338.914C1731.7 289.914 1683.9 255.914 1627.7 243.214C1571.4 230.514 1513.5 240.714 1464.6 271.914L1187.3 448.614L1187 448.514L975.5 583.214C944.8 602.814 908.4 609.114 873.1 601.114C837.8 593.114 807.9 571.814 788.7 541.114L657.5 331.214L658.1 331.314L482.7 50.5138C452 1.41376 404.2 -32.4862 348 -45.1862C291.7 -57.8862 233.8 -47.6862 184.9 -16.4862L-93.3003 160.914L-105.3 168.214L-385.5 342.414C-434.8 373.114 -469 421.014 -481.7 477.214C-494.3 533.214 -484.1 590.814 -453 639.414L-392.2 734.114Z" fill="#7919FF"/>
<path d="M-392.2 734.114L-390.4 734.114L-451.6 638.514C-482.6 590.214 -492.7 533.014 -480.1 477.414C-467.5 421.614 -433.6 374.014 -384.6 343.514L-104.5 169.314L-92.5003 162.014L185.6 -15.2862C234.1 -46.2862 291.7 -56.3862 347.5 -43.7862C403.3 -31.1862 450.8 2.61378 481.3 51.3138L654.8 329.114L654.2 329.014L787.3 542.014C806.7 573.114 837 594.614 872.7 602.714C908.4 610.814 945.2 604.314 976.2 584.614L1187.1 450.214L1187.4 450.314L1465.2 273.314C1513.7 242.314 1571.3 232.214 1627.1 244.814C1682.9 257.414 1730.4 291.214 1760.9 339.914L1935.4 619.214L1942.3 629.014L2010 734.114L2011.8 734.114L1943.7 627.914L1936.9 618.114L1762.4 338.914C1731.7 289.914 1683.9 255.914 1627.7 243.214C1571.4 230.514 1513.5 240.714 1464.6 271.914L1187.3 448.614L1187 448.514L975.5 583.214C944.8 602.814 908.4 609.114 873.1 601.114C837.8 593.114 807.9 571.814 788.7 541.114L657.5 331.214L658.1 331.314L482.7 50.5138C452 1.41376 404.2 -32.4862 348 -45.1862C291.7 -57.8862 233.8 -47.6862 184.9 -16.4862L-93.3003 160.914L-105.3 168.214L-385.5 342.414C-434.8 373.114 -469 421.014 -481.7 477.214C-494.3 533.214 -484.1 590.814 -453 639.414L-392.2 734.114Z" fill="#7919FF"/>
<path d="M-385.7 734.114L-383.9 734.114L-440.2 646.314C-470.8 598.514 -480.8 541.814 -468.4 486.714C-455.9 431.514 -422.4 384.514 -373.9 354.414L-96.6004 182.014L-84.8004 174.814L190.5 -0.7862C238.6 -31.4862 295.6 -41.4862 350.9 -28.9862C406.1 -16.4862 453 16.9138 483.2 65.0138L654.9 339.914L654.3 339.814L786.1 550.614C805.3 581.414 835.4 602.814 870.6 610.714C905.9 618.714 942.4 612.314 973.1 592.714L1182.1 459.714L1182.4 459.814L1457.6 284.414C1505.7 253.714 1562.7 243.714 1618 256.214C1673.2 268.714 1720.2 302.114 1750.3 350.214L1923 626.814L1929.7 636.514L1992.3 734.214L1994.1 734.214L1931 635.714L1924.3 626.014L1751.6 349.614C1721.3 301.114 1674 267.514 1618.4 254.914C1562.7 242.314 1505.3 252.414 1456.8 283.214L1182.1 458.214L1181.8 458.114L972.3 591.514C941.9 610.914 905.9 617.214 870.9 609.314C836 601.414 806.4 580.314 787.3 549.814L657.4 342.014L658 342.114L484.4 64.2138C454.1 15.7138 406.8 -17.8862 351.2 -30.4862C295.5 -43.0862 238.1 -32.9862 189.6 -2.18621L-85.6004 173.514L-97.4004 180.714L-374.7 353.114C-423.5 383.514 -457.3 430.814 -469.9 486.414C-482.4 541.814 -472.3 598.914 -441.5 647.114L-385.7 734.114Z" fill="#7919FF"/>
<path d="M-385.7 734.114L-383.9 734.114L-440.2 646.314C-470.8 598.514 -480.8 541.814 -468.4 486.714C-455.9 431.514 -422.4 384.514 -373.9 354.414L-96.6004 182.014L-84.8004 174.814L190.5 -0.7862C238.6 -31.4862 295.6 -41.4862 350.9 -28.9862C406.1 -16.4862 453 16.9138 483.2 65.0138L654.9 339.914L654.3 339.814L786.1 550.614C805.3 581.414 835.4 602.814 870.6 610.714C905.9 618.714 942.4 612.314 973.1 592.714L1182.1 459.714L1182.4 459.814L1457.6 284.414C1505.7 253.714 1562.7 243.714 1618 256.214C1673.2 268.714 1720.2 302.114 1750.3 350.214L1923 626.814L1929.7 636.514L1992.3 734.214L1994.1 734.214L1931 635.714L1924.3 626.014L1751.6 349.614C1721.3 301.114 1674 267.514 1618.4 254.914C1562.7 242.314 1505.3 252.414 1456.8 283.214L1182.1 458.214L1181.8 458.114L972.3 591.514C941.9 610.914 905.9 617.214 870.9 609.314C836 601.414 806.4 580.314 787.3 549.814L657.4 342.014L658 342.114L484.4 64.2138C454.1 15.7138 406.8 -17.8862 351.2 -30.4862C295.5 -43.0862 238.1 -32.9862 189.6 -2.18621L-85.6004 173.514L-97.4004 180.714L-374.7 353.114C-423.5 383.514 -457.3 430.814 -469.9 486.414C-482.4 541.814 -472.3 598.914 -441.5 647.114L-385.7 734.114Z" fill="#7919FF"/>
<path d="M-379.1 734.114L-377.3 734.114L-428.6 654.114C-458.9 606.814 -468.8 550.714 -456.5 496.214C-444.1 441.614 -410.9 395.014 -363 365.214L-88.5003 194.514L-76.9004 187.414L195.7 13.7138C243.3 -16.5862 299.7 -26.4862 354.5 -14.0862C409.1 -1.78624 455.6 31.3137 485.4 78.9137L655.5 351.014L654.9 350.914L785.3 559.614C804.3 590.114 834.1 611.214 869 619.114C904 627.014 940.1 620.714 970.5 601.314L1177.4 469.514L1177.7 469.614L1449.7 296.214C1497.3 265.914 1553.7 256.014 1608.5 268.414C1663.1 280.714 1709.6 313.814 1739.4 361.414L1910.4 635.014L1917.1 644.714L1974.5 734.314L1976.3 734.314L1918.3 643.914L1911.6 634.214L1740.6 360.614C1710.6 312.614 1663.8 279.314 1608.8 266.914C1553.6 254.414 1496.9 264.414 1448.9 294.914L1177.4 467.914L1177.1 467.814L969.7 600.014C939.6 619.214 904 625.414 869.4 617.614C834.9 609.814 805.5 588.914 786.7 558.814L658.2 353.114L658.8 353.214L486.8 78.1138C456.8 30.1138 410 -3.18624 355 -15.5862C299.8 -28.0862 243.1 -18.0862 195.1 12.4138L-77.7003 186.114L-89.3003 193.214L-363.8 363.914C-412.1 393.914 -445.5 440.814 -458 495.814C-470.4 550.714 -460.4 607.214 -429.9 654.814L-379.1 734.114Z" fill="#7919FF"/>
<path d="M-379.1 734.114L-377.3 734.114L-428.6 654.114C-458.9 606.814 -468.8 550.714 -456.5 496.214C-444.1 441.614 -410.9 395.014 -363 365.214L-88.5003 194.514L-76.9004 187.414L195.7 13.7138C243.3 -16.5862 299.7 -26.4862 354.5 -14.0862C409.1 -1.78624 455.6 31.3137 485.4 78.9137L655.5 351.014L654.9 350.914L785.3 559.614C804.3 590.114 834.1 611.214 869 619.114C904 627.014 940.1 620.714 970.5 601.314L1177.4 469.514L1177.7 469.614L1449.7 296.214C1497.3 265.914 1553.7 256.014 1608.5 268.414C1663.1 280.714 1709.6 313.814 1739.4 361.414L1910.4 635.014L1917.1 644.714L1974.5 734.314L1976.3 734.314L1918.3 643.914L1911.6 634.214L1740.6 360.614C1710.6 312.614 1663.8 279.314 1608.8 266.914C1553.6 254.414 1496.9 264.414 1448.9 294.914L1177.4 467.914L1177.1 467.814L969.7 600.014C939.6 619.214 904 625.414 869.4 617.614C834.9 609.814 805.5 588.914 786.7 558.814L658.2 353.114L658.8 353.214L486.8 78.1138C456.8 30.1138 410 -3.18624 355 -15.5862C299.8 -28.0862 243.1 -18.0862 195.1 12.4138L-77.7003 186.114L-89.3003 193.214L-363.8 363.914C-412.1 393.914 -445.5 440.814 -458 495.814C-470.4 550.714 -460.4 607.214 -429.9 654.814L-379.1 734.114Z" fill="#7919FF"/>
<path d="M-372.6 734.114L-370.8 734.114L-417.2 661.714C-447.2 614.914 -457 559.414 -444.8 505.514C-432.6 451.414 -399.7 405.414 -352.3 375.914L-80.6004 206.914L-69.0004 199.814L200.8 27.8137C247.9 -2.18626 303.7 -11.9863 357.9 0.313742C412 12.5137 458 45.2137 487.4 92.4137L655.7 361.714L655.1 361.614L784.2 568.214C803 598.314 832.4 619.214 866.9 627.014C901.6 634.914 937.3 628.614 967.5 609.514L1172.1 479.114L1172.4 479.214L1441.9 307.614C1489 277.614 1544.8 267.814 1599 280.114C1653.1 292.314 1699.1 325.014 1728.5 372.214L1897.8 643.014L1904.4 652.514L1956.8 734.414L1958.6 734.414L1905.6 651.714L1899 642.214L1729.8 371.414C1700.1 323.914 1653.8 291.014 1599.3 278.714C1544.7 266.414 1488.5 276.214 1441.1 306.414L1172.1 477.714L1171.8 477.614L966.7 608.314C936.9 627.314 901.5 633.414 867.2 625.714C833.1 618.014 804 597.314 785.4 567.614L658.2 364.114L658.8 364.214L488.6 91.9137C458.9 44.4137 412.6 11.5138 358.1 -0.786249C303.5 -13.0862 247.3 -3.28625 199.9 26.9137L-69.7004 198.614L-81.3004 205.714L-353 374.614C-400.8 404.314 -433.9 450.714 -446.2 505.214C-458.5 559.514 -448.6 615.414 -418.4 662.614L-372.6 734.114Z" fill="#7919FF"/>
<path d="M-372.6 734.114L-370.8 734.114L-417.2 661.714C-447.2 614.914 -457 559.414 -444.8 505.514C-432.6 451.414 -399.7 405.414 -352.3 375.914L-80.6004 206.914L-69.0004 199.814L200.8 27.8137C247.9 -2.18626 303.7 -11.9863 357.9 0.313742C412 12.5137 458 45.2137 487.4 92.4137L655.7 361.714L655.1 361.614L784.2 568.214C803 598.314 832.4 619.214 866.9 627.014C901.6 634.914 937.3 628.614 967.5 609.514L1172.1 479.114L1172.4 479.214L1441.9 307.614C1489 277.614 1544.8 267.814 1599 280.114C1653.1 292.314 1699.1 325.014 1728.5 372.214L1897.8 643.014L1904.4 652.514L1956.8 734.414L1958.6 734.414L1905.6 651.714L1899 642.214L1729.8 371.414C1700.1 323.914 1653.8 291.014 1599.3 278.714C1544.7 266.414 1488.5 276.214 1441.1 306.414L1172.1 477.714L1171.8 477.614L966.7 608.314C936.9 627.314 901.5 633.414 867.2 625.714C833.1 618.014 804 597.314 785.4 567.614L658.2 364.114L658.8 364.214L488.6 91.9137C458.9 44.4137 412.6 11.5138 358.1 -0.786249C303.5 -13.0862 247.3 -3.28625 199.9 26.9137L-69.7004 198.614L-81.3004 205.714L-353 374.614C-400.8 404.314 -433.9 450.714 -446.2 505.214C-458.5 559.514 -448.6 615.414 -418.4 662.614L-372.6 734.114Z" fill="#7919FF"/>
<path d="M-366.2 734.114L-364.4 734.114L-405.7 669.614C-435.4 623.314 -445.1 568.414 -433.1 515.114C-421 461.514 -388.5 415.914 -341.4 386.714L-72.6003 219.514L-61.1003 212.514L205.8 42.3138C252.4 12.6138 307.6 2.81374 361.2 14.9137C414.8 27.0137 460.3 59.4137 489.6 106.114L656 372.714L655.4 372.614L783.2 577.114C801.9 607.014 831 627.714 865.2 635.414C899.5 643.214 934.8 636.914 964.6 617.914L1167.2 488.914L1167.5 489.014L1434.1 319.114C1480.7 289.414 1535.9 279.614 1589.5 291.714C1643.1 303.814 1688.6 336.214 1717.9 382.914L1885.4 650.914L1892 660.414L1939.3 734.214L1941.1 734.214L1893.3 659.614L1886.7 650.114L1719.2 382.114C1689.8 335.014 1643.8 302.414 1589.9 290.214C1535.9 278.014 1480.3 287.814 1433.4 317.814L1167.3 487.314L1167 487.214L963.9 616.614C934.4 635.414 899.5 641.514 865.6 633.914C831.8 626.314 803 605.814 784.6 576.314L658.7 374.914L659.3 375.014L490.9 105.514C461.5 58.4137 415.5 25.8137 361.6 13.6137C307.6 1.41374 252 11.2137 205.1 41.2137L-62.0003 211.314L-73.5003 218.314L-342.3 385.414C-389.7 414.914 -422.5 460.814 -434.6 514.814C-446.7 568.614 -436.9 623.814 -407 670.514L-366.2 734.114Z" fill="#7919FF"/>
<path d="M-366.2 734.114L-364.4 734.114L-405.7 669.614C-435.4 623.314 -445.1 568.414 -433.1 515.114C-421 461.514 -388.5 415.914 -341.4 386.714L-72.6003 219.514L-61.1003 212.514L205.8 42.3138C252.4 12.6138 307.6 2.81374 361.2 14.9137C414.8 27.0137 460.3 59.4137 489.6 106.114L656 372.714L655.4 372.614L783.2 577.114C801.9 607.014 831 627.714 865.2 635.414C899.5 643.214 934.8 636.914 964.6 617.914L1167.2 488.914L1167.5 489.014L1434.1 319.114C1480.7 289.414 1535.9 279.614 1589.5 291.714C1643.1 303.814 1688.6 336.214 1717.9 382.914L1885.4 650.914L1892 660.414L1939.3 734.214L1941.1 734.214L1893.3 659.614L1886.7 650.114L1719.2 382.114C1689.8 335.014 1643.8 302.414 1589.9 290.214C1535.9 278.014 1480.3 287.814 1433.4 317.814L1167.3 487.314L1167 487.214L963.9 616.614C934.4 635.414 899.5 641.514 865.6 633.914C831.8 626.314 803 605.814 784.6 576.314L658.7 374.914L659.3 375.014L490.9 105.514C461.5 58.4137 415.5 25.8137 361.6 13.6137C307.6 1.41374 252 11.2137 205.1 41.2137L-62.0003 211.314L-73.5003 218.314L-342.3 385.414C-389.7 414.914 -422.5 460.814 -434.6 514.814C-446.7 568.614 -436.9 623.814 -407 670.514L-366.2 734.114Z" fill="#7919FF"/>
<path d="M-359.7 734.114L-357.9 734.114L-394.3 677.314C-423.7 631.414 -433.3 577.114 -421.4 524.314C-409.4 471.414 -377.2 426.314 -330.8 397.414L-64.5004 232.114L-53.2004 225.214L210.9 56.8138C257.1 27.4138 311.7 17.8138 364.8 29.8138C417.7 41.8138 462.8 73.8138 491.7 120.014L656.4 383.614L655.8 383.514L782.2 585.914C800.6 615.414 829.4 635.914 863.2 643.514C897.2 651.214 932.2 645.114 961.7 626.314L1162.2 498.514L1162.5 498.614L1426.3 330.514C1472.5 301.114 1527.1 291.514 1580.2 303.514C1633.1 315.514 1678.2 347.514 1707.1 393.714L1872.8 658.914L1879.3 668.214L1921.7 734.314L1923.5 734.314L1880.6 667.414L1874.1 658.114L1708.4 393.014C1679.3 346.514 1633.9 314.214 1580.6 302.114C1527.1 290.014 1472.1 299.714 1425.6 329.314L1162.3 497.014L1162 496.914L961 625.114C931.8 643.714 897.2 649.714 863.6 642.114C830.2 634.514 801.8 614.314 783.6 585.114L659.1 385.814L659.7 385.914L493.1 119.214C464 72.7138 418.6 40.4138 365.3 28.3138C311.8 16.2138 256.8 25.9138 210.3 55.5138L-54.1003 223.914L-65.4004 230.814L-331.5 396.114C-378.3 425.214 -410.8 470.614 -422.8 524.014C-434.8 577.214 -425.1 631.914 -395.5 678.214L-359.7 734.114Z" fill="#7919FF"/>
<path d="M-359.7 734.114L-357.9 734.114L-394.3 677.314C-423.7 631.414 -433.3 577.114 -421.4 524.314C-409.4 471.414 -377.2 426.314 -330.8 397.414L-64.5004 232.114L-53.2004 225.214L210.9 56.8138C257.1 27.4138 311.7 17.8138 364.8 29.8138C417.7 41.8138 462.8 73.8138 491.7 120.014L656.4 383.614L655.8 383.514L782.2 585.914C800.6 615.414 829.4 635.914 863.2 643.514C897.2 651.214 932.2 645.114 961.7 626.314L1162.2 498.514L1162.5 498.614L1426.3 330.514C1472.5 301.114 1527.1 291.514 1580.2 303.514C1633.1 315.514 1678.2 347.514 1707.1 393.714L1872.8 658.914L1879.3 668.214L1921.7 734.314L1923.5 734.314L1880.6 667.414L1874.1 658.114L1708.4 393.014C1679.3 346.514 1633.9 314.214 1580.6 302.114C1527.1 290.014 1472.1 299.714 1425.6 329.314L1162.3 497.014L1162 496.914L961 625.114C931.8 643.714 897.2 649.714 863.6 642.114C830.2 634.514 801.8 614.314 783.6 585.114L659.1 385.814L659.7 385.914L493.1 119.214C464 72.7138 418.6 40.4138 365.3 28.3138C311.8 16.2138 256.8 25.9138 210.3 55.5138L-54.1003 223.914L-65.4004 230.814L-331.5 396.114C-378.3 425.214 -410.8 470.614 -422.8 524.014C-434.8 577.214 -425.1 631.914 -395.5 678.214L-359.7 734.114Z" fill="#7919FF"/>
<path d="M-353.2 734.114L-351.4 734.114L-382.7 685.214C-411.8 639.814 -421.3 586.114 -409.5 533.814C-397.7 481.414 -365.8 436.814 -319.9 408.214L-56.7003 244.614L-45.4004 237.714L216 71.1138C261.6 42.0138 315.7 32.5137 368.2 44.4137C420.6 56.2137 465.1 87.9138 493.7 133.614L656.7 394.214L656.1 394.114L781.2 594.314C799.5 623.514 828.1 643.814 861.6 651.314C895.1 658.914 929.6 652.814 958.7 634.214L1157.2 507.914L1157.5 508.014L1418.5 341.614C1464.1 312.514 1518.2 303.014 1570.7 314.914C1623.1 326.714 1667.6 358.414 1696.2 404.114L1860.2 666.514L1866.6 675.814L1903.9 733.914L1905.7 733.914L1867.9 674.914L1861.5 665.614L1697.5 403.314C1668.7 357.314 1623.8 325.314 1571.1 313.414C1518.2 301.414 1463.8 311.014 1417.8 340.314L1157.3 506.414L1157 506.314L958 633.014C929.2 651.414 895.1 657.314 862 649.914C828.9 642.414 800.7 622.414 782.6 593.514L659.4 396.314L660 396.414L495 133.014C466.2 87.0137 421.3 55.0138 368.6 43.1138C315.7 31.1138 261.2 40.7138 215.3 70.0138L-46.2003 236.614L-57.5003 243.514L-320.6 407.114C-366.9 435.914 -399 480.814 -410.9 533.614C-422.8 586.214 -413.2 640.414 -383.9 686.114L-353.2 734.114Z" fill="#7919FF"/>
<path d="M-353.2 734.114L-351.4 734.114L-382.7 685.214C-411.8 639.814 -421.3 586.114 -409.5 533.814C-397.7 481.414 -365.8 436.814 -319.9 408.214L-56.7003 244.614L-45.4004 237.714L216 71.1138C261.6 42.0138 315.7 32.5137 368.2 44.4137C420.6 56.2137 465.1 87.9138 493.7 133.614L656.7 394.214L656.1 394.114L781.2 594.314C799.5 623.514 828.1 643.814 861.6 651.314C895.1 658.914 929.6 652.814 958.7 634.214L1157.2 507.914L1157.5 508.014L1418.5 341.614C1464.1 312.514 1518.2 303.014 1570.7 314.914C1623.1 326.714 1667.6 358.414 1696.2 404.114L1860.2 666.514L1866.6 675.814L1903.9 733.914L1905.7 733.914L1867.9 674.914L1861.5 665.614L1697.5 403.314C1668.7 357.314 1623.8 325.314 1571.1 313.414C1518.2 301.414 1463.8 311.014 1417.8 340.314L1157.3 506.414L1157 506.314L958 633.014C929.2 651.414 895.1 657.314 862 649.914C828.9 642.414 800.7 622.414 782.6 593.514L659.4 396.314L660 396.414L495 133.014C466.2 87.0137 421.3 55.0138 368.6 43.1138C315.7 31.1138 261.2 40.7138 215.3 70.0138L-46.2003 236.614L-57.5003 243.514L-320.6 407.114C-366.9 435.914 -399 480.814 -410.9 533.614C-422.8 586.214 -413.2 640.414 -383.9 686.114L-353.2 734.114Z" fill="#7919FF"/>
<path d="M-346.6 734.114L-344.8 734.114L-371.1 693.014C-399.8 648.214 -409.2 595.014 -397.6 543.414C-385.9 491.514 -354.4 447.314 -308.9 419.014L-48.5003 257.014L-37.4004 250.314L221.2 85.5138C266.3 56.7138 319.7 47.4138 371.7 59.1138C423.6 70.8138 467.7 102.114 496 147.414L657.3 405.414L656.7 405.314L780.4 603.414C798.5 632.314 826.6 652.414 859.8 659.914C893 667.414 927.2 661.414 956.1 643.014L1152.2 518.014L1152.5 518.114L1410.8 353.614C1455.9 324.814 1509.3 315.514 1561.3 327.214C1613.2 338.914 1657.3 370.214 1685.6 415.514L1847.9 675.014L1854.3 684.114L1886.4 734.314L1888.2 734.314L1855.5 683.314L1849.1 674.214L1686.9 414.714C1658.4 369.114 1613.9 337.514 1561.6 325.814C1509.3 314.014 1455.4 323.514 1410 352.414L1152.2 516.514L1151.9 516.414L955.3 641.814C926.8 660.014 893 666.014 860.2 658.514C827.5 651.114 799.6 631.314 781.8 602.714L660 407.614L660.6 407.714L497.4 146.614C468.9 101.014 424.4 69.4138 372.1 57.7138C319.8 45.9138 265.9 55.3138 220.5 84.3138L-38.2003 249.014L-49.3003 255.714L-309.7 417.714C-355.5 446.314 -387.3 490.814 -399.1 543.114C-410.8 595.214 -401.4 648.714 -372.4 693.914L-346.6 734.114Z" fill="#7919FF"/>
<path d="M-346.6 734.114L-344.8 734.114L-371.1 693.014C-399.8 648.214 -409.2 595.014 -397.6 543.414C-385.9 491.514 -354.4 447.314 -308.9 419.014L-48.5003 257.014L-37.4004 250.314L221.2 85.5138C266.3 56.7138 319.7 47.4138 371.7 59.1138C423.6 70.8138 467.7 102.114 496 147.414L657.3 405.414L656.7 405.314L780.4 603.414C798.5 632.314 826.6 652.414 859.8 659.914C893 667.414 927.2 661.414 956.1 643.014L1152.2 518.014L1152.5 518.114L1410.8 353.614C1455.9 324.814 1509.3 315.514 1561.3 327.214C1613.2 338.914 1657.3 370.214 1685.6 415.514L1847.9 675.014L1854.3 684.114L1886.4 734.314L1888.2 734.314L1855.5 683.314L1849.1 674.214L1686.9 414.714C1658.4 369.114 1613.9 337.514 1561.6 325.814C1509.3 314.014 1455.4 323.514 1410 352.414L1152.2 516.514L1151.9 516.414L955.3 641.814C926.8 660.014 893 666.014 860.2 658.514C827.5 651.114 799.6 631.314 781.8 602.714L660 407.614L660.6 407.714L497.4 146.614C468.9 101.014 424.4 69.4138 372.1 57.7138C319.8 45.9138 265.9 55.3138 220.5 84.3138L-38.2003 249.014L-49.3003 255.714L-309.7 417.714C-355.5 446.314 -387.3 490.814 -399.1 543.114C-410.8 595.214 -401.4 648.714 -372.4 693.914L-346.6 734.114Z" fill="#7919FF"/>
<path d="M-340.2 734.114L-338.4 734.114L-359.7 700.914C-388.1 656.514 -397.4 603.914 -385.8 552.814C-374.2 501.614 -343.1 457.914 -298.1 429.914L-40.6004 269.714L-29.7004 263.114L226.1 100.114C270.8 71.7138 323.7 62.4138 375 74.0138C426.2 85.6138 469.8 116.614 497.8 161.314L657.3 416.514L656.7 416.414L779.2 612.114C797.1 640.714 824.9 660.514 857.7 667.914C890.6 675.314 924.4 669.414 952.9 651.214L1147 527.614L1147.3 527.714L1402.8 364.914C1447.5 336.514 1500.4 327.214 1551.7 338.814C1602.9 350.414 1646.5 381.414 1674.5 426.114L1835 682.714L1841.3 691.714L1868.5 734.214L1870.3 734.214L1842.6 690.914L1836.3 681.914L1675.9 425.214C1647.7 380.214 1603.8 348.914 1552.1 337.314C1500.3 325.614 1447 334.914 1402 363.614L1147 526.114L1146.7 526.014L952.1 650.014C923.9 668.014 890.5 673.914 858 666.514C825.6 659.214 798.1 639.614 780.4 611.314L659.9 418.514L660.5 418.614L499.1 160.414C470.9 115.414 427 84.1138 375.3 72.5138C323.5 60.8138 270.2 70.1138 225.2 98.8138L-30.5004 261.814L-41.4004 268.414L-298.9 428.614C-344.2 456.814 -375.6 500.814 -387.2 552.414C-398.8 603.914 -389.5 656.914 -360.9 701.714L-340.2 734.114Z" fill="#7919FF"/>
<path d="M-340.2 734.114L-338.4 734.114L-359.7 700.914C-388.1 656.514 -397.4 603.914 -385.8 552.814C-374.2 501.614 -343.1 457.914 -298.1 429.914L-40.6004 269.714L-29.7004 263.114L226.1 100.114C270.8 71.7138 323.7 62.4138 375 74.0138C426.2 85.6138 469.8 116.614 497.8 161.314L657.3 416.514L656.7 416.414L779.2 612.114C797.1 640.714 824.9 660.514 857.7 667.914C890.6 675.314 924.4 669.414 952.9 651.214L1147 527.614L1147.3 527.714L1402.8 364.914C1447.5 336.514 1500.4 327.214 1551.7 338.814C1602.9 350.414 1646.5 381.414 1674.5 426.114L1835 682.714L1841.3 691.714L1868.5 734.214L1870.3 734.214L1842.6 690.914L1836.3 681.914L1675.9 425.214C1647.7 380.214 1603.8 348.914 1552.1 337.314C1500.3 325.614 1447 334.914 1402 363.614L1147 526.114L1146.7 526.014L952.1 650.014C923.9 668.014 890.5 673.914 858 666.514C825.6 659.214 798.1 639.614 780.4 611.314L659.9 418.514L660.5 418.614L499.1 160.414C470.9 115.414 427 84.1138 375.3 72.5138C323.5 60.8138 270.2 70.1138 225.2 98.8138L-30.5004 261.814L-41.4004 268.414L-298.9 428.614C-344.2 456.814 -375.6 500.814 -387.2 552.414C-398.8 603.914 -389.5 656.914 -360.9 701.714L-340.2 734.114Z" fill="#7919FF"/>
<path d="M-333.6 734.114L-331.8 734.114L-348.1 708.614C-376.3 664.714 -385.5 612.614 -374 562.114C-362.5 511.414 -331.7 468.314 -287.2 440.614L-32.6004 282.114L-21.7004 275.514L231.2 114.414C275.4 86.2137 327.7 77.0137 378.5 88.5137C429.2 100.014 472.3 130.614 499.9 174.914L657.6 427.214L657 427.114L778.1 620.814C795.8 649.114 823.4 668.714 855.8 676.014C888.3 683.314 921.7 677.514 950 659.514L1142.1 537.214L1142.4 537.314L1395 376.414C1439.2 348.214 1491.5 339.014 1542.3 350.514C1593 362.014 1636.1 392.614 1663.7 436.914L1822.4 690.814L1828.7 699.814L1850.7 734.214L1852.5 734.214L1829.9 698.914L1823.6 689.914L1665 436.114C1637.1 391.514 1593.7 360.614 1542.6 349.114C1491.4 337.514 1438.7 346.814 1394.2 375.214L1142.1 535.814L1141.8 535.714L949.2 658.314C921.3 676.114 888.2 681.814 856.1 674.614C824.1 667.414 796.8 648.014 779.4 620.114L660.2 429.414L660.8 429.514L501.2 174.114C473.3 129.514 429.9 98.6137 378.8 87.1137C327.6 75.5137 274.9 84.8137 230.4 113.214L-22.5004 274.214L-33.4004 280.814L-288 439.414C-332.9 467.314 -363.9 510.814 -375.5 561.814C-387 612.714 -377.7 665.214 -349.4 709.414L-333.6 734.114Z" fill="#7919FF"/>
<path d="M-333.6 734.114L-331.8 734.114L-348.1 708.614C-376.3 664.714 -385.5 612.614 -374 562.114C-362.5 511.414 -331.7 468.314 -287.2 440.614L-32.6004 282.114L-21.7004 275.514L231.2 114.414C275.4 86.2137 327.7 77.0137 378.5 88.5137C429.2 100.014 472.3 130.614 499.9 174.914L657.6 427.214L657 427.114L778.1 620.814C795.8 649.114 823.4 668.714 855.8 676.014C888.3 683.314 921.7 677.514 950 659.514L1142.1 537.214L1142.4 537.314L1395 376.414C1439.2 348.214 1491.5 339.014 1542.3 350.514C1593 362.014 1636.1 392.614 1663.7 436.914L1822.4 690.814L1828.7 699.814L1850.7 734.214L1852.5 734.214L1829.9 698.914L1823.6 689.914L1665 436.114C1637.1 391.514 1593.7 360.614 1542.6 349.114C1491.4 337.514 1438.7 346.814 1394.2 375.214L1142.1 535.814L1141.8 535.714L949.2 658.314C921.3 676.114 888.2 681.814 856.1 674.614C824.1 667.414 796.8 648.014 779.4 620.114L660.2 429.414L660.8 429.514L501.2 174.114C473.3 129.514 429.9 98.6137 378.8 87.1137C327.6 75.5137 274.9 84.8137 230.4 113.214L-22.5004 274.214L-33.4004 280.814L-288 439.414C-332.9 467.314 -363.9 510.814 -375.5 561.814C-387 612.714 -377.7 665.214 -349.4 709.414L-333.6 734.114Z" fill="#7919FF"/>
<path d="M-326.9 734.114L-325.1 734.114L-336.5 716.414C-364.3 673.014 -373.4 621.514 -362.1 571.614C-350.8 521.514 -320.3 478.814 -276.3 451.514L-24.4004 294.914L-13.6003 288.414L236.5 129.014C280.2 101.114 331.9 92.1138 382.1 103.414C432.2 114.714 474.8 145.114 502.2 188.814L658 438.214L657.4 438.114L777.2 629.714C794.7 657.714 822 677.114 854 684.414C886.1 691.714 919.2 685.814 947.2 668.014L1137 547.014L1137.3 547.114L1387.1 387.814C1430.8 359.914 1482.5 350.914 1532.7 362.214C1582.8 373.514 1625.4 403.914 1652.8 447.614L1809.7 698.714L1815.9 707.514L1833 734.114L1834.8 734.114L1817.2 706.614L1811 697.814L1654.1 446.814C1626.6 402.714 1583.6 372.214 1533.1 360.714C1482.5 349.214 1430.3 358.414 1386.3 386.514L1137 545.414L1136.7 545.314L946.3 666.614C918.7 684.214 886 690.014 854.3 682.814C822.6 675.614 795.7 656.514 778.4 628.814L660.6 440.214L661.2 440.314L503.4 187.714C475.9 143.614 432.9 113.114 382.4 101.614C331.8 90.2138 279.6 99.3138 235.6 127.414L-14.5003 287.014L-25.2003 293.514L-277.1 450.214C-321.4 477.814 -352.1 520.814 -363.6 571.314C-375 621.714 -365.8 673.514 -337.8 717.314L-326.9 734.114Z" fill="#7919FF"/>
<path d="M-326.9 734.114L-325.1 734.114L-336.5 716.414C-364.3 673.014 -373.4 621.514 -362.1 571.614C-350.8 521.514 -320.3 478.814 -276.3 451.514L-24.4004 294.914L-13.6003 288.414L236.5 129.014C280.2 101.114 331.9 92.1138 382.1 103.414C432.2 114.714 474.8 145.114 502.2 188.814L658 438.214L657.4 438.114L777.2 629.714C794.7 657.714 822 677.114 854 684.414C886.1 691.714 919.2 685.814 947.2 668.014L1137 547.014L1137.3 547.114L1387.1 387.814C1430.8 359.914 1482.5 350.914 1532.7 362.214C1582.8 373.514 1625.4 403.914 1652.8 447.614L1809.7 698.714L1815.9 707.514L1833 734.114L1834.8 734.114L1817.2 706.614L1811 697.814L1654.1 446.814C1626.6 402.714 1583.6 372.214 1533.1 360.714C1482.5 349.214 1430.3 358.414 1386.3 386.514L1137 545.414L1136.7 545.314L946.3 666.614C918.7 684.214 886 690.014 854.3 682.814C822.6 675.614 795.7 656.514 778.4 628.814L660.6 440.214L661.2 440.314L503.4 187.714C475.9 143.614 432.9 113.114 382.4 101.614C331.8 90.2138 279.6 99.3138 235.6 127.414L-14.5003 287.014L-25.2003 293.514L-277.1 450.214C-321.4 477.814 -352.1 520.814 -363.6 571.314C-375 621.714 -365.8 673.514 -337.8 717.314L-326.9 734.114Z" fill="#7919FF"/>
<path d="M-320.4 734.114L-318.6 734.114L-325.1 723.914C-352.6 681.014 -361.6 630.214 -350.4 580.814C-339.2 531.214 -309.1 488.914 -265.6 461.814L-16.5003 306.814L-5.90033 300.414L241.5 142.814C284.6 115.314 335.7 106.314 385.4 117.514C435 128.714 477.2 158.714 504.3 201.914L658.6 448.614L658.2 448.514L776.6 638.014C793.8 665.614 820.8 684.814 852.4 692.014C884.2 699.214 917 693.514 944.7 675.914L1132.2 556.514L1132.5 556.614L1379.5 399.114C1422.6 371.614 1473.7 362.614 1523.4 373.814C1573 385.014 1615.2 415.014 1642.3 458.214L1797.6 706.514L1803.6 715.314L1815.6 734.114L1817.4 734.114L1804.9 714.514L1798.9 705.714L1643.7 457.414C1616.4 413.814 1573.8 383.614 1523.9 372.314C1473.8 361.014 1422.3 370.114 1378.9 397.814L1132.1 555.114L1131.8 555.014L943.8 674.714C916.4 692.114 884.1 697.814 852.6 690.614C821.3 683.514 794.7 664.614 777.7 637.314L661.2 450.914L661.6 451.014L505.4 201.214C478.1 157.614 435.5 127.414 385.6 116.114C335.5 104.814 284 113.914 240.6 141.614L-6.80029 299.214L-17.4003 305.614L-266.5 460.614C-310.4 487.914 -340.7 530.514 -352 580.514C-363.2 630.314 -354.2 681.514 -326.5 724.814L-320.4 734.114Z" fill="#7919FF"/>
<path d="M-320.4 734.114L-318.6 734.114L-325.1 723.914C-352.6 681.014 -361.6 630.214 -350.4 580.814C-339.2 531.214 -309.1 488.914 -265.6 461.814L-16.5003 306.814L-5.90033 300.414L241.5 142.814C284.6 115.314 335.7 106.314 385.4 117.514C435 128.714 477.2 158.714 504.3 201.914L658.6 448.614L658.2 448.514L776.6 638.014C793.8 665.614 820.8 684.814 852.4 692.014C884.2 699.214 917 693.514 944.7 675.914L1132.2 556.514L1132.5 556.614L1379.5 399.114C1422.6 371.614 1473.7 362.614 1523.4 373.814C1573 385.014 1615.2 415.014 1642.3 458.214L1797.6 706.514L1803.6 715.314L1815.6 734.114L1817.4 734.114L1804.9 714.514L1798.9 705.714L1643.7 457.414C1616.4 413.814 1573.8 383.614 1523.9 372.314C1473.8 361.014 1422.3 370.114 1378.9 397.814L1132.1 555.114L1131.8 555.014L943.8 674.714C916.4 692.114 884.1 697.814 852.6 690.614C821.3 683.514 794.7 664.614 777.7 637.314L661.2 450.914L661.6 451.014L505.4 201.214C478.1 157.614 435.5 127.414 385.6 116.114C335.5 104.814 284 113.914 240.6 141.614L-6.80029 299.214L-17.4003 305.614L-266.5 460.614C-310.4 487.914 -340.7 530.514 -352 580.514C-363.2 630.314 -354.2 681.514 -326.5 724.814L-320.4 734.114Z" fill="#7919FF"/>
<path d="M-313.9 734.114L-312.1 734.114L-313.6 731.814C-340.8 689.314 -349.6 639.114 -338.6 590.214C-327.5 541.214 -297.8 499.514 -254.8 472.714L-8.60037 319.714L1.79959 313.314L246.4 157.514C289.1 130.314 339.7 121.514 388.8 132.614C437.8 143.714 479.5 173.314 506.2 216.014L658.7 459.914L658.3 459.814L775.3 647.114C792.4 674.414 819.1 693.414 850.4 700.514C881.8 707.614 914.2 701.914 941.5 684.614L1127 566.414L1127.3 566.514L1371.6 410.814C1414.3 383.614 1464.9 374.814 1514 385.914C1563 397.014 1604.7 426.614 1631.4 469.314L1784.9 714.814L1791 723.414L1797.9 734.214L1799.7 734.214L1792.2 722.514L1786.1 713.914L1632.7 468.514C1605.7 425.414 1563.7 395.614 1514.4 384.414C1464.9 373.214 1413.9 382.114 1370.9 409.514L1127 564.814L1126.7 564.714L940.8 683.214C913.8 700.414 881.9 706.014 850.8 698.914C819.8 691.914 793.5 673.214 776.6 646.214L661.4 461.914L661.8 462.014L507.4 215.014C480.4 171.914 438.4 142.114 389.1 130.914C339.6 119.714 288.6 128.614 245.6 156.014L1.09958 312.014L-9.30038 318.414L-255.5 471.414C-298.8 498.414 -328.8 540.414 -340 589.814C-351.1 639.114 -342.2 689.714 -314.8 732.514L-313.9 734.114Z" fill="#7919FF"/>
<path d="M-313.9 734.114L-312.1 734.114L-313.6 731.814C-340.8 689.314 -349.6 639.114 -338.6 590.214C-327.5 541.214 -297.8 499.514 -254.8 472.714L-8.60037 319.714L1.79959 313.314L246.4 157.514C289.1 130.314 339.7 121.514 388.8 132.614C437.8 143.714 479.5 173.314 506.2 216.014L658.7 459.914L658.3 459.814L775.3 647.114C792.4 674.414 819.1 693.414 850.4 700.514C881.8 707.614 914.2 701.914 941.5 684.614L1127 566.414L1127.3 566.514L1371.6 410.814C1414.3 383.614 1464.9 374.814 1514 385.914C1563 397.014 1604.7 426.614 1631.4 469.314L1784.9 714.814L1791 723.414L1797.9 734.214L1799.7 734.214L1792.2 722.514L1786.1 713.914L1632.7 468.514C1605.7 425.414 1563.7 395.614 1514.4 384.414C1464.9 373.214 1413.9 382.114 1370.9 409.514L1127 564.814L1126.7 564.714L940.8 683.214C913.8 700.414 881.9 706.014 850.8 698.914C819.8 691.914 793.5 673.214 776.6 646.214L661.4 461.914L661.8 462.014L507.4 215.014C480.4 171.914 438.4 142.114 389.1 130.914C339.6 119.714 288.6 128.614 245.6 156.014L1.09958 312.014L-9.30038 318.414L-255.5 471.414C-298.8 498.414 -328.8 540.414 -340 589.814C-351.1 639.114 -342.2 689.714 -314.8 732.514L-313.9 734.114Z" fill="#7919FF"/>
<path d="M-305.6 734.114C-329.8 693.414 -337.4 645.914 -327 599.714C-316 551.314 -286.6 510.114 -244 483.714L-0.600312 332.314L9.79965 326.014L251.5 172.014C293.7 145.114 343.7 136.314 392.2 147.314C440.6 158.214 481.8 187.614 508.2 229.814L658.9 470.914L658.5 470.814L774.2 656.114C791.1 683.114 817.4 701.914 848.3 708.914C879.4 716.014 911.4 710.314 938.5 693.114L1121.9 576.114L1122.2 576.214L1363.5 422.314C1405.7 395.414 1455.7 386.614 1504.2 397.514C1552.6 408.414 1593.8 437.814 1620.2 480.014L1771.9 722.614L1777.8 731.214L1779.7 734.214L1781.5 734.214L1779.1 730.414L1773.2 721.814L1621.7 479.114C1595.1 436.514 1553.6 406.914 1504.7 395.914C1455.8 384.814 1405.4 393.714 1362.8 420.914L1122 574.514L1121.7 574.414L937.7 691.714C910.9 708.714 879.3 714.314 848.6 707.314C818 700.414 792.1 681.914 775.4 655.214L661.6 473.014L662 473.114L509.4 229.014C482.8 186.414 441.3 156.814 392.4 145.814C343.5 134.714 293.1 143.614 250.5 170.714L8.99966 324.714L-1.40036 331.014L-244.8 482.414C-287.7 509.014 -317.4 550.614 -328.4 599.414C-338.9 645.714 -331.4 693.214 -307.3 734.114L-305.6 734.114Z" fill="#7919FF"/>
<path d="M-305.6 734.114C-329.8 693.414 -337.4 645.914 -327 599.714C-316 551.314 -286.6 510.114 -244 483.714L-0.600312 332.314L9.79965 326.014L251.5 172.014C293.7 145.114 343.7 136.314 392.2 147.314C440.6 158.214 481.8 187.614 508.2 229.814L658.9 470.914L658.5 470.814L774.2 656.114C791.1 683.114 817.4 701.914 848.3 708.914C879.4 716.014 911.4 710.314 938.5 693.114L1121.9 576.114L1122.2 576.214L1363.5 422.314C1405.7 395.414 1455.7 386.614 1504.2 397.514C1552.6 408.414 1593.8 437.814 1620.2 480.014L1771.9 722.614L1777.8 731.214L1779.7 734.214L1781.5 734.214L1779.1 730.414L1773.2 721.814L1621.7 479.114C1595.1 436.514 1553.6 406.914 1504.7 395.914C1455.8 384.814 1405.4 393.714 1362.8 420.914L1122 574.514L1121.7 574.414L937.7 691.714C910.9 708.714 879.3 714.314 848.6 707.314C818 700.414 792.1 681.914 775.4 655.214L661.6 473.014L662 473.114L509.4 229.014C482.8 186.414 441.3 156.814 392.4 145.814C343.5 134.714 293.1 143.614 250.5 170.714L8.99966 324.714L-1.40036 331.014L-244.8 482.414C-287.7 509.014 -317.4 550.614 -328.4 599.414C-338.9 645.714 -331.4 693.214 -307.3 734.114L-305.6 734.114Z" fill="#7919FF"/>
<path d="M-298.5 734.114C-318.9 695.714 -324.9 651.914 -315.2 609.214C-304.4 561.314 -275.3 520.514 -233.2 494.314L7.39969 344.714L17.5996 338.514L256.5 186.214C298.2 159.614 347.5 150.914 395.5 161.714C443.4 172.514 484.2 201.514 510.3 243.314L659.2 481.514L658.8 481.414L773.2 664.614C789.9 691.314 816 709.914 846.6 716.814C877.3 723.714 908.9 718.214 935.7 701.214L1117 585.814L1117.3 585.914L1355.9 433.814C1397.6 407.214 1446.9 398.514 1494.9 409.314C1542.8 420.114 1583.6 449.114 1609.8 490.914L1759.7 730.714L1762.1 734.214L1763.9 734.214L1760.9 729.914L1611 490.114C1584.6 447.914 1543.5 418.714 1495.2 407.814C1446.8 396.914 1397.1 405.614 1355.1 432.514L1117 584.214L1116.7 584.114L934.9 699.914C908.5 716.714 877.3 722.214 847 715.314C816.8 708.514 791 690.214 774.5 663.814L662 483.814L662.4 483.914L511.6 242.614C485.2 200.414 444.1 171.214 395.8 160.314C347.4 149.414 297.7 158.114 255.7 185.014L16.7997 337.214L6.59964 343.414L-234 493.014C-276.4 519.414 -305.8 560.614 -316.7 608.914C-326.4 651.714 -320.5 695.614 -300.2 734.214L-298.5 734.214L-298.5 734.114Z" fill="#7919FF"/>
<path d="M-298.5 734.114C-318.9 695.714 -324.9 651.914 -315.2 609.214C-304.4 561.314 -275.3 520.514 -233.2 494.314L7.39969 344.714L17.5996 338.514L256.5 186.214C298.2 159.614 347.5 150.914 395.5 161.714C443.4 172.514 484.2 201.514 510.3 243.314L659.2 481.514L658.8 481.414L773.2 664.614C789.9 691.314 816 709.914 846.6 716.814C877.3 723.714 908.9 718.214 935.7 701.214L1117 585.814L1117.3 585.914L1355.9 433.814C1397.6 407.214 1446.9 398.514 1494.9 409.314C1542.8 420.114 1583.6 449.114 1609.8 490.914L1759.7 730.714L1762.1 734.214L1763.9 734.214L1760.9 729.914L1611 490.114C1584.6 447.914 1543.5 418.714 1495.2 407.814C1446.8 396.914 1397.1 405.614 1355.1 432.514L1117 584.214L1116.7 584.114L934.9 699.914C908.5 716.714 877.3 722.214 847 715.314C816.8 708.514 791 690.214 774.5 663.814L662 483.814L662.4 483.914L511.6 242.614C485.2 200.414 444.1 171.214 395.8 160.314C347.4 149.414 297.7 158.114 255.7 185.014L16.7997 337.214L6.59964 343.414L-234 493.014C-276.4 519.414 -305.8 560.614 -316.7 608.914C-326.4 651.714 -320.5 695.614 -300.2 734.214L-298.5 734.214L-298.5 734.114Z" fill="#7919FF"/>
<path d="M-290.8 734.114C-307.7 698.114 -312.1 657.914 -303.3 618.614C-292.6 571.314 -263.9 531.014 -222.3 505.214L15.3996 357.414L25.4996 351.214L261.6 200.714C302.9 174.414 351.7 165.914 399.1 176.614C446.4 187.314 486.6 215.914 512.4 257.214L659.5 492.614L659.1 492.514L772.3 673.414C788.8 699.814 814.6 718.114 844.8 724.914C875.1 731.814 906.4 726.314 932.7 709.514L1111.9 595.314L1112.2 595.414L1348.1 445.114C1389.3 418.814 1438.2 410.314 1485.6 421.014C1532.9 431.714 1573.1 460.314 1599 501.614L1744.3 734.114L1746.1 734.114L1600.3 500.814C1574.3 459.214 1533.7 430.314 1486 419.514C1438.2 408.714 1389 417.314 1347.4 443.814L1112 593.714L1111.7 593.614L932 708.114C906 724.714 875.1 730.114 845.2 723.314C815.3 716.514 789.9 698.514 773.6 672.414L662.3 494.514L662.7 494.614L513.7 256.114C487.7 214.514 447.1 185.614 399.4 174.914C351.6 164.114 302.4 172.714 260.8 199.214L24.7996 349.714L14.6996 355.914L-223.1 504.014C-265 530.114 -294 570.714 -304.7 618.414C-313.6 657.814 -309.2 698.114 -292.4 734.214L-290.8 734.214L-290.8 734.114Z" fill="#7919FF"/>
<path d="M-290.8 734.114C-307.7 698.114 -312.1 657.914 -303.3 618.614C-292.6 571.314 -263.9 531.014 -222.3 505.214L15.3996 357.414L25.4996 351.214L261.6 200.714C302.9 174.414 351.7 165.914 399.1 176.614C446.4 187.314 486.6 215.914 512.4 257.214L659.5 492.614L659.1 492.514L772.3 673.414C788.8 699.814 814.6 718.114 844.8 724.914C875.1 731.814 906.4 726.314 932.7 709.514L1111.9 595.314L1112.2 595.414L1348.1 445.114C1389.3 418.814 1438.2 410.314 1485.6 421.014C1532.9 431.714 1573.1 460.314 1599 501.614L1744.3 734.114L1746.1 734.114L1600.3 500.814C1574.3 459.214 1533.7 430.314 1486 419.514C1438.2 408.714 1389 417.314 1347.4 443.814L1112 593.714L1111.7 593.614L932 708.114C906 724.714 875.1 730.114 845.2 723.314C815.3 716.514 789.9 698.514 773.6 672.414L662.3 494.514L662.7 494.614L513.7 256.114C487.7 214.514 447.1 185.614 399.4 174.914C351.6 164.114 302.4 172.714 260.8 199.214L24.7996 349.714L14.6996 355.914L-223.1 504.014C-265 530.114 -294 570.714 -304.7 618.414C-313.6 657.814 -309.2 698.114 -292.4 734.214L-290.8 734.214L-290.8 734.114Z" fill="#7919FF"/>
<path d="M889.2 734.114C903.6 731.414 917.5 726.014 930.2 717.814L1107.2 605.014L1107.5 605.114L1340.2 456.514C1380.9 430.614 1429.2 422.114 1476 432.714C1522.7 443.314 1562.5 471.514 1588 512.314L1726.7 734.114L1728.5 734.114L1589.3 511.514C1563.6 470.414 1523.5 441.914 1476.4 431.214C1429.2 420.514 1380.5 429.014 1339.4 455.214L1107.3 603.514L1107 603.414L929.4 716.614C913.6 726.714 895.9 732.614 877.8 734.114L889.2 734.114Z" fill="#7919FF"/>
<path d="M-282.5 734.114C-296.3 700.614 -299.5 663.814 -291.3 627.914C-280.7 581.214 -252.3 541.414 -211.3 515.914L23.5996 369.714L33.5996 363.614L267 214.914C307.7 189.014 356 180.514 402.8 191.114C449.5 201.714 489.3 229.914 514.8 270.714L660.3 503.314L659.9 503.214L771.8 682.114C788.1 708.214 813.5 726.314 843.5 733.114C845.1 733.514 846.7 733.814 848.2 734.114L859.7 734.114C854.4 733.714 849.1 732.914 843.8 731.714C814.3 725.014 789.1 707.214 773.1 681.414L663.2 505.514L663.6 505.614L516 269.914C490.3 228.814 450.2 200.314 403.1 189.614C355.9 178.914 307.2 187.414 266.1 213.614L32.7996 362.314L22.7996 368.414L-212.2 514.614C-253.6 540.314 -282.2 580.514 -292.8 627.614C-301 663.714 -297.8 700.514 -284.1 734.214L-282.5 734.214L-282.5 734.114Z" fill="#7919FF"/>
<path d="M-282.5 734.114C-296.3 700.614 -299.5 663.814 -291.3 627.914C-280.7 581.214 -252.3 541.414 -211.3 515.914L23.5996 369.714L33.5996 363.614L267 214.914C307.7 189.014 356 180.514 402.8 191.114C449.5 201.714 489.3 229.914 514.8 270.714L660.3 503.314L659.9 503.214L771.8 682.114C788.1 708.214 813.5 726.314 843.5 733.114C845.1 733.514 846.7 733.814 848.2 734.114L859.7 734.114C854.4 733.714 849.1 732.914 843.8 731.714C814.3 725.014 789.1 707.214 773.1 681.414L663.2 505.514L663.6 505.614L516 269.914C490.3 228.814 450.2 200.314 403.1 189.614C355.9 178.914 307.2 187.414 266.1 213.614L32.7996 362.314L22.7996 368.414L-212.2 514.614C-253.6 540.314 -282.2 580.514 -292.8 627.614C-301 663.714 -297.8 700.514 -284.1 734.214L-282.5 734.214L-282.5 734.114Z" fill="#7919FF"/>
<path d="M889.2 734.114C903.6 731.414 917.5 726.014 930.2 717.814L1107.2 605.014L1107.5 605.114L1340.2 456.514C1380.9 430.614 1429.2 422.114 1476 432.714C1522.7 443.314 1562.5 471.514 1588 512.314L1726.7 734.114L1728.5 734.114L1589.3 511.514C1563.6 470.414 1523.5 441.914 1476.4 431.214C1429.2 420.514 1380.5 429.014 1339.4 455.214L1107.3 603.514L1107 603.414L929.4 716.614C913.6 726.714 895.9 732.614 877.8 734.114L889.2 734.114Z" fill="#7919FF"/>
<path d="M909.2 734.114L913 734.114C917.9 731.914 922.8 729.314 927.4 726.314L1104.1 613.714L1104 613.714L1332.4 468.114C1372.6 442.514 1420.2 434.114 1466.5 444.614C1512.7 455.014 1552.1 483.014 1577.3 523.314L1709.2 734.114L1711 734.114L1578.6 522.414C1553.1 481.814 1513.4 453.614 1466.8 443.114C1420.1 432.614 1372.1 441.014 1331.6 466.814L1100.1 614.314L1100.2 614.314L926.6 725.114C921 728.614 915.2 731.714 909.2 734.114Z" fill="#7919FF"/>
<path d="M-273.9 734.114C-284.8 703.314 -286.8 670.114 -279.5 637.514C-269.1 591.314 -241 551.914 -200.5 526.614L31.5996 382.214L41.4996 376.214L272 229.414C312.2 203.814 359.8 195.414 406.1 205.914C452.3 216.314 491.7 244.314 516.9 284.614L660.6 514.414L660.2 514.314L770.7 691.114C782.7 710.314 799.7 725.114 819.8 734.214L823.6 734.214C802.4 725.414 784.4 710.314 772 690.314L663.4 516.514L663.8 516.614L518.2 283.714C492.7 243.114 453 214.914 406.4 204.414C359.7 193.914 311.7 202.314 271.2 228.114L40.6996 375.014L30.7996 381.014L-201.3 525.414C-242.2 550.914 -270.5 590.614 -281 637.214C-288.4 669.914 -286.4 703.214 -275.5 734.114L-273.9 734.114Z" fill="#7919FF"/>
<path d="M909.2 734.114L913 734.114C917.9 731.914 922.8 729.314 927.4 726.314L1104.1 613.714L1104 613.714L1332.4 468.114C1372.6 442.514 1420.2 434.114 1466.5 444.614C1512.7 455.014 1552.1 483.014 1577.3 523.314L1709.2 734.114L1711 734.114L1578.6 522.414C1553.1 481.814 1513.4 453.614 1466.8 443.114C1420.1 432.614 1372.1 441.014 1331.6 466.814L1100.1 614.314L1100.2 614.314L926.6 725.114C921 728.614 915.2 731.714 909.2 734.114Z" fill="#7919FF"/>
<path d="M-273.9 734.114C-284.8 703.314 -286.8 670.114 -279.5 637.514C-269.1 591.314 -241 551.914 -200.5 526.614L31.5996 382.214L41.4996 376.214L272 229.414C312.2 203.814 359.8 195.414 406.1 205.914C452.3 216.314 491.7 244.314 516.9 284.614L660.6 514.414L660.2 514.314L770.7 691.114C782.7 710.314 799.7 725.114 819.8 734.214L823.6 734.214C802.4 725.414 784.4 710.314 772 690.314L663.4 516.514L663.8 516.614L518.2 283.714C492.7 243.114 453 214.914 406.4 204.414C359.7 193.914 311.7 202.314 271.2 228.114L40.6996 375.014L30.7996 381.014L-201.3 525.414C-242.2 550.914 -270.5 590.614 -281 637.214C-288.4 669.914 -286.4 703.214 -275.5 734.114L-273.9 734.114Z" fill="#7919FF"/>
<path d="M925 734.114L1097 624.414L1097.3 624.514L1324.7 479.614C1364.4 454.314 1411.4 446.014 1457.1 456.314C1502.7 466.614 1541.6 494.214 1566.5 534.114L1691.7 734.114L1693.5 734.114L1567.9 533.114C1542.8 492.914 1503.6 465.014 1457.5 454.714C1411.4 444.314 1364 452.714 1323.9 478.214L1097 622.914L1096.7 622.814L923.5 733.314C923.1 733.614 922.6 733.914 922.1 734.114L925 734.114Z" fill="#7919FF"/>
<path d="M-265 734.114C-273.4 706.014 -274.5 676.214 -267.9 646.914C-257.6 601.214 -229.9 562.314 -189.8 537.414L39.4996 394.814L49.1996 388.814L276.9 243.714C316.6 218.414 363.6 210.114 409.3 220.414C454.9 230.714 493.799 258.314 518.7 298.214L660.6 525.214L660.2 525.114L769.4 699.814C778.2 713.814 789.7 725.514 803.1 734.214L805.9 734.214C791.8 725.414 779.7 713.514 770.7 699.014L663.4 527.314L663.8 527.414L520 297.414C494.9 257.214 455.7 229.314 409.6 219.014C363.5 208.614 316.1 217.014 276 242.514L48.3996 387.514L38.6996 393.514L-190.5 536.114C-230.9 561.314 -258.9 600.514 -269.3 646.514C-275.9 675.914 -274.9 705.914 -266.5 734.114L-265 734.114Z" fill="#7919FF"/>
<path d="M-265 734.114C-273.4 706.014 -274.5 676.214 -267.9 646.914C-257.6 601.214 -229.9 562.314 -189.8 537.414L39.4996 394.814L49.1996 388.814L276.9 243.714C316.6 218.414 363.6 210.114 409.3 220.414C454.9 230.714 493.799 258.314 518.7 298.214L660.6 525.214L660.2 525.114L769.4 699.814C778.2 713.814 789.7 725.514 803.1 734.214L805.9 734.214C791.8 725.414 779.7 713.514 770.7 699.014L663.4 527.314L663.8 527.414L520 297.414C494.9 257.214 455.7 229.314 409.6 219.014C363.5 208.614 316.1 217.014 276 242.514L48.3996 387.514L38.6996 393.514L-190.5 536.114C-230.9 561.314 -258.9 600.514 -269.3 646.514C-275.9 675.914 -274.9 705.914 -266.5 734.114L-265 734.114Z" fill="#7919FF"/>
<path d="M925 734.114L1097 624.414L1097.3 624.514L1324.7 479.614C1364.4 454.314 1411.4 446.014 1457.1 456.314C1502.7 466.614 1541.6 494.214 1566.5 534.114L1691.7 734.114L1693.5 734.114L1567.9 533.114C1542.8 492.914 1503.6 465.014 1457.5 454.714C1411.4 444.314 1364 452.714 1323.9 478.214L1097 622.914L1096.7 622.814L923.5 733.314C923.1 733.614 922.6 733.914 922.1 734.114L925 734.114Z" fill="#7919FF"/>
<path d="M935 734.114L1092 634.114L1092.3 634.214L1316.7 491.114C1356 466.114 1402.5 457.914 1447.6 468.114C1492.6 478.314 1530.9 505.514 1555.5 544.914L1673.9 734.114L1675.7 734.114L1556.9 544.014C1532.1 504.314 1493.4 476.814 1448 466.614C1402.5 456.314 1355.6 464.514 1316 489.814L1092 632.614L1091.7 632.514L932.2 734.114L935 734.114Z" fill="#7919FF"/>
<path d="M-255.6 734.114C-261.8 708.814 -262.1 682.314 -256.2 656.214C-246 611.214 -218.6 572.814 -179.1 548.214L47.3996 407.214L57.0996 401.314L282 258.114C321.3 233.114 367.8 224.914 412.9 235.114C457.9 245.314 496.2 272.514 520.8 311.814L661 536.114L660.6 536.014L768.5 708.414C774.6 718.214 782.1 726.914 790.7 734.114L793 734.114C784 726.714 776.2 717.814 769.8 707.614L663.8 538.214L664.2 538.314L522.2 311.114C497.4 271.414 458.7 243.914 413.3 233.714C367.8 223.414 320.9 231.614 281.3 256.914L56.2996 400.214L46.5996 406.114L-179.9 547.114C-219.8 571.914 -247.4 610.614 -257.7 656.014C-263.6 682.214 -263.4 708.814 -257.2 734.214L-255.6 734.214L-255.6 734.114Z" fill="#7919FF"/>
<path d="M935 734.114L1092 634.114L1092.3 634.214L1316.7 491.114C1356 466.114 1402.5 457.914 1447.6 468.114C1492.6 478.314 1530.9 505.514 1555.5 544.914L1673.9 734.114L1675.7 734.114L1556.9 544.014C1532.1 504.314 1493.4 476.814 1448 466.614C1402.5 456.314 1355.6 464.514 1316 489.814L1092 632.614L1091.7 632.514L932.2 734.114L935 734.114Z" fill="#7919FF"/>
<path d="M-255.6 734.114C-261.8 708.814 -262.1 682.314 -256.2 656.214C-246 611.214 -218.6 572.814 -179.1 548.214L47.3996 407.214L57.0996 401.314L282 258.114C321.3 233.114 367.8 224.914 412.9 235.114C457.9 245.314 496.2 272.514 520.8 311.814L661 536.114L660.6 536.014L768.5 708.414C774.6 718.214 782.1 726.914 790.7 734.114L793 734.114C784 726.714 776.2 717.814 769.8 707.614L663.8 538.214L664.2 538.314L522.2 311.114C497.4 271.414 458.7 243.914 413.3 233.714C367.8 223.414 320.9 231.614 281.3 256.914L56.2996 400.214L46.5996 406.114L-179.9 547.114C-219.8 571.914 -247.4 610.614 -257.7 656.014C-263.6 682.214 -263.4 708.814 -257.2 734.214L-255.6 734.214L-255.6 734.114Z" fill="#7919FF"/>
<path d="M945.3 734.114L1086.7 644.014L1087 644.114L1309 502.514C1347.8 477.814 1393.7 469.714 1438.3 479.814C1482.8 489.914 1520.6 516.814 1544.8 555.614L1656.4 734.114L1658.2 734.114L1546 554.814C1521.5 515.714 1483.4 488.514 1438.5 478.414C1393.5 468.214 1347.2 476.414 1308.1 501.314L1086.7 642.614L1086.4 642.514L942.4 734.214L945.3 734.214L945.3 734.114Z" fill="#7919FF"/>
<path d="M-245.6 734.114C-249.8 711.714 -249.5 688.514 -244.3 665.614C-234.2 621.114 -207.2 583.314 -168.2 559.014L55.3997 419.914L64.8997 414.214L286.9 272.714C325.7 248.014 371.6 239.914 416.2 250.014C460.7 260.114 498.5 287.014 522.7 325.814L661 547.114L660.6 547.014L767.1 717.314C770.9 723.414 775.2 729.014 780 734.114L782.1 734.114C777 728.814 772.4 722.914 768.4 716.514L663.8 549.214L664.2 549.314L524 325.014C499.5 285.914 461.4 258.714 416.5 248.614C371.5 238.414 325.2 246.614 286.1 271.514L64.0996 413.014L54.5996 418.714L-169 557.814C-208.4 582.314 -235.6 620.514 -245.8 665.414C-251 688.414 -251.4 711.714 -247.1 734.214L-245.6 734.214L-245.6 734.114Z" fill="#7919FF"/>
<path d="M945.3 734.114L1086.7 644.014L1087 644.114L1309 502.514C1347.8 477.814 1393.7 469.714 1438.3 479.814C1482.8 489.914 1520.6 516.814 1544.8 555.614L1656.4 734.114L1658.2 734.114L1546 554.814C1521.5 515.714 1483.4 488.514 1438.5 478.414C1393.5 468.214 1347.2 476.414 1308.1 501.314L1086.7 642.614L1086.4 642.514L942.4 734.214L945.3 734.214L945.3 734.114Z" fill="#7919FF"/>
<path d="M-245.6 734.114C-249.8 711.714 -249.5 688.514 -244.3 665.614C-234.2 621.114 -207.2 583.314 -168.2 559.014L55.3997 419.914L64.8997 414.214L286.9 272.714C325.7 248.014 371.6 239.914 416.2 250.014C460.7 260.114 498.5 287.014 522.7 325.814L661 547.114L660.6 547.014L767.1 717.314C770.9 723.414 775.2 729.014 780 734.114L782.1 734.114C777 728.814 772.4 722.914 768.4 716.514L663.8 549.214L664.2 549.314L524 325.014C499.5 285.914 461.4 258.714 416.5 248.614C371.5 238.414 325.2 246.614 286.1 271.514L64.0996 413.014L54.5996 418.714L-169 557.814C-208.4 582.314 -235.6 620.514 -245.8 665.414C-251 688.414 -251.4 711.714 -247.1 734.214L-245.6 734.214L-245.6 734.114Z" fill="#7919FF"/>
<path d="M955.7 734.114L1082.1 653.614L1082.4 653.714L1301.2 513.914C1339.4 489.514 1384.7 481.614 1428.7 491.514C1472.7 501.414 1510.1 528.014 1534.1 566.314L1639.1 734.114L1640.9 734.114L1535.4 565.514C1511.2 526.814 1473.4 500.014 1429 490.014C1384.6 480.014 1338.9 488.014 1300.4 512.614L1082.1 652.114L1081.8 652.014L952.9 734.114L955.7 734.114Z" fill="#7919FF"/>
<path d="M-235.2 734.114C-237.9 714.614 -237 694.614 -232.6 674.914C-222.7 630.914 -196 593.514 -157.4 569.414L63.4997 432.314L72.8997 426.514L292.2 286.814C330.4 262.414 375.7 254.514 419.7 264.414C463.7 274.314 501.1 300.914 525.1 339.214L661.8 557.714L661.4 557.614L766.6 725.814C768.4 728.614 770.2 731.314 772.2 733.914L774.1 733.914C771.9 731.014 769.8 728.114 767.9 725.014L664.5 560.114L664.9 560.214L526.3 338.614C502.1 299.914 464.3 273.114 419.9 263.114C375.5 253.114 329.8 261.114 291.3 285.714L71.9997 425.414L62.5996 431.214L-158.2 568.214C-197.1 592.514 -224 630.314 -234.1 674.614C-238.6 694.414 -239.4 714.514 -236.8 734.114L-235.2 734.114Z" fill="#7919FF"/>
<path d="M955.7 734.114L1082.1 653.614L1082.4 653.714L1301.2 513.914C1339.4 489.514 1384.7 481.614 1428.7 491.514C1472.7 501.414 1510.1 528.014 1534.1 566.314L1639.1 734.114L1640.9 734.114L1535.4 565.514C1511.2 526.814 1473.4 500.014 1429 490.014C1384.6 480.014 1338.9 488.014 1300.4 512.614L1082.1 652.114L1081.8 652.014L952.9 734.114L955.7 734.114Z" fill="#7919FF"/>
<path d="M-235.2 734.114C-237.9 714.614 -237 694.614 -232.6 674.914C-222.7 630.914 -196 593.514 -157.4 569.414L63.4997 432.314L72.8997 426.514L292.2 286.814C330.4 262.414 375.7 254.514 419.7 264.414C463.7 274.314 501.1 300.914 525.1 339.214L661.8 557.714L661.4 557.614L766.6 725.814C768.4 728.614 770.2 731.314 772.2 733.914L774.1 733.914C771.9 731.014 769.8 728.114 767.9 725.014L664.5 560.114L664.9 560.214L526.3 338.614C502.1 299.914 464.3 273.114 419.9 263.114C375.5 253.114 329.8 261.114 291.3 285.714L71.9997 425.414L62.5996 431.214L-158.2 568.214C-197.1 592.514 -224 630.314 -234.1 674.614C-238.6 694.414 -239.4 714.514 -236.8 734.114L-235.2 734.114Z" fill="#7919FF"/>
<path d="M965.7 734.114L1077 663.214L1077.3 663.314L1293.3 525.514C1331.1 501.514 1375.9 493.614 1419.3 503.414C1462.6 513.214 1499.5 539.414 1523.2 577.214L1621.4 734.114L1623.2 734.114L1524.5 576.414C1500.6 538.314 1463.4 511.814 1419.7 501.914C1375.9 492.014 1330.7 499.914 1292.6 524.214L1077.2 661.714L1076.9 661.614L962.9 734.114L965.7 734.114Z" fill="#7919FF"/>
<path d="M-224.2 734.114C-225.5 717.614 -224.4 700.914 -220.7 684.314C-210.9 641.014 -184.6 604.014 -146.5 580.314L71.4997 444.714L80.7997 439.114L297.3 301.214C335.1 277.214 379.8 269.314 423.3 279.114C466.6 288.914 503.5 315.114 527.2 352.914L662 568.714L661.6 568.614L765.1 734.114L766.9 734.114C766.8 734.014 766.8 733.914 766.7 733.914L664.8 570.914L665.2 571.014L528.4 352.214C504.5 314.114 467.3 287.614 423.6 277.714C379.8 267.814 334.6 275.714 296.5 300.014L79.9997 437.914L70.6997 443.514L-147.3 579.114C-185.7 603.014 -212.2 640.314 -222.1 684.014C-225.9 700.714 -227 717.514 -225.7 734.114L-224.2 734.114Z" fill="#7919FF"/>
<path d="M-224.2 734.114C-225.5 717.614 -224.4 700.914 -220.7 684.314C-210.9 641.014 -184.6 604.014 -146.5 580.314L71.4997 444.714L80.7997 439.114L297.3 301.214C335.1 277.214 379.8 269.314 423.3 279.114C466.6 288.914 503.5 315.114 527.2 352.914L662 568.714L661.6 568.614L765.1 734.114L766.9 734.114C766.8 734.014 766.8 733.914 766.7 733.914L664.8 570.914L665.2 571.014L528.4 352.214C504.5 314.114 467.3 287.614 423.6 277.714C379.8 267.814 334.6 275.714 296.5 300.014L79.9997 437.914L70.6997 443.514L-147.3 579.114C-185.7 603.014 -212.2 640.314 -222.1 684.014C-225.9 700.714 -227 717.514 -225.7 734.114L-224.2 734.114Z" fill="#7919FF"/>
<path d="M965.7 734.114L1077 663.214L1077.3 663.314L1293.3 525.514C1331.1 501.514 1375.9 493.614 1419.3 503.414C1462.6 513.214 1499.5 539.414 1523.2 577.214L1621.4 734.114L1623.2 734.114L1524.5 576.414C1500.6 538.314 1463.4 511.814 1419.7 501.914C1375.9 492.014 1330.7 499.914 1292.6 524.214L1077.2 661.714L1076.9 661.614L962.9 734.114L965.7 734.114Z" fill="#7919FF"/>
<path d="M975.7 734.114L1071.8 672.914L1072.1 673.014L1285.5 536.914C1322.8 513.114 1367 505.414 1409.8 515.014C1452.6 524.714 1489 550.614 1512.3 587.914L1603.7 734.114L1605.5 734.114L1513.6 587.114C1490 549.414 1453.3 523.314 1410.1 513.514C1366.8 503.714 1322.3 511.614 1284.6 535.614L1071.7 671.414L1071.4 671.314L972.8 734.114L975.7 734.114Z" fill="#7919FF"/>
<path d="M-213 734.114C-213.4 720.714 -212.1 707.114 -209 693.714C-199.3 650.914 -173.3 614.514 -135.7 591.114L79.3997 457.314L88.5996 451.814L302.3 315.714C339.6 291.914 383.8 284.214 426.6 293.814C469.4 303.514 505.8 329.414 529.1 366.714L662.2 579.614L661.8 579.514L758.5 734.114L760.3 734.114L665.1 581.814L665.5 581.914L530.5 365.914C506.9 328.214 470.2 302.114 427 292.314C383.7 282.514 339.2 290.314 301.5 314.414L87.6996 450.514L78.4996 456.014L-136.6 589.914C-174.5 613.514 -200.8 650.214 -210.5 693.414C-213.6 706.914 -214.9 720.614 -214.5 734.114L-213 734.114Z" fill="#7919FF"/>
<path d="M975.7 734.114L1071.8 672.914L1072.1 673.014L1285.5 536.914C1322.8 513.114 1367 505.414 1409.8 515.014C1452.6 524.714 1489 550.614 1512.3 587.914L1603.7 734.114L1605.5 734.114L1513.6 587.114C1490 549.414 1453.3 523.314 1410.1 513.514C1366.8 503.714 1322.3 511.614 1284.6 535.614L1071.7 671.414L1071.4 671.314L972.8 734.114L975.7 734.114Z" fill="#7919FF"/>
<path d="M-213 734.114C-213.4 720.714 -212.1 707.114 -209 693.714C-199.3 650.914 -173.3 614.514 -135.7 591.114L79.3997 457.314L88.5996 451.814L302.3 315.714C339.6 291.914 383.8 284.214 426.6 293.814C469.4 303.514 505.8 329.414 529.1 366.714L662.2 579.614L661.8 579.514L758.5 734.114L760.3 734.114L665.1 581.814L665.5 581.914L530.5 365.914C506.9 328.214 470.2 302.114 427 292.314C383.7 282.514 339.2 290.314 301.5 314.414L87.6996 450.514L78.4996 456.014L-136.6 589.914C-174.5 613.514 -200.8 650.214 -210.5 693.414C-213.6 706.914 -214.9 720.614 -214.5 734.114L-213 734.114Z" fill="#7919FF"/>
<path d="M986.2 734.114L1066.9 682.714L1067 682.714L1277.8 548.414C1314.6 525.014 1358.1 517.314 1400.4 526.814C1442.7 536.314 1478.7 561.914 1501.8 598.814L1586.3 734.114L1588.1 734.114L1503 598.114C1479.7 560.914 1443.3 535.114 1400.7 525.514C1358 515.914 1314.1 523.614 1277 547.314L1066.8 681.314L1066.7 681.314L983.5 734.314L986.2 734.314L986.2 734.114Z" fill="#7919FF"/>
<path d="M-201.1 734.114C-200.8 723.914 -199.5 713.614 -197.2 703.514C-187.7 661.214 -162 625.214 -124.9 602.114L87.4996 470.114L96.4996 464.614L307.4 330.114C344.2 306.714 387.7 299.014 430 308.514C472.3 318.014 508.3 343.614 531.4 380.514L662.7 590.714L662.3 590.614L752 734.114L753.8 734.114L665.5 592.814L665.9 592.914L532.7 379.614C509.4 342.414 473 316.614 430.4 307.014C387.7 297.414 343.8 305.114 306.7 328.814L95.7996 463.314L86.7996 468.814L-125.6 600.814C-163.1 624.114 -189 660.514 -198.6 703.214C-200.9 713.514 -202.2 723.814 -202.5 734.214L-201.1 734.214L-201.1 734.114Z" fill="#7919FF"/>
<path d="M986.2 734.114L1066.9 682.714L1067 682.714L1277.8 548.414C1314.6 525.014 1358.1 517.314 1400.4 526.814C1442.7 536.314 1478.7 561.914 1501.8 598.814L1586.3 734.114L1588.1 734.114L1503 598.114C1479.7 560.914 1443.3 535.114 1400.7 525.514C1358 515.914 1314.1 523.614 1277 547.314L1066.8 681.314L1066.7 681.314L983.5 734.314L986.2 734.314L986.2 734.114Z" fill="#7919FF"/>
<path d="M-201.1 734.114C-200.8 723.914 -199.5 713.614 -197.2 703.514C-187.7 661.214 -162 625.214 -124.9 602.114L87.4996 470.114L96.4996 464.614L307.4 330.114C344.2 306.714 387.7 299.014 430 308.514C472.3 318.014 508.3 343.614 531.4 380.514L662.7 590.714L662.3 590.614L752 734.114L753.8 734.114L665.5 592.814L665.9 592.914L532.7 379.614C509.4 342.414 473 316.614 430.4 307.014C387.7 297.414 343.8 305.114 306.7 328.814L95.7996 463.314L86.7996 468.814L-125.6 600.814C-163.1 624.114 -189 660.514 -198.6 703.214C-200.9 713.514 -202.2 723.814 -202.5 734.214L-201.1 734.214L-201.1 734.114Z" fill="#7919FF"/>
<path d="M-188.7 734.114C-188.1 727.014 -187 719.814 -185.4 712.714C-176 671.014 -150.7 635.514 -114.1 612.714L95.4997 482.514L104.5 477.114L312.5 344.414C348.7 321.314 391.7 313.714 433.4 323.114C475.1 332.514 510.6 357.714 533.4 394.114L663 601.514L662.6 601.414L745.6 734.214L747.4 734.214L665.8 603.714L666.2 603.814L534.8 393.414C511.8 356.714 476 331.214 433.9 321.714C391.8 312.214 348.4 319.814 311.8 343.214L103.8 475.914L94.7997 481.314L-114.9 611.414C-151.8 634.414 -177.4 670.314 -186.9 712.414C-188.5 719.614 -189.6 726.914 -190.3 734.114L-188.7 734.114Z" fill="#7919FF"/>
<path d="M-188.7 734.114C-188.1 727.014 -187 719.814 -185.4 712.714C-176 671.014 -150.7 635.514 -114.1 612.714L95.4997 482.514L104.5 477.114L312.5 344.414C348.7 321.314 391.7 313.714 433.4 323.114C475.1 332.514 510.6 357.714 533.4 394.114L663 601.514L662.6 601.414L745.6 734.214L747.4 734.214L665.8 603.714L666.2 603.814L534.8 393.414C511.8 356.714 476 331.214 433.9 321.714C391.8 312.214 348.4 319.814 311.8 343.214L103.8 475.914L94.7997 481.314L-114.9 611.414C-151.8 634.414 -177.4 670.314 -186.9 712.414C-188.5 719.614 -189.6 726.914 -190.3 734.114L-188.7 734.114Z" fill="#7919FF"/>
<path d="M-175.9 734.114C-175.3 730.014 -174.6 725.914 -173.6 721.814C-164.3 680.714 -139.3 645.714 -103.3 623.314L103.5 494.714L112.3 489.414L317.6 358.514C353.4 335.714 395.9 328.314 437 337.614C478.1 346.914 513 371.714 535.5 407.614L663.4 612.214L663 612.114L739.3 734.214L741.1 734.214L666.2 614.414L666.6 614.514L536.8 406.814C514.2 370.614 478.8 345.514 437.4 336.214C395.8 326.814 353 334.314 316.8 357.314L111.5 488.114L102.7 493.414L-104.1 622.014C-140.5 644.714 -165.7 680.014 -175.1 721.514C-176 725.714 -176.8 729.914 -177.4 734.114L-175.9 734.114Z" fill="#7919FF"/>
<path d="M-175.9 734.114C-175.3 730.014 -174.6 725.914 -173.6 721.814C-164.3 680.714 -139.3 645.714 -103.3 623.314L103.5 494.714L112.3 489.414L317.6 358.514C353.4 335.714 395.9 328.314 437 337.614C478.1 346.914 513 371.714 535.5 407.614L663.4 612.214L663 612.114L739.3 734.214L741.1 734.214L666.2 614.414L666.6 614.514L536.8 406.814C514.2 370.614 478.8 345.514 437.4 336.214C395.8 326.814 353 334.314 316.8 357.314L111.5 488.114L102.7 493.414L-104.1 622.014C-140.5 644.714 -165.7 680.014 -175.1 721.514C-176 725.714 -176.8 729.914 -177.4 734.114L-175.9 734.114Z" fill="#7919FF"/>
<path d="M-162.4 734.114C-162.2 733.114 -162 732.214 -161.8 731.214C-152.6 690.714 -128 656.214 -92.4004 634.214L111.6 507.414L120.3 502.114L322.8 373.014C358.1 350.514 400 343.114 440.6 352.314C481.1 361.514 515.6 386.014 537.7 421.414L663.7 623.114L663.3 623.014L732.7 734.114L734.5 734.114L666.5 625.214L666.9 625.314L538.9 420.514C516.6 384.814 481.8 360.014 440.9 350.714C399.9 341.414 357.7 348.914 322 371.614L119.4 500.814L110.8 506.114L-93.2004 632.914C-129.1 655.114 -154 689.914 -163.3 730.814C-163.5 731.914 -163.8 733.014 -164 734.014L-162.4 734.014L-162.4 734.114Z" fill="#7919FF"/>
<path d="M-162.4 734.114C-162.2 733.114 -162 732.214 -161.8 731.214C-152.6 690.714 -128 656.214 -92.4004 634.214L111.6 507.414L120.3 502.114L322.8 373.014C358.1 350.514 400 343.114 440.6 352.314C481.1 361.514 515.6 386.014 537.7 421.414L663.7 623.114L663.3 623.014L732.7 734.114L734.5 734.114L666.5 625.214L666.9 625.314L538.9 420.514C516.6 384.814 481.8 360.014 440.9 350.714C399.9 341.414 357.7 348.914 322 371.614L119.4 500.814L110.8 506.114L-93.2004 632.914C-129.1 655.114 -154 689.914 -163.3 730.814C-163.5 731.914 -163.8 733.014 -164 734.014L-162.4 734.014L-162.4 734.114Z" fill="#7919FF"/>
<path d="M-148.4 734.114C-138.3 696.914 -114.8 665.414 -81.6003 644.814L119.5 519.814L128.1 514.614L327.6 387.414C362.4 365.214 403.7 357.914 443.8 367.014C483.8 376.014 517.8 400.214 539.6 435.114L663.9 634.114L663.5 634.014L726 734.114L727.8 734.114L666.6 636.214L667 636.314L540.8 434.314C518.8 399.114 484.5 374.614 444.1 365.514C403.6 356.314 361.9 363.714 326.8 386.114L127.4 513.314L118.8 518.514L-82.3004 643.514C-116 664.414 -139.8 696.414 -150 734.114L-148.4 734.114Z" fill="#7919FF"/>
<path d="M-148.4 734.114C-138.3 696.914 -114.8 665.414 -81.6003 644.814L119.5 519.814L128.1 514.614L327.6 387.414C362.4 365.214 403.7 357.914 443.8 367.014C483.8 376.014 517.8 400.214 539.6 435.114L663.9 634.114L663.5 634.014L726 734.114L727.8 734.114L666.6 636.214L667 636.314L540.8 434.314C518.8 399.114 484.5 374.614 444.1 365.514C403.6 356.314 361.9 363.714 326.8 386.114L127.4 513.314L118.8 518.514L-82.3004 643.514C-116 664.414 -139.8 696.414 -150 734.114L-148.4 734.114Z" fill="#7919FF"/>
<path d="M-133.8 734.114C-122.6 701.614 -100.7 674.214 -70.9004 655.714L127.4 532.514L135.8 527.414L332.6 401.914C367 380.014 407.7 372.914 447.3 381.814C486.7 390.714 520.1 414.614 541.6 448.914L664.1 645.014L663.7 644.914L719.5 734.114L721.3 734.114L666.9 647.214L667.3 647.314L542.9 448.114C521.3 413.414 487.4 389.414 447.7 380.314C407.8 371.214 366.6 378.414 331.9 400.614L135.1 526.114L126.7 531.214L-71.7004 654.514C-101.9 673.314 -124.1 701.214 -135.4 734.214L-133.8 734.214L-133.8 734.114Z" fill="#7919FF"/>
<path d="M-133.8 734.114C-122.6 701.614 -100.7 674.214 -70.9004 655.714L127.4 532.514L135.8 527.414L332.6 401.914C367 380.014 407.7 372.914 447.3 381.814C486.7 390.714 520.1 414.614 541.6 448.914L664.1 645.014L663.7 644.914L719.5 734.114L721.3 734.114L666.9 647.214L667.3 647.314L542.9 448.114C521.3 413.414 487.4 389.414 447.7 380.314C407.8 371.214 366.6 378.414 331.9 400.614L135.1 526.114L126.7 531.214L-71.7004 654.514C-101.9 673.314 -124.1 701.214 -135.4 734.214L-133.8 734.214L-133.8 734.114Z" fill="#7919FF"/>
<path d="M-118.2 734.114C-106.4 706.314 -86.3004 682.814 -60.0004 666.514L135.5 545.114L143.8 540.014L337.8 416.214C371.7 394.614 411.8 387.614 450.8 396.414C489.6 405.214 522.6 428.714 543.7 462.514L664.4 655.814L664 655.714L713 734.114L714.8 734.114L667.2 657.914L667.6 658.014L545 461.714C523.7 427.514 490.3 403.814 451.1 394.914C411.7 386.014 371.2 393.114 337 414.914L143 538.714L134.7 543.814L-60.8004 665.214C-87.6004 681.814 -108 705.814 -119.9 734.114L-118.2 734.114Z" fill="#7919FF"/>
<path d="M-118.2 734.114C-106.4 706.314 -86.3004 682.814 -60.0004 666.514L135.5 545.114L143.8 540.014L337.8 416.214C371.7 394.614 411.8 387.614 450.8 396.414C489.6 405.214 522.6 428.714 543.7 462.514L664.4 655.814L664 655.714L713 734.114L714.8 734.114L667.2 657.914L667.6 658.014L545 461.714C523.7 427.514 490.3 403.814 451.1 394.914C411.7 386.014 371.2 393.114 337 414.914L143 538.714L134.7 543.814L-60.8004 665.214C-87.6004 681.814 -108 705.814 -119.9 734.114L-118.2 734.114Z" fill="#7919FF"/>
<path d="M-101.9 734.114C-90.0004 710.914 -71.9004 691.214 -49.0004 677.014L143.7 557.214L152 552.214L343.3 430.314C376.6 409.114 416.2 402.214 454.6 410.814C492.9 419.514 525.5 442.614 546.4 476.014L665.5 666.514L665.1 666.414L707.5 734.214L709.3 734.214L668.4 668.714L668.8 668.814L547.8 475.214C526.7 441.514 493.8 418.114 455.1 409.414C416.3 400.614 376.4 407.614 342.7 429.114L151.1 551.014L142.8 556.014L-49.8004 675.714C-73.1004 690.214 -91.5003 710.414 -103.6 734.114L-101.9 734.114Z" fill="#7919FF"/>
<path d="M-101.9 734.114C-90.0004 710.914 -71.9004 691.214 -49.0004 677.014L143.7 557.214L152 552.214L343.3 430.314C376.6 409.114 416.2 402.214 454.6 410.814C492.9 419.514 525.5 442.614 546.4 476.014L665.5 666.514L665.1 666.414L707.5 734.214L709.3 734.214L668.4 668.714L668.8 668.814L547.8 475.214C526.7 441.514 493.8 418.114 455.1 409.414C416.3 400.614 376.4 407.614 342.7 429.114L151.1 551.014L142.8 556.014L-49.8004 675.714C-73.1004 690.214 -91.5003 710.414 -103.6 734.114L-101.9 734.114Z" fill="#7919FF"/>
<path d="M-84.8004 734.114C-73.3004 715.614 -57.5004 699.814 -38.3004 687.914L151.5 569.914L159.6 565.014L347.9 445.014C380.7 424.014 419.7 417.214 457.5 425.714C495.2 434.214 527.3 457.114 547.9 490.014L665.2 677.714L664.8 677.614L700.2 734.214L702 734.214L668.1 679.914L668.5 680.014L549.3 489.314C528.6 456.014 496.1 433.014 458 424.314C419.8 415.714 380.4 422.614 347.2 443.814L158.9 563.814L150.8 568.714L-39.0004 686.714C-58.7004 698.914 -74.8004 715.114 -86.5004 734.214L-84.8004 734.214L-84.8004 734.114Z" fill="#7919FF"/>
<path d="M-84.8004 734.114C-73.3004 715.614 -57.5004 699.814 -38.3004 687.914L151.5 569.914L159.6 565.014L347.9 445.014C380.7 424.014 419.7 417.214 457.5 425.714C495.2 434.214 527.3 457.114 547.9 490.014L665.2 677.714L664.8 677.614L700.2 734.214L702 734.214L668.1 679.914L668.5 680.014L549.3 489.314C528.6 456.014 496.1 433.014 458 424.314C419.8 415.714 380.4 422.614 347.2 443.814L158.9 563.814L150.8 568.714L-39.0004 686.714C-58.7004 698.914 -74.8004 715.114 -86.5004 734.214L-84.8004 734.214L-84.8004 734.114Z" fill="#7919FF"/>
<path d="M-66.3004 734.114C-55.9004 720.214 -42.8004 708.214 -27.5004 698.814L159.5 582.514L167.4 577.614L353.1 459.214C385.5 438.514 423.9 431.814 461.2 440.314C498.299 448.714 529.9 471.214 550.1 503.614L665.6 688.414L665.2 688.314L693.8 734.114L695.6 734.114L668.4 690.614L668.8 690.714L551.4 502.814C531 470.114 499.1 447.414 461.6 438.914C423.9 430.414 385.1 437.114 352.4 458.014L166.6 576.414L158.7 581.314L-28.3004 697.614C-44.1004 707.414 -57.5004 719.814 -68.2004 734.214L-66.3004 734.214L-66.3004 734.114Z" fill="#7919FF"/>
<path d="M-66.3004 734.114C-55.9004 720.214 -42.8004 708.214 -27.5004 698.814L159.5 582.514L167.4 577.614L353.1 459.214C385.5 438.514 423.9 431.814 461.2 440.314C498.299 448.714 529.9 471.214 550.1 503.614L665.6 688.414L665.2 688.314L693.8 734.114L695.6 734.114L668.4 690.614L668.8 690.714L551.4 502.814C531 470.114 499.1 447.414 461.6 438.914C423.9 430.414 385.1 437.114 352.4 458.014L166.6 576.414L158.7 581.314L-28.3004 697.614C-44.1004 707.414 -57.5004 719.814 -68.2004 734.214L-66.3004 734.214L-66.3004 734.114Z" fill="#7919FF"/>
<path d="M-46.4004 734.114C-37.8004 724.714 -27.8003 716.414 -16.6003 709.414L167.6 594.914L175.4 590.114L358.2 473.514C390.1 453.214 427.9 446.614 464.6 454.914C501.2 463.214 532.3 485.314 552.3 517.214L666 699.214L665.6 699.114L687.4 734.014L689.2 734.014L668.8 701.314L669.2 701.414L553.6 516.314C533.4 484.014 501.9 461.714 465 453.314C427.9 444.914 389.7 451.614 357.5 472.114L174.5 588.914L166.7 593.714L-17.4004 708.214C-29.1004 715.514 -39.5004 724.214 -48.4004 734.214L-46.4004 734.214L-46.4004 734.114Z" fill="#7919FF"/>
<path d="M-46.4004 734.114C-37.8004 724.714 -27.8003 716.414 -16.6003 709.414L167.6 594.914L175.4 590.114L358.2 473.514C390.1 453.214 427.9 446.614 464.6 454.914C501.2 463.214 532.3 485.314 552.3 517.214L666 699.214L665.6 699.114L687.4 734.014L689.2 734.014L668.8 701.314L669.2 701.414L553.6 516.314C533.4 484.014 501.9 461.714 465 453.314C427.9 444.914 389.7 451.614 357.5 472.114L174.5 588.914L166.7 593.714L-17.4004 708.214C-29.1004 715.514 -39.5004 724.214 -48.4004 734.214L-46.4004 734.214L-46.4004 734.114Z" fill="#7919FF"/>
<path d="M-24.4005 734.114C-18.7005 729.014 -12.5004 724.414 -5.80042 720.314L175.6 607.514L183.3 602.914L363.3 488.114C394.7 468.114 431.9 461.614 468 469.814C504 477.914 534.7 499.714 554.3 531.114L666.2 710.314L665.8 710.214L680.8 734.214L682.6 734.214L669 712.514L669.4 712.614L555.6 530.314C535.8 498.614 504.8 476.514 468.3 468.314C431.8 460.014 394.2 466.614 362.5 486.814L182.5 601.614L174.8 606.214L-6.70044 719.114C-13.9004 723.614 -20.6004 728.614 -26.8004 734.214L-24.4005 734.214L-24.4005 734.114Z" fill="#7919FF"/>
<path d="M-24.4005 734.114C-18.7005 729.014 -12.5004 724.414 -5.80042 720.314L175.6 607.514L183.3 602.914L363.3 488.114C394.7 468.114 431.9 461.614 468 469.814C504 477.914 534.7 499.714 554.3 531.114L666.2 710.314L665.8 710.214L680.8 734.214L682.6 734.214L669 712.514L669.4 712.614L555.6 530.314C535.8 498.614 504.8 476.514 468.3 468.314C431.8 460.014 394.2 466.614 362.5 486.814L182.5 601.614L174.8 606.214L-6.70044 719.114C-13.9004 723.614 -20.6004 728.614 -26.8004 734.214L-24.4005 734.214L-24.4005 734.114Z" fill="#7919FF"/>
<path d="M-0.0003668 734.114C1.59963 733.014 3.19966 731.914 4.89966 730.914L183.4 619.914L191 615.214L368.3 502.214C399.3 482.514 435.9 476.014 471.5 484.114C506.9 492.114 537 513.614 556.3 544.514L666.6 720.914L666.3 720.814L674.6 734.014L676.4 734.014L669.5 723.014L669.8 723.114L557.6 543.614C538.1 512.314 507.7 490.614 471.9 482.514C435.9 474.314 398.9 480.814 367.6 500.814L190.3 613.814L182.7 618.514L4.19965 729.514C1.89965 730.914 -0.400342 732.414 -2.60034 734.014L-0.0003668 734.014L-0.0003668 734.114Z" fill="#7919FF"/>
<path d="M-0.0003668 734.114C1.59963 733.014 3.19966 731.914 4.89966 730.914L183.4 619.914L191 615.214L368.3 502.214C399.3 482.514 435.9 476.014 471.5 484.114C506.9 492.114 537 513.614 556.3 544.514L666.6 720.914L666.3 720.814L674.6 734.014L676.4 734.014L669.5 723.014L669.8 723.114L557.6 543.614C538.1 512.314 507.7 490.614 471.9 482.514C435.9 474.314 398.9 480.814 367.6 500.814L190.3 613.814L182.7 618.514L4.19965 729.514C1.89965 730.914 -0.400342 732.414 -2.60034 734.014L-0.0003668 734.014L-0.0003668 734.114Z" fill="#7919FF"/>
<path d="M28.1996 734.114L191.5 632.614L198.9 628.114L373.4 516.914C403.9 497.514 439.9 491.214 474.9 499.114C509.7 507.014 539.4 528.114 558.3 558.514L666.8 732.114L666.5 732.014L667.8 734.114L669.8 734.114L559.5 557.614C540.3 526.814 510.4 505.514 475.1 497.514C439.7 489.514 403.2 495.914 372.4 515.514L198.1 626.814L190.7 631.314L25.3997 734.114L28.1996 734.114Z" fill="#7919FF"/>
<path d="M28.1996 734.114L191.5 632.614L198.9 628.114L373.4 516.914C403.9 497.514 439.9 491.214 474.9 499.114C509.7 507.014 539.4 528.114 558.3 558.514L666.8 732.114L666.5 732.014L667.8 734.114L669.8 734.114L559.5 557.614C540.3 526.814 510.4 505.514 475.1 497.514C439.7 489.514 403.2 495.914 372.4 515.514L198.1 626.814L190.7 631.314L25.3997 734.114L28.1996 734.114Z" fill="#7919FF"/>
<path d="M56.2996 734.114L199.4 645.114L206.8 640.714L378.4 531.314C408.3 512.214 443.8 506.014 478.2 513.814C512.5 521.614 541.8 542.314 560.5 572.314L661.7 734.114L663.5 734.114L561.9 571.514C543 541.214 513.4 520.214 478.7 512.314C443.9 504.414 408 510.714 377.8 530.014L206 639.514L198.6 643.914L53.3997 734.114L56.2996 734.114Z" fill="#7919FF"/>
<path d="M56.2996 734.114L199.4 645.114L206.8 640.714L378.4 531.314C408.3 512.214 443.8 506.014 478.2 513.814C512.5 521.614 541.8 542.314 560.5 572.314L661.7 734.114L663.5 734.114L561.9 571.514C543 541.214 513.4 520.214 478.7 512.314C443.9 504.414 408 510.714 377.8 530.014L206 639.514L198.6 643.914L53.3997 734.114L56.2996 734.114Z" fill="#7919FF"/>
</g>
</g>
<defs>
<linearGradient id="paint0_linear" x1="720" y1="0.00012207" x2="720" y2="529.464" gradientUnits="userSpaceOnUse">
<stop offset="0.5" stop-color="#111112"/>
<stop offset="1" stop-color="#111112" stop-opacity="0"/>
</linearGradient>
</defs>
</svg>
