<svg width="271" height="688" viewBox="0 0 271 688" fill="none" xmlns="http://www.w3.org/2000/svg">
<g clip-path="url(#clip0)">
<mask id="mask0" mask-type="alpha" maskUnits="userSpaceOnUse" x="-29" y="-58" width="297" height="843">
<path d="M-27.3 783.7H266.7V-56.3H-27.3V783.7Z" fill="#C4C4C4" stroke="url(#paint0_linear)" stroke-width="2"/>
</mask>
<g mask="url(#mask0)">
<path d="M267.7 0C268 0 268.2 0.0999756 268.4 0.299988C268.8 0.700012 268.8 1.29999 268.4 1.70001L63.2 200.6C23.7 238.8 2 289.7 2 343.8C2 397.9 23.7 448.7 63.2 487L268.4 685.8C268.8 686.2 268.8 686.8 268.4 687.2C268 687.6 267.4 687.6 267 687.2L61.8 488.4C21.9 449.8 0 398.4 0 343.8C0 289.2 21.9 237.8 61.8 199.2L267 0.299988C267.2 0.0999756 267.5 0 267.7 0Z" fill="url(#paint1_linear)"/>
<path d="M267.6 17.9C267.9 17.9 268.1 18 268.3 18.2C268.7 18.6 268.7 19.2 268.3 19.6L74.2 207.6C35.2 245.5 13.7 295.9 13.7 349.5C13.7 403.1 35.2 453.5 74.3 491.4L268.7 679.7C269.1 680.1 269.1 680.7 268.7 681.1C268.3 681.5 267.7 681.5 267.3 681.1L72.9 492.7C33.4 454.4 11.7 403.5 11.7 349.4C11.7 295.3 33.4 244.4 72.9 206.1L266.9 18.2C267.1 18 267.4 17.9 267.6 17.9Z" fill="url(#paint2_linear)"/>
<path d="M267.7 35.4C268 35.4 268.2 35.5 268.4 35.7C268.8 36.1 268.8 36.7 268.4 37.1L85.4 214.5C46.6 252.1 25.3 302 25.3 355.1C25.3 408.2 46.7 458.1 85.4 495.7L268.6 673.3C269 673.7 269 674.3 268.6 674.7C268.2 675.1 267.6 675.1 267.2 674.7L84 497.2C44.8 459.2 23.3 408.8 23.3 355.1C23.3 301.5 44.9 251 84 213L267 35.7C267.2 35.5 267.5 35.4 267.7 35.4Z" fill="url(#paint3_linear)"/>
<path d="M268 52.8C268.3 52.8 268.5 52.9 268.7 53.1C269.1 53.5 269.1 54.1 268.7 54.5L96.5 221.4C58.1 258.6 36.9 308.1 36.9 360.7C36.9 413.3 58.1 462.8 96.5 500L268.8 666.9C269.2 667.3 269.2 667.9 268.8 668.3C268.4 668.7 267.8 668.7 267.4 668.3L95.1 501.4C56.3 463.8 34.9 413.8 34.9 360.7C34.9 307.5 56.3 257.6 95.1 220L267.3 53.1C267.5 52.9 267.8 52.8 268 52.8Z" fill="url(#paint4_linear)"/>
<path d="M268.1 70.3C268.4 70.3 268.6 70.4 268.8 70.6C269.2 71 269.2 71.6 268.8 72L107.7 228.1C69.7 265 48.7 314 48.7 366.1C48.7 418.2 69.7 467.2 107.7 504.1L268.9 660.3C269.3 660.7 269.3 661.3 268.9 661.7C268.5 662.1 267.9 662.1 267.5 661.7L106.3 505.5C67.9 468.3 46.7 418.7 46.7 366.1C46.7 313.4 67.9 263.9 106.3 226.7L267.4 70.6C267.6 70.4 267.8 70.3 268.1 70.3Z" fill="url(#paint5_linear)"/>
<path d="M268.3 88C268.6 88 268.8 88.1 269 88.3C269.4 88.7 269.4 89.3 269 89.7L119 235C81.3 271.5 60.6 320 60.6 371.7C60.6 423.3 81.3 471.9 119 508.4L268.8 653.5C269.2 653.9 269.2 654.5 268.8 654.9C268.4 655.3 267.8 655.3 267.4 654.9L117.7 509.8C79.6 472.9 58.7 423.9 58.7 371.7C58.7 319.5 79.7 270.5 117.7 233.6L267.6 88.2C267.8 88 268.1 88 268.3 88Z" fill="url(#paint6_linear)"/>
<path d="M268.5 105.3C268.8 105.3 269 105.4 269.2 105.6C269.6 106 269.6 106.6 269.2 107L130 241.9C92.7 278.1 72.2 326.2 72.2 377.3C72.2 428.4 92.7 476.5 130 512.7L268.8 647.2C269.2 647.6 269.2 648.2 268.8 648.6C268.4 649 267.8 649 267.4 648.6L128.6 514.1C90.9 477.5 70.2 428.9 70.2 377.2C70.2 325.5 91 276.9 128.6 240.3L267.8 105.5C268 105.3 268.3 105.3 268.5 105.3Z" fill="url(#paint7_linear)"/>
<path d="M268.3 123.1C268.6 123.1 268.8 123.2 269 123.4C269.4 123.8 269.4 124.4 269 124.8L141.2 248.6C104.2 284.4 83.8 332.1 83.8 382.7C83.8 433.4 104.2 481 141.2 516.8L269.1 640.8C269.5 641.2 269.5 641.8 269.1 642.2C268.7 642.6 268.1 642.6 267.7 642.2L139.8 518.3C102.4 482.1 81.8 433.9 81.8 382.7C81.8 331.5 102.4 283.4 139.8 247.1L267.6 123.4C267.8 123.2 268 123.1 268.3 123.1Z" fill="url(#paint8_linear)"/>
<path d="M268.2 141.3C268.5 141.3 268.7 141.4 268.9 141.6C269.3 142 269.3 142.6 268.9 143L152.5 255.7C115.9 291.2 95.7 338.3 95.7 388.5C95.7 438.7 115.9 485.8 152.5 521.3L268.9 634.1C269.3 634.5 269.3 635.1 268.9 635.5C268.5 635.9 267.9 635.9 267.5 635.5L151.2 522.8C114.2 487 93.8 439.3 93.8 388.6C93.8 337.9 114.2 290.2 151.2 254.4L267.5 141.6C267.7 141.4 268 141.3 268.2 141.3Z" fill="url(#paint9_linear)"/>
<path d="M268.4 158.1C268.7 158.1 268.9 158.2 269.1 158.4C269.5 158.8 269.5 159.4 269.1 159.8L163.3 262.1C127 297.3 107.1 344 107.1 393.7C107.1 443.4 127.1 490.1 163.3 525.3L269.3 627.9C269.7 628.3 269.7 628.9 269.3 629.3C268.9 629.7 268.3 629.7 267.9 629.3L161.9 526.6C125.3 491.1 105.1 443.8 105.1 393.6C105.1 343.4 125.3 296.2 161.9 260.6L267.7 158.4C267.9 158.2 268.1 158.1 268.4 158.1Z" fill="url(#paint10_linear)"/>
<path d="M268.5 176C268.8 176 269 176.1 269.2 176.3C269.6 176.7 269.6 177.3 269.2 177.7L174.7 269.3C138.8 304.1 119.1 350.4 119.1 399.5C119.1 448.7 138.9 494.9 174.7 529.7L269.4 621.6C269.8 622 269.8 622.6 269.4 623C269 623.4 268.4 623.4 268 623L173.2 531.3C136.9 496.1 117 449.4 117 399.6C117 349.8 137 303.1 173.2 267.9L267.8 176.3C268 176.1 268.2 176 268.5 176Z" fill="url(#paint11_linear)"/>
<path d="M268.2 193.9C268.5 193.9 268.7 194 268.9 194.2C269.3 194.6 269.3 195.2 268.9 195.6L185.7 276.2C150.2 310.6 130.6 356.4 130.6 405.1C130.6 453.8 150.2 499.6 185.7 534L269.3 615C269.7 615.4 269.7 616 269.3 616.4C268.9 616.8 268.3 616.8 267.9 616.4L184.3 535.4C148.4 500.6 128.6 454.3 128.6 405C128.6 355.8 148.4 309.5 184.3 274.6L267.5 194.2C267.7 194 267.9 193.9 268.2 193.9Z" fill="url(#paint12_linear)"/>
<path d="M268.5 211.3C268.8 211.3 269 211.4 269.2 211.6C269.6 212 269.6 212.6 269.2 213L196.8 283.1C161.6 317.3 142.2 362.6 142.2 410.9C142.2 459.1 161.6 504.4 196.8 538.5L268.7 608.1C269.1 608.5 269.1 609.1 268.7 609.5C268.3 609.9 267.7 609.9 267.3 609.5L195.4 539.8C159.8 505.4 140.2 459.6 140.2 410.8C140.2 362 159.8 316.1 195.4 281.6L267.8 211.6C268 211.4 268.2 211.3 268.5 211.3Z" fill="url(#paint13_linear)"/>
<path d="M268.6 229.2C268.9 229.2 269.1 229.3 269.3 229.5C269.7 229.9 269.7 230.5 269.3 230.9L208.2 290.1C173.4 323.9 154.2 368.8 154.2 416.5C154.2 464.2 173.4 509.1 208.2 542.9L269.2 602C269.6 602.4 269.6 603 269.2 603.4C268.8 603.8 268.2 603.8 267.8 603.4L206.8 544.3C171.6 510.1 152.2 464.7 152.2 416.5C152.2 368.2 171.6 322.9 206.8 288.7L267.9 229.5C268.1 229.3 268.3 229.2 268.6 229.2Z" fill="url(#paint14_linear)"/>
<path d="M268.3 246.9C268.6 246.9 268.8 247 269 247.2C269.4 247.6 269.4 248.2 269 248.6L219.2 296.8C184.7 330.2 165.8 374.6 165.8 421.9C165.8 469.1 184.8 513.5 219.2 547L268.9 595C269.3 595.4 269.3 596 268.9 596.4C268.5 596.8 267.9 596.8 267.5 596.4L217.9 548.3C183 514.5 163.8 469.6 163.8 421.8C163.8 374 183 329.1 217.9 295.3L267.6 247.2C267.8 247 268.1 246.9 268.3 246.9Z" fill="url(#paint15_linear)"/>
<path d="M268.3 264.6C268.6 264.6 268.8 264.7 269 264.9C269.4 265.3 269.4 265.9 269 266.3L230.4 303.7C196.3 336.8 177.5 380.7 177.5 427.4C177.5 474.1 196.3 518.1 230.4 551.1L269.1 588.8C269.5 589.2 269.5 589.8 269.1 590.2C268.7 590.6 268.1 590.6 267.7 590.2L228.9 552.6C194.4 519.2 175.4 474.7 175.4 427.4C175.4 380.1 194.4 335.6 228.9 302.2L267.6 264.8C267.8 264.7 268 264.6 268.3 264.6Z" fill="url(#paint16_linear)"/>
<path d="M269 281.4C269.3 281.4 269.5 281.5 269.7 281.7C270.1 282.1 270.1 282.7 269.7 283.1L241.5 310.5C207.7 343.3 189.1 386.8 189.1 433.1C189.1 479.3 207.7 522.8 241.5 555.5L269.3 582.5C269.7 582.9 269.7 583.5 269.3 583.9C268.9 584.3 268.3 584.3 267.9 583.9L240.1 556.9C205.9 523.9 187.1 479.9 187.1 433.1C187.1 386.2 205.9 342.2 240.1 309L268.3 281.6C268.5 281.5 268.8 281.4 269 281.4Z" fill="url(#paint17_linear)"/>
<path d="M268.5 299.7C268.8 299.7 269 299.8 269.2 300C269.6 300.4 269.6 301 269.2 301.4L252.7 317.5C219.3 349.9 200.9 392.9 200.9 438.7C200.9 484.5 219.3 527.5 252.7 559.9L269.2 575.9C269.6 576.3 269.6 576.9 269.2 577.3C268.8 577.7 268.2 577.7 267.8 577.3L251.2 561.2C217.4 528.4 198.8 484.9 198.8 438.6C198.8 392.3 217.4 348.7 251.2 316L267.8 300C268 299.8 268.3 299.7 268.5 299.7Z" fill="url(#paint18_linear)"/>
<path d="M268.5 317.4C268.8 317.4 269 317.5 269.2 317.7C269.6 318.1 269.6 318.7 269.2 319.1L263.8 324.4C230.8 356.4 212.6 399 212.6 444.3C212.6 489.6 230.7 532.1 263.8 564.1L269.4 569.5C269.8 569.9 269.8 570.5 269.4 570.9C269 571.3 268.4 571.3 268 570.9L262.4 565.5C229 533.1 210.5 490 210.5 444.2C210.5 398.4 228.9 355.3 262.4 322.9L267.8 317.6C268 317.5 268.2 317.4 268.5 317.4Z" fill="url(#paint19_linear)"/>
<path d="M269.1 334.6C269.3 334.6 269.6 334.7 269.8 334.9C270.2 335.3 270.2 335.9 269.8 336.3C240.5 367.3 224.3 407.5 224.3 449.6C224.3 491.7 240.3 531.9 269.5 562.9C269.9 563.3 269.9 563.9 269.5 564.3C269.1 564.7 268.5 564.7 268.1 564.3C238.5 533 222.3 492.3 222.3 449.7C222.3 407.1 238.7 366.4 268.4 335.1C268.6 334.7 268.8 334.6 269.1 334.6Z" fill="url(#paint20_linear)"/>
<path d="M269.2 354.6C269.4 354.6 269.6 354.7 269.8 354.8C270.2 355.1 270.3 355.8 270 356.2C247.9 385 236.1 419.2 236.1 455.3C236.1 491.3 247.8 525.6 269.9 554.4C270.2 554.8 270.2 555.5 269.7 555.8C269.3 556.1 268.6 556.1 268.3 555.6C245.9 526.5 234.1 491.8 234.1 455.3C234.1 418.8 246 384.1 268.4 355C268.6 354.8 268.9 354.6 269.2 354.6Z" fill="url(#paint21_linear)"/>
<path d="M269 378.3C269.2 378.3 269.3 378.3 269.5 378.4C270 378.7 270.1 379.3 269.9 379.8C240.5 429.7 240.4 491.7 269.6 541.7C269.9 542.2 269.7 542.8 269.2 543.1C268.7 543.4 268.1 543.2 267.8 542.7C238.2 492.1 238.3 429.3 268.1 378.8C268.3 378.4 268.6 378.3 269 378.3Z" fill="url(#paint22_linear)"/>
<path d="M268.3 411C268.4 411 268.5 411 268.6 411.1C269.1 411.3 269.4 411.9 269.2 412.4C256.4 447.3 256.3 485.8 269.1 520.8C269.3 521.3 269 521.9 268.5 522.1C268 522.3 267.4 522 267.2 521.5C254.3 486.1 254.4 447.1 267.4 411.7C267.5 411.3 267.9 411 268.3 411Z" fill="url(#paint23_linear)"/>
</g>
</g>
<defs>
<linearGradient id="paint0_linear" x1="-27.2152" y1="363.68" x2="270.702" y2="363.68" gradientUnits="userSpaceOnUse">
<stop offset="0.4115" stop-color="#D91AFF"/>
<stop offset="1" stop-color="#1AA4FF"/>
</linearGradient>
<linearGradient id="paint1_linear" x1="134.325" y1="689.411" x2="134.325" y2="-1.92105" gradientUnits="userSpaceOnUse">
<stop stop-color="#32E685"/>
<stop offset="1" stop-color="#28B86A"/>
</linearGradient>
<linearGradient id="paint2_linear" x1="140.326" y1="683.245" x2="140.326" y2="16.046" gradientUnits="userSpaceOnUse">
<stop stop-color="#32E685"/>
<stop offset="1" stop-color="#28B86A"/>
</linearGradient>
<linearGradient id="paint3_linear" x1="146.077" y1="676.778" x2="146.077" y2="33.6128" gradientUnits="userSpaceOnUse">
<stop stop-color="#32E685"/>
<stop offset="1" stop-color="#28B86A"/>
</linearGradient>
<linearGradient id="paint4_linear" x1="151.978" y1="670.312" x2="151.978" y2="51.0793" gradientUnits="userSpaceOnUse">
<stop stop-color="#32E685"/>
<stop offset="1" stop-color="#28B86A"/>
</linearGradient>
<linearGradient id="paint5_linear" x1="157.929" y1="663.645" x2="157.929" y2="68.6466" gradientUnits="userSpaceOnUse">
<stop stop-color="#32E685"/>
<stop offset="1" stop-color="#28B86A"/>
</linearGradient>
<linearGradient id="paint6_linear" x1="163.98" y1="656.777" x2="163.98" y2="86.4151" gradientUnits="userSpaceOnUse">
<stop stop-color="#32E685"/>
<stop offset="1" stop-color="#28B86A"/>
</linearGradient>
<linearGradient id="paint7_linear" x1="169.831" y1="650.411" x2="169.831" y2="103.781" gradientUnits="userSpaceOnUse">
<stop stop-color="#32E685"/>
<stop offset="1" stop-color="#28B86A"/>
</linearGradient>
<linearGradient id="paint8_linear" x1="175.583" y1="643.944" x2="175.583" y2="121.649" gradientUnits="userSpaceOnUse">
<stop stop-color="#32E685"/>
<stop offset="1" stop-color="#28B86A"/>
</linearGradient>
<linearGradient id="paint9_linear" x1="181.484" y1="637.175" x2="181.484" y2="139.918" gradientUnits="userSpaceOnUse">
<stop stop-color="#32E685"/>
<stop offset="1" stop-color="#28B86A"/>
</linearGradient>
<linearGradient id="paint10_linear" x1="187.335" y1="630.911" x2="187.335" y2="156.782" gradientUnits="userSpaceOnUse">
<stop stop-color="#32E685"/>
<stop offset="1" stop-color="#28B86A"/>
</linearGradient>
<linearGradient id="paint11_linear" x1="193.336" y1="624.544" x2="193.336" y2="174.75" gradientUnits="userSpaceOnUse">
<stop stop-color="#32E685"/>
<stop offset="1" stop-color="#28B86A"/>
</linearGradient>
<linearGradient id="paint12_linear" x1="199.087" y1="617.875" x2="199.087" y2="192.719" gradientUnits="userSpaceOnUse">
<stop stop-color="#32E685"/>
<stop offset="1" stop-color="#28B86A"/>
</linearGradient>
<linearGradient id="paint13_linear" x1="204.838" y1="610.908" x2="204.838" y2="210.187" gradientUnits="userSpaceOnUse">
<stop stop-color="#32E685"/>
<stop offset="1" stop-color="#28B86A"/>
</linearGradient>
<linearGradient id="paint14_linear" x1="210.889" y1="604.741" x2="210.889" y2="228.154" gradientUnits="userSpaceOnUse">
<stop stop-color="#32E685"/>
<stop offset="1" stop-color="#28B86A"/>
</linearGradient>
<linearGradient id="paint15_linear" x1="216.54" y1="597.672" x2="216.54" y2="245.923" gradientUnits="userSpaceOnUse">
<stop stop-color="#32E685"/>
<stop offset="1" stop-color="#28B86A"/>
</linearGradient>
<linearGradient id="paint16_linear" x1="222.391" y1="591.406" x2="222.391" y2="263.689" gradientUnits="userSpaceOnUse">
<stop stop-color="#32E685"/>
<stop offset="1" stop-color="#28B86A"/>
</linearGradient>
<linearGradient id="paint17_linear" x1="228.542" y1="585.042" x2="228.542" y2="280.554" gradientUnits="userSpaceOnUse">
<stop stop-color="#32E685"/>
<stop offset="1" stop-color="#28B86A"/>
</linearGradient>
<linearGradient id="paint18_linear" x1="234.143" y1="578.373" x2="234.143" y2="298.923" gradientUnits="userSpaceOnUse">
<stop stop-color="#32E685"/>
<stop offset="1" stop-color="#28B86A"/>
</linearGradient>
<linearGradient id="paint19_linear" x1="240.094" y1="571.906" x2="240.094" y2="316.691" gradientUnits="userSpaceOnUse">
<stop stop-color="#32E685"/>
<stop offset="1" stop-color="#28B86A"/>
</linearGradient>
<linearGradient id="paint20_linear" x1="246.196" y1="565.239" x2="246.196" y2="333.957" gradientUnits="userSpaceOnUse">
<stop stop-color="#32E685"/>
<stop offset="1" stop-color="#28B86A"/>
</linearGradient>
<linearGradient id="paint21_linear" x1="252.134" y1="556.565" x2="252.134" y2="354.037" gradientUnits="userSpaceOnUse">
<stop stop-color="#32E685"/>
<stop offset="1" stop-color="#28B86A"/>
</linearGradient>
<linearGradient id="paint22_linear" x1="257.833" y1="543.7" x2="257.833" y2="377.839" gradientUnits="userSpaceOnUse">
<stop stop-color="#32E685"/>
<stop offset="1" stop-color="#28B86A"/>
</linearGradient>
<linearGradient id="paint23_linear" x1="263.424" y1="522.472" x2="263.424" y2="410.689" gradientUnits="userSpaceOnUse">
<stop stop-color="#32E685"/>
<stop offset="1" stop-color="#28B86A"/>
</linearGradient>
<clipPath id="clip0">
<rect width="270.2" height="687.5" fill="white" transform="translate(270.2 687.5) rotate(-180)"/>
</clipPath>
</defs>
</svg>
