<svg width="271" height="688" viewBox="0 0 271 688" fill="none" xmlns="http://www.w3.org/2000/svg">
<g clip-path="url(#clip0)">
<mask id="mask0" mask-type="alpha" maskUnits="userSpaceOnUse" x="2" y="-98" width="297" height="843">
<path d="M297.5 -96.2H3.5V743.8H297.5V-96.2Z" fill="#C4C4C4" stroke="url(#paint0_linear)" stroke-width="2"/>
</mask>
<g mask="url(#mask0)">
<path d="M2.5 687.5C2.2 687.5 2 687.4 1.8 687.2C1.4 686.8 1.4 686.2 1.8 685.8L207 486.9C246.5 448.7 268.2 397.8 268.2 343.7C268.2 289.6 246.5 238.8 207 200.5L1.8 1.7C1.4 1.3 1.4 0.7 1.8 0.3C2.2 -0.1 2.8 -0.1 3.2 0.3L208.4 199.1C248.3 237.7 270.2 289.1 270.2 343.7C270.2 398.3 248.3 449.7 208.4 488.3L3.2 687.2C3 687.4 2.7 687.5 2.5 687.5Z" fill="url(#paint1_linear)"/>
<path d="M2.59995 669.6C2.29995 669.6 2.09995 669.5 1.89995 669.3C1.49995 668.9 1.49995 668.3 1.89995 667.9L196 479.9C235 442 256.5 391.6 256.5 338C256.5 284.4 235 234 195.9 196.1L1.49995 7.79998C1.09995 7.39998 1.09995 6.79998 1.49995 6.39998C1.89995 5.99998 2.49995 5.99998 2.89995 6.39998L197.3 194.8C236.8 233.1 258.5 284 258.5 338.1C258.5 392.2 236.8 443.1 197.3 481.4L3.29995 669.3C3.09995 669.5 2.79995 669.6 2.59995 669.6Z" fill="url(#paint2_linear)"/>
<path d="M2.49993 652.1C2.19993 652.1 1.99993 652 1.79993 651.8C1.39993 651.4 1.39993 650.8 1.79993 650.4L184.8 473C223.6 435.4 244.9 385.5 244.9 332.4C244.9 279.3 223.5 229.4 184.8 191.8L1.59993 14.2C1.19993 13.8 1.19993 13.2 1.59993 12.8C1.99993 12.4 2.59993 12.4 2.99993 12.8L186.2 190.3C225.4 228.3 246.9 278.7 246.9 332.4C246.9 386 225.3 436.5 186.2 474.5L3.19993 651.8C2.99993 652 2.69993 652.1 2.49993 652.1Z" fill="url(#paint3_linear)"/>
<path d="M2.19998 634.7C1.89998 634.7 1.69998 634.6 1.49998 634.4C1.09998 634 1.09998 633.4 1.49998 633L173.7 466.1C212.1 428.9 233.3 379.4 233.3 326.8C233.3 274.2 212.1 224.7 173.7 187.5L1.39998 20.6C0.999976 20.2 0.999976 19.6 1.39998 19.2C1.79998 18.8 2.39998 18.8 2.79998 19.2L175.1 186.1C213.9 223.7 235.3 273.7 235.3 326.8C235.3 380 213.9 429.9 175.1 467.5L2.89998 634.4C2.69998 634.6 2.39998 634.7 2.19998 634.7Z" fill="url(#paint4_linear)"/>
<path d="M2.1 617.2C1.8 617.2 1.6 617.1 1.4 616.9C1 616.5 1 615.9 1.4 615.5L162.5 459.4C200.5 422.5 221.5 373.5 221.5 321.4C221.5 269.3 200.5 220.3 162.5 183.4L1.3 27.2C0.9 26.8 0.9 26.2 1.3 25.8C1.7 25.4 2.3 25.4 2.7 25.8L163.9 182C202.3 219.2 223.5 268.8 223.5 321.4C223.5 374.1 202.3 423.6 163.9 460.8L2.8 616.9C2.6 617.1 2.4 617.2 2.1 617.2Z" fill="url(#paint5_linear)"/>
<path d="M1.8999 599.5C1.5999 599.5 1.3999 599.4 1.1999 599.2C0.799902 598.8 0.799902 598.2 1.1999 597.8L151.2 452.5C188.9 416 209.6 367.5 209.6 315.8C209.6 264.2 188.9 215.6 151.2 179.1L1.3999 34.0001C0.999902 33.6001 0.999902 33 1.3999 32.6C1.7999 32.2 2.3999 32.2 2.7999 32.6L152.5 177.7C190.6 214.6 211.5 263.6 211.5 315.8C211.5 368 190.5 417 152.5 453.9L2.5999 599.3C2.3999 599.5 2.0999 599.5 1.8999 599.5Z" fill="url(#paint6_linear)"/>
<path d="M1.69995 582.2C1.39995 582.2 1.19995 582.1 0.999951 581.9C0.599951 581.5 0.599951 580.9 0.999951 580.5L140.2 445.6C177.5 409.4 198 361.3 198 310.2C198 259.1 177.5 211 140.2 174.8L1.39995 40.3C0.999951 39.9 0.999951 39.3 1.39995 38.9C1.79995 38.5 2.39995 38.5 2.79995 38.9L141.6 173.4C179.3 210 200 258.6 200 310.3C200 362 179.2 410.6 141.6 447.2L2.39995 582C2.19995 582.2 1.89995 582.2 1.69995 582.2Z" fill="url(#paint7_linear)"/>
<path d="M1.89993 564.4C1.59993 564.4 1.39993 564.3 1.19993 564.1C0.799927 563.7 0.799927 563.1 1.19993 562.7L129 438.9C166 403.1 186.4 355.4 186.4 304.8C186.4 254.1 166 206.5 129 170.7L1.09993 46.7C0.699927 46.3 0.699927 45.7 1.09993 45.3C1.49993 44.9 2.09993 44.9 2.49993 45.3L130.4 169.2C167.8 205.4 188.4 253.6 188.4 304.8C188.4 356 167.8 404.1 130.4 440.4L2.59993 564.1C2.39993 564.3 2.19993 564.4 1.89993 564.4Z" fill="url(#paint8_linear)"/>
<path d="M2 546.2C1.7 546.2 1.5 546.1 1.3 545.9C0.9 545.5 0.9 544.9 1.3 544.5L117.7 431.8C154.3 396.3 174.5 349.2 174.5 299C174.5 248.8 154.3 201.7 117.7 166.2L1.3 53.4C0.9 53 0.9 52.4 1.3 52C1.7 51.6 2.3 51.6 2.7 52L119 164.7C156 200.5 176.4 248.2 176.4 298.9C176.4 349.6 156 397.3 119 433.1L2.7 545.9C2.5 546.1 2.2 546.2 2 546.2Z" fill="url(#paint9_linear)"/>
<path d="M1.79998 529.4C1.49998 529.4 1.29998 529.3 1.09998 529.1C0.699976 528.7 0.699976 528.1 1.09998 527.7L106.9 425.4C143.2 390.2 163.1 343.5 163.1 293.8C163.1 244.1 143.1 197.4 106.9 162.2L0.899976 59.6C0.499976 59.2 0.499976 58.6 0.899976 58.2C1.29998 57.8 1.89998 57.8 2.29998 58.2L108.3 160.9C144.9 196.4 165.1 243.7 165.1 293.9C165.1 344.1 144.9 391.3 108.3 426.9L2.49998 529.1C2.29998 529.3 2.09998 529.4 1.79998 529.4Z" fill="url(#paint10_linear)"/>
<path d="M1.7 511.5C1.4 511.5 1.2 511.4 1 511.2C0.6 510.8 0.6 510.2 1 509.8L95.5 418.2C131.4 383.4 151.1 337.1 151.1 288C151.1 238.8 131.3 192.6 95.5 157.8L0.8 65.9C0.4 65.5 0.4 64.9 0.8 64.5C1.2 64.1 1.8 64.1 2.2 64.5L97 156.2C133.3 191.4 153.2 238.1 153.2 287.9C153.2 337.7 133.2 384.4 97 419.6L2.4 511.2C2.2 511.4 2 511.5 1.7 511.5Z" fill="url(#paint11_linear)"/>
<path d="M1.99998 493.6C1.69998 493.6 1.49998 493.5 1.29998 493.3C0.899976 492.9 0.899976 492.3 1.29998 491.9L84.5 411.3C120 376.9 139.6 331.1 139.6 282.4C139.6 233.7 120 187.9 84.5 153.5L0.899976 72.5001C0.499976 72.1001 0.499976 71.5 0.899976 71.1C1.29998 70.7 1.89998 70.7 2.29998 71.1L85.9 152.1C121.8 186.9 141.6 233.2 141.6 282.5C141.6 331.7 121.8 378 85.9 412.9L2.69998 493.3C2.49998 493.5 2.29998 493.6 1.99998 493.6Z" fill="url(#paint12_linear)"/>
<path d="M1.69995 476.2C1.39995 476.2 1.19995 476.1 0.999951 475.9C0.599951 475.5 0.599951 474.9 0.999951 474.5L73.4 404.4C108.6 370.2 128 324.9 128 276.6C128 228.4 108.6 183.1 73.4 149L1.49995 79.4C1.09995 79 1.09995 78.4 1.49995 78C1.89995 77.6 2.49995 77.6 2.89995 78L74.8 147.7C110.4 182.1 130 227.9 130 276.7C130 325.5 110.4 371.4 74.8 405.9L2.39995 475.9C2.19995 476.1 1.99995 476.2 1.69995 476.2Z" fill="url(#paint13_linear)"/>
<path d="M1.59998 458.3C1.29998 458.3 1.09998 458.2 0.899976 458C0.499976 457.6 0.499976 457 0.899976 456.6L62 397.4C96.8 363.6 116 318.7 116 271C116 223.3 96.8 178.4 62 144.6L0.999976 85.5001C0.599976 85.1001 0.599976 84.5 0.999976 84.1C1.39998 83.7 1.99998 83.7 2.39998 84.1L63.4 143.2C98.6 177.4 118 222.8 118 271C118 319.3 98.6 364.6 63.4 398.8L2.29998 458C2.09998 458.2 1.89998 458.3 1.59998 458.3Z" fill="url(#paint14_linear)"/>
<path d="M1.8999 440.6C1.5999 440.6 1.3999 440.5 1.1999 440.3C0.799902 439.9 0.799902 439.3 1.1999 438.9L50.9999 390.7C85.4999 357.3 104.4 312.9 104.4 265.6C104.4 218.4 85.3999 174 50.9999 140.5L1.2999 92.5001C0.899902 92.1001 0.899902 91.5 1.2999 91.1C1.6999 90.7 2.2999 90.7 2.6999 91.1L52.2999 139.2C87.1999 173 106.4 217.9 106.4 265.7C106.4 313.5 87.1999 358.4 52.2999 392.2L2.5999 440.3C2.3999 440.5 2.0999 440.6 1.8999 440.6Z" fill="url(#paint15_linear)"/>
<path d="M1.89993 422.9C1.59993 422.9 1.39993 422.8 1.19993 422.6C0.799927 422.2 0.799927 421.6 1.19993 421.2L39.7999 383.8C73.8999 350.7 92.6999 306.8 92.6999 260.1C92.6999 213.4 73.8999 169.4 39.7999 136.4L1.09993 98.7C0.699927 98.3 0.699927 97.7 1.09993 97.3C1.49993 96.9 2.09993 96.9 2.49993 97.3L41.2999 134.9C75.7999 168.3 94.7999 212.8 94.7999 260.1C94.7999 307.4 75.7999 351.9 41.2999 385.3L2.59993 422.7C2.39993 422.8 2.19993 422.9 1.89993 422.9Z" fill="url(#paint16_linear)"/>
<path d="M1.19995 406.1C0.899951 406.1 0.699951 406 0.499951 405.8C0.0999512 405.4 0.0999512 404.8 0.499951 404.4L28.7 377C62.5 344.2 81.1 300.7 81.1 254.4C81.1 208.2 62.5 164.7 28.7 132L0.899951 105C0.499951 104.6 0.499951 104 0.899951 103.6C1.29995 103.2 1.89995 103.2 2.29995 103.6L30.1 130.6C64.2999 163.6 83.1 207.6 83.1 254.4C83.1 301.3 64.2999 345.3 30.1 378.5L1.89995 405.9C1.69995 406 1.39995 406.1 1.19995 406.1Z" fill="url(#paint17_linear)"/>
<path d="M1.69995 387.8C1.39995 387.8 1.19995 387.7 0.999951 387.5C0.599951 387.1 0.599951 386.5 0.999951 386.1L17.5 370C50.9 337.6 69.3 294.6 69.3 248.8C69.3 203 50.9 160 17.5 127.6L0.999951 111.6C0.599951 111.2 0.599951 110.6 0.999951 110.2C1.39995 109.8 1.99995 109.8 2.39995 110.2L19 126.3C52.7999 159.1 71.4 202.6 71.4 248.9C71.4 295.2 52.7999 338.8 19 371.5L2.39995 387.5C2.19995 387.7 1.89995 387.8 1.69995 387.8Z" fill="url(#paint18_linear)"/>
<path d="M1.7 370.1C1.4 370.1 1.2 370 1 369.8C0.6 369.4 0.6 368.8 1 368.4L6.4 363.1C39.4 331.1 57.6 288.5 57.6 243.2C57.6 197.9 39.5 155.4 6.4 123.4L0.8 118C0.4 117.6 0.4 117 0.8 116.6C1.2 116.2 1.8 116.2 2.2 116.6L7.8 122C41.2 154.4 59.7 197.5 59.7 243.3C59.7 289.1 41.3 332.2 7.8 364.6L2.4 369.9C2.2 370 2 370.1 1.7 370.1Z" fill="url(#paint19_linear)"/>
<path d="M1.09998 352.9C0.899976 352.9 0.599976 352.8 0.399976 352.6C-2.44081e-05 352.2 -2.44081e-05 351.6 0.399976 351.2C29.7 320.2 45.9 280 45.9 237.9C45.9 195.8 29.9 155.6 0.699976 124.6C0.299976 124.2 0.299976 123.6 0.699976 123.2C1.09998 122.8 1.69998 122.8 2.09998 123.2C31.7 154.5 47.9 195.2 47.9 237.8C47.9 280.4 31.5 321.1 1.79998 352.4C1.59998 352.8 1.39998 352.9 1.09998 352.9Z" fill="url(#paint20_linear)"/>
<path d="M0.999946 332.9C0.799946 332.9 0.599946 332.8 0.399946 332.7C-5.3972e-05 332.4 -0.100054 331.7 0.199946 331.3C22.2999 302.5 34.0999 268.3 34.0999 232.2C34.0999 196.2 22.3999 161.9 0.299946 133.1C-5.3972e-05 132.7 -5.3972e-05 132 0.499946 131.7C0.899946 131.4 1.59995 131.4 1.89995 131.9C24.2999 161 36.0999 195.7 36.0999 232.2C36.0999 268.7 24.1999 303.4 1.79995 332.5C1.59995 332.7 1.29995 332.9 0.999946 332.9Z" fill="url(#paint21_linear)"/>
<path d="M1.19994 309.2C0.999944 309.2 0.899944 309.2 0.699944 309.1C0.199944 308.8 0.0999437 308.2 0.299944 307.7C29.6999 257.8 29.7999 195.8 0.599944 145.8C0.299944 145.3 0.499944 144.7 0.999944 144.4C1.49994 144.1 2.09994 144.3 2.39994 144.8C31.9999 195.4 31.8999 258.2 2.09994 308.7C1.89994 309.1 1.59994 309.2 1.19994 309.2Z" fill="url(#paint22_linear)"/>
<path d="M1.8999 276.5C1.7999 276.5 1.6999 276.5 1.5999 276.4C1.0999 276.2 0.799902 275.6 0.999902 275.1C13.7999 240.2 13.8999 201.7 1.0999 166.7C0.899902 166.2 1.1999 165.6 1.6999 165.4C2.1999 165.2 2.7999 165.5 2.9999 166C15.8999 201.4 15.7999 240.4 2.7999 275.8C2.6999 276.2 2.2999 276.5 1.8999 276.5Z" fill="url(#paint23_linear)"/>
</g>
</g>
<defs>
<linearGradient id="paint0_linear" x1="297.415" y1="323.82" x2="-0.501806" y2="323.82" gradientUnits="userSpaceOnUse">
<stop offset="0.4115" stop-color="#D91AFF"/>
<stop offset="1" stop-color="#1AA4FF"/>
</linearGradient>
<linearGradient id="paint1_linear" x1="135.875" y1="-1.91137" x2="135.875" y2="689.421" gradientUnits="userSpaceOnUse">
<stop stop-color="#D919FF"/>
<stop offset="1" stop-color="#7919FF"/>
</linearGradient>
<linearGradient id="paint2_linear" x1="129.874" y1="4.25533" x2="129.874" y2="671.454" gradientUnits="userSpaceOnUse">
<stop stop-color="#D919FF"/>
<stop offset="1" stop-color="#7919FF"/>
</linearGradient>
<linearGradient id="paint3_linear" x1="124.123" y1="10.7218" x2="124.123" y2="653.887" gradientUnits="userSpaceOnUse">
<stop stop-color="#D919FF"/>
<stop offset="1" stop-color="#7919FF"/>
</linearGradient>
<linearGradient id="paint4_linear" x1="118.222" y1="17.188" x2="118.222" y2="636.421" gradientUnits="userSpaceOnUse">
<stop stop-color="#D919FF"/>
<stop offset="1" stop-color="#7919FF"/>
</linearGradient>
<linearGradient id="paint5_linear" x1="112.271" y1="23.855" x2="112.271" y2="618.853" gradientUnits="userSpaceOnUse">
<stop stop-color="#D919FF"/>
<stop offset="1" stop-color="#7919FF"/>
</linearGradient>
<linearGradient id="paint6_linear" x1="106.22" y1="30.7231" x2="106.22" y2="601.085" gradientUnits="userSpaceOnUse">
<stop stop-color="#D919FF"/>
<stop offset="1" stop-color="#7919FF"/>
</linearGradient>
<linearGradient id="paint7_linear" x1="100.369" y1="37.0887" x2="100.369" y2="583.719" gradientUnits="userSpaceOnUse">
<stop stop-color="#D919FF"/>
<stop offset="1" stop-color="#7919FF"/>
</linearGradient>
<linearGradient id="paint8_linear" x1="94.6174" y1="43.556" x2="94.6174" y2="565.851" gradientUnits="userSpaceOnUse">
<stop stop-color="#D919FF"/>
<stop offset="1" stop-color="#7919FF"/>
</linearGradient>
<linearGradient id="paint9_linear" x1="88.7164" y1="50.3252" x2="88.7164" y2="547.582" gradientUnits="userSpaceOnUse">
<stop stop-color="#D919FF"/>
<stop offset="1" stop-color="#7919FF"/>
</linearGradient>
<linearGradient id="paint10_linear" x1="82.8653" y1="56.5892" x2="82.8653" y2="530.718" gradientUnits="userSpaceOnUse">
<stop stop-color="#D919FF"/>
<stop offset="1" stop-color="#7919FF"/>
</linearGradient>
<linearGradient id="paint11_linear" x1="76.8642" y1="62.9564" x2="76.8642" y2="512.75" gradientUnits="userSpaceOnUse">
<stop stop-color="#D919FF"/>
<stop offset="1" stop-color="#7919FF"/>
</linearGradient>
<linearGradient id="paint12_linear" x1="71.1131" y1="69.6246" x2="71.1131" y2="494.781" gradientUnits="userSpaceOnUse">
<stop stop-color="#D919FF"/>
<stop offset="1" stop-color="#7919FF"/>
</linearGradient>
<linearGradient id="paint13_linear" x1="65.362" y1="76.5921" x2="65.362" y2="477.313" gradientUnits="userSpaceOnUse">
<stop stop-color="#D919FF"/>
<stop offset="1" stop-color="#7919FF"/>
</linearGradient>
<linearGradient id="paint14_linear" x1="59.3109" y1="82.7589" x2="59.3109" y2="459.346" gradientUnits="userSpaceOnUse">
<stop stop-color="#D919FF"/>
<stop offset="1" stop-color="#7919FF"/>
</linearGradient>
<linearGradient id="paint15_linear" x1="53.6597" y1="89.8275" x2="53.6597" y2="441.577" gradientUnits="userSpaceOnUse">
<stop stop-color="#D919FF"/>
<stop offset="1" stop-color="#7919FF"/>
</linearGradient>
<linearGradient id="paint16_linear" x1="47.8087" y1="96.0939" x2="47.8087" y2="423.811" gradientUnits="userSpaceOnUse">
<stop stop-color="#D919FF"/>
<stop offset="1" stop-color="#7919FF"/>
</linearGradient>
<linearGradient id="paint17_linear" x1="41.6577" y1="102.458" x2="41.6577" y2="406.946" gradientUnits="userSpaceOnUse">
<stop stop-color="#D919FF"/>
<stop offset="1" stop-color="#7919FF"/>
</linearGradient>
<linearGradient id="paint18_linear" x1="36.0565" y1="109.127" x2="36.0565" y2="388.577" gradientUnits="userSpaceOnUse">
<stop stop-color="#D919FF"/>
<stop offset="1" stop-color="#7919FF"/>
</linearGradient>
<linearGradient id="paint19_linear" x1="30.1055" y1="115.594" x2="30.1055" y2="370.809" gradientUnits="userSpaceOnUse">
<stop stop-color="#D919FF"/>
<stop offset="1" stop-color="#7919FF"/>
</linearGradient>
<linearGradient id="paint20_linear" x1="24.0044" y1="122.261" x2="24.0044" y2="353.543" gradientUnits="userSpaceOnUse">
<stop stop-color="#D919FF"/>
<stop offset="1" stop-color="#7919FF"/>
</linearGradient>
<linearGradient id="paint21_linear" x1="18.0661" y1="130.935" x2="18.0661" y2="333.463" gradientUnits="userSpaceOnUse">
<stop stop-color="#D919FF"/>
<stop offset="1" stop-color="#7919FF"/>
</linearGradient>
<linearGradient id="paint22_linear" x1="12.3666" y1="143.8" x2="12.3666" y2="309.661" gradientUnits="userSpaceOnUse">
<stop stop-color="#D919FF"/>
<stop offset="1" stop-color="#7919FF"/>
</linearGradient>
<linearGradient id="paint23_linear" x1="6.77608" y1="165.028" x2="6.77608" y2="276.811" gradientUnits="userSpaceOnUse">
<stop stop-color="#D919FF"/>
<stop offset="1" stop-color="#7919FF"/>
</linearGradient>
<clipPath id="clip0">
<rect width="270.2" height="687.5" fill="white"/>
</clipPath>
</defs>
</svg>
