<svg width="271" height="688" viewBox="0 0 271 688" fill="none" xmlns="http://www.w3.org/2000/svg">
<g clip-path="url(#clip0)">
<mask id="mask0" mask-type="alpha" maskUnits="userSpaceOnUse" x="-29" y="-98" width="297" height="843">
<path d="M-27.3 -96.2H266.7V743.8H-27.3V-96.2Z" fill="#C4C4C4" stroke="url(#paint0_linear)" stroke-width="2"/>
</mask>
<g mask="url(#mask0)">
<path d="M267.7 687.5C268 687.5 268.2 687.4 268.4 687.2C268.8 686.8 268.8 686.2 268.4 685.8L63.2 486.9C23.7 448.7 1.99994 397.8 1.99994 343.7C1.99994 289.6 23.7 238.8 63.2 200.5L268.4 1.7C268.8 1.3 268.8 0.7 268.4 0.3C268 -0.1 267.4 -0.1 267 0.3L61.8 199.1C21.9 237.7 -6.10352e-05 289.1 -6.10352e-05 343.7C-6.10352e-05 398.3 21.9 449.7 61.8 488.3L267 687.2C267.2 687.4 267.5 687.5 267.7 687.5Z" fill="url(#paint1_linear)"/>
<path d="M267.6 669.6C267.9 669.6 268.1 669.5 268.3 669.3C268.7 668.9 268.7 668.3 268.3 667.9L74.2 479.9C35.2 442 13.7 391.6 13.7 338C13.7 284.4 35.2 234 74.3 196.1L268.7 7.79998C269.1 7.39998 269.1 6.79998 268.7 6.39998C268.3 5.99998 267.7 5.99998 267.3 6.39998L72.9 194.8C33.4 233.1 11.7 284 11.7 338.1C11.7 392.2 33.4 443.1 72.9 481.4L266.9 669.3C267.1 669.5 267.4 669.6 267.6 669.6Z" fill="url(#paint2_linear)"/>
<path d="M267.7 652.1C268 652.1 268.2 652 268.4 651.8C268.8 651.4 268.8 650.8 268.4 650.4L85.4 473C46.6 435.4 25.3 385.5 25.3 332.4C25.3 279.3 46.7 229.4 85.4 191.8L268.6 14.2C269 13.8 269 13.2 268.6 12.8C268.2 12.4 267.6 12.4 267.2 12.8L84 190.3C44.8 228.3 23.3 278.7 23.3 332.4C23.3 386 44.9 436.5 84 474.5L267 651.8C267.2 652 267.5 652.1 267.7 652.1Z" fill="url(#paint3_linear)"/>
<path d="M268 634.7C268.3 634.7 268.5 634.6 268.7 634.4C269.1 634 269.1 633.4 268.7 633L96.5 466.1C58.1 428.9 36.9 379.4 36.9 326.8C36.9 274.2 58.1 224.7 96.5 187.5L268.8 20.6C269.2 20.2 269.2 19.6 268.8 19.2C268.4 18.8 267.8 18.8 267.4 19.2L95.1 186.1C56.3 223.7 34.9 273.7 34.9 326.8C34.9 380 56.3 429.9 95.1 467.5L267.3 634.4C267.5 634.6 267.8 634.7 268 634.7Z" fill="url(#paint4_linear)"/>
<path d="M268.1 617.2C268.4 617.2 268.6 617.1 268.8 616.9C269.2 616.5 269.2 615.9 268.8 615.5L107.7 459.4C69.7 422.5 48.7 373.5 48.7 321.4C48.7 269.3 69.7 220.3 107.7 183.4L268.9 27.2C269.3 26.8 269.3 26.2 268.9 25.8C268.5 25.4 267.9 25.4 267.5 25.8L106.3 182C67.9 219.2 46.7 268.8 46.7 321.4C46.7 374.1 67.9 423.6 106.3 460.8L267.4 616.9C267.6 617.1 267.8 617.2 268.1 617.2Z" fill="url(#paint5_linear)"/>
<path d="M268.3 599.5C268.6 599.5 268.8 599.4 269 599.2C269.4 598.8 269.4 598.2 269 597.8L119 452.5C81.3 416 60.6 367.5 60.6 315.8C60.6 264.2 81.3 215.6 119 179.1L268.8 34.0001C269.2 33.6001 269.2 33 268.8 32.6C268.4 32.2 267.8 32.2 267.4 32.6L117.7 177.7C79.6 214.6 58.7 263.6 58.7 315.8C58.7 368 79.7 417 117.7 453.9L267.6 599.3C267.8 599.5 268.1 599.5 268.3 599.5Z" fill="url(#paint6_linear)"/>
<path d="M268.5 582.2C268.8 582.2 269 582.1 269.2 581.9C269.6 581.5 269.6 580.9 269.2 580.5L130 445.6C92.7 409.4 72.2 361.3 72.2 310.2C72.2 259.1 92.7 211 130 174.8L268.8 40.3C269.2 39.9 269.2 39.3 268.8 38.9C268.4 38.5 267.8 38.5 267.4 38.9L128.6 173.4C90.9 210 70.2 258.6 70.2 310.3C70.2 362 91 410.6 128.6 447.2L267.8 582C268 582.2 268.3 582.2 268.5 582.2Z" fill="url(#paint7_linear)"/>
<path d="M268.3 564.4C268.6 564.4 268.8 564.3 269 564.1C269.4 563.7 269.4 563.1 269 562.7L141.2 438.9C104.2 403.1 83.8 355.4 83.8 304.8C83.8 254.1 104.2 206.5 141.2 170.7L269.1 46.7C269.5 46.3 269.5 45.7 269.1 45.3C268.7 44.9 268.1 44.9 267.7 45.3L139.8 169.2C102.4 205.4 81.8 253.6 81.8 304.8C81.8 356 102.4 404.1 139.8 440.4L267.6 564.1C267.8 564.3 268 564.4 268.3 564.4Z" fill="url(#paint8_linear)"/>
<path d="M268.2 546.2C268.5 546.2 268.7 546.1 268.9 545.9C269.3 545.5 269.3 544.9 268.9 544.5L152.5 431.8C115.9 396.3 95.7 349.2 95.7 299C95.7 248.8 115.9 201.7 152.5 166.2L268.9 53.4C269.3 53 269.3 52.4 268.9 52C268.5 51.6 267.9 51.6 267.5 52L151.2 164.7C114.2 200.5 93.8 248.2 93.8 298.9C93.8 349.6 114.2 397.3 151.2 433.1L267.5 545.9C267.7 546.1 268 546.2 268.2 546.2Z" fill="url(#paint9_linear)"/>
<path d="M268.4 529.4C268.7 529.4 268.9 529.3 269.1 529.1C269.5 528.7 269.5 528.1 269.1 527.7L163.3 425.4C127 390.2 107.1 343.5 107.1 293.8C107.1 244.1 127.1 197.4 163.3 162.2L269.3 59.6C269.7 59.2 269.7 58.6 269.3 58.2C268.9 57.8 268.3 57.8 267.9 58.2L161.9 160.9C125.3 196.4 105.1 243.7 105.1 293.9C105.1 344.1 125.3 391.3 161.9 426.9L267.7 529.1C267.9 529.3 268.1 529.4 268.4 529.4Z" fill="url(#paint10_linear)"/>
<path d="M268.5 511.5C268.8 511.5 269 511.4 269.2 511.2C269.6 510.8 269.6 510.2 269.2 509.8L174.7 418.2C138.8 383.4 119.1 337.1 119.1 288C119.1 238.8 138.9 192.6 174.7 157.8L269.4 65.9C269.8 65.5 269.8 64.9 269.4 64.5C269 64.1 268.4 64.1 268 64.5L173.2 156.2C136.9 191.4 117 238.1 117 287.9C117 337.7 137 384.4 173.2 419.6L267.8 511.2C268 511.4 268.2 511.5 268.5 511.5Z" fill="url(#paint11_linear)"/>
<path d="M268.2 493.6C268.5 493.6 268.7 493.5 268.9 493.3C269.3 492.9 269.3 492.3 268.9 491.9L185.7 411.3C150.2 376.9 130.6 331.1 130.6 282.4C130.6 233.7 150.2 187.9 185.7 153.5L269.3 72.5001C269.7 72.1001 269.7 71.5 269.3 71.1C268.9 70.7 268.3 70.7 267.9 71.1L184.3 152.1C148.4 186.9 128.6 233.2 128.6 282.5C128.6 331.7 148.4 378 184.3 412.9L267.5 493.3C267.7 493.5 267.9 493.6 268.2 493.6Z" fill="url(#paint12_linear)"/>
<path d="M268.5 476.2C268.8 476.2 269 476.1 269.2 475.9C269.6 475.5 269.6 474.9 269.2 474.5L196.8 404.4C161.6 370.2 142.2 324.9 142.2 276.6C142.2 228.4 161.6 183.1 196.8 149L268.7 79.4C269.1 79 269.1 78.4 268.7 78C268.3 77.6 267.7 77.6 267.3 78L195.4 147.7C159.8 182.1 140.2 227.9 140.2 276.7C140.2 325.5 159.8 371.4 195.4 405.9L267.8 475.9C268 476.1 268.2 476.2 268.5 476.2Z" fill="url(#paint13_linear)"/>
<path d="M268.6 458.3C268.9 458.3 269.1 458.2 269.3 458C269.7 457.6 269.7 457 269.3 456.6L208.2 397.4C173.4 363.6 154.2 318.7 154.2 271C154.2 223.3 173.4 178.4 208.2 144.6L269.2 85.5001C269.6 85.1001 269.6 84.5 269.2 84.1C268.8 83.7 268.2 83.7 267.8 84.1L206.8 143.2C171.6 177.4 152.2 222.8 152.2 271C152.2 319.3 171.6 364.6 206.8 398.8L267.9 458C268.1 458.2 268.3 458.3 268.6 458.3Z" fill="url(#paint14_linear)"/>
<path d="M268.3 440.6C268.6 440.6 268.8 440.5 269 440.3C269.4 439.9 269.4 439.3 269 438.9L219.2 390.7C184.7 357.3 165.8 312.9 165.8 265.6C165.8 218.4 184.8 174 219.2 140.5L268.9 92.5001C269.3 92.1001 269.3 91.5 268.9 91.1C268.5 90.7 267.9 90.7 267.5 91.1L217.9 139.2C183 173 163.8 217.9 163.8 265.7C163.8 313.5 183 358.4 217.9 392.2L267.6 440.3C267.8 440.5 268.1 440.6 268.3 440.6Z" fill="url(#paint15_linear)"/>
<path d="M268.3 422.9C268.6 422.9 268.8 422.8 269 422.6C269.4 422.2 269.4 421.6 269 421.2L230.4 383.8C196.3 350.7 177.5 306.8 177.5 260.1C177.5 213.4 196.3 169.4 230.4 136.4L269.1 98.7C269.5 98.3 269.5 97.7 269.1 97.3C268.7 96.9 268.1 96.9 267.7 97.3L228.9 134.9C194.4 168.3 175.4 212.8 175.4 260.1C175.4 307.4 194.4 351.9 228.9 385.3L267.6 422.7C267.8 422.8 268 422.9 268.3 422.9Z" fill="url(#paint16_linear)"/>
<path d="M269 406.1C269.3 406.1 269.5 406 269.7 405.8C270.1 405.4 270.1 404.8 269.7 404.4L241.5 377C207.7 344.2 189.1 300.7 189.1 254.4C189.1 208.2 207.7 164.7 241.5 132L269.3 105C269.7 104.6 269.7 104 269.3 103.6C268.9 103.2 268.3 103.2 267.9 103.6L240.1 130.6C205.9 163.6 187.1 207.6 187.1 254.4C187.1 301.3 205.9 345.3 240.1 378.5L268.3 405.9C268.5 406 268.8 406.1 269 406.1Z" fill="url(#paint17_linear)"/>
<path d="M268.5 387.8C268.8 387.8 269 387.7 269.2 387.5C269.6 387.1 269.6 386.5 269.2 386.1L252.7 370C219.3 337.6 200.9 294.6 200.9 248.8C200.9 203 219.3 160 252.7 127.6L269.2 111.6C269.6 111.2 269.6 110.6 269.2 110.2C268.8 109.8 268.2 109.8 267.8 110.2L251.2 126.3C217.4 159.1 198.8 202.6 198.8 248.9C198.8 295.2 217.4 338.8 251.2 371.5L267.8 387.5C268 387.7 268.3 387.8 268.5 387.8Z" fill="url(#paint18_linear)"/>
<path d="M268.5 370.1C268.8 370.1 269 370 269.2 369.8C269.6 369.4 269.6 368.8 269.2 368.4L263.8 363.1C230.8 331.1 212.6 288.5 212.6 243.2C212.6 197.9 230.7 155.4 263.8 123.4L269.4 118C269.8 117.6 269.8 117 269.4 116.6C269 116.2 268.4 116.2 268 116.6L262.4 122C229 154.4 210.5 197.5 210.5 243.3C210.5 289.1 228.9 332.2 262.4 364.6L267.8 369.9C268 370 268.2 370.1 268.5 370.1Z" fill="url(#paint19_linear)"/>
<path d="M269.1 352.9C269.3 352.9 269.6 352.8 269.8 352.6C270.2 352.2 270.2 351.6 269.8 351.2C240.5 320.2 224.3 280 224.3 237.9C224.3 195.8 240.3 155.6 269.5 124.6C269.9 124.2 269.9 123.6 269.5 123.2C269.1 122.8 268.5 122.8 268.1 123.2C238.5 154.5 222.3 195.2 222.3 237.8C222.3 280.4 238.7 321.1 268.4 352.4C268.6 352.8 268.8 352.9 269.1 352.9Z" fill="url(#paint20_linear)"/>
<path d="M269.2 332.9C269.4 332.9 269.6 332.8 269.8 332.7C270.2 332.4 270.3 331.7 270 331.3C247.9 302.5 236.1 268.3 236.1 232.2C236.1 196.2 247.8 161.9 269.9 133.1C270.2 132.7 270.2 132 269.7 131.7C269.3 131.4 268.6 131.4 268.3 131.9C245.9 161 234.1 195.7 234.1 232.2C234.1 268.7 246 303.4 268.4 332.5C268.6 332.7 268.9 332.9 269.2 332.9Z" fill="url(#paint21_linear)"/>
<path d="M269 309.2C269.2 309.2 269.3 309.2 269.5 309.1C270 308.8 270.1 308.2 269.9 307.7C240.5 257.8 240.4 195.8 269.6 145.8C269.9 145.3 269.7 144.7 269.2 144.4C268.7 144.1 268.1 144.3 267.8 144.8C238.2 195.4 238.3 258.2 268.1 308.7C268.3 309.1 268.6 309.2 269 309.2Z" fill="url(#paint22_linear)"/>
<path d="M268.3 276.5C268.4 276.5 268.5 276.5 268.6 276.4C269.1 276.2 269.4 275.6 269.2 275.1C256.4 240.2 256.3 201.7 269.1 166.7C269.3 166.2 269 165.6 268.5 165.4C268 165.2 267.4 165.5 267.2 166C254.3 201.4 254.4 240.4 267.4 275.8C267.5 276.2 267.9 276.5 268.3 276.5Z" fill="url(#paint23_linear)"/>
</g>
</g>
<defs>
<linearGradient id="paint0_linear" x1="-27.2152" y1="323.82" x2="270.702" y2="323.82" gradientUnits="userSpaceOnUse">
<stop offset="0.4115" stop-color="#D91AFF"/>
<stop offset="1" stop-color="#1AA4FF"/>
</linearGradient>
<linearGradient id="paint1_linear" x1="134.325" y1="-1.91137" x2="134.325" y2="689.421" gradientUnits="userSpaceOnUse">
<stop offset="0.432292" stop-color="#FF6719"/>
<stop offset="1" stop-color="#FFD84C"/>
</linearGradient>
<linearGradient id="paint2_linear" x1="140.326" y1="4.25533" x2="140.326" y2="671.454" gradientUnits="userSpaceOnUse">
<stop offset="0.432292" stop-color="#FF6719"/>
<stop offset="1" stop-color="#FFD84C"/>
</linearGradient>
<linearGradient id="paint3_linear" x1="146.077" y1="10.7218" x2="146.077" y2="653.887" gradientUnits="userSpaceOnUse">
<stop offset="0.432292" stop-color="#FF6719"/>
<stop offset="1" stop-color="#FFD84C"/>
</linearGradient>
<linearGradient id="paint4_linear" x1="151.978" y1="17.188" x2="151.978" y2="636.421" gradientUnits="userSpaceOnUse">
<stop offset="0.432292" stop-color="#FF6719"/>
<stop offset="1" stop-color="#FFD84C"/>
</linearGradient>
<linearGradient id="paint5_linear" x1="157.929" y1="23.855" x2="157.929" y2="618.853" gradientUnits="userSpaceOnUse">
<stop offset="0.432292" stop-color="#FF6719"/>
<stop offset="1" stop-color="#FFD84C"/>
</linearGradient>
<linearGradient id="paint6_linear" x1="163.98" y1="30.7231" x2="163.98" y2="601.085" gradientUnits="userSpaceOnUse">
<stop offset="0.432292" stop-color="#FF6719"/>
<stop offset="1" stop-color="#FFD84C"/>
</linearGradient>
<linearGradient id="paint7_linear" x1="169.831" y1="37.0887" x2="169.831" y2="583.719" gradientUnits="userSpaceOnUse">
<stop offset="0.432292" stop-color="#FF6719"/>
<stop offset="1" stop-color="#FFD84C"/>
</linearGradient>
<linearGradient id="paint8_linear" x1="175.583" y1="43.556" x2="175.583" y2="565.851" gradientUnits="userSpaceOnUse">
<stop offset="0.432292" stop-color="#FF6719"/>
<stop offset="1" stop-color="#FFD84C"/>
</linearGradient>
<linearGradient id="paint9_linear" x1="181.484" y1="50.3252" x2="181.484" y2="547.582" gradientUnits="userSpaceOnUse">
<stop offset="0.432292" stop-color="#FF6719"/>
<stop offset="1" stop-color="#FFD84C"/>
</linearGradient>
<linearGradient id="paint10_linear" x1="187.335" y1="56.5892" x2="187.335" y2="530.718" gradientUnits="userSpaceOnUse">
<stop offset="0.432292" stop-color="#FF6719"/>
<stop offset="1" stop-color="#FFD84C"/>
</linearGradient>
<linearGradient id="paint11_linear" x1="193.336" y1="62.9564" x2="193.336" y2="512.75" gradientUnits="userSpaceOnUse">
<stop offset="0.432292" stop-color="#FF6719"/>
<stop offset="1" stop-color="#FFD84C"/>
</linearGradient>
<linearGradient id="paint12_linear" x1="199.087" y1="69.6246" x2="199.087" y2="494.781" gradientUnits="userSpaceOnUse">
<stop offset="0.432292" stop-color="#FF6719"/>
<stop offset="1" stop-color="#FFD84C"/>
</linearGradient>
<linearGradient id="paint13_linear" x1="204.838" y1="76.5921" x2="204.838" y2="477.313" gradientUnits="userSpaceOnUse">
<stop offset="0.432292" stop-color="#FF6719"/>
<stop offset="1" stop-color="#FFD84C"/>
</linearGradient>
<linearGradient id="paint14_linear" x1="210.889" y1="82.7589" x2="210.889" y2="459.346" gradientUnits="userSpaceOnUse">
<stop offset="0.432292" stop-color="#FF6719"/>
<stop offset="1" stop-color="#FFD84C"/>
</linearGradient>
<linearGradient id="paint15_linear" x1="216.54" y1="89.8275" x2="216.54" y2="441.577" gradientUnits="userSpaceOnUse">
<stop offset="0.432292" stop-color="#FF6719"/>
<stop offset="1" stop-color="#FFD84C"/>
</linearGradient>
<linearGradient id="paint16_linear" x1="222.391" y1="96.0939" x2="222.391" y2="423.811" gradientUnits="userSpaceOnUse">
<stop offset="0.432292" stop-color="#FF6719"/>
<stop offset="1" stop-color="#FFD84C"/>
</linearGradient>
<linearGradient id="paint17_linear" x1="228.542" y1="102.458" x2="228.542" y2="406.946" gradientUnits="userSpaceOnUse">
<stop offset="0.432292" stop-color="#FF6719"/>
<stop offset="1" stop-color="#FFD84C"/>
</linearGradient>
<linearGradient id="paint18_linear" x1="234.143" y1="109.127" x2="234.143" y2="388.577" gradientUnits="userSpaceOnUse">
<stop offset="0.432292" stop-color="#FF6719"/>
<stop offset="1" stop-color="#FFD84C"/>
</linearGradient>
<linearGradient id="paint19_linear" x1="240.094" y1="115.594" x2="240.094" y2="370.809" gradientUnits="userSpaceOnUse">
<stop offset="0.432292" stop-color="#FF6719"/>
<stop offset="1" stop-color="#FFD84C"/>
</linearGradient>
<linearGradient id="paint20_linear" x1="246.196" y1="122.261" x2="246.196" y2="353.543" gradientUnits="userSpaceOnUse">
<stop offset="0.432292" stop-color="#FF6719"/>
<stop offset="1" stop-color="#FFD84C"/>
</linearGradient>
<linearGradient id="paint21_linear" x1="252.134" y1="130.935" x2="252.134" y2="333.463" gradientUnits="userSpaceOnUse">
<stop offset="0.432292" stop-color="#FF6719"/>
<stop offset="1" stop-color="#FFD84C"/>
</linearGradient>
<linearGradient id="paint22_linear" x1="257.833" y1="143.8" x2="257.833" y2="309.661" gradientUnits="userSpaceOnUse">
<stop offset="0.432292" stop-color="#FF6719"/>
<stop offset="1" stop-color="#FFD84C"/>
</linearGradient>
<linearGradient id="paint23_linear" x1="263.424" y1="165.028" x2="263.424" y2="276.811" gradientUnits="userSpaceOnUse">
<stop offset="0.432292" stop-color="#FF6719"/>
<stop offset="1" stop-color="#FFD84C"/>
</linearGradient>
<clipPath id="clip0">
<rect width="270.2" height="687.5" fill="white" transform="matrix(-1 0 0 1 270.2 0)"/>
</clipPath>
</defs>
</svg>
