<svg width="295" height="533" viewBox="0 0 295 533" fill="none" xmlns="http://www.w3.org/2000/svg">
<mask id="mask0" mask-type="alpha" maskUnits="userSpaceOnUse" x="0" y="0" width="296" height="533">
<path d="M295 532H1V0.999939H295V532Z" fill="#C4C4C4" stroke="url(#paint0_linear)" stroke-width="2"/>
</mask>
<g mask="url(#mask0)">
<path d="M6.10352e-05 -155C-0.299939 -155 -0.499939 -154.9 -0.699939 -154.7C-1.09994 -154.3 -1.09994 -153.7 -0.699939 -153.3L204.5 45.6C244 83.8 265.7 134.7 265.7 188.8C265.7 242.9 244 293.7 204.5 332L-0.699939 530.8C-1.09994 531.2 -1.09994 531.8 -0.699939 532.2C-0.299939 532.6 0.300061 532.6 0.700061 532.2L205.9 333.4C245.8 294.8 267.7 243.4 267.7 188.8C267.7 134.2 245.8 82.8 205.9 44.2L0.700061 -154.7C0.500061 -154.9 0.200061 -155 6.10352e-05 -155Z" fill="url(#paint1_linear)"/>
<path d="M0.100073 -137.1C-0.199927 -137.1 -0.399927 -137 -0.599927 -136.8C-0.999927 -136.4 -0.999927 -135.8 -0.599927 -135.4L193.5 52.6C232.5 90.5 254 140.9 254 194.5C254 248.1 232.5 298.5 193.4 336.4L-0.999927 524.7C-1.39993 525.1 -1.39993 525.7 -0.999927 526.1C-0.599927 526.5 7.33137e-05 526.5 0.400073 526.1L194.8 337.7C234.3 299.4 256 248.5 256 194.4C256 140.3 234.3 89.4 194.8 51.1L0.800073 -136.8C0.600073 -137 0.300073 -137.1 0.100073 -137.1Z" fill="url(#paint2_linear)"/>
<path d="M7.92742e-05 -119.6C-0.299921 -119.6 -0.499921 -119.5 -0.699921 -119.3C-1.09992 -118.9 -1.09992 -118.3 -0.699921 -117.9L182.3 59.5C221.1 97.1 242.4 147 242.4 200.1C242.4 253.2 221 303.1 182.3 340.7L-0.899921 518.3C-1.29992 518.7 -1.29992 519.3 -0.899921 519.7C-0.499921 520.1 0.100079 520.1 0.500079 519.7L183.7 342.2C222.9 304.2 244.4 253.8 244.4 200.1C244.4 146.5 222.8 96 183.7 58L0.700079 -119.3C0.500079 -119.5 0.200079 -119.6 7.92742e-05 -119.6Z" fill="url(#paint3_linear)"/>
<path d="M-0.299933 -102.2C-0.599933 -102.2 -0.799933 -102.1 -0.999933 -101.9C-1.39993 -101.5 -1.39993 -100.9 -0.999933 -100.5L171.2 66.4C209.6 103.6 230.8 153.1 230.8 205.7C230.8 258.3 209.6 307.8 171.2 345L-1.09993 511.9C-1.49993 512.3 -1.49993 512.9 -1.09993 513.3C-0.699933 513.7 -0.0999329 513.7 0.300067 513.3L172.6 346.4C211.4 308.8 232.8 258.8 232.8 205.7C232.8 152.5 211.4 102.6 172.6 65L0.400067 -101.9C0.200067 -102.1 -0.0999328 -102.2 -0.299933 -102.2Z" fill="url(#paint4_linear)"/>
<path d="M-0.399939 -84.7C-0.699939 -84.7 -0.899939 -84.6 -1.09994 -84.4C-1.49994 -84 -1.49994 -83.4 -1.09994 -83L160 73.1C198 110 219 159 219 211.1C219 263.2 198 312.2 160 349.1L-1.19994 505.3C-1.59994 505.7 -1.59994 506.3 -1.19994 506.7C-0.799939 507.1 -0.199939 507.1 0.200061 506.7L161.4 350.5C199.8 313.3 221 263.7 221 211.1C221 158.4 199.8 108.9 161.4 71.7L0.300061 -84.4C0.100061 -84.6 -0.0999391 -84.7 -0.399939 -84.7Z" fill="url(#paint5_linear)"/>
<path d="M-0.599945 -67C-0.899945 -67 -1.09995 -66.9 -1.29995 -66.7C-1.69995 -66.3 -1.69995 -65.7 -1.29995 -65.3L148.7 80C186.4 116.5 207.1 165 207.1 216.7C207.1 268.3 186.4 316.9 148.7 353.4L-1.09995 498.5C-1.49995 498.9 -1.49995 499.5 -1.09995 499.9C-0.699945 500.3 -0.0999452 500.3 0.300055 499.9L150 354.8C188.1 317.9 209 268.9 209 216.7C209 164.5 188 115.5 150 78.6L0.100055 -66.8C-0.0999453 -67 -0.399945 -67 -0.599945 -67Z" fill="url(#paint6_linear)"/>
<path d="M-0.799927 -49.7C-1.09993 -49.7 -1.29993 -49.6001 -1.49993 -49.4001C-1.89993 -49 -1.89993 -48.4001 -1.49993 -48L137.7 86.9C175 123.1 195.5 171.2 195.5 222.3C195.5 273.4 175 321.5 137.7 357.7L-1.09993 492.2C-1.49993 492.6 -1.49993 493.2 -1.09993 493.6C-0.699927 494 -0.0999268 494 0.300073 493.6L139.1 359.1C176.8 322.5 197.5 273.9 197.5 222.2C197.5 170.5 176.7 121.9 139.1 85.3L-0.0999267 -49.5C-0.299927 -49.7 -0.599927 -49.7 -0.799927 -49.7Z" fill="url(#paint7_linear)"/>
<path d="M-0.599921 -31.9C-0.899921 -31.9 -1.09992 -31.8 -1.29992 -31.6C-1.69992 -31.2 -1.69992 -30.6 -1.29992 -30.2L126.5 93.6C163.5 129.4 183.9 177.1 183.9 227.7C183.9 278.4 163.5 326 126.5 361.8L-1.39992 485.8C-1.79992 486.2 -1.79992 486.8 -1.39992 487.2C-0.999921 487.6 -0.399921 487.6 7.92742e-05 487.2L127.9 363.3C165.3 327.1 185.9 278.9 185.9 227.7C185.9 176.5 165.3 128.4 127.9 92.1L0.100079 -31.6C-0.0999209 -31.8 -0.299921 -31.9 -0.599921 -31.9Z" fill="url(#paint8_linear)"/>
<path d="M-0.499939 -13.7C-0.799939 -13.7 -0.999939 -13.6 -1.19994 -13.4C-1.59994 -13 -1.59994 -12.4 -1.19994 -12L115.2 100.7C151.8 136.2 172 183.3 172 233.5C172 283.7 151.8 330.8 115.2 366.3L-1.19994 479.1C-1.59994 479.5 -1.59994 480.1 -1.19994 480.5C-0.799939 480.9 -0.199939 480.9 0.200061 480.5L116.5 367.8C153.5 332 173.9 284.3 173.9 233.6C173.9 182.9 153.5 135.2 116.5 99.4L0.200061 -13.4C6.10352e-05 -13.6 -0.299939 -13.7 -0.499939 -13.7Z" fill="url(#paint9_linear)"/>
<path d="M-0.699933 3.09998C-0.999933 3.09998 -1.19993 3.20001 -1.39993 3.40002C-1.79993 3.80002 -1.79993 4.39999 -1.39993 4.79999L104.4 107.1C140.7 142.3 160.6 189 160.6 238.7C160.6 288.4 140.6 335.1 104.4 370.3L-1.59993 472.9C-1.99993 473.3 -1.99993 473.9 -1.59993 474.3C-1.19993 474.7 -0.599933 474.7 -0.199933 474.3L105.8 371.6C142.4 336.1 162.6 288.8 162.6 238.6C162.6 188.4 142.4 141.2 105.8 105.6L6.71148e-05 3.40002C-0.199933 3.20001 -0.399933 3.09998 -0.699933 3.09998Z" fill="url(#paint10_linear)"/>
<path d="M-0.799939 21C-1.09994 21 -1.29994 21.1 -1.49994 21.3C-1.89994 21.7 -1.89994 22.3 -1.49994 22.7L93.0001 114.3C128.9 149.1 148.6 195.4 148.6 244.5C148.6 293.7 128.8 339.9 93.0001 374.7L-1.69994 466.6C-2.09994 467 -2.09994 467.6 -1.69994 468C-1.29994 468.4 -0.699939 468.4 -0.299939 468L94.5001 376.3C130.8 341.1 150.7 294.4 150.7 244.6C150.7 194.8 130.7 148.1 94.5001 112.9L-0.0999389 21.3C-0.299939 21.1 -0.499939 21 -0.799939 21Z" fill="url(#paint11_linear)"/>
<path d="M-0.499933 38.9C-0.799933 38.9 -0.999933 39 -1.19993 39.2C-1.59993 39.6 -1.59993 40.2 -1.19993 40.6L82.0001 121.2C117.5 155.6 137.1 201.4 137.1 250.1C137.1 298.8 117.5 344.6 82.0001 379L-1.59993 460C-1.99993 460.4 -1.99993 461 -1.59993 461.4C-1.19993 461.8 -0.599933 461.8 -0.199933 461.4L83.4001 380.4C119.3 345.6 139.1 299.3 139.1 250C139.1 200.8 119.3 154.5 83.4001 119.6L0.200067 39.2C6.7234e-05 39 -0.199933 38.9 -0.499933 38.9Z" fill="url(#paint12_linear)"/>
<path d="M-0.799927 56.3C-1.09993 56.3 -1.29993 56.4 -1.49993 56.6C-1.89993 57 -1.89993 57.6 -1.49993 58L70.9001 128.1C106.1 162.3 125.5 207.6 125.5 255.9C125.5 304.1 106.1 349.4 70.9001 383.5L-0.999927 453.1C-1.39993 453.5 -1.39993 454.1 -0.999927 454.5C-0.599927 454.9 7.33137e-05 454.9 0.400073 454.5L72.3001 384.8C107.9 350.4 127.5 304.6 127.5 255.8C127.5 207 107.9 161.1 72.3001 126.6L-0.0999267 56.6C-0.299927 56.4 -0.499927 56.3 -0.799927 56.3Z" fill="url(#paint13_linear)"/>
<path d="M-0.899933 74.2C-1.19993 74.2 -1.39993 74.3 -1.59993 74.5C-1.99993 74.9 -1.99993 75.5 -1.59993 75.9L59.5001 135.1C94.3001 168.9 113.5 213.8 113.5 261.5C113.5 309.2 94.3001 354.1 59.5001 387.9L-1.49993 447C-1.89993 447.4 -1.89993 448 -1.49993 448.4C-1.09993 448.8 -0.499933 448.8 -0.0999328 448.4L60.9001 389.3C96.1001 355.1 115.5 309.7 115.5 261.5C115.5 213.2 96.1001 167.9 60.9001 133.7L-0.199933 74.5C-0.399933 74.3 -0.599933 74.2 -0.899933 74.2Z" fill="url(#paint14_linear)"/>
<path d="M-0.599945 91.9C-0.899945 91.9 -1.09995 92 -1.29995 92.2C-1.69995 92.6 -1.69995 93.2 -1.29995 93.6L48.5001 141.8C83.0001 175.2 101.9 219.6 101.9 266.9C101.9 314.1 82.9001 358.5 48.5001 392L-1.19995 440C-1.59995 440.4 -1.59995 441 -1.19995 441.4C-0.799945 441.8 -0.199945 441.8 0.200055 441.4L49.8001 393.3C84.7001 359.5 103.9 314.6 103.9 266.8C103.9 219 84.7001 174.1 49.8001 140.3L0.100055 92.2C-0.0999453 92 -0.399945 91.9 -0.599945 91.9Z" fill="url(#paint15_linear)"/>
<path d="M-0.599921 109.6C-0.899921 109.6 -1.09992 109.7 -1.29992 109.9C-1.69992 110.3 -1.69992 110.9 -1.29992 111.3L37.3001 148.7C71.4001 181.8 90.2001 225.7 90.2001 272.4C90.2001 319.1 71.4001 363.1 37.3001 396.1L-1.39992 433.8C-1.79992 434.2 -1.79992 434.8 -1.39992 435.2C-0.999921 435.6 -0.399921 435.6 7.92742e-05 435.2L38.8001 397.6C73.3001 364.2 92.3001 319.7 92.3001 272.4C92.3001 225.1 73.3001 180.6 38.8001 147.2L0.100079 109.8C-0.0999209 109.7 -0.299921 109.6 -0.599921 109.6Z" fill="url(#paint16_linear)"/>
<path d="M-1.29993 126.4C-1.59993 126.4 -1.79993 126.5 -1.99993 126.7C-2.39993 127.1 -2.39993 127.7 -1.99993 128.1L26.2001 155.5C60.0001 188.3 78.6001 231.8 78.6001 278.1C78.6001 324.3 60.0001 367.8 26.2001 400.5L-1.59993 427.5C-1.99993 427.9 -1.99993 428.5 -1.59993 428.9C-1.19993 429.3 -0.599927 429.3 -0.199927 428.9L27.6001 401.9C61.8001 368.9 80.6001 324.9 80.6001 278.1C80.6001 231.2 61.8001 187.2 27.6001 154L-0.599927 126.6C-0.799927 126.5 -1.09993 126.4 -1.29993 126.4Z" fill="url(#paint17_linear)"/>
<path d="M-0.799927 144.7C-1.09993 144.7 -1.29993 144.8 -1.49993 145C-1.89993 145.4 -1.89993 146 -1.49993 146.4L15.0001 162.5C48.4001 194.9 66.8001 237.9 66.8001 283.7C66.8001 329.5 48.4001 372.5 15.0001 404.9L-1.49993 420.9C-1.89993 421.3 -1.89993 421.9 -1.49993 422.3C-1.09993 422.7 -0.499927 422.7 -0.0999267 422.3L16.5001 406.2C50.3001 373.4 68.9001 329.9 68.9001 283.6C68.9001 237.3 50.3001 193.7 16.5001 161L-0.0999267 145C-0.299927 144.8 -0.599927 144.7 -0.799927 144.7Z" fill="url(#paint18_linear)"/>
<path d="M-0.799939 162.4C-1.09994 162.4 -1.29994 162.5 -1.49994 162.7C-1.89994 163.1 -1.89994 163.7 -1.49994 164.1L3.90006 169.4C36.9001 201.4 55.1001 244 55.1001 289.3C55.1001 334.6 37.0001 377.1 3.90006 409.1L-1.69994 414.5C-2.09994 414.9 -2.09994 415.5 -1.69994 415.9C-1.29994 416.3 -0.699939 416.3 -0.299939 415.9L5.30006 410.5C38.7001 378.1 57.2001 335 57.2001 289.2C57.2001 243.4 38.8001 200.3 5.30006 167.9L-0.0999389 162.6C-0.299939 162.5 -0.499939 162.4 -0.799939 162.4Z" fill="url(#paint19_linear)"/>
<path d="M-1.39993 179.6C-1.59993 179.6 -1.89993 179.7 -2.09993 179.9C-2.49993 180.3 -2.49993 180.9 -2.09993 181.3C27.2001 212.3 43.4001 252.5 43.4001 294.6C43.4001 336.7 27.4001 376.9 -1.79993 407.9C-2.19993 408.3 -2.19993 408.9 -1.79993 409.3C-1.39993 409.7 -0.799933 409.7 -0.399933 409.3C29.2001 378 45.4001 337.3 45.4001 294.7C45.4001 252.1 29.0001 211.4 -0.699933 180.1C-0.899933 179.7 -1.09993 179.6 -1.39993 179.6Z" fill="url(#paint20_linear)"/>
<path d="M-1.49993 199.6C-1.69993 199.6 -1.89993 199.7 -2.09993 199.8C-2.49993 200.1 -2.59993 200.8 -2.29993 201.2C19.8001 230 31.6001 264.2 31.6001 300.3C31.6001 336.3 19.9001 370.6 -2.19993 399.4C-2.49993 399.8 -2.49993 400.5 -1.99993 400.8C-1.59993 401.1 -0.899932 401.1 -0.599932 400.6C21.8001 371.5 33.6001 336.8 33.6001 300.3C33.6001 263.8 21.7001 229.1 -0.699932 200C-0.899932 199.8 -1.19993 199.6 -1.49993 199.6Z" fill="url(#paint21_linear)"/>
<path d="M-1.29993 223.3C-1.49993 223.3 -1.59993 223.3 -1.79993 223.4C-2.29993 223.7 -2.39993 224.3 -2.19993 224.8C27.2001 274.7 27.3001 336.7 -1.89993 386.7C-2.19993 387.2 -1.99993 387.8 -1.49993 388.1C-0.999934 388.4 -0.399934 388.2 -0.0999341 387.7C29.5001 337.1 29.4001 274.3 -0.399934 223.8C-0.599934 223.4 -0.899934 223.3 -1.29993 223.3Z" fill="url(#paint22_linear)"/>
<path d="M-0.599945 256C-0.699945 256 -0.799945 256 -0.899945 256.1C-1.39995 256.3 -1.69995 256.9 -1.49995 257.4C11.3001 292.3 11.4001 330.8 -1.39995 365.8C-1.59995 366.3 -1.29995 366.9 -0.799945 367.1C-0.299945 367.3 0.300055 367 0.500055 366.5C13.4001 331.1 13.3001 292.1 0.300055 256.7C0.200055 256.3 -0.199945 256 -0.599945 256Z" fill="url(#paint23_linear)"/>
</g>
<defs>
<linearGradient id="paint0_linear" x1="294.915" y1="266.487" x2="-3.00181" y2="266.487" gradientUnits="userSpaceOnUse">
<stop offset="0.4115" stop-color="#D91AFF"/>
<stop offset="1" stop-color="#1AA4FF"/>
</linearGradient>
<linearGradient id="paint1_linear" x1="133.375" y1="534.411" x2="133.375" y2="-156.921" gradientUnits="userSpaceOnUse">
<stop offset="0.463542" stop-color="#19A3FF"/>
<stop offset="1" stop-color="#5BEB9D"/>
</linearGradient>
<linearGradient id="paint2_linear" x1="127.374" y1="528.245" x2="127.374" y2="-138.954" gradientUnits="userSpaceOnUse">
<stop offset="0.463542" stop-color="#19A3FF"/>
<stop offset="1" stop-color="#5BEB9D"/>
</linearGradient>
<linearGradient id="paint3_linear" x1="121.623" y1="521.778" x2="121.623" y2="-121.387" gradientUnits="userSpaceOnUse">
<stop offset="0.463542" stop-color="#19A3FF"/>
<stop offset="1" stop-color="#5BEB9D"/>
</linearGradient>
<linearGradient id="paint4_linear" x1="115.722" y1="515.312" x2="115.722" y2="-103.921" gradientUnits="userSpaceOnUse">
<stop offset="0.463542" stop-color="#19A3FF"/>
<stop offset="1" stop-color="#5BEB9D"/>
</linearGradient>
<linearGradient id="paint5_linear" x1="109.771" y1="508.645" x2="109.771" y2="-86.3534" gradientUnits="userSpaceOnUse">
<stop offset="0.463542" stop-color="#19A3FF"/>
<stop offset="1" stop-color="#5BEB9D"/>
</linearGradient>
<linearGradient id="paint6_linear" x1="103.72" y1="501.777" x2="103.72" y2="-68.5849" gradientUnits="userSpaceOnUse">
<stop offset="0.463542" stop-color="#19A3FF"/>
<stop offset="1" stop-color="#5BEB9D"/>
</linearGradient>
<linearGradient id="paint7_linear" x1="97.8687" y1="495.411" x2="97.8687" y2="-51.219" gradientUnits="userSpaceOnUse">
<stop offset="0.463542" stop-color="#19A3FF"/>
<stop offset="1" stop-color="#5BEB9D"/>
</linearGradient>
<linearGradient id="paint8_linear" x1="92.1176" y1="488.944" x2="92.1176" y2="-33.3514" gradientUnits="userSpaceOnUse">
<stop offset="0.463542" stop-color="#19A3FF"/>
<stop offset="1" stop-color="#5BEB9D"/>
</linearGradient>
<linearGradient id="paint9_linear" x1="86.2164" y1="482.175" x2="86.2164" y2="-15.0818" gradientUnits="userSpaceOnUse">
<stop offset="0.463542" stop-color="#19A3FF"/>
<stop offset="1" stop-color="#5BEB9D"/>
</linearGradient>
<linearGradient id="paint10_linear" x1="80.3654" y1="475.911" x2="80.3654" y2="1.78248" gradientUnits="userSpaceOnUse">
<stop offset="0.463542" stop-color="#19A3FF"/>
<stop offset="1" stop-color="#5BEB9D"/>
</linearGradient>
<linearGradient id="paint11_linear" x1="74.3643" y1="469.544" x2="74.3643" y2="19.7501" gradientUnits="userSpaceOnUse">
<stop offset="0.463542" stop-color="#19A3FF"/>
<stop offset="1" stop-color="#5BEB9D"/>
</linearGradient>
<linearGradient id="paint12_linear" x1="68.6132" y1="462.875" x2="68.6132" y2="37.7186" gradientUnits="userSpaceOnUse">
<stop offset="0.463542" stop-color="#19A3FF"/>
<stop offset="1" stop-color="#5BEB9D"/>
</linearGradient>
<linearGradient id="paint13_linear" x1="62.8621" y1="455.908" x2="62.8621" y2="55.1865" gradientUnits="userSpaceOnUse">
<stop offset="0.463542" stop-color="#19A3FF"/>
<stop offset="1" stop-color="#5BEB9D"/>
</linearGradient>
<linearGradient id="paint14_linear" x1="56.811" y1="449.741" x2="56.811" y2="73.1536" gradientUnits="userSpaceOnUse">
<stop offset="0.463542" stop-color="#19A3FF"/>
<stop offset="1" stop-color="#5BEB9D"/>
</linearGradient>
<linearGradient id="paint15_linear" x1="51.1599" y1="442.673" x2="51.1599" y2="90.9226" gradientUnits="userSpaceOnUse">
<stop offset="0.463542" stop-color="#19A3FF"/>
<stop offset="1" stop-color="#5BEB9D"/>
</linearGradient>
<linearGradient id="paint16_linear" x1="45.3088" y1="436.406" x2="45.3088" y2="108.689" gradientUnits="userSpaceOnUse">
<stop offset="0.463542" stop-color="#19A3FF"/>
<stop offset="1" stop-color="#5BEB9D"/>
</linearGradient>
<linearGradient id="paint17_linear" x1="39.1578" y1="430.042" x2="39.1578" y2="125.554" gradientUnits="userSpaceOnUse">
<stop offset="0.463542" stop-color="#19A3FF"/>
<stop offset="1" stop-color="#5BEB9D"/>
</linearGradient>
<linearGradient id="paint18_linear" x1="33.5567" y1="423.373" x2="33.5567" y2="143.923" gradientUnits="userSpaceOnUse">
<stop offset="0.463542" stop-color="#19A3FF"/>
<stop offset="1" stop-color="#5BEB9D"/>
</linearGradient>
<linearGradient id="paint19_linear" x1="27.6056" y1="416.906" x2="27.6056" y2="161.691" gradientUnits="userSpaceOnUse">
<stop offset="0.463542" stop-color="#19A3FF"/>
<stop offset="1" stop-color="#5BEB9D"/>
</linearGradient>
<linearGradient id="paint20_linear" x1="21.5045" y1="410.239" x2="21.5045" y2="178.957" gradientUnits="userSpaceOnUse">
<stop offset="0.463542" stop-color="#19A3FF"/>
<stop offset="1" stop-color="#5BEB9D"/>
</linearGradient>
<linearGradient id="paint21_linear" x1="15.5662" y1="401.565" x2="15.5662" y2="199.037" gradientUnits="userSpaceOnUse">
<stop offset="0.463542" stop-color="#19A3FF"/>
<stop offset="1" stop-color="#5BEB9D"/>
</linearGradient>
<linearGradient id="paint22_linear" x1="9.86667" y1="388.7" x2="9.86667" y2="222.839" gradientUnits="userSpaceOnUse">
<stop offset="0.463542" stop-color="#19A3FF"/>
<stop offset="1" stop-color="#5BEB9D"/>
</linearGradient>
<linearGradient id="paint23_linear" x1="4.27623" y1="367.472" x2="4.27623" y2="255.689" gradientUnits="userSpaceOnUse">
<stop offset="0.463542" stop-color="#19A3FF"/>
<stop offset="1" stop-color="#5BEB9D"/>
</linearGradient>
</defs>
</svg>
