<svg width="271" height="688" viewBox="0 0 271 688" fill="none" xmlns="http://www.w3.org/2000/svg">
<g clip-path="url(#clip0)">
<mask id="mask0" mask-type="alpha" maskUnits="userSpaceOnUse" x="2" y="-58" width="297" height="843">
<path d="M297.5 783.7H3.5V-56.3H297.5V783.7Z" fill="#C4C4C4" stroke="url(#paint0_linear)" stroke-width="2"/>
</mask>
<g mask="url(#mask0)">
<path d="M2.5 0C2.2 0 2 0.0999756 1.8 0.299988C1.4 0.700012 1.4 1.29999 1.8 1.70001L207 200.6C246.5 238.8 268.2 289.7 268.2 343.8C268.2 397.9 246.5 448.7 207 487L1.8 685.8C1.4 686.2 1.4 686.8 1.8 687.2C2.2 687.6 2.8 687.6 3.2 687.2L208.4 488.4C248.3 449.8 270.2 398.4 270.2 343.8C270.2 289.2 248.3 237.8 208.4 199.2L3.2 0.299988C3 0.0999756 2.7 0 2.5 0Z" fill="url(#paint1_linear)"/>
<path d="M2.60001 17.9C2.30001 17.9 2.10001 18 1.90001 18.2C1.50001 18.6 1.50001 19.2 1.90001 19.6L196 207.6C235 245.5 256.5 295.9 256.5 349.5C256.5 403.1 235 453.5 195.9 491.4L1.50001 679.7C1.10001 680.1 1.10001 680.7 1.50001 681.1C1.90001 681.5 2.50001 681.5 2.90001 681.1L197.3 492.7C236.8 454.4 258.5 403.5 258.5 349.4C258.5 295.3 236.8 244.4 197.3 206.1L3.30001 18.2C3.10001 18 2.80001 17.9 2.60001 17.9Z" fill="url(#paint2_linear)"/>
<path d="M2.50002 35.4C2.20002 35.4 2.00002 35.5 1.80002 35.7C1.40002 36.1 1.40002 36.7 1.80002 37.1L184.8 214.5C223.6 252.1 244.9 302 244.9 355.1C244.9 408.2 223.5 458.1 184.8 495.7L1.60002 673.3C1.20002 673.7 1.20002 674.3 1.60002 674.7C2.00002 675.1 2.60002 675.1 3.00002 674.7L186.2 497.2C225.4 459.2 246.9 408.8 246.9 355.1C246.9 301.5 225.3 251 186.2 213L3.20002 35.7C3.00002 35.5 2.70002 35.4 2.50002 35.4Z" fill="url(#paint3_linear)"/>
<path d="M2.20001 52.8C1.90001 52.8 1.70001 52.9 1.50001 53.1C1.10001 53.5 1.10001 54.1 1.50001 54.5L173.7 221.4C212.1 258.6 233.3 308.1 233.3 360.7C233.3 413.3 212.1 462.8 173.7 500L1.40001 666.9C1.00001 667.3 1.00001 667.9 1.40001 668.3C1.80001 668.7 2.40001 668.7 2.80001 668.3L175.1 501.4C213.9 463.8 235.3 413.8 235.3 360.7C235.3 307.5 213.9 257.6 175.1 220L2.90001 53.1C2.70001 52.9 2.40001 52.8 2.20001 52.8Z" fill="url(#paint4_linear)"/>
<path d="M2.1 70.3C1.8 70.3 1.6 70.4 1.4 70.6C1 71 1 71.6 1.4 72L162.5 228.1C200.5 265 221.5 314 221.5 366.1C221.5 418.2 200.5 467.2 162.5 504.1L1.3 660.3C0.9 660.7 0.9 661.3 1.3 661.7C1.7 662.1 2.3 662.1 2.7 661.7L163.9 505.5C202.3 468.3 223.5 418.7 223.5 366.1C223.5 313.4 202.3 263.9 163.9 226.7L2.8 70.6C2.6 70.4 2.4 70.3 2.1 70.3Z" fill="url(#paint5_linear)"/>
<path d="M1.89999 88C1.59999 88 1.39999 88.1 1.19999 88.3C0.799994 88.7 0.799994 89.3 1.19999 89.7L151.2 235C188.9 271.5 209.6 320 209.6 371.7C209.6 423.3 188.9 471.9 151.2 508.4L1.39999 653.5C0.999994 653.9 0.999994 654.5 1.39999 654.9C1.79999 655.3 2.39999 655.3 2.79999 654.9L152.5 509.8C190.6 472.9 211.5 423.9 211.5 371.7C211.5 319.5 190.5 270.5 152.5 233.6L2.59999 88.2C2.39999 88 2.09999 88 1.89999 88Z" fill="url(#paint6_linear)"/>
<path d="M1.70001 105.3C1.40001 105.3 1.20001 105.4 1.00001 105.6C0.600012 106 0.600012 106.6 1.00001 107L140.2 241.9C177.5 278.1 198 326.2 198 377.3C198 428.4 177.5 476.5 140.2 512.7L1.40001 647.2C1.00001 647.6 1.00001 648.2 1.40001 648.6C1.80001 649 2.40001 649 2.80001 648.6L141.6 514.1C179.3 477.5 200 428.9 200 377.2C200 325.5 179.2 276.9 141.6 240.3L2.40001 105.5C2.20001 105.3 1.90001 105.3 1.70001 105.3Z" fill="url(#paint7_linear)"/>
<path d="M1.90002 123.1C1.60002 123.1 1.40002 123.2 1.20002 123.4C0.800018 123.8 0.800018 124.4 1.20002 124.8L129 248.6C166 284.4 186.4 332.1 186.4 382.7C186.4 433.4 166 481 129 516.8L1.10002 640.8C0.700018 641.2 0.700018 641.8 1.10002 642.2C1.50002 642.6 2.10002 642.6 2.50002 642.2L130.4 518.3C167.8 482.1 188.4 433.9 188.4 382.7C188.4 331.5 167.8 283.4 130.4 247.1L2.60002 123.4C2.40002 123.2 2.20002 123.1 1.90002 123.1Z" fill="url(#paint8_linear)"/>
<path d="M2 141.3C1.7 141.3 1.5 141.4 1.3 141.6C0.9 142 0.9 142.6 1.3 143L117.7 255.7C154.3 291.2 174.5 338.3 174.5 388.5C174.5 438.7 154.3 485.8 117.7 521.3L1.3 634.1C0.9 634.5 0.9 635.1 1.3 635.5C1.7 635.9 2.3 635.9 2.7 635.5L119 522.8C156 487 176.4 439.3 176.4 388.6C176.4 337.9 156 290.2 119 254.4L2.7 141.6C2.5 141.4 2.2 141.3 2 141.3Z" fill="url(#paint9_linear)"/>
<path d="M1.80001 158.1C1.50001 158.1 1.30001 158.2 1.10001 158.4C0.700006 158.8 0.700006 159.4 1.10001 159.8L106.9 262.1C143.2 297.3 163.1 344 163.1 393.7C163.1 443.4 143.1 490.1 106.9 525.3L0.900006 627.9C0.500006 628.3 0.500006 628.9 0.900006 629.3C1.30001 629.7 1.90001 629.7 2.30001 629.3L108.3 526.6C144.9 491.1 165.1 443.8 165.1 393.6C165.1 343.4 144.9 296.2 108.3 260.6L2.50001 158.4C2.30001 158.2 2.10001 158.1 1.80001 158.1Z" fill="url(#paint10_linear)"/>
<path d="M1.7 176C1.4 176 1.2 176.1 1 176.3C0.6 176.7 0.6 177.3 1 177.7L95.5 269.3C131.4 304.1 151.1 350.4 151.1 399.5C151.1 448.7 131.3 494.9 95.5 529.7L0.8 621.6C0.4 622 0.4 622.6 0.8 623C1.2 623.4 1.8 623.4 2.2 623L97 531.3C133.3 496.1 153.2 449.4 153.2 399.6C153.2 349.8 133.2 303.1 97 267.9L2.4 176.3C2.2 176.1 2 176 1.7 176Z" fill="url(#paint11_linear)"/>
<path d="M2.00001 193.9C1.70001 193.9 1.50001 194 1.30001 194.2C0.900006 194.6 0.900006 195.2 1.30001 195.6L84.5 276.2C120 310.6 139.6 356.4 139.6 405.1C139.6 453.8 120 499.6 84.5 534L0.900006 615C0.500006 615.4 0.500006 616 0.900006 616.4C1.30001 616.8 1.90001 616.8 2.30001 616.4L85.9 535.4C121.8 500.6 141.6 454.3 141.6 405C141.6 355.8 121.8 309.5 85.9 274.6L2.70001 194.2C2.50001 194 2.30001 193.9 2.00001 193.9Z" fill="url(#paint12_linear)"/>
<path d="M1.70001 211.3C1.40001 211.3 1.20001 211.4 1.00001 211.6C0.600012 212 0.600012 212.6 1.00001 213L73.4 283.1C108.6 317.3 128 362.6 128 410.9C128 459.1 108.6 504.4 73.4 538.5L1.50001 608.1C1.10001 608.5 1.10001 609.1 1.50001 609.5C1.90001 609.9 2.50001 609.9 2.90001 609.5L74.8 539.8C110.4 505.4 130 459.6 130 410.8C130 362 110.4 316.1 74.8 281.6L2.40001 211.6C2.20001 211.4 2.00001 211.3 1.70001 211.3Z" fill="url(#paint13_linear)"/>
<path d="M1.60001 229.2C1.30001 229.2 1.10001 229.3 0.900006 229.5C0.500006 229.9 0.500006 230.5 0.900006 230.9L62 290.1C96.8 323.9 116 368.8 116 416.5C116 464.2 96.8 509.1 62 542.9L1.00001 602C0.600006 602.4 0.600006 603 1.00001 603.4C1.40001 603.8 2.00001 603.8 2.40001 603.4L63.4 544.3C98.6 510.1 118 464.7 118 416.5C118 368.2 98.6 322.9 63.4 288.7L2.30001 229.5C2.10001 229.3 1.90001 229.2 1.60001 229.2Z" fill="url(#paint14_linear)"/>
<path d="M1.89999 246.9C1.59999 246.9 1.39999 247 1.19999 247.2C0.799994 247.6 0.799994 248.2 1.19999 248.6L51 296.8C85.5 330.2 104.4 374.6 104.4 421.9C104.4 469.1 85.4 513.5 51 547L1.29999 595C0.899994 595.4 0.899994 596 1.29999 596.4C1.69999 596.8 2.29999 596.8 2.69999 596.4L52.3 548.3C87.2 514.5 106.4 469.6 106.4 421.8C106.4 374 87.2 329.1 52.3 295.3L2.59999 247.2C2.39999 247 2.09999 246.9 1.89999 246.9Z" fill="url(#paint15_linear)"/>
<path d="M1.90002 264.6C1.60002 264.6 1.40002 264.7 1.20002 264.9C0.800018 265.3 0.800018 265.9 1.20002 266.3L39.8 303.7C73.9 336.8 92.7 380.7 92.7 427.4C92.7 474.1 73.9 518.1 39.8 551.1L1.10002 588.8C0.700018 589.2 0.700018 589.8 1.10002 590.2C1.50002 590.6 2.10002 590.6 2.50002 590.2L41.3 552.6C75.8 519.2 94.8 474.7 94.8 427.4C94.8 380.1 75.8 335.6 41.3 302.2L2.60002 264.8C2.40002 264.7 2.20002 264.6 1.90002 264.6Z" fill="url(#paint16_linear)"/>
<path d="M1.20001 281.4C0.900012 281.4 0.700012 281.5 0.500012 281.7C0.100012 282.1 0.100012 282.7 0.500012 283.1L28.7 310.5C62.5 343.3 81.1 386.8 81.1 433.1C81.1 479.3 62.5 522.8 28.7 555.5L0.900012 582.5C0.500012 582.9 0.500012 583.5 0.900012 583.9C1.30001 584.3 1.90001 584.3 2.30001 583.9L30.1 556.9C64.3 523.9 83.1 479.9 83.1 433.1C83.1 386.2 64.3 342.2 30.1 309L1.90001 281.6C1.70001 281.5 1.40001 281.4 1.20001 281.4Z" fill="url(#paint17_linear)"/>
<path d="M1.70001 299.7C1.40001 299.7 1.20001 299.8 1.00001 300C0.600012 300.4 0.600012 301 1.00001 301.4L17.5 317.5C50.9 349.9 69.3 392.9 69.3 438.7C69.3 484.5 50.9 527.5 17.5 559.9L1.00001 575.9C0.600012 576.3 0.600012 576.9 1.00001 577.3C1.40001 577.7 2.00001 577.7 2.40001 577.3L19 561.2C52.8 528.4 71.4 484.9 71.4 438.6C71.4 392.3 52.8 348.7 19 316L2.40001 300C2.20001 299.8 1.90001 299.7 1.70001 299.7Z" fill="url(#paint18_linear)"/>
<path d="M1.7 317.4C1.4 317.4 1.2 317.5 1 317.7C0.6 318.1 0.6 318.7 1 319.1L6.4 324.4C39.4 356.4 57.6 399 57.6 444.3C57.6 489.6 39.5 532.1 6.4 564.1L0.8 569.5C0.4 569.9 0.4 570.5 0.8 570.9C1.2 571.3 1.8 571.3 2.2 570.9L7.8 565.5C41.2 533.1 59.7 490 59.7 444.2C59.7 398.4 41.3 355.3 7.8 322.9L2.4 317.6C2.2 317.5 2 317.4 1.7 317.4Z" fill="url(#paint19_linear)"/>
<path d="M1.10001 334.6C0.900006 334.6 0.600006 334.7 0.400006 334.9C6.10948e-06 335.3 6.10948e-06 335.9 0.400006 336.3C29.7 367.3 45.9 407.5 45.9 449.6C45.9 491.7 29.9 531.9 0.700006 562.9C0.300006 563.3 0.300006 563.9 0.700006 564.3C1.10001 564.7 1.70001 564.7 2.10001 564.3C31.7 533 47.9 492.3 47.9 449.7C47.9 407.1 31.5 366.4 1.80001 335.1C1.60001 334.7 1.40001 334.6 1.10001 334.6Z" fill="url(#paint20_linear)"/>
<path d="M1.00001 354.6C0.800007 354.6 0.600007 354.7 0.400007 354.8C7.06315e-06 355.1 -0.099993 355.8 0.200007 356.2C22.3 385 34.1 419.2 34.1 455.3C34.1 491.3 22.4 525.6 0.300007 554.4C7.06315e-06 554.8 7.06315e-06 555.5 0.500007 555.8C0.900007 556.1 1.60001 556.1 1.90001 555.6C24.3 526.5 36.1 491.8 36.1 455.3C36.1 418.8 24.2 384.1 1.80001 355C1.60001 354.8 1.30001 354.6 1.00001 354.6Z" fill="url(#paint21_linear)"/>
<path d="M1.2 378.3C1 378.3 0.900005 378.3 0.700005 378.4C0.200005 378.7 0.100005 379.3 0.300005 379.8C29.7 429.7 29.8 491.7 0.600005 541.7C0.300005 542.2 0.500005 542.8 1 543.1C1.5 543.4 2.1 543.2 2.4 542.7C32 492.1 31.9 429.3 2.1 378.8C1.9 378.4 1.6 378.3 1.2 378.3Z" fill="url(#paint22_linear)"/>
<path d="M1.89999 411C1.79999 411 1.69999 411 1.59999 411.1C1.09999 411.3 0.799994 411.9 0.999994 412.4C13.8 447.3 13.9 485.8 1.09999 520.8C0.899994 521.3 1.19999 521.9 1.69999 522.1C2.19999 522.3 2.79999 522 2.99999 521.5C15.9 486.1 15.8 447.1 2.79999 411.7C2.69999 411.3 2.29999 411 1.89999 411Z" fill="url(#paint23_linear)"/>
</g>
</g>
<defs>
<linearGradient id="paint0_linear" x1="297.415" y1="363.68" x2="-0.501806" y2="363.68" gradientUnits="userSpaceOnUse">
<stop offset="0.4115" stop-color="#D91AFF"/>
<stop offset="1" stop-color="#1AA4FF"/>
</linearGradient>
<linearGradient id="paint1_linear" x1="135.875" y1="689.411" x2="135.875" y2="-1.92105" gradientUnits="userSpaceOnUse">
<stop offset="0.473958" stop-color="#D919FF"/>
<stop offset="1" stop-color="#9A52FF"/>
</linearGradient>
<linearGradient id="paint2_linear" x1="129.874" y1="683.245" x2="129.874" y2="16.046" gradientUnits="userSpaceOnUse">
<stop offset="0.473958" stop-color="#D919FF"/>
<stop offset="1" stop-color="#9A52FF"/>
</linearGradient>
<linearGradient id="paint3_linear" x1="124.123" y1="676.778" x2="124.123" y2="33.6128" gradientUnits="userSpaceOnUse">
<stop offset="0.473958" stop-color="#D919FF"/>
<stop offset="1" stop-color="#9A52FF"/>
</linearGradient>
<linearGradient id="paint4_linear" x1="118.222" y1="670.312" x2="118.222" y2="51.0793" gradientUnits="userSpaceOnUse">
<stop offset="0.473958" stop-color="#D919FF"/>
<stop offset="1" stop-color="#9A52FF"/>
</linearGradient>
<linearGradient id="paint5_linear" x1="112.271" y1="663.645" x2="112.271" y2="68.6466" gradientUnits="userSpaceOnUse">
<stop offset="0.473958" stop-color="#D919FF"/>
<stop offset="1" stop-color="#9A52FF"/>
</linearGradient>
<linearGradient id="paint6_linear" x1="106.22" y1="656.777" x2="106.22" y2="86.4151" gradientUnits="userSpaceOnUse">
<stop offset="0.473958" stop-color="#D919FF"/>
<stop offset="1" stop-color="#9A52FF"/>
</linearGradient>
<linearGradient id="paint7_linear" x1="100.369" y1="650.411" x2="100.369" y2="103.781" gradientUnits="userSpaceOnUse">
<stop offset="0.473958" stop-color="#D919FF"/>
<stop offset="1" stop-color="#9A52FF"/>
</linearGradient>
<linearGradient id="paint8_linear" x1="94.6175" y1="643.944" x2="94.6175" y2="121.649" gradientUnits="userSpaceOnUse">
<stop offset="0.473958" stop-color="#D919FF"/>
<stop offset="1" stop-color="#9A52FF"/>
</linearGradient>
<linearGradient id="paint9_linear" x1="88.7164" y1="637.175" x2="88.7164" y2="139.918" gradientUnits="userSpaceOnUse">
<stop offset="0.473958" stop-color="#D919FF"/>
<stop offset="1" stop-color="#9A52FF"/>
</linearGradient>
<linearGradient id="paint10_linear" x1="82.8653" y1="630.911" x2="82.8653" y2="156.782" gradientUnits="userSpaceOnUse">
<stop offset="0.473958" stop-color="#D919FF"/>
<stop offset="1" stop-color="#9A52FF"/>
</linearGradient>
<linearGradient id="paint11_linear" x1="76.8642" y1="624.544" x2="76.8642" y2="174.75" gradientUnits="userSpaceOnUse">
<stop offset="0.473958" stop-color="#D919FF"/>
<stop offset="1" stop-color="#9A52FF"/>
</linearGradient>
<linearGradient id="paint12_linear" x1="71.1132" y1="617.875" x2="71.1132" y2="192.719" gradientUnits="userSpaceOnUse">
<stop offset="0.473958" stop-color="#D919FF"/>
<stop offset="1" stop-color="#9A52FF"/>
</linearGradient>
<linearGradient id="paint13_linear" x1="65.3621" y1="610.908" x2="65.3621" y2="210.187" gradientUnits="userSpaceOnUse">
<stop offset="0.473958" stop-color="#D919FF"/>
<stop offset="1" stop-color="#9A52FF"/>
</linearGradient>
<linearGradient id="paint14_linear" x1="59.311" y1="604.741" x2="59.311" y2="228.154" gradientUnits="userSpaceOnUse">
<stop offset="0.473958" stop-color="#D919FF"/>
<stop offset="1" stop-color="#9A52FF"/>
</linearGradient>
<linearGradient id="paint15_linear" x1="53.6598" y1="597.672" x2="53.6598" y2="245.923" gradientUnits="userSpaceOnUse">
<stop offset="0.473958" stop-color="#D919FF"/>
<stop offset="1" stop-color="#9A52FF"/>
</linearGradient>
<linearGradient id="paint16_linear" x1="47.8088" y1="591.406" x2="47.8088" y2="263.689" gradientUnits="userSpaceOnUse">
<stop offset="0.473958" stop-color="#D919FF"/>
<stop offset="1" stop-color="#9A52FF"/>
</linearGradient>
<linearGradient id="paint17_linear" x1="41.6577" y1="585.042" x2="41.6577" y2="280.554" gradientUnits="userSpaceOnUse">
<stop offset="0.473958" stop-color="#D919FF"/>
<stop offset="1" stop-color="#9A52FF"/>
</linearGradient>
<linearGradient id="paint18_linear" x1="36.0566" y1="578.373" x2="36.0566" y2="298.923" gradientUnits="userSpaceOnUse">
<stop offset="0.473958" stop-color="#D919FF"/>
<stop offset="1" stop-color="#9A52FF"/>
</linearGradient>
<linearGradient id="paint19_linear" x1="30.1055" y1="571.906" x2="30.1055" y2="316.691" gradientUnits="userSpaceOnUse">
<stop offset="0.473958" stop-color="#D919FF"/>
<stop offset="1" stop-color="#9A52FF"/>
</linearGradient>
<linearGradient id="paint20_linear" x1="24.0045" y1="565.239" x2="24.0045" y2="333.957" gradientUnits="userSpaceOnUse">
<stop offset="0.473958" stop-color="#D919FF"/>
<stop offset="1" stop-color="#9A52FF"/>
</linearGradient>
<linearGradient id="paint21_linear" x1="18.0662" y1="556.565" x2="18.0662" y2="354.037" gradientUnits="userSpaceOnUse">
<stop offset="0.473958" stop-color="#D919FF"/>
<stop offset="1" stop-color="#9A52FF"/>
</linearGradient>
<linearGradient id="paint22_linear" x1="12.3666" y1="543.7" x2="12.3666" y2="377.839" gradientUnits="userSpaceOnUse">
<stop offset="0.473958" stop-color="#D919FF"/>
<stop offset="1" stop-color="#9A52FF"/>
</linearGradient>
<linearGradient id="paint23_linear" x1="6.77617" y1="522.472" x2="6.77617" y2="410.689" gradientUnits="userSpaceOnUse">
<stop offset="0.473958" stop-color="#D919FF"/>
<stop offset="1" stop-color="#9A52FF"/>
</linearGradient>
<clipPath id="clip0">
<rect width="270.2" height="687.5" fill="white" transform="matrix(1 0 0 -1 0 687.5)"/>
</clipPath>
</defs>
</svg>
